<svg width="264" height="161" viewBox="0 0 264 161" fill="none" xmlns="http://www.w3.org/2000/svg">
<path d="M264 62.217V52.783C264 50.984 263.283 49.2588 262.006 47.9867C260.729 46.7146 258.997 46 257.191 46H227.926C227.032 46 226.147 45.8245 225.321 45.4837C224.494 45.1428 223.744 44.6432 223.111 44.0133C222.479 43.3834 221.978 42.6357 221.635 41.8127C221.293 40.9898 221.117 40.1077 221.117 39.217V29.783C221.117 27.9841 221.834 26.2588 223.111 24.9867C224.388 23.7146 226.12 23 227.926 23H239.144C240.95 23 242.682 22.2854 243.959 21.0133C245.236 19.7412 245.954 18.0159 245.954 16.217V6.78302C245.954 4.98405 245.236 3.25877 243.959 1.9867C242.682 0.71464 240.95 1.3816e-06 239.144 0H38.3713C36.5653 0 34.8333 0.714639 33.5563 1.9867C32.2793 3.25877 31.5619 4.98405 31.5619 6.78302V16.217C31.5619 18.0159 32.2793 19.7412 33.5563 21.0133C34.8333 22.2854 36.5653 23 38.3713 23C40.1772 23 41.9092 23.7146 43.1862 24.9867C44.4632 26.2588 45.1806 27.9841 45.1806 29.783V39.217C45.1806 41.0159 44.4632 42.7412 43.1862 44.0133C41.9092 45.2854 40.1772 46 38.3713 46H6.80935C5.0034 46 3.27142 46.7146 1.99441 47.9867C0.717414 49.2588 0 50.984 0 52.783V62.217C2.77393e-06 64.0159 0.717418 65.7412 1.99442 67.0133C3.27142 68.2853 5.0034 69 6.80935 69H38.06C38.9543 69 39.8397 69.1754 40.6659 69.5163C41.492 69.8572 42.2427 70.3568 42.875 70.9867C43.5073 71.6165 44.0089 72.3643 44.3511 73.1873C44.6933 74.0102 44.8694 74.8922 44.8694 75.783V85.217C45.0363 93.8496 26.1321 92 22.3714 92H22.3464C20.5404 92 18.8085 92.7147 17.5315 93.9867C16.2545 95.2588 15.537 96.9841 15.537 98.783V108.217C15.537 110.016 16.2545 111.741 17.5315 113.013C18.8085 114.285 20.5404 115 22.3464 115H39.53C41.3359 115 43.0679 115.715 44.3449 116.987C45.6219 118.259 46.3393 119.984 46.3393 121.783V131.217C46.3393 133.016 45.6219 134.741 44.3449 136.013C43.0679 137.285 41.3359 138 39.53 138H20.2258C18.4199 138 16.6879 138.715 15.4109 139.987C14.1339 141.259 13.4165 142.984 13.4165 144.783V154.217C13.4165 156.016 14.1339 157.741 15.4109 159.013C16.6879 160.285 18.4199 161 20.2258 161H237.571C239.377 161 241.109 160.285 242.386 159.013C243.663 157.741 244.38 156.016 244.38 154.217V144.783C244.38 142.984 243.663 141.259 242.386 139.987C241.109 138.715 239.377 138 237.571 138H226.437C224.631 138 222.899 137.285 221.622 136.013C220.345 134.741 219.628 133.016 219.628 131.217V121.783C219.628 119.984 220.345 118.259 221.622 116.987C222.899 115.715 224.631 115 226.437 115H245.588C247.394 115 249.126 114.285 250.403 113.013C251.68 111.741 252.397 110.016 252.397 108.217V98.783C252.397 96.9841 251.68 95.2588 250.403 93.9867C249.126 92.7147 247.394 92 245.588 92H236.135C234.329 92 232.597 91.2854 231.32 90.0133C230.043 88.7413 229.326 87.016 229.326 85.217V75.783C229.326 74.8923 229.502 74.0102 229.844 73.1873C230.186 72.3643 230.688 71.6165 231.32 70.9867C231.952 70.3568 232.703 69.8572 233.529 69.5163C234.355 69.1754 235.241 69 236.135 69H257.191C258.997 69 260.729 68.2853 262.006 67.0133C263.283 65.7412 264 64.0159 264 62.217Z" fill="#DBE8EC"/>
</svg>
