<svg width="9" height="15" viewBox="0 0 9 15" fill="none" xmlns="http://www.w3.org/2000/svg">
<path d="M8.45315 0.394638C8.57769 0.51892 8.67649 0.666543 8.7439 0.829058C8.81132 0.991572 8.84602 1.16579 8.84602 1.34173C8.84602 1.51767 8.81132 1.69188 8.7439 1.8544C8.67649 2.01691 8.57769 2.16454 8.45315 2.28882L3.24079 7.50118L8.45315 12.7135C8.70433 12.9647 8.84545 13.3054 8.84545 13.6606C8.84545 14.0159 8.70433 14.3565 8.45315 14.6077C8.20196 14.8589 7.86129 15 7.50606 15C7.15083 15 6.81015 14.8589 6.55897 14.6077L0.3928 8.44155C0.268263 8.31727 0.16946 8.16965 0.102046 8.00713C0.0346335 7.84462 -6.5339e-05 7.6704 -6.5339e-05 7.49446C-6.5339e-05 7.31852 0.0346335 7.1443 0.102046 6.98179C0.16946 6.81928 0.268263 6.67165 0.3928 6.54737L6.55897 0.381203C7.06946 -0.129285 7.92923 -0.129285 8.45315 0.394638Z" fill="#142433"/>
</svg>
