<svg width="27" height="27" viewBox="0 0 27 27" fill="none" xmlns="http://www.w3.org/2000/svg">
<mask id="mask0_312_918" style="mask-type:alpha" maskUnits="userSpaceOnUse" x="-3" y="-3" width="33" height="33">
<rect x="-2.7" y="-2.69996" width="32.4" height="32.4" fill="#D9D9D9"/>
</mask>
<g mask="url(#mask0_312_918)">
<path d="M13.5 27C11.6325 27 9.8775 26.6456 8.235 25.9369C6.5925 25.2281 5.16375 24.2663 3.94875 23.0513C2.73375 21.8363 1.77188 20.4075 1.06313 18.765C0.354375 17.1225 0 15.3675 0 13.5C0 11.6325 0.354375 9.8775 1.06313 8.235C1.77188 6.5925 2.73375 5.16375 3.94875 3.94875C5.16375 2.73375 6.5925 1.77188 8.235 1.06313C9.8775 0.354375 11.6325 0 13.5 0C15.3675 0 17.1225 0.354375 18.765 1.06313C20.4075 1.77188 21.8363 2.73375 23.0513 3.94875C24.2663 5.16375 25.2281 6.5925 25.9369 8.235C26.6456 9.8775 27 11.6325 27 13.5C27 15.3675 26.6456 17.1225 25.9369 18.765C25.2281 20.4075 24.2663 21.8363 23.0513 23.0513C21.8363 24.2663 20.4075 25.2281 18.765 25.9369C17.1225 26.6456 15.3675 27 13.5 27ZM13.5 24.3C14.715 24.3 15.885 24.1031 17.01 23.7094C18.135 23.3156 19.17 22.7475 20.115 22.005L4.995 6.885C4.2525 7.83 3.68438 8.865 3.29063 9.99C2.89688 11.115 2.7 12.285 2.7 13.5C2.7 16.515 3.74625 19.0688 5.83875 21.1613C7.93125 23.2538 10.485 24.3 13.5 24.3ZM22.005 20.115C22.7475 19.17 23.3156 18.135 23.7094 17.01C24.1031 15.885 24.3 14.715 24.3 13.5C24.3 10.485 23.2538 7.93125 21.1613 5.83875C19.0688 3.74625 16.515 2.7 13.5 2.7C12.285 2.7 11.115 2.89688 9.99 3.29063C8.865 3.68438 7.83 4.2525 6.885 4.995L22.005 20.115Z" fill="#224971"/>
</g>
</svg>
