<svg width="30" height="30" viewBox="0 0 30 30" fill="none" xmlns="http://www.w3.org/2000/svg">
<g clip-path="url(#clip0_141_138)" filter="url(#filter0_d_141_138)">
<path d="M14.4798 3.84111C14.6204 3.70066 14.811 3.62177 15.0098 3.62177C15.2085 3.62177 15.3991 3.70066 15.5398 3.84111L24.2298 12.5311C24.299 12.6027 24.3818 12.6598 24.4733 12.6991C24.5648 12.7383 24.6632 12.759 24.7628 12.7598C24.8624 12.7606 24.9612 12.7416 25.0533 12.7038C25.1455 12.6661 25.2292 12.6104 25.2996 12.5399C25.37 12.4694 25.4256 12.3857 25.4633 12.2935C25.5009 12.2013 25.5199 12.1025 25.519 12.003C25.518 11.9034 25.4973 11.805 25.458 11.7135C25.4186 11.622 25.3614 11.5393 25.2898 11.4701L16.6008 2.78011C16.3918 2.57118 16.1438 2.40544 15.8708 2.29237C15.5978 2.17929 15.3052 2.12109 15.0098 2.12109C14.7143 2.12109 14.4217 2.17929 14.1487 2.29237C13.8757 2.40544 13.6277 2.57118 13.4188 2.78011L4.72877 11.4701C4.65717 11.5393 4.60007 11.6221 4.56081 11.7136C4.52155 11.8052 4.5009 11.9036 4.50009 12.0032C4.49927 12.1028 4.51829 12.2015 4.55605 12.2937C4.5938 12.3858 4.64953 12.4695 4.71998 12.5399C4.79043 12.6103 4.8742 12.6659 4.96639 12.7036C5.05858 12.7413 5.15735 12.7602 5.25693 12.7593C5.35651 12.7584 5.45492 12.7377 5.5464 12.6983C5.63789 12.659 5.72062 12.6018 5.78977 12.5301L14.4798 3.84111Z" fill="#224971" fill-opacity="0.5"/>
<path d="M15.0098 5.43213L23.1688 13.5911C23.1988 13.6211 23.2288 13.6491 23.2598 13.6771V19.8751C23.2598 20.9101 22.4198 21.7501 21.3848 21.7501H18.0098C17.8109 21.7501 17.6201 21.6711 17.4794 21.5305C17.3388 21.3898 17.2598 21.199 17.2598 21.0001V16.5001C17.2598 16.3012 17.1807 16.1105 17.0401 15.9698C16.8994 15.8291 16.7087 15.7501 16.5098 15.7501H13.5098C13.3109 15.7501 13.1201 15.8291 12.9794 15.9698C12.8388 16.1105 12.7598 16.3012 12.7598 16.5001V21.0001C12.7598 21.199 12.6807 21.3898 12.5401 21.5305C12.3994 21.6711 12.2087 21.7501 12.0098 21.7501H8.63477C8.13748 21.7501 7.66057 21.5526 7.30894 21.201C6.95731 20.8493 6.75977 20.3724 6.75977 19.8751V13.6771C6.79088 13.6493 6.82122 13.6206 6.85077 13.5911L15.0098 5.43213Z" fill="#224971" fill-opacity="0.5"/>
</g>
<defs>
<filter id="filter0_d_141_138" x="-2.5" y="0" width="32" height="32" filterUnits="userSpaceOnUse" color-interpolation-filters="sRGB">
<feFlood flood-opacity="0" result="BackgroundImageFix"/>
<feColorMatrix in="SourceAlpha" type="matrix" values="0 0 0 0 0 0 0 0 0 0 0 0 0 0 0 0 0 0 127 0" result="hardAlpha"/>
<feOffset dy="4"/>
<feGaussianBlur stdDeviation="2"/>
<feComposite in2="hardAlpha" operator="out"/>
<feColorMatrix type="matrix" values="0 0 0 0 0 0 0 0 0 0 0 0 0 0 0 0 0 0 0.25 0"/>
<feBlend mode="normal" in2="BackgroundImageFix" result="effect1_dropShadow_141_138"/>
<feBlend mode="normal" in="SourceGraphic" in2="effect1_dropShadow_141_138" result="shape"/>
</filter>
<clipPath id="clip0_141_138">
<rect width="24" height="24" fill="white" transform="translate(1.5)"/>
</clipPath>
</defs>
</svg>
