<svg width="14" height="14" viewBox="0 0 14 14" fill="none" xmlns="http://www.w3.org/2000/svg">
<path d="M7 12.25C5.65833 12.25 4.48933 11.8053 3.493 10.9159C2.49667 10.0265 1.92539 8.91567 1.77917 7.58333H2.975C3.11111 8.59444 3.56086 9.43055 4.32425 10.0917C5.08764 10.7528 5.97956 11.0833 7 11.0833C8.1375 11.0833 9.10253 10.6872 9.89508 9.89508C10.6876 9.10292 11.0837 8.13789 11.0833 7C11.0833 5.8625 10.6872 4.89767 9.89508 4.1055C9.10292 3.31333 8.13789 2.91706 7 2.91667C6.32917 2.91667 5.70208 3.07222 5.11875 3.38333C4.53542 3.69444 4.04444 4.12222 3.64583 4.66667H5.25V5.83333H1.75V2.33333H2.91667V3.70417C3.4125 3.08194 4.01781 2.60069 4.73258 2.26042C5.44736 1.92014 6.20317 1.75 7 1.75C7.72917 1.75 8.41225 1.88864 9.04925 2.16592C9.68625 2.44319 10.2404 2.81731 10.7118 3.28825C11.1831 3.75997 11.5574 4.31414 11.8347 4.95075C12.1119 5.58736 12.2504 6.27044 12.25 7C12.25 7.72917 12.1116 8.41225 11.8347 9.04925C11.5578 9.68625 11.1835 10.2404 10.7118 10.7118C10.24 11.1831 9.68586 11.5574 9.04925 11.8347C8.41264 12.1119 7.72956 12.2504 7 12.25ZM8.63333 9.45L6.41667 7.23333V4.08333H7.58333V6.76667L9.45 8.63333L8.63333 9.45Z" fill="#6D7379"/>
</svg>
