<svg width="280" height="269" viewBox="0 0 280 269" fill="none" xmlns="http://www.w3.org/2000/svg">
<path d="M238.671 130.164C183.82 98.4946 95.1817 98.4946 40.6836 130.164C-13.8146 161.833 -13.521 213.179 41.3293 244.848C96.1796 276.518 184.818 276.547 239.316 244.848C293.815 213.15 293.521 161.833 238.671 130.164Z" fill="#F5F5F5"/>
<path d="M227.418 183.429L181.631 157.014L126 189.117C125.668 189.309 125.393 189.585 125.202 189.917C125.01 190.248 124.91 190.625 124.91 191.008C124.91 191.391 125.01 191.767 125.202 192.099C125.393 192.43 125.668 192.706 126 192.898L141.027 201.562C131.77 200.459 121.779 201.979 114.612 206.141C103.306 212.709 103.365 223.358 114.741 229.926C126.117 236.495 144.508 236.495 155.832 229.926C162.993 225.765 165.588 219.947 163.639 214.6L166.369 216.179C168.026 217.135 169.906 217.638 171.819 217.638C173.732 217.638 175.612 217.135 177.269 216.179L227.429 187.221C227.763 187.029 228.04 186.753 228.232 186.419C228.425 186.085 228.525 185.707 228.524 185.322C228.523 184.937 228.42 184.559 228.226 184.227C228.031 183.894 227.753 183.619 227.418 183.429Z" fill="#E0E0E0"/>
<path d="M232.002 232.304L201.478 214.693C201.27 214.576 201.098 214.405 200.978 214.199C200.857 213.992 200.794 213.758 200.794 213.519C200.794 213.281 200.857 213.046 200.978 212.84C201.098 212.634 201.27 212.463 201.478 212.345L228.374 196.66C228.581 196.542 228.815 196.48 229.052 196.48C229.29 196.48 229.524 196.542 229.73 196.66L260.954 214.687C261.161 214.805 261.334 214.976 261.454 215.182C261.574 215.389 261.637 215.623 261.637 215.862C261.637 216.1 261.574 216.335 261.454 216.541C261.334 216.747 261.161 216.918 260.954 217.036L234.708 232.298C234.298 232.537 233.831 232.663 233.356 232.664C232.881 232.665 232.414 232.541 232.002 232.304Z" fill="#E0E0E0"/>
<g opacity="0.1">
<path d="M25.3274 205.624C23.8657 206.464 23.8598 207.831 25.3274 208.671L31.2855 212.111C32.1031 212.529 33.0085 212.748 33.9271 212.748C34.8457 212.748 35.7511 212.529 36.5686 212.111L101.897 174.354C103.353 173.515 103.365 172.147 101.897 171.302L95.9742 167.897C95.156 167.48 94.2508 167.263 93.3326 167.263C92.4144 167.263 91.5092 167.48 90.6911 167.897L25.3274 205.624Z" fill="#E0E0E0"/>
</g>
<g opacity="0.1">
<path d="M43.6597 211.042C42.1981 211.882 42.1922 213.25 43.6597 214.089L49.6003 217.529C50.4176 217.949 51.3231 218.167 52.2418 218.167C53.1606 218.167 54.0661 217.949 54.8834 217.529L110.702 185.29C112.158 184.451 112.17 183.083 110.702 182.238L104.744 178.798C103.926 178.382 103.021 178.165 102.103 178.165C101.184 178.165 100.279 178.382 99.461 178.798L43.6597 211.042Z" fill="#E0E0E0"/>
</g>
<path d="M187.049 65.4283L186.979 90.0769L188.352 90.8694L188.423 66.2208L187.049 65.4283Z" fill="#E0E0E0"/>
<path d="M188.423 66.2149V66.2208L188.352 90.8694L189.544 90.1767L189.608 66.9017L188.423 66.2149Z" fill="#F0F0F0"/>
<path opacity="0.2" d="M188.423 67.3244V66.2208L187.049 65.4283V66.5319L188.423 67.3244Z" fill="black"/>
<path opacity="0.2" d="M188.423 67.3244L189.379 66.7726L188.423 66.2149V66.2208V67.3244Z" fill="black"/>
<path d="M187.049 39.0128L186.979 63.6614L188.352 64.448L188.423 39.7993L187.049 39.0128Z" fill="#E0E0E0"/>
<path d="M188.423 39.7993L188.352 64.4479L189.544 63.7552L189.608 40.4861L188.423 39.7993Z" fill="#F0F0F0"/>
<path opacity="0.2" d="M188.423 40.9088V39.7993L187.049 39.0128V40.1163L188.423 40.9088Z" fill="black"/>
<path opacity="0.2" d="M188.423 40.9088L189.379 40.357L188.423 39.7993V40.9088Z" fill="black"/>
<path d="M187.049 12.5913L186.979 37.2399L188.352 38.0324L188.423 13.3838L187.049 12.5913Z" fill="#E0E0E0"/>
<path d="M188.423 13.3838L188.352 38.0324L189.544 37.3397L189.608 14.0706L188.423 13.3838Z" fill="#F0F0F0"/>
<path opacity="0.2" d="M188.423 14.4932V13.3838L187.049 12.5913V13.7008L188.423 14.4932Z" fill="black"/>
<path opacity="0.2" d="M188.423 14.4932L189.379 13.9356L188.423 13.3838V14.4932Z" fill="black"/>
<path d="M215.883 82.3105L217.075 81.6179L217.01 106.266L215.813 106.959L215.883 82.3105Z" fill="#F0F0F0"/>
<path d="M215.813 106.959L217.01 106.267L251.391 126.119L250.2 126.812L215.813 106.959Z" fill="#F5F5F5"/>
<path d="M214.515 79.9449L251.644 101.383L251.567 129.183L214.439 107.746L214.515 79.9449ZM250.2 126.806L250.27 102.152L215.883 82.3106L215.813 106.965L250.2 126.806Z" fill="#E0E0E0"/>
<path d="M214.515 79.9449L215.713 79.2523L252.841 100.69L251.644 101.383L214.515 79.9449Z" fill="#F5F5F5"/>
<path d="M251.644 101.383L252.841 100.69L252.759 128.491L251.567 129.183L251.644 101.383Z" fill="#F0F0F0"/>
<path d="M232.39 91.8438L232.319 116.492L233.693 117.285L233.763 92.6362L232.39 91.8438Z" fill="#E0E0E0"/>
<path d="M233.763 92.6362L233.693 117.285L234.884 116.592L234.949 93.323L233.763 92.6362Z" fill="#F0F0F0"/>
<path opacity="0.2" d="M233.757 93.7398L233.763 92.6362L232.39 91.8438V92.9473L233.757 93.7398Z" fill="black"/>
<path opacity="0.2" d="M233.757 93.7398L234.72 93.188L233.763 92.6362L233.757 93.7398Z" fill="black"/>
<path d="M215.883 55.8952L217.075 55.2025L217.01 79.8511L215.813 80.5438L215.883 55.8952Z" fill="#F0F0F0"/>
<path d="M215.813 80.5438L217.01 79.8511L251.391 99.7039L250.2 100.397L215.813 80.5438Z" fill="#F5F5F5"/>
<path d="M214.515 53.5295L251.644 74.9613L251.567 102.768L214.439 81.3304L214.515 53.5295ZM250.2 100.391L250.27 75.7362L215.883 55.8952L215.813 80.5497L250.2 100.391Z" fill="#E0E0E0"/>
<path d="M214.515 53.5295L215.713 52.8369L252.841 74.2686L251.644 74.9672L214.515 53.5295Z" fill="#F5F5F5"/>
<path d="M251.644 74.9671L252.841 74.2686L252.759 102.075L251.567 102.762L251.644 74.9671Z" fill="#F0F0F0"/>
<path d="M232.39 65.4283L232.319 90.0769L233.693 90.8694L233.763 66.2208L232.39 65.4283Z" fill="#E0E0E0"/>
<path d="M233.763 66.2149V66.2208L233.693 90.8694L234.884 90.1767L234.949 66.9017L233.763 66.2149Z" fill="#F0F0F0"/>
<path opacity="0.2" d="M233.757 67.3244L233.763 66.2208L232.39 65.4283V66.5319L233.757 67.3244Z" fill="black"/>
<path opacity="0.2" d="M233.757 67.3244L234.72 66.7726L233.763 66.2149V66.2208L233.757 67.3244Z" fill="black"/>
<path d="M215.883 29.4797L217.075 28.787L217.01 53.4356L215.813 54.1283L215.883 29.4797Z" fill="#F0F0F0"/>
<path d="M215.813 54.1282L217.01 53.4355L251.391 73.2883L250.2 73.9809L215.813 54.1282Z" fill="#F5F5F5"/>
<path d="M214.515 27.1141L251.644 48.5459L251.567 76.3232L214.439 54.8914L214.515 27.1141ZM250.2 73.9752L250.27 49.3207L215.883 29.4797L215.813 54.1342L250.2 73.9752Z" fill="#E0E0E0"/>
<path d="M214.515 27.1141L215.713 26.4155L252.841 47.8532L251.644 48.5458L214.515 27.1141Z" fill="#F5F5F5"/>
<path d="M251.644 48.5459L252.841 47.8532L252.759 75.6541L251.567 76.3467L251.644 48.5459Z" fill="#F0F0F0"/>
<path d="M232.39 39.0128L232.319 63.6614L233.693 64.448L233.763 39.7993L232.39 39.0128Z" fill="#E0E0E0"/>
<path d="M233.763 39.7993L233.693 64.4479L234.884 63.7552L234.949 40.4861L233.763 39.7993Z" fill="#F0F0F0"/>
<path opacity="0.2" d="M233.757 40.9088L233.763 39.7993L232.39 39.0128V40.1163L233.757 40.9088Z" fill="black"/>
<path opacity="0.2" d="M233.757 40.9088L234.72 40.357L233.763 39.7993L233.757 40.9088Z" fill="black"/>
<path d="M170.548 55.8951L171.74 55.2025L171.669 79.8511L170.478 80.5437L170.548 55.8951Z" fill="#F0F0F0"/>
<path d="M170.478 80.5438L171.669 79.8511L206.05 99.7039L204.859 100.397L170.478 80.5438Z" fill="#F5F5F5"/>
<path d="M169.18 53.5295L206.332 74.9613L206.25 102.768L169.122 81.3304L169.18 53.5295ZM204.859 100.391L204.929 75.7362L170.525 55.8952L170.454 80.5497L204.859 100.391Z" fill="#E0E0E0"/>
<path d="M169.18 53.5295L170.372 52.8369L207.5 74.2686L206.309 74.9672L169.18 53.5295Z" fill="#F5F5F5"/>
<path d="M206.309 74.9672L207.5 74.2687L207.418 102.075L206.227 102.762L206.309 74.9672Z" fill="#F0F0F0"/>
<path d="M170.548 29.4798L171.74 28.7871L171.669 53.4357L170.478 54.1284L170.548 29.4798Z" fill="#F0F0F0"/>
<path d="M170.478 54.1283L171.669 53.4356L206.05 73.2883L204.859 73.981L170.478 54.1283Z" fill="#F5F5F5"/>
<path d="M169.18 27.1141L206.332 48.5459L206.227 76.3232L169.098 54.8914L169.18 27.1141ZM204.859 73.9752L204.929 49.3207L170.525 29.4797L170.454 54.1342L204.859 73.9752Z" fill="#E0E0E0"/>
<path d="M169.18 27.1141L170.372 26.4155L207.5 47.8532L206.309 48.5458L169.18 27.1141Z" fill="#F5F5F5"/>
<path d="M206.309 48.5459L207.5 47.8532L207.418 75.6541L206.227 76.3467L206.309 48.5459Z" fill="#F0F0F0"/>
<path d="M170.548 3.06419L171.74 2.37152L171.669 27.0201L170.478 27.7128L170.548 3.06419Z" fill="#F0F0F0"/>
<path d="M170.478 27.7128L171.669 27.0201L206.05 46.8729L204.859 47.5655L170.478 27.7128Z" fill="#F5F5F5"/>
<path d="M169.18 0.692688L206.332 22.1303L206.227 49.9077L169.098 28.4935L169.18 0.692688ZM204.859 47.5597L204.929 22.9052L170.525 3.06421L170.454 27.7187L204.859 47.5597Z" fill="#E0E0E0"/>
<path d="M169.18 0.692674L170.372 0L207.5 21.4377L206.309 22.1303L169.18 0.692674Z" fill="#F5F5F5"/>
<path d="M206.309 22.1304L207.5 21.4377L207.418 49.2385L206.227 49.9312L206.309 22.1304Z" fill="#F0F0F0"/>
<path d="M97.4123 24.1437C96.9545 22.5411 93.7083 19.5004 90.4739 19.565C90.1628 19.5722 89.8552 19.6317 89.564 19.7411L26.7538 55.4842C25.8382 56.0175 25.0767 56.7792 24.5437 57.695C24.0107 58.6107 23.7245 59.6491 23.7131 60.7086V196.602C23.7131 200.065 27.7047 203.364 31.4557 201.779C31.5393 201.755 31.62 201.721 31.6964 201.679L94.5066 165.872C95.4271 165.345 96.1921 164.584 96.724 163.667C97.2559 162.75 97.5359 161.708 97.5356 160.647V24.7952C97.5442 24.5715 97.502 24.3488 97.4123 24.1437Z" fill="#455A64"/>
<path d="M32.4713 75.067C32.4702 74.5365 32.6098 74.0153 32.8759 73.5564C33.142 73.0975 33.5249 72.7174 33.9858 72.4548L92.323 39.2652C92.5518 39.1344 92.811 39.0661 93.0746 39.0672C93.3382 39.0683 93.5968 39.1387 93.8246 39.2713C94.0524 39.4039 94.2413 39.5941 94.3723 39.8228C94.5034 40.0515 94.572 40.3106 94.5712 40.5742V150.157C94.5693 150.688 94.4278 151.209 94.1609 151.667C93.894 152.126 93.5112 152.506 93.0509 152.77L34.7137 186.012C34.485 186.141 34.2264 186.208 33.9637 186.207C33.701 186.205 33.4433 186.134 33.2164 186.002C32.9896 185.869 32.8014 185.68 32.6706 185.452C32.5399 185.224 32.4711 184.966 32.4713 184.703V75.067Z" fill="#224971"/>
<path opacity="0.2" d="M32.4713 75.067C32.4702 74.5365 32.6098 74.0153 32.8759 73.5564C33.142 73.0975 33.5249 72.7174 33.9858 72.4548L92.323 39.2652C92.5518 39.1344 92.811 39.0661 93.0746 39.0672C93.3382 39.0683 93.5968 39.1387 93.8246 39.2713C94.0524 39.4039 94.2413 39.5941 94.3723 39.8228C94.5034 40.0515 94.572 40.3106 94.5712 40.5742V150.157C94.5693 150.688 94.4278 151.209 94.1609 151.667C93.894 152.126 93.5112 152.506 93.0509 152.77L34.7137 186.012C34.485 186.141 34.2264 186.208 33.9637 186.207C33.701 186.205 33.4433 186.134 33.2164 186.002C32.9896 185.869 32.8014 185.68 32.6706 185.452C32.5399 185.224 32.4711 184.966 32.4713 184.703V75.067Z" fill="black"/>
<path opacity="0.3" d="M23.7014 60.7028V196.602C23.7014 200.065 27.693 203.364 31.444 201.779C31.2186 201.861 30.9767 201.888 30.7388 201.857C30.5009 201.825 30.2741 201.737 30.0776 201.599C29.8811 201.462 29.7208 201.279 29.6102 201.066C29.4996 200.853 29.442 200.616 29.4423 200.376V64.4596C29.4468 63.2772 29.7978 62.1221 30.452 61.1371L24.3588 58.0671C23.9392 58.8831 23.7142 59.7852 23.7014 60.7028Z" fill="black"/>
<path opacity="0.1" d="M90.4798 19.5591C90.1687 19.5663 89.8611 19.6258 89.5699 19.7352L26.7597 55.4783C25.7178 56.0808 24.8813 56.9828 24.3588 58.067L30.5048 61.1371C31.0233 60.3546 31.7166 59.7035 32.53 59.2351L95.3285 23.492C95.5064 23.3905 95.7034 23.3267 95.9071 23.3047C96.1107 23.2827 96.3168 23.3029 96.5123 23.364C96.7078 23.4252 96.8887 23.5259 97.0435 23.6601C97.1984 23.7942 97.3239 23.9588 97.4124 24.1436C96.9604 22.5352 93.7142 19.4945 90.4798 19.5591Z" fill="white"/>
<path d="M71.261 45.9335C71.7013 45.6752 72.0711 45.8748 72.0711 46.3796C72.057 46.6587 71.9767 46.9304 71.8369 47.1723C71.6971 47.4142 71.5017 47.6194 71.2669 47.7709L58.9396 54.8913C58.4994 55.1437 58.1413 54.9324 58.1413 54.4217C58.1568 54.1467 58.2365 53.8792 58.3742 53.6407C58.5118 53.4021 58.7035 53.1991 58.9338 53.0481L71.261 45.9335Z" fill="#263238"/>
<path d="M55.7698 54.8738C56.21 54.6213 56.5681 54.8268 56.5681 55.3316C56.5544 55.6086 56.4755 55.8785 56.3378 56.1192C56.2001 56.36 56.0075 56.5648 55.7757 56.717C55.3354 56.9694 54.9656 56.7639 54.9656 56.2532C54.9815 55.9762 55.0626 55.7068 55.2023 55.4671C55.3421 55.2274 55.5365 55.0241 55.7698 54.8738Z" fill="#263238"/>
<path d="M63.6886 44.8945C64.5691 44.3897 65.2794 44.7947 65.2852 45.8044C65.2579 46.3584 65.1001 46.8981 64.8247 47.3796C64.5493 47.8611 64.164 48.2707 63.7003 48.5751C62.8198 49.0858 62.086 48.669 62.086 47.6535C62.1171 47.0999 62.2785 46.5615 62.557 46.0821C62.8354 45.6027 63.2232 45.1958 63.6886 44.8945Z" fill="#263238"/>
<path d="M63.6886 172.834C65.4848 171.795 66.9347 172.622 66.9406 174.688C66.8823 175.815 66.5596 176.912 65.9988 177.891C65.4379 178.87 64.6546 179.704 63.712 180.324C61.9158 181.363 60.4248 180.512 60.4189 178.451C60.4836 177.324 60.8134 176.227 61.3816 175.251C61.9497 174.275 62.7401 173.447 63.6886 172.834Z" fill="#263238"/>
<path d="M108.888 47.4538C108.472 45.9981 105.525 43.2332 102.59 43.2919C102.307 43.3007 102.027 43.3562 101.762 43.4563L44.7633 75.9004C43.9312 76.3829 43.2395 77.0742 42.7566 77.9061C42.2737 78.738 42.0165 79.6816 42.0103 80.6435V203.992C42.0103 207.139 45.6321 210.138 49.0544 208.688C49.1316 208.667 49.2063 208.637 49.2775 208.6L106.306 176.115C107.142 175.638 107.837 174.947 108.321 174.114C108.804 173.281 109.059 172.335 109.059 171.372V48.0996C109.058 47.8733 109 47.6509 108.888 47.4538Z" fill="#224971"/>
<path opacity="0.2" d="M42.0103 80.6435V203.992C42.0103 207.139 45.6321 210.138 49.0544 208.688C48.8496 208.76 48.6307 208.781 48.4161 208.75C48.2015 208.719 47.9973 208.638 47.8208 208.512C47.6443 208.386 47.5005 208.219 47.4016 208.026C47.3027 207.833 47.2515 207.62 47.2523 207.403V84.0481C47.249 82.9715 47.5635 81.9179 48.1563 81.0192L42.5562 78.2485C42.194 78.9948 42.0073 79.814 42.0103 80.6435Z" fill="white"/>
<path opacity="0.4" d="M102.619 43.2919C102.336 43.3007 102.056 43.3562 101.792 43.4563L44.7634 75.9004C43.8142 76.4454 43.0512 77.2636 42.5738 78.2485L48.1563 81.0191C48.624 80.307 49.2536 79.7156 49.9936 79.2933L107.022 46.8492C107.183 46.7575 107.361 46.6999 107.546 46.6799C107.73 46.66 107.917 46.678 108.094 46.7331C108.271 46.7881 108.435 46.8789 108.576 46.9998C108.717 47.1208 108.831 47.2693 108.912 47.4362C108.501 45.9981 105.554 43.2332 102.619 43.2919Z" fill="white"/>
<path opacity="0.3" d="M108.888 47.4539C108.472 46.004 105.525 43.2392 102.59 43.2979C102.307 43.3066 102.027 43.3621 101.762 43.4622L44.7633 75.9005C43.9312 76.3829 43.2395 77.0743 42.7566 77.9062C42.2737 78.7381 42.0165 79.6817 42.0103 80.6435V203.992C42.0103 207.139 45.6321 210.138 49.0544 208.688C49.1316 208.667 49.2063 208.637 49.2775 208.6L106.306 176.115C107.142 175.638 107.837 174.947 108.321 174.114C108.804 173.281 109.059 172.335 109.059 171.372V48.0996C109.058 47.8733 109 47.651 108.888 47.4539Z" fill="white"/>
<g opacity="0.4">
<path d="M100.083 70.1183C102.513 68.7154 104.492 69.8424 104.498 72.6366L104.638 122.503C104.559 124.025 104.12 125.507 103.358 126.827C102.595 128.148 101.532 129.269 100.253 130.099L56.8264 155.159C54.3962 156.562 52.4179 155.429 52.4121 152.64L52.2712 102.774C52.3502 101.253 52.7876 99.7718 53.5476 98.4517C54.3075 97.1317 55.3686 96.01 56.6444 95.1778L100.083 70.1183Z" fill="white"/>
</g>
<path d="M90.4739 107.934C90.5737 108.45 90.9963 108.597 91.4659 108.38L91.6185 108.298L91.7536 108.204C91.9568 108.038 92.1313 107.839 92.2701 107.617L94.1016 104.817C94.8834 103.684 95.329 102.353 95.3872 100.978L95.3519 87.1065L90.4269 89.9476L90.4797 107.693C90.4713 107.773 90.4693 107.853 90.4739 107.934Z" fill="#224971"/>
<path opacity="0.3" d="M90.4739 107.934C90.5737 108.45 90.9963 108.597 91.4659 108.38L91.6185 108.298L91.7536 108.204C91.9568 108.038 92.1313 107.839 92.2701 107.617L94.1016 104.817C94.8834 103.684 95.329 102.353 95.3872 100.978L95.3519 87.1065L90.4269 89.9476L90.4797 107.693C90.4713 107.773 90.4693 107.853 90.4739 107.934Z" fill="black"/>
<path d="M102.801 98.3947C102.801 98.4769 102.784 98.5473 102.748 98.606C102.585 99.1526 102.272 99.6425 101.844 100.021L101.451 100.385L101.087 100.719L100.7 101.107C100.576 101.23 100.453 101.347 100.336 101.471C100.218 101.594 100.072 101.758 99.9366 101.905C99.8016 102.052 99.6959 102.163 99.5785 102.298L99.1735 102.78C99.0561 102.915 98.9387 103.05 98.8213 103.196L98.428 103.701C98.3047 103.86 98.1814 104.001 98.064 104.165C97.9466 104.329 97.7999 104.523 97.6648 104.705C97.5298 104.887 97.4242 105.028 97.3009 105.204L96.8959 105.791L96.5378 106.308L96.1386 106.93C96.0212 107.124 95.8979 107.306 95.7805 107.517C95.6631 107.728 95.5105 107.951 95.3814 108.168L95.0116 108.755C94.8707 108.996 94.7298 109.254 94.583 109.501C94.4363 109.748 94.3541 109.888 94.2426 110.088C94.131 110.288 93.9314 110.675 93.7788 110.939C93.679 111.127 93.5734 111.309 93.4736 111.526L92.9688 112.495C92.8807 112.671 92.7868 112.835 92.6987 113.017L92.1939 114.044C92.0648 114.303 91.9415 114.555 91.8123 114.825C91.5952 115.283 91.3721 115.753 91.149 116.24L91.0316 116.486C90.8144 116.968 90.5914 117.461 90.3683 117.966C90.2685 118.183 90.1687 118.418 90.0748 118.647L89.7402 119.404L89.5817 119.785C88.2632 122.89 86.4294 125.75 84.1577 128.244L84.1049 128.303C84.0344 128.385 83.9581 128.456 83.8877 128.532C82.6867 129.821 81.3392 130.966 79.8725 131.942C79.5966 132.119 79.3325 132.277 79.0683 132.43L77.8239 133.152C76.0198 134.193 74.2196 135.149 72.4234 136.022C70.6271 136.895 68.8367 137.678 67.0522 138.37C65.8782 138.84 64.7042 139.268 63.5301 139.656L61.458 140.307L60.871 140.507C60.6835 141.695 60.5912 142.896 60.5951 144.099L63.5301 143.137C68.5123 141.459 73.3097 139.276 77.8473 136.621L79.0918 135.905C83.3476 133.445 87.31 128.679 89.6111 123.249C91.0674 119.745 92.7296 116.331 94.5889 113.023L93.8375 124.881L100.436 121.071C100.747 116.891 101.451 108.615 102.543 102.95C103.066 101.488 103.156 99.9063 102.801 98.3947Z" fill="#455A64"/>
<path d="M67.0522 138.37C68.8288 137.67 70.6192 136.887 72.4233 136.022C74.2274 135.157 76.0276 134.201 77.8238 133.152L79.0683 132.43C79.3324 132.277 79.5966 132.119 79.8725 131.942C81.3391 130.966 82.6867 129.821 83.8876 128.532C83.9581 128.456 84.0344 128.385 84.1048 128.303L84.1577 128.244C86.4315 125.743 88.2655 122.875 89.5816 119.762L89.7401 119.392L90.0747 118.635C90.1687 118.406 90.2684 118.171 90.3682 117.954C90.5913 117.449 90.8144 116.956 91.0316 116.475L91.149 116.228C91.372 115.741 91.5951 115.271 91.8123 114.813C91.9414 114.543 92.0647 114.291 92.1938 114.033L92.6987 113.005C92.7867 112.824 92.8806 112.659 92.9687 112.483L93.4735 111.514C93.5733 111.321 93.679 111.139 93.7788 110.927C93.9314 110.64 94.0899 110.34 94.2425 110.076C94.3951 109.812 94.4714 109.677 94.583 109.489C94.6945 109.301 94.8706 108.984 95.0115 108.744L95.3813 108.157C95.5105 107.94 95.6455 107.717 95.7805 107.505C95.9155 107.294 96.0212 107.13 96.1386 106.918L96.5377 106.296L96.8958 105.779L97.3008 105.192C97.4241 105.016 97.5474 104.858 97.6648 104.693C97.7822 104.529 97.9289 104.324 98.064 104.153C98.199 103.983 98.3046 103.848 98.4279 103.69L98.8212 103.185C98.9386 103.038 99.056 102.903 99.1734 102.768L99.5784 102.287C99.6958 102.152 99.8191 102.028 99.9365 101.893C100.054 101.758 100.201 101.6 100.336 101.459C100.471 101.318 100.576 101.218 100.7 101.095L101.087 100.708L101.451 100.373L101.833 100.021C102.258 99.6339 102.574 99.142 102.748 98.5944C102.748 98.5357 102.766 98.4652 102.801 98.383V98.3419C103.858 93.3641 100.324 91.7322 99.6019 87.0772C99.6293 87.0094 99.6293 86.9337 99.6019 86.8659C99.4527 85.6954 99.4685 84.5099 99.6489 83.3438L96.4497 85.1929C96.1273 85.4016 95.8591 85.684 95.6673 86.0167C95.4754 86.3494 95.3653 86.723 95.3461 87.1065L95.3872 100.978C95.3382 102.355 94.9007 103.69 94.1251 104.828L92.2936 107.628C92.1548 107.851 91.9803 108.05 91.7771 108.215L91.642 108.309L91.4894 108.392C91.0198 108.609 90.5972 108.462 90.4974 107.945C90.4909 107.865 90.4909 107.785 90.4974 107.705L90.4445 89.9594C90.4445 89.255 89.9397 88.9732 89.3292 89.3254L80.5241 94.409C79.9957 104.071 78.3756 118.752 74.7537 123.536C73.6831 124.875 72.3509 125.982 70.8384 126.789C70.0987 127.217 69.3356 127.61 68.5725 127.998C67.8094 128.385 67.058 128.773 66.336 129.172C64.3167 130.346 62.5498 131.743 61.6399 134.132C61.0277 135.868 60.6872 137.687 60.6302 139.527C60.6302 140.161 60.9707 140.495 61.4932 140.319L63.5418 139.65C64.6806 139.268 65.8664 138.84 67.0522 138.37Z" fill="#224971"/>
<path d="M93.6262 127.505L100.218 123.701C100.218 123.648 100.277 122.697 100.394 121.089L93.7965 124.898L93.6262 127.505Z" fill="#37474F"/>
<path d="M101.498 55.1907C103.693 53.9228 105.478 54.9383 105.484 57.4566C105.411 58.8311 105.015 60.1691 104.328 61.3616C103.64 62.554 102.681 63.5673 101.527 64.3187L55.3883 90.9573C53.1929 92.2253 51.4025 91.2039 51.3966 88.6856C51.4698 87.3113 51.8669 85.9738 52.5555 84.7823C53.2441 83.5907 54.2047 82.5789 55.3589 81.8293L101.498 55.1907Z" fill="white"/>
<path d="M104.961 162.285L93.0333 169.165L93.0392 170.99L104.961 164.105V162.285Z" fill="white"/>
<path d="M89.3292 169.452L104.955 160.43L104.95 158.604L89.3234 167.627L89.3292 169.452Z" fill="white"/>
<path d="M83.4474 169.165L104.944 156.755L104.938 154.93L83.4415 167.345L83.4474 169.165Z" fill="white"/>
<path d="M92.2995 152.024L91.3309 150.333L90.3682 153.139L88.2139 154.748L89.7812 155.593L89.4173 158.276L91.3427 155.992L93.2739 156.045L92.8982 153.791L94.4597 151.144L92.2995 152.024Z" fill="#224971"/>
<path d="M95.0174 137.772L53.639 161.663L53.6448 165.032L95.0291 141.147L95.0174 137.772Z" fill="white"/>
<path d="M79.5203 176.966L79.5262 178.792L90.1041 172.687L90.0982 170.861L79.5203 176.966Z" fill="white"/>
<path d="M69.9285 176.966L80.5064 170.861L80.5006 169.036L69.9285 175.146V176.966Z" fill="white"/>
<path d="M53.727 191.864V193.69L76.051 180.799V178.974L53.727 191.864Z" fill="white"/>
<path d="M53.7329 195.539L53.7388 197.365L66.5063 189.992V188.166L53.7329 195.539Z" fill="white"/>
<path d="M86.5057 169.253L53.7152 188.184L53.7211 190.01L86.5116 171.079L86.5057 169.253Z" fill="white"/>
<path d="M66.471 177.142L53.7036 184.509L53.7094 186.335L66.4769 178.962L66.471 177.142Z" fill="white"/>
<path d="M54.8834 178.216L56.8088 175.933L58.7401 175.986L58.3644 173.732L59.92 171.084L57.7598 171.965L56.7912 170.274L55.8344 173.08L53.6742 174.689L55.2415 175.534L54.8834 178.216Z" fill="#224971"/>
<path d="M82.7078 160.982L84.6391 161.035L84.2693 158.775L85.8248 156.127L83.6646 157.014L82.6902 155.323L81.7334 158.123L79.579 159.732L81.1464 160.577L80.7824 163.259L82.7078 160.982Z" fill="#224971"/>
<path d="M66.3947 166.981L65.4261 165.291L64.4693 168.097L62.3091 169.699L63.8764 170.544L63.5184 173.227L65.4438 170.949L67.375 171.002L66.9993 168.742L68.5549 166.095L66.3947 166.981Z" fill="#224971"/>
<path d="M85.5372 149.112L53.6566 167.521L53.6625 169.623L85.543 151.214L85.5372 149.112Z" fill="white"/>
<path d="M75.0296 161.997L74.0611 160.307L73.0984 163.113L70.944 164.715L72.5113 165.561L72.1474 168.243L74.0787 165.966L76.0099 166.018L75.6284 163.759L77.1898 161.111L75.0296 161.997Z" fill="#224971"/>
<path opacity="0.2" d="M54.8834 178.216L56.8088 175.933L58.7401 175.986L58.3644 173.732L59.92 171.084L57.7598 171.965L56.7912 170.274L55.8344 173.08L53.6742 174.689L55.2415 175.534L54.8834 178.216Z" fill="black"/>
<path opacity="0.2" d="M82.7078 160.982L84.6391 161.035L84.2693 158.775L85.8248 156.127L83.6646 157.014L82.6902 155.323L81.7334 158.123L79.579 159.732L81.1464 160.577L80.7824 163.259L82.7078 160.982Z" fill="black"/>
<path opacity="0.2" d="M66.3947 166.981L65.4261 165.291L64.4693 168.097L62.3091 169.699L63.8764 170.544L63.5184 173.227L65.4438 170.949L67.375 171.002L66.9993 168.742L68.5549 166.095L66.3947 166.981Z" fill="black"/>
<path opacity="0.2" d="M75.0296 161.997L74.0611 160.307L73.0984 163.113L70.944 164.715L72.5113 165.561L72.1474 168.243L74.0787 165.966L76.0099 166.018L75.6284 163.759L77.1898 161.111L75.0296 161.997Z" fill="black"/>
<path d="M78.6456 104.306L75.869 107.869L77.1311 110.605L73.8967 112.953L73.8262 116.751L70.6975 117.484L69.3062 121.676L66.8232 120.666L64.3519 124.534L62.943 121.963L59.8201 124.834L59.7321 121.135L56.4918 122.521L57.7362 118.335L54.9479 117.989L57.3077 114.044L55.4469 112.025L58.5228 109.002L57.9123 105.668L61.1644 104.089L61.9099 100.003L64.7804 100.144L66.7527 96.0232L68.7427 97.8546L71.6014 94.4089L72.3704 97.6198L75.6225 95.442L75.0296 99.4748L78.1114 98.9406L76.2682 103.097L78.6456 104.306Z" fill="#224971"/>
<g opacity="0.1">
<path d="M78.6456 104.306L75.869 107.869L77.1311 110.605L73.8967 112.953L73.8262 116.751L70.6975 117.484L69.3062 121.676L66.8232 120.666L64.3519 124.534L62.943 121.963L59.8201 124.834L59.7321 121.135L56.4918 122.521L57.7362 118.335L54.9479 117.989L57.3077 114.044L55.4469 112.025L58.5228 109.002L57.9123 105.668L61.1644 104.089L61.9099 100.003L64.7804 100.144L66.7527 96.0232L68.7427 97.8546L71.6014 94.4089L72.3704 97.6198L75.6225 95.442L75.0296 99.4748L78.1114 98.9406L76.2682 103.097L78.6456 104.306Z" fill="black"/>
</g>
<path d="M65.6257 103.232C66.6941 102.615 67.2752 103.009 67.2811 104.277V108.386C67.3001 108.978 67.157 109.565 66.8674 110.082C66.5778 110.599 66.1525 111.027 65.6375 111.321C64.5691 111.908 63.988 111.544 63.9821 110.276V106.167C63.9657 105.575 64.1098 104.989 64.3992 104.473C64.6886 103.956 65.1124 103.527 65.6257 103.232ZM66.2127 109.102V104.817C66.2127 104.23 65.9955 104.153 65.6257 104.353C65.4329 104.463 65.2754 104.626 65.1715 104.823C65.0676 105.019 65.0216 105.241 65.0387 105.462V109.748C65.0387 110.335 65.2618 110.411 65.6257 110.211C65.8185 110.101 65.976 109.938 66.0799 109.742C66.1839 109.545 66.2299 109.323 66.2127 109.102Z" fill="white"/>
<path d="M62.6437 113.592C64.0819 112.765 65.1385 113.293 65.1443 114.837C65.098 115.673 64.8473 116.484 64.4144 117.201C63.9815 117.917 63.3796 118.516 62.6613 118.946C61.2231 119.774 60.1606 119.251 60.1606 117.707C60.2066 116.871 60.4569 116.058 60.8898 115.341C61.3227 114.623 61.9249 114.023 62.6437 113.592ZM62.6437 117.748C63.0098 117.515 63.3121 117.195 63.5232 116.816C63.7343 116.436 63.8477 116.011 63.8529 115.577C63.8529 114.684 63.3129 114.403 62.6378 114.802C62.2717 115.035 61.9694 115.355 61.7583 115.735C61.5471 116.114 61.4338 116.54 61.4286 116.974C61.4286 117.866 61.9627 118.148 62.6437 117.748Z" fill="white"/>
<path d="M63.1662 104.74V105.879L61.2701 106.971L61.1879 108.92C61.3637 108.45 61.6951 108.054 62.1272 107.799C62.9255 107.335 63.3305 107.746 63.3364 108.914V110.675C63.3615 111.265 63.2243 111.851 62.9397 112.368C62.6551 112.886 62.2339 113.315 61.7221 113.61C60.6538 114.226 60.102 113.821 60.0961 112.548V111.89L61.1234 111.303V112.043C61.1234 112.63 61.3464 112.688 61.7104 112.489C61.9013 112.379 62.0576 112.218 62.1614 112.024C62.2651 111.83 62.3123 111.611 62.2974 111.391V109.63C62.2974 109.043 62.0802 108.973 61.7104 109.172C61.5185 109.282 61.3616 109.444 61.2578 109.639C61.1539 109.835 61.1073 110.055 61.1234 110.276V110.516L60.102 111.103L60.2839 106.407L63.1662 104.74Z" fill="white"/>
<path d="M71.6896 99.8211L72.3294 99.4513L69.6292 108.967L68.9835 109.337L71.6896 99.8211Z" fill="white"/>
<path d="M73.4446 107.464V108.591L71.1964 109.888V111.021L73.1805 109.877L73.1864 111.01L71.2023 112.148L71.2081 113.921L69.9402 114.649L69.9226 109.495L73.4446 107.464Z" fill="white"/>
<path d="M72.3998 102.269C73.0808 101.876 73.4447 102.116 73.4447 102.932V105.545C73.4586 105.922 73.3685 106.297 73.1842 106.627C73 106.957 72.7287 107.23 72.3998 107.417C71.7189 107.81 71.3491 107.564 71.3491 106.754V104.142C71.3332 103.763 71.423 103.387 71.6086 103.056C71.7942 102.725 72.0681 102.453 72.3998 102.269ZM72.7638 105.997V103.273C72.7638 102.926 72.6229 102.856 72.4057 102.979C72.2856 103.051 72.1886 103.155 72.1261 103.28C72.0637 103.405 72.0385 103.545 72.0535 103.684V106.407C72.0535 106.76 72.1826 106.83 72.4116 106.701C72.5302 106.628 72.626 106.524 72.6883 106.399C72.7505 106.275 72.7767 106.135 72.7638 105.997Z" fill="white"/>
<path d="M70.0224 104.617C70.0362 104.995 69.9461 105.369 69.7619 105.699C69.5776 106.03 69.3063 106.303 68.9775 106.49C68.2966 106.883 67.9326 106.642 67.9268 105.82V103.214C67.9129 102.836 68.003 102.462 68.1873 102.132C68.3715 101.801 68.6428 101.528 68.9716 101.342C69.6526 100.948 70.0165 101.189 70.0165 102.005L70.0224 104.617ZM68.6194 105.48C68.6194 105.832 68.7486 105.908 68.9775 105.773C69.0961 105.701 69.192 105.596 69.2542 105.472C69.3165 105.347 69.3426 105.208 69.3297 105.069V102.351C69.3297 101.999 69.1888 101.929 68.9716 102.058C68.851 102.128 68.7536 102.233 68.691 102.358C68.6285 102.483 68.6036 102.623 68.6194 102.762V105.48Z" fill="white"/>
<path d="M69.3239 109.841L69.3298 110.968L67.0816 112.266V113.399L69.0598 112.26L69.0657 113.381L67.0874 114.526L67.0933 116.293L65.8195 117.026L65.8077 111.872L69.3239 109.841Z" fill="white"/>
<path d="M180.386 191.013L214.709 170.938C215.798 170.301 216.621 169.292 217.023 168.096C217.426 166.9 217.381 165.599 216.898 164.433L215.137 160.266L216.071 162.502C216.515 163.571 216.552 164.765 216.176 165.86C215.799 166.954 215.035 167.873 214.028 168.443L176.706 189.575C176.815 189.94 177.006 190.275 177.264 190.556C177.522 190.836 177.84 191.054 178.195 191.192C178.55 191.331 178.932 191.387 179.311 191.356C179.691 191.325 180.059 191.208 180.386 191.013Z" fill="#37474F"/>
<path d="M214.415 149.277L211.351 151.12L215.137 160.266L216.898 164.428C217.382 165.592 217.429 166.892 217.028 168.088C216.628 169.283 215.808 170.294 214.721 170.932L180.398 191.008C180.071 191.199 179.705 191.313 179.327 191.342C178.95 191.371 178.571 191.315 178.218 191.176C177.866 191.038 177.549 190.821 177.292 190.543C177.035 190.265 176.845 189.932 176.735 189.569L174.305 190.943L128.225 164.31L126.733 179.919L129.152 180.277L129.334 179.22C129.405 178.801 129.577 178.404 129.834 178.065C130.091 177.726 130.427 177.454 130.812 177.272C131.197 177.09 131.62 177.005 132.046 177.022C132.471 177.039 132.886 177.159 133.255 177.371L167.208 196.919C168.594 197.718 169.721 198.898 170.455 200.32C171.189 201.742 171.498 203.345 171.346 204.937L171.229 206.147H173.677L174.176 203.182C174.381 201.97 174.852 200.819 175.554 199.81C176.256 198.802 177.173 197.961 178.238 197.347L217.485 174.753C217.859 174.538 218.272 174.402 218.7 174.355C219.128 174.307 219.562 174.349 219.973 174.477C220.384 174.605 220.764 174.816 221.09 175.098C221.416 175.38 221.679 175.726 221.865 176.115L225.58 183.917C225.58 183.917 226.795 184.568 227.271 183.394L214.415 149.277Z" fill="#455A64"/>
<path d="M170.777 110.804L133.895 139.368C132.769 140.239 131.833 141.332 131.147 142.579C130.46 143.826 130.037 145.201 129.903 146.618L125.765 189.963C125.993 190.175 126.285 190.305 126.596 190.333C126.906 190.36 127.217 190.284 127.479 190.115L134.828 146.6C134.954 145.857 135.238 145.151 135.663 144.528C136.087 143.906 136.642 143.383 137.288 142.996L169.885 123.466C174.141 120.936 174.892 111.943 170.777 110.804Z" fill="#455A64"/>
<path opacity="0.3" d="M170.777 110.804L133.895 139.368C132.769 140.239 131.833 141.332 131.147 142.579C130.46 143.826 130.037 145.201 129.903 146.618L125.765 189.963C125.993 190.175 126.285 190.305 126.596 190.333C126.906 190.36 127.217 190.284 127.479 190.115L134.828 146.6C134.954 145.857 135.238 145.151 135.663 144.528C136.087 143.906 136.642 143.383 137.288 142.996L169.885 123.466C174.141 120.936 174.892 111.943 170.777 110.804Z" fill="white"/>
<path d="M213.018 160.119C212.852 159.679 212.536 159.311 212.126 159.08L175.144 137.725C174.361 137.272 173.472 137.033 172.567 137.033C171.663 137.033 170.774 137.272 169.99 137.725L133.285 159.092C132.875 159.33 132.561 159.704 132.398 160.148C131.342 162.091 130.989 166.512 132.457 169.329C132.653 169.696 132.942 170.004 133.296 170.222L170.278 191.571C171.06 192.024 171.948 192.263 172.852 192.263C173.756 192.263 174.644 192.024 175.426 191.571L212.138 170.233C212.501 170.026 212.791 169.71 212.965 169.329C214.427 166.482 214.075 162.062 213.018 160.119Z" fill="#224971"/>
<path opacity="0.3" d="M213.018 160.119C212.852 159.679 212.536 159.311 212.126 159.08L175.144 137.725C174.361 137.272 173.472 137.033 172.567 137.033C171.663 137.033 170.774 137.272 169.99 137.725L133.285 159.092C132.875 159.33 132.561 159.704 132.398 160.148C131.342 162.091 130.989 166.512 132.457 169.329C132.653 169.696 132.942 170.004 133.296 170.222L170.278 191.571C171.06 192.024 171.948 192.263 172.852 192.263C173.756 192.263 174.644 192.024 175.426 191.571L212.138 170.233C212.501 170.026 212.791 169.71 212.965 169.329C214.427 166.482 214.075 162.062 213.018 160.119Z" fill="white"/>
<path opacity="0.3" d="M213.018 160.119C213.193 160.575 213.2 161.078 213.038 161.538C212.875 161.999 212.554 162.386 212.132 162.631L175.42 183.969C174.638 184.422 173.75 184.661 172.846 184.661C171.942 184.661 171.054 184.422 170.272 183.969L133.29 162.62C132.868 162.377 132.546 161.992 132.383 161.534C132.219 161.076 132.225 160.574 132.398 160.119C131.342 162.062 130.989 166.482 132.457 169.3C132.653 169.666 132.942 169.974 133.296 170.192L170.278 191.542C171.06 191.995 171.948 192.233 172.852 192.233C173.756 192.233 174.644 191.995 175.426 191.542L212.138 170.204C212.501 169.996 212.791 169.68 212.965 169.3C214.427 166.482 214.075 162.062 213.018 160.119Z" fill="black"/>
<path d="M216.077 119.545L181.091 99.3634C180.779 99.1859 180.428 99.0872 180.069 99.0758H179.917C176.723 99.0758 174.223 101.013 172.362 103.244C172.333 103.272 172.308 103.304 172.286 103.338C172.097 103.568 171.959 103.836 171.88 104.124L161.843 141.482C161.559 142.538 161.632 143.658 162.05 144.668C162.468 145.679 163.208 146.523 164.155 147.07L199.118 167.31C199.491 167.525 199.921 167.621 200.351 167.586C204.348 167.175 206.708 164.698 207.888 163.395C208.113 163.142 208.275 162.841 208.363 162.514L218.389 125.157C218.677 124.097 218.606 122.972 218.187 121.958C217.769 120.943 217.027 120.094 216.077 119.545Z" fill="#224971"/>
<path opacity="0.2" d="M216.077 119.545L181.091 99.3634C180.779 99.1859 180.428 99.0872 180.069 99.0758H179.917C176.723 99.0758 174.223 101.013 172.362 103.244C172.333 103.272 172.308 103.304 172.286 103.338C172.097 103.568 171.959 103.836 171.88 104.124L161.843 141.482C161.559 142.538 161.632 143.658 162.05 144.668C162.468 145.679 163.208 146.523 164.155 147.07L199.118 167.31C199.491 167.525 199.921 167.621 200.351 167.586C204.348 167.175 206.708 164.698 207.888 163.395C208.113 163.142 208.275 162.841 208.363 162.514L218.389 125.157C218.677 124.097 218.606 122.972 218.187 121.958C217.769 120.943 217.027 120.094 216.077 119.545Z" fill="white"/>
<path opacity="0.1" d="M216.077 119.545L181.091 99.3634C180.779 99.1859 180.428 99.0872 180.069 99.0758H179.917C176.723 99.0758 174.223 101.013 172.362 103.244C172.689 102.888 173.128 102.654 173.607 102.582C174.085 102.509 174.573 102.602 174.992 102.844L209.954 123.032C210.953 123.606 211.719 124.511 212.12 125.591L218.225 122.069C217.817 121.008 217.059 120.117 216.077 119.545Z" fill="black"/>
<path opacity="0.2" d="M212.12 125.597C212.486 126.566 212.537 127.626 212.267 128.626L202.223 165.989C202.108 166.413 201.865 166.792 201.527 167.072C201.188 167.353 200.771 167.522 200.333 167.556C204.331 167.146 206.69 164.668 207.87 163.365C208.095 163.113 208.258 162.811 208.346 162.485L218.372 125.127C218.646 124.113 218.588 123.037 218.208 122.057L212.12 125.597Z" fill="black"/>
<path d="M153.096 203.834L154.587 206.769C156.7 204.814 157.082 203.247 157.082 203.247C156.401 200.828 155.603 198.369 155.209 197.171C155.004 198.838 153.871 200.271 153.39 201.897C153.212 202.528 153.113 203.178 153.096 203.834Z" fill="#455A64"/>
<path d="M153.167 206.863L154.587 206.792L153.096 203.857C153.049 204.832 153.131 205.853 153.167 206.863Z" fill="#224971"/>
<path d="M154.247 193.69C153.733 192.944 153.142 192.254 152.486 191.63C152.858 192.922 152.858 194.294 152.486 195.586C152.04 197.3 151.235 198.909 150.83 200.64C150.343 202.742 150.455 205.002 149.562 206.968C149.12 207.925 148.461 208.765 147.638 209.422C146.815 210.079 145.85 210.535 144.819 210.755C144.061 210.962 143.251 210.863 142.565 210.479C142.271 210.275 142.052 209.98 141.943 209.639C141.498 210.576 140.955 211.464 140.323 212.287C139.618 213.197 138.744 214.195 138.938 215.327C139.055 215.79 139.306 216.209 139.658 216.531C140.011 216.853 140.45 217.066 140.922 217.141C141.868 217.277 142.834 217.197 143.745 216.907C145.747 216.474 147.658 215.695 149.392 214.605C151.134 213.495 152.408 211.784 152.973 209.798C153.18 208.834 153.255 207.847 153.196 206.863C153.161 205.853 153.079 204.832 153.126 203.834C153.144 203.184 153.242 202.54 153.419 201.914C153.9 200.288 155.033 198.856 155.239 197.189C155.239 197.101 155.239 197.013 155.274 196.925C155.287 195.764 154.927 194.631 154.247 193.69Z" fill="#455A64"/>
<path d="M144.79 210.749C145.82 210.53 146.785 210.073 147.609 209.416C148.432 208.759 149.091 207.919 149.533 206.963C150.425 204.996 150.314 202.736 150.801 200.635C151.206 198.903 152.01 197.295 152.456 195.581C152.829 194.288 152.829 192.917 152.456 191.624L151.946 191.119C149.398 192.44 146.498 193.526 144.179 195.228C144.222 198.202 144.026 201.174 143.592 204.116C143.278 206.03 142.697 207.892 141.867 209.645C141.976 209.986 142.195 210.281 142.489 210.485C142.836 210.679 143.218 210.803 143.613 210.848C144.008 210.894 144.408 210.86 144.79 210.749Z" fill="#F28F8F"/>
<path opacity="0.3" d="M153.167 206.863L154.587 206.792L153.096 203.857C153.049 204.832 153.131 205.853 153.167 206.863Z" fill="black"/>
<path d="M136.137 202.906C135.715 205.372 133.836 210.379 133.836 210.379C133.836 210.379 142.642 210.737 142.859 210.332L145.453 206.317L136.137 202.906Z" fill="#FFA8A7"/>
<path d="M162.571 144.417L140.053 156.961C138.011 158.097 136.377 159.847 135.383 161.962C134.388 164.077 134.084 166.451 134.511 168.748L138.879 192.287L135.304 203.646C138.392 207.796 145.494 208.007 145.494 208.007C149.457 200.059 152.362 196.69 154.611 190.033C156.859 183.376 158.356 178.786 158.356 178.786L177.064 173.673C181.34 172.511 185.169 170.093 188.058 166.732C190.946 163.371 192.76 159.221 193.265 154.818C193.588 151.989 193.6 150.058 193.6 150.058L162.571 144.417Z" fill="#455A64"/>
<path opacity="0.2" d="M161.038 151.801C161.046 154.314 161.939 156.744 163.563 158.663L149.392 167.527C147.059 168.985 145.331 171.236 144.526 173.867L138.902 192.258L143.974 171.777C144.552 169.425 146.026 167.392 148.083 166.112L161.056 158.129C159.559 154.396 161.038 151.801 161.038 151.801Z" fill="black"/>
<path d="M138.62 221.79L138.832 225.101C141.544 224.138 142.512 222.835 142.512 222.835C142.835 220.346 143.07 217.769 143.176 216.519C142.336 217.969 140.728 218.838 139.654 220.147C139.242 220.649 138.895 221.202 138.62 221.79Z" fill="#455A64"/>
<path d="M137.493 224.608L138.832 225.101L138.62 221.79C138.192 222.694 137.863 223.663 137.493 224.608Z" fill="#224971"/>
<path opacity="0.2" d="M137.493 224.608L138.832 225.101L138.62 221.79C138.192 222.694 137.863 223.663 137.493 224.608Z" fill="black"/>
<path d="M143.669 212.921C143.49 212.032 143.218 211.164 142.859 210.332C142.678 211.664 142.131 212.919 141.28 213.96C140.194 215.363 138.82 216.525 137.758 217.957C136.484 219.718 135.697 221.82 134.106 223.275C133.321 223.983 132.382 224.498 131.363 224.779C130.343 225.059 129.273 225.097 128.236 224.89C127.457 224.783 126.75 224.374 126.27 223.751C126.08 223.448 125.995 223.091 126.029 222.735C125.251 223.421 124.403 224.024 123.499 224.532C122.495 225.089 121.298 225.665 121.028 226.786C120.955 227.257 121.02 227.74 121.218 228.175C121.415 228.61 121.734 228.978 122.137 229.234C122.966 229.728 123.894 230.031 124.855 230.12C126.866 230.51 128.93 230.545 130.954 230.226C132.992 229.89 134.837 228.819 136.137 227.214C136.709 226.411 137.165 225.532 137.493 224.602C137.863 223.657 138.192 222.688 138.62 221.784C138.893 221.196 139.238 220.644 139.648 220.141C140.728 218.832 142.336 217.963 143.17 216.513C143.217 216.431 143.27 216.36 143.311 216.278C143.786 215.226 143.911 214.049 143.669 212.921Z" fill="#455A64"/>
<path d="M128.26 224.89C129.296 225.097 130.367 225.059 131.386 224.779C132.405 224.498 133.345 223.984 134.13 223.276C135.721 221.82 136.507 219.695 137.781 217.957C138.832 216.525 140.205 215.363 141.303 213.96C142.155 212.92 142.701 211.664 142.882 210.332L142.606 209.663C139.748 209.874 136.654 209.739 133.86 210.379C132.736 213.132 131.391 215.79 129.839 218.327C128.8 219.966 127.535 221.45 126.082 222.736C126.048 223.091 126.133 223.448 126.323 223.751C126.796 224.368 127.491 224.776 128.26 224.89Z" fill="#FFA8A7"/>
<path d="M162.512 95.7474C177.387 110.1 181.261 109.607 181.261 109.607C186.65 101.694 189.555 92.871 186.28 84.3007C184.918 80.7434 183.004 77.55 179.658 75.5366C177.039 73.9611 173.985 73.2619 170.941 73.5407C169.577 73.7709 168.288 74.3222 167.179 75.1492C166.903 75.3429 164.244 77.9727 164.408 78.0549C162.453 77.1743 159.806 78.5479 158.679 80.3736C157.552 82.1992 157.505 84.4826 157.892 86.6135C158.491 89.8244 160.164 93.4815 162.512 95.7474Z" fill="#263238"/>
<path d="M164.778 105.451H164.191C160.352 105.498 155.497 108.11 153.125 114.802L143.921 132.676L154.446 137.372L160.205 120.519L164.778 105.451Z" fill="#FFA8A7"/>
<path opacity="0.2" d="M157.387 117.303C156.653 119.41 156.606 121.687 156.495 123.918C156.383 126.149 156.119 128.837 155.098 130.821C153.973 130.044 152.627 129.651 151.26 129.701C149.893 129.75 148.579 130.24 147.514 131.097C146.749 131.739 146.161 132.566 145.805 133.498L154.446 137.331L160.205 120.478L163.034 111.186C161.734 111.779 160.564 112.625 159.595 113.676C158.625 114.726 157.875 115.959 157.387 117.303Z" fill="black"/>
<path d="M154.546 134.109C154.146 133.114 153.499 132.239 152.666 131.565C151.833 130.891 150.841 130.441 149.785 130.258C147.678 129.917 145.283 131.021 143.915 132.664C142.741 134.05 142.953 135.928 143.675 137.572C144.281 138.857 145.315 139.892 146.6 140.5C147.885 141.107 149.341 141.248 150.719 140.9C153.419 140.143 155.567 136.738 154.546 134.109Z" fill="#FFA8A7"/>
<path d="M165.752 105.128C161.684 105.768 159.172 116.046 157.851 119.944C156.483 123.971 158.338 126.894 160.404 129.336C160.779 129.778 161.058 130.294 161.221 130.85C161.385 131.406 161.431 131.99 161.355 132.565L157.082 148.414C168.746 157.072 188.293 152.875 193.594 150.046C193.655 144.503 192.484 139.015 190.166 133.979C188.607 130.728 187.728 127.192 187.583 123.589L187.383 117.76L188.792 107.711L178.666 105.304L169.744 104.905C168.41 104.904 167.077 104.978 165.752 105.128Z" fill="#142C44"/>
<path d="M165.658 150.973C165.658 150.973 165.658 150.973 165.658 150.938C165.661 150.927 165.661 150.915 165.658 150.903V150.874C165.656 150.862 165.656 150.85 165.658 150.838V150.803V150.762L158.773 137.936V137.901C158.771 137.889 158.771 137.877 158.773 137.866L158.743 137.824V137.783L158.714 137.742L158.684 137.701L158.655 137.66C158.642 137.649 158.632 137.635 158.626 137.619L158.591 137.584V137.549L158.561 137.519V137.49H158.532L158.432 137.402H158.397H158.367H158.326H158.285H158.244L158.197 137.372L150.273 132.917H150.226H150.185H150.138H150.097H150.055H150.014H149.973H149.932H149.885H149.738C149.717 132.917 149.695 132.921 149.675 132.929C149.655 132.937 149.637 132.949 149.621 132.964L147.631 132.935C147.555 132.993 147.549 133.117 147.66 133.328L154.57 146.178C154.952 146.771 155.472 147.264 156.084 147.616L164.009 152.048C164.414 152.277 164.66 152.283 164.695 152.118C164.695 152.118 164.695 152.171 164.695 152.189L165.641 151.108C165.654 151.095 165.664 151.079 165.67 151.062C165.67 151.062 165.67 151.032 165.67 151.015L165.658 150.973ZM147.801 132.905C147.801 132.905 147.801 132.905 147.854 132.905H147.883H147.801ZM156.876 138.018C156.953 138.077 157.029 138.136 157.1 138.2C157.023 138.136 156.953 138.077 156.876 138.018ZM164.707 152.048C164.697 151.956 164.667 151.868 164.619 151.789C164.664 151.861 164.694 151.941 164.707 152.024V152.048Z" fill="#455A64"/>
<path opacity="0.15" d="M165.658 150.973C165.658 150.973 165.658 150.973 165.658 150.938C165.661 150.927 165.661 150.915 165.658 150.903V150.874C165.656 150.862 165.656 150.85 165.658 150.838V150.803V150.762L158.773 137.936L157.827 139.022L164.713 151.842C164.758 151.914 164.788 151.993 164.801 152.077C164.812 152.099 164.818 152.123 164.818 152.147C164.818 152.172 164.812 152.196 164.801 152.218L165.746 151.138C165.759 151.124 165.769 151.108 165.776 151.091C165.776 151.091 165.776 151.061 165.776 151.044L165.658 150.973Z" fill="white"/>
<path opacity="0.2" d="M158.661 137.859C158.659 137.848 158.659 137.836 158.661 137.824L158.632 137.783V137.742L158.602 137.701L158.573 137.66L158.544 137.619C158.531 137.608 158.521 137.594 158.514 137.578L158.479 137.542V137.507L158.45 137.478V137.449H158.42L158.321 137.361H158.285H158.256H158.215H158.174H158.133L158.086 137.331L150.161 132.876H150.114H150.073H150.026H149.985H149.944H149.903H149.862H149.821H149.774H149.627C149.605 132.875 149.584 132.879 149.564 132.887C149.543 132.896 149.525 132.908 149.51 132.923L147.631 132.934C147.672 132.882 147.754 132.87 147.866 132.893C148.02 132.93 148.166 132.992 148.3 133.075L156.225 137.531C156.381 137.62 156.53 137.72 156.671 137.83C156.824 137.948 156.97 138.071 157.111 138.2C157.246 138.335 157.375 138.47 157.481 138.599C157.581 138.718 157.669 138.846 157.745 138.981L158.69 137.895L158.661 137.859Z" fill="white"/>
<path d="M192.708 111.086C191.587 109.155 190.113 107.675 187.888 107.505C187.888 107.505 184.237 109.389 184.237 117.948L184.478 139.345L182.905 139.996C178.488 141.899 173.87 143.295 169.139 144.158C166.672 142.205 163.604 141.168 160.457 141.223L161.631 143.401C159.412 144.816 154.417 142.262 154.417 142.262C154.047 145.379 156.072 148.619 158.749 150.257C161.426 151.895 187.008 149.488 192.438 145.978C196.001 143.665 195.161 121.605 195.161 121.605C195.412 117.932 194.558 114.269 192.708 111.086Z" fill="#FFA8A7"/>
<path d="M149.016 135.793C148.843 136.636 148.745 137.493 148.723 138.353C148.922 140.398 149.788 142.32 151.188 143.824C151.482 144.15 151.845 144.407 152.251 144.575C152.456 144.654 152.678 144.677 152.894 144.642C153.111 144.607 153.314 144.515 153.484 144.375C153.786 144.018 153.94 143.558 153.912 143.09C153.978 142.397 153.94 141.699 153.801 141.018C153.657 140.331 153.269 139.72 152.709 139.298C152.272 139.047 151.807 138.85 151.323 138.711C150.848 138.508 150.425 138.201 150.085 137.813L149.016 135.793Z" fill="#FFA8A7"/>
<path opacity="0.2" d="M184.478 139.345C187.965 138.646 190.6 142.315 190.6 142.315C189.514 136.551 185.822 137.766 184.478 138.828V139.345Z" fill="black"/>
<path d="M169.744 100.942V109.026C168.951 109.771 168.194 110.628 168.124 111.696C168.108 112.209 168.234 112.715 168.488 113.161C168.742 113.606 169.113 113.973 169.562 114.221C170.476 114.701 171.542 114.804 172.532 114.508C173.513 114.206 174.413 113.684 175.162 112.982C176.228 112.002 177.089 110.819 177.694 109.503C178.298 108.187 178.635 106.763 178.684 105.316V97.1268L169.744 100.942Z" fill="#FFA8A7"/>
<path opacity="0.2" d="M178.32 97.1268C177.481 101.576 175.743 105.427 169.744 106.813V100.942L178.32 97.1268Z" fill="black"/>
<path d="M176.23 92.4367C176.139 93.1499 176.139 93.8719 176.23 94.5851C176.32 95.1224 176.584 95.6153 176.982 95.9881C177.175 96.1652 177.409 96.2913 177.663 96.3548C177.918 96.4184 178.184 96.4174 178.437 96.352C178.233 95.6398 178.319 94.8754 178.678 94.227C179.037 93.5786 179.639 93.0993 180.351 92.8945C181.063 92.6898 181.828 92.7764 182.476 93.1353C183.125 93.4942 183.604 94.0959 183.809 94.8082C183.95 95.3017 183.982 95.82 183.901 96.327C183.821 96.834 183.631 97.3174 183.345 97.7433C182.763 98.5953 181.992 99.3007 181.091 99.8037C180.573 100.003 180.001 100.013 179.477 99.8319C178.953 99.6503 178.509 99.2888 178.226 98.8116C175.649 102.369 171.018 105.145 166.562 104.958C165.343 104.942 164.153 104.577 163.134 103.907C161.402 102.674 161.197 100.719 160.903 98.7881C160.492 96.3486 160.411 93.8647 160.663 91.4035C160.908 89.1619 161.62 86.9964 162.753 85.0462C166.181 89.4488 174.816 84.5825 176.23 92.4367Z" fill="#FFA8A7"/>
<path d="M166.95 91.9846L164.062 95.853L166.932 96.7101L166.95 91.9846Z" fill="#F28F8F"/>
<path d="M169.597 98.43L167.249 99.2753C167.414 99.5477 167.663 99.7591 167.958 99.8777C168.253 99.9963 168.579 100.016 168.887 99.9327C169.161 99.8032 169.381 99.5826 169.511 99.3086C169.641 99.0345 169.671 98.724 169.597 98.43Z" fill="#F28F8F"/>
<path opacity="0.3" d="M169.597 98.43L167.249 99.2753C167.414 99.5477 167.663 99.7591 167.958 99.8777C168.253 99.9963 168.579 100.016 168.887 99.9327C169.161 99.8032 169.381 99.5826 169.511 99.3086C169.641 99.0345 169.671 98.724 169.597 98.43Z" fill="black"/>
<path d="M168.118 99.9269C168.373 100 168.643 100 168.899 99.9269C169.115 99.8352 169.3 99.6803 169.427 99.4824C169.555 99.2846 169.62 99.0529 169.615 98.8175C169.272 98.776 168.925 98.8671 168.647 99.0722C168.369 99.2774 168.18 99.581 168.118 99.9211V99.9269Z" fill="#F28F8F"/>
<path d="M171.17 92.5893C171.17 92.8135 171.081 93.0285 170.923 93.187C170.764 93.3456 170.549 93.4346 170.325 93.4346C170.101 93.4346 169.886 93.3456 169.727 93.187C169.569 93.0285 169.48 92.8135 169.48 92.5893C169.48 92.3651 169.569 92.1501 169.727 91.9916C169.886 91.8331 170.101 91.744 170.325 91.744C170.549 91.744 170.764 91.8331 170.923 91.9916C171.081 92.1501 171.17 92.3651 171.17 92.5893Z" fill="#263238"/>
<path d="M164.067 92.2899C164.066 92.4569 164.016 92.6197 163.922 92.758C163.829 92.8962 163.696 93.0036 163.542 93.0667C163.387 93.1298 163.217 93.1457 163.054 93.1124C162.89 93.0791 162.74 92.9982 162.622 92.8797C162.505 92.7613 162.425 92.6106 162.393 92.4468C162.361 92.283 162.378 92.1134 162.442 91.9593C162.506 91.8051 162.614 91.6735 162.753 91.5808C162.892 91.4882 163.055 91.4388 163.222 91.4388C163.447 91.4403 163.662 91.5307 163.82 91.6901C163.979 91.8496 164.067 92.0652 164.067 92.2899Z" fill="#263238"/>
<path d="M163.269 88.9205C162.647 89.3549 162.019 89.7834 161.391 90.2119C161.311 89.9789 161.304 89.7269 161.371 89.4898C161.438 89.2527 161.576 89.0418 161.766 88.8853C161.995 88.7513 162.257 88.6837 162.523 88.6899C162.788 88.6961 163.046 88.776 163.269 88.9205Z" fill="#263238"/>
<path d="M170.525 88.85L172.391 90.1531C172.474 89.9219 172.484 89.6708 172.42 89.4337C172.356 89.1965 172.221 88.9846 172.033 88.8265C171.804 88.6903 171.542 88.6204 171.276 88.6245C171.009 88.6286 170.749 88.7067 170.525 88.85Z" fill="#263238"/>
<path d="M185.153 105.967C185.153 106.643 184.953 107.303 184.577 107.865C184.202 108.427 183.668 108.865 183.044 109.124C182.42 109.382 181.733 109.45 181.07 109.318C180.407 109.186 179.799 108.861 179.321 108.383C178.843 107.905 178.518 107.296 178.386 106.634C178.254 105.971 178.322 105.284 178.58 104.66C178.839 104.036 179.277 103.502 179.838 103.127C180.4 102.751 181.061 102.551 181.736 102.551C182.642 102.552 183.51 102.913 184.151 103.553C184.791 104.194 185.151 105.062 185.153 105.967Z" fill="#263238"/>
<path d="M183.045 110.241C183.045 110.853 182.864 111.451 182.524 111.959C182.184 112.468 181.701 112.865 181.136 113.099C180.57 113.333 179.948 113.394 179.348 113.275C178.748 113.155 178.197 112.861 177.764 112.428C177.332 111.996 177.037 111.444 176.918 110.844C176.798 110.244 176.86 109.622 177.094 109.057C177.328 108.492 177.724 108.008 178.233 107.669C178.742 107.329 179.34 107.147 179.952 107.147C180.358 107.147 180.76 107.227 181.136 107.383C181.511 107.538 181.852 107.766 182.139 108.053C182.427 108.34 182.654 108.682 182.81 109.057C182.965 109.432 183.045 109.834 183.045 110.241Z" fill="#263238"/>
<path d="M178.068 116.211C179.608 116.211 180.856 114.962 180.856 113.422C180.856 111.882 179.608 110.634 178.068 110.634C176.528 110.634 175.279 111.882 175.279 113.422C175.279 114.962 176.528 116.211 178.068 116.211Z" fill="#263238"/>
<path d="M178.825 116.205C178.825 116.678 178.684 117.141 178.421 117.535C178.158 117.929 177.784 118.236 177.346 118.417C176.909 118.599 176.427 118.646 175.963 118.554C175.498 118.461 175.071 118.233 174.736 117.898C174.401 117.563 174.173 117.137 174.081 116.672C173.988 116.207 174.036 115.726 174.217 115.288C174.398 114.851 174.705 114.477 175.099 114.213C175.493 113.95 175.956 113.81 176.43 113.81C177.065 113.811 177.673 114.064 178.122 114.513C178.571 114.962 178.823 115.57 178.825 116.205Z" fill="#263238"/>
<path d="M178.05 119.269C178.05 119.689 177.925 120.1 177.692 120.449C177.458 120.799 177.127 121.071 176.738 121.232C176.35 121.393 175.923 121.435 175.511 121.353C175.098 121.271 174.72 121.069 174.422 120.771C174.125 120.474 173.923 120.096 173.841 119.683C173.759 119.271 173.801 118.844 173.962 118.456C174.123 118.067 174.395 117.736 174.745 117.502C175.094 117.269 175.505 117.144 175.925 117.144C176.489 117.144 177.029 117.368 177.428 117.766C177.826 118.165 178.05 118.705 178.05 119.269Z" fill="#263238"/>
<path d="M176.172 120.079C175.648 120.322 175.241 120.761 175.038 121.301C174.835 121.841 174.852 122.439 175.086 122.967C175.332 123.519 175.802 123.959 176.001 124.529C176.115 124.879 176.123 125.256 176.024 125.611C175.925 125.966 175.723 126.284 175.444 126.524C176.258 126.344 177.024 125.992 177.692 125.491C178.357 124.961 178.832 124.23 179.048 123.407C179.154 122.998 179.17 122.57 179.095 122.154C179.02 121.737 178.856 121.342 178.614 120.995C178.115 120.314 176.941 119.727 176.172 120.079Z" fill="#263238"/>
<path d="M215.308 136.615L178.426 165.185C177.302 166.057 176.368 167.149 175.682 168.395C174.995 169.64 174.571 171.013 174.434 172.429L170.325 215.78C170.554 215.991 170.847 216.12 171.157 216.146C171.467 216.173 171.778 216.096 172.039 215.926L179.388 172.411C179.513 171.669 179.797 170.963 180.222 170.341C180.647 169.72 181.202 169.198 181.848 168.813L214.439 149.277C218.66 146.765 219.429 137.76 215.308 136.615Z" fill="#455A64"/>
<path opacity="0.3" d="M215.308 136.615L178.426 165.185C177.302 166.057 176.368 167.149 175.682 168.395C174.995 169.64 174.571 171.013 174.434 172.429L170.325 215.78C170.554 215.991 170.847 216.12 171.157 216.146C171.467 216.173 171.778 216.096 172.039 215.926L179.388 172.411C179.513 171.669 179.797 170.963 180.222 170.341C180.647 169.72 181.202 169.198 181.848 168.813L214.439 149.277C218.66 146.765 219.429 137.76 215.308 136.615Z" fill="white"/>
<path d="M208.258 212.445L205.651 213.966L205.657 210.942L208.258 212.445Z" fill="#E6E6E6"/>
<path d="M205.763 181.656L231.151 196.314L205.763 181.656Z" fill="#CFCFCF"/>
<path d="M208.258 212.445L231.092 225.629V228.647L233.81 230.214L233.916 194.747L203.045 176.925L202.945 212.392L205.663 213.966V210.948L208.258 212.445ZM231.116 207.814L205.745 193.138V181.633L231.133 196.308L231.116 207.814ZM231.075 222.489L205.692 207.814V196.349V196.314L231.081 210.989L231.075 222.489Z" fill="#E0E0E0"/>
<path d="M205.687 207.808L205.722 196.344V196.308L231.11 210.966L231.075 222.466L205.687 207.808Z" fill="#E0E0E0"/>
<path d="M205.734 193.162L205.763 181.656L231.151 196.314L231.116 207.819L205.734 193.162Z" fill="#E0E0E0"/>
<path d="M233.898 194.747L260.848 179.085L260.748 214.553L233.799 230.214L233.898 194.747Z" fill="#E0E0E0"/>
<path d="M233.898 194.747L203.033 176.925L229.983 161.264L260.848 179.085L233.898 194.747Z" fill="#E0E0E0"/>
<path opacity="0.2" d="M208.258 212.445L205.651 213.966L205.657 210.942L208.258 212.445Z" fill="white"/>
<path d="M205.763 181.656L231.151 196.314L205.763 181.656Z" fill="#CFCFCF"/>
<path opacity="0.8" d="M205.687 207.808L205.722 196.344V196.308L231.11 210.966L231.075 222.466L205.687 207.808Z" fill="white"/>
<path opacity="0.8" d="M205.734 193.162L205.763 181.656L231.151 196.314L231.116 207.819L205.734 193.162Z" fill="white"/>
<path d="M214.04 190.714L214.051 189.123L222.845 194.201L222.833 195.792L214.04 190.714Z" fill="#E0E0E0"/>
<path d="M214.04 205.16L214.051 203.57L222.845 208.647L222.833 210.238L214.04 205.16Z" fill="#E0E0E0"/>
<path opacity="0.2" d="M233.898 194.747L260.848 179.085L260.748 214.553L233.799 230.214L233.898 194.747Z" fill="white"/>
<path opacity="0.4" d="M233.898 194.747L203.033 176.925L229.983 161.264L260.848 179.085L233.898 194.747Z" fill="white"/>
<path opacity="0.05" d="M239.886 170.415C236.464 168.437 230.922 168.437 227.517 170.415C224.113 172.393 224.13 175.604 227.559 177.583C230.987 179.561 236.522 179.561 239.927 177.583C243.332 175.604 243.314 172.393 239.886 170.415Z" fill="black"/>
<path d="M242.862 157.965L233.47 158.235L224.078 157.965C223.673 164.316 224.911 170.785 226.619 173.943C227.022 174.757 227.674 175.421 228.48 175.839C231.251 177.442 235.736 177.442 238.495 175.839C239.31 175.411 239.963 174.729 240.355 173.896C242.034 170.72 243.261 164.281 242.862 157.965Z" fill="white"/>
<path d="M240.085 154.114C243.766 156.239 243.789 159.69 240.127 161.815C236.464 163.94 230.511 163.94 226.831 161.815C223.15 159.69 223.127 156.239 226.784 154.114C230.441 151.989 236.399 151.983 240.085 154.114Z" fill="#EBEBEB"/>
<path d="M238.618 154.983C241.488 156.644 241.506 159.332 238.647 160.994C235.789 162.655 231.151 162.649 228.275 160.994C225.398 159.338 225.387 156.644 228.24 154.983C231.092 153.321 235.753 153.298 238.618 154.983Z" fill="#E0E0E0"/>
<g opacity="0.15">
<path d="M238.618 154.983C241.488 156.644 241.506 159.332 238.647 160.994C235.789 162.655 231.151 162.649 228.275 160.994C225.398 159.338 225.387 156.644 228.24 154.983C231.092 153.321 235.753 153.298 238.618 154.983Z" fill="black"/>
</g>
<path d="M232.671 158.229C233.426 158.86 234.32 159.304 235.279 159.522C236.238 159.74 237.236 159.728 238.189 159.485C239.107 159.205 239.941 158.702 240.615 158.019C241.29 157.337 241.783 156.497 242.052 155.576C240.938 155.047 239.919 154.339 239.035 153.48C240.445 153.129 241.926 153.182 243.308 153.633C243.691 153.032 243.92 152.346 243.976 151.636C244.032 150.926 243.914 150.212 243.631 149.559C242.025 148.845 240.22 148.718 238.53 149.201C239.233 148.591 240.054 148.133 240.941 147.854C241.829 147.575 242.764 147.482 243.69 147.58C243.822 144.884 243.401 142.189 242.451 139.662C238.929 139.844 235.542 141.352 234.397 142.438C234.345 143.693 234.475 144.949 234.785 146.166C234.332 145.935 233.945 145.593 233.661 145.172C233.377 144.751 233.204 144.265 233.159 143.759C230.963 144.305 230.024 145.403 229.684 146.236C229.998 147.796 230.715 149.247 231.762 150.445C229.701 149.823 228.862 147.51 228.862 147.51C226.837 152.329 227.224 157.759 232.671 158.229Z" fill="#224971"/>
<path opacity="0.2" d="M232.671 158.229C233.426 158.86 234.32 159.304 235.279 159.522C236.238 159.74 237.236 159.728 238.189 159.485C239.107 159.205 239.941 158.702 240.615 158.019C241.29 157.337 241.783 156.497 242.052 155.576C240.938 155.047 239.919 154.339 239.035 153.48C240.445 153.129 241.926 153.182 243.308 153.633C243.691 153.032 243.92 152.346 243.976 151.636C244.032 150.926 243.914 150.212 243.631 149.559C242.025 148.845 240.22 148.718 238.53 149.201C239.233 148.591 240.054 148.133 240.941 147.854C241.829 147.575 242.764 147.482 243.69 147.58C243.822 144.884 243.401 142.189 242.451 139.662C238.929 139.844 235.542 141.352 234.397 142.438C234.345 143.693 234.475 144.949 234.785 146.166C234.332 145.935 233.945 145.593 233.661 145.172C233.377 144.751 233.204 144.265 233.159 143.759C230.963 144.305 230.024 145.403 229.684 146.236C229.998 147.796 230.715 149.247 231.762 150.445C229.701 149.823 228.862 147.51 228.862 147.51C226.837 152.329 227.224 157.759 232.671 158.229Z" fill="black"/>
<path opacity="0.3" d="M232.671 158.229C233.426 158.86 234.32 159.304 235.279 159.522C236.238 159.74 237.236 159.728 238.189 159.485C239.107 159.205 239.941 158.702 240.615 158.019C241.29 157.337 241.783 156.497 242.052 155.576C240.938 155.047 239.919 154.339 239.035 153.48C240.445 153.129 241.926 153.182 243.308 153.633C243.691 153.032 243.92 152.346 243.976 151.636C244.032 150.926 243.914 150.212 243.631 149.559C242.025 148.845 240.22 148.718 238.53 149.201C239.233 148.591 240.054 148.133 240.941 147.854C241.829 147.575 242.764 147.482 243.69 147.58C243.822 144.884 243.401 142.189 242.451 139.662C238.929 139.844 235.542 141.352 234.397 142.438C234.345 143.693 234.475 144.949 234.785 146.166C234.332 145.935 233.945 145.593 233.661 145.172C233.377 144.751 233.204 144.265 233.159 143.759C230.963 144.305 230.024 145.403 229.684 146.236C229.998 147.796 230.715 149.247 231.762 150.445C229.701 149.823 228.862 147.51 228.862 147.51C226.837 152.329 227.224 157.759 232.671 158.229Z" fill="white"/>
<path d="M232.548 158.751C232.495 158.747 232.445 158.721 232.41 158.681C232.375 158.64 232.357 158.588 232.36 158.534C232.695 154.102 235.225 146.794 241.265 140.765C241.305 140.735 241.354 140.721 241.403 140.725C241.452 140.728 241.499 140.749 241.534 140.784C241.569 140.819 241.59 140.866 241.594 140.915C241.597 140.964 241.583 141.013 241.553 141.053C235.589 147.005 233.094 154.202 232.748 158.563C232.742 158.613 232.719 158.66 232.683 158.694C232.646 158.728 232.598 158.749 232.548 158.751Z" fill="#F5F5F5"/>
<path d="M234.204 160.6C233.502 161.173 232.674 161.573 231.789 161.766C230.903 161.959 229.985 161.94 229.108 161.712C228.231 161.483 227.42 161.05 226.742 160.449C226.064 159.848 225.537 159.095 225.205 158.252C226.211 157.795 227.132 157.17 227.928 156.403C226.596 156.084 225.202 156.124 223.89 156.521C223.488 156.016 223.223 155.417 223.12 154.781C223.017 154.144 223.08 153.492 223.303 152.887C224.828 152.257 226.521 152.155 228.11 152.599C226.694 151.493 224.911 150.964 223.121 151.12C222.819 148.751 223.05 146.345 223.796 144.076C227.136 144.276 230.447 145.661 231.591 146.641C231.72 147.743 231.675 148.858 231.456 149.946C231.861 149.754 232.204 149.454 232.448 149.079C232.693 148.704 232.829 148.269 232.842 147.821C234.931 148.326 235.877 149.306 236.252 150.046C236.051 151.419 235.465 152.708 234.562 153.762C236.452 153.222 237.092 151.196 237.092 151.196C239.293 155.399 239.264 160.189 234.204 160.6Z" fill="#224971"/>
<path opacity="0.3" d="M234.204 160.6C233.502 161.173 232.674 161.573 231.789 161.766C230.903 161.959 229.985 161.94 229.108 161.712C228.231 161.483 227.42 161.05 226.742 160.449C226.064 159.848 225.537 159.095 225.205 158.252C226.211 157.795 227.132 157.17 227.928 156.403C226.596 156.084 225.202 156.124 223.89 156.521C223.488 156.016 223.223 155.417 223.12 154.781C223.017 154.144 223.08 153.492 223.303 152.887C224.828 152.257 226.521 152.155 228.11 152.599C226.694 151.493 224.911 150.964 223.121 151.12C222.819 148.751 223.05 146.345 223.796 144.076C227.136 144.276 230.447 145.661 231.591 146.641C231.72 147.743 231.675 148.858 231.456 149.946C231.861 149.754 232.204 149.454 232.448 149.079C232.693 148.704 232.829 148.269 232.842 147.821C234.931 148.326 235.877 149.306 236.252 150.046C236.051 151.419 235.465 152.708 234.562 153.762C236.452 153.222 237.092 151.196 237.092 151.196C239.293 155.399 239.264 160.189 234.204 160.6Z" fill="white"/>
<path d="M234.339 161.082C234.291 161.081 234.245 161.064 234.208 161.033C234.172 161.002 234.147 160.959 234.139 160.911C233.552 157.055 230.764 150.656 224.747 145.309C224.709 145.27 224.688 145.219 224.688 145.165C224.688 145.111 224.709 145.059 224.747 145.021C224.786 144.985 224.837 144.965 224.891 144.965C224.944 144.965 224.995 144.985 225.034 145.021C231.116 150.445 233.957 156.943 234.544 160.87C234.55 160.924 234.535 160.977 234.504 161.02C234.472 161.064 234.426 161.094 234.374 161.105L234.339 161.082Z" fill="white"/>
<path d="M157.106 31.6458C157.107 31.5392 157.079 31.4342 157.025 31.3422C156.972 31.2501 156.894 31.1745 156.8 31.1233L154.088 29.6206C153.999 29.5691 153.898 29.5419 153.795 29.5419C153.692 29.5419 153.591 29.5691 153.501 29.6206L120.306 48.8158C119.977 49.0067 119.716 49.2963 119.56 49.6435C119.457 49.8785 119.403 50.1323 119.402 50.389V60.3271L112.998 66.931C112.41 67.518 112.364 68.422 112.81 68.5629L115.363 69.9717C115.408 70.0184 115.463 70.0534 115.525 70.0739C115.586 70.0943 115.652 70.0996 115.715 70.0891L119.437 69.6371V77.6205C119.436 77.7255 119.463 77.8288 119.516 77.9197C119.569 78.0105 119.645 78.0856 119.736 78.1371L122.425 79.6281H122.466H122.495C122.58 79.6723 122.673 79.6954 122.768 79.6954C122.863 79.6954 122.957 79.6723 123.041 79.6281L156.26 60.4739C156.537 60.315 156.766 60.0857 156.925 59.8094C157.083 59.533 157.166 59.2194 157.164 58.9007L157.106 31.6458ZM122.407 50.888C122.39 50.9084 122.374 50.93 122.36 50.9526C122.369 50.9305 122.379 50.9089 122.39 50.888H122.407Z" fill="#224971"/>
<path opacity="0.1" d="M122.161 79.1467C122.161 79.2486 122.187 79.3487 122.238 79.4372C122.288 79.5257 122.361 79.5996 122.448 79.6515L119.76 78.1605C119.668 78.1091 119.592 78.034 119.54 77.9431C119.487 77.8523 119.46 77.7489 119.461 77.6439V69.6606L122.167 69.326L122.161 79.1467Z" fill="black"/>
<path opacity="0.2" d="M120.294 48.8099L153.501 29.6146C153.591 29.5631 153.692 29.5359 153.795 29.5359C153.898 29.5359 153.999 29.5631 154.088 29.6146L156.8 31.1232C156.711 31.0717 156.61 31.0446 156.507 31.0446C156.404 31.0446 156.303 31.0717 156.213 31.1232L123.018 50.3185C122.671 50.5165 122.401 50.8243 122.249 51.1931L119.56 49.6375C119.713 49.292 119.969 49.0026 120.294 48.8099Z" fill="white"/>
<path opacity="0.1" d="M119.408 60.3212V50.3831C119.409 50.1264 119.463 49.8726 119.566 49.6376L122.255 51.1932C122.166 51.4133 122.12 51.6485 122.12 51.8859V61.824L119.408 60.3212Z" fill="white"/>
<path opacity="0.05" d="M112.998 66.931L119.408 60.3036L122.12 61.8064L115.709 68.4396C115.216 68.9503 115.122 69.69 115.363 69.9717L112.81 68.5629C112.364 68.4396 112.41 67.518 112.998 66.931Z" fill="white"/>
<path d="M128.236 60.0923L128.248 64.0605L127.444 64.5301L125.912 63.2915L125.918 65.4106L124.961 65.9624L124.949 61.9883L125.753 61.5246L127.285 62.7632L127.28 60.6441L128.236 60.0923Z" fill="white"/>
<path d="M130.678 58.6012C131.788 57.9613 132.604 58.3664 132.604 59.558C132.571 60.204 132.379 60.8319 132.045 61.3859C131.711 61.9399 131.246 62.4029 130.69 62.7337C129.587 63.3736 128.765 62.9685 128.765 61.7769C128.798 61.1311 128.991 60.5036 129.325 59.9498C129.658 59.3959 130.123 58.9328 130.678 58.6012ZM130.678 61.8063C130.96 61.6252 131.192 61.377 131.354 61.084C131.516 60.7909 131.603 60.4622 131.606 60.1274C131.606 59.4406 131.189 59.2351 130.667 59.5404C130.384 59.7193 130.151 59.9662 129.989 60.2585C129.827 60.5508 129.741 60.8792 129.739 61.2134C129.739 61.9002 130.15 62.1115 130.678 61.8004" fill="white"/>
<path d="M136.349 61.5891C137.452 60.9551 138.263 61.4365 138.263 63.0801C138.29 63.8057 138.13 64.526 137.797 65.1717C137.465 65.8174 136.973 66.3667 136.366 66.7665C135.263 67.4005 134.453 66.9192 134.447 65.2814C134.42 64.5544 134.581 63.8327 134.914 63.1859C135.247 62.5391 135.741 61.9892 136.349 61.5891ZM136.349 65.616C136.742 65.3871 137.024 64.8353 137.024 63.7904C137.024 62.7455 136.73 62.5166 136.343 62.7396C135.956 62.9627 135.668 63.5262 135.668 64.5711C135.668 65.616 135.956 65.8391 136.349 65.616Z" fill="white"/>
<path d="M138.427 54.2104L137.312 58.8302L136.267 59.4348L135.597 57.4038L134.917 60.2156L133.866 60.8202L132.733 57.4977L133.742 56.9166L134.441 59.0474L135.169 56.0889L136.067 55.5723L136.771 57.7325L137.488 54.7505L138.427 54.2104Z" fill="white"/>
<path d="M142.037 52.0443C143.141 51.4045 143.962 51.8095 143.962 53.0012C143.929 53.6469 143.736 54.2744 143.403 54.8283C143.069 55.3821 142.604 55.8453 142.049 56.1769C140.939 56.8167 140.123 56.4117 140.117 55.2201C140.152 54.5739 140.346 53.9462 140.68 53.3924C141.015 52.8386 141.481 52.3756 142.037 52.0443ZM142.037 55.2494C142.319 55.0688 142.551 54.8207 142.713 54.5275C142.875 54.2344 142.962 53.9055 142.964 53.5706C142.964 52.8838 142.553 52.6724 142.025 52.9836C141.744 53.1633 141.511 53.4104 141.349 53.7025C141.187 53.9946 141.101 54.3225 141.098 54.6565C141.098 55.3433 141.509 55.5605 142.037 55.2436" fill="white"/>
<path d="M148.283 54.7035C149.38 54.0696 150.185 54.5509 150.191 56.1945C150.217 56.9192 150.057 57.6386 149.725 58.2833C149.393 58.928 148.9 59.4762 148.294 59.8751C147.185 60.5149 146.381 60.0336 146.381 58.3958C146.353 57.6686 146.513 56.9465 146.846 56.2995C147.179 55.6526 147.674 55.1028 148.283 54.7035ZM148.283 58.7246C148.67 58.5015 148.952 57.9497 148.946 56.9048C148.94 55.8599 148.664 55.631 148.271 55.8541C147.878 56.0771 147.596 56.6407 147.596 57.6855C147.596 58.7304 147.884 58.9535 148.283 58.7246Z" fill="white"/>
<path d="M147.766 48.8157L147.778 52.7898L146.974 53.2535L145.442 52.0149L145.447 54.1341L144.485 54.6917L144.473 50.7176L145.283 50.248L146.815 51.4866L146.803 49.3734L147.766 48.8157Z" fill="white"/>
<path d="M154.306 45.0413L152.985 48.3579L152.991 49.7785L152.01 50.3479L152.004 48.9039L150.684 47.137L151.711 46.5382L152.539 47.6418L153.355 45.5872L154.306 45.0413Z" fill="white"/>
<path d="M152.515 52.2557C153.613 51.6217 154.423 52.103 154.423 53.7408C154.452 54.4667 154.292 55.1876 153.96 55.8336C153.628 56.4796 153.134 57.0286 152.527 57.4272C151.423 58.0671 150.613 57.5857 150.607 55.9421C150.582 55.2155 150.744 54.4946 151.078 53.8489C151.412 53.2033 151.907 52.6545 152.515 52.2557ZM152.515 56.2767C152.908 56.0536 153.19 55.496 153.19 54.4511C153.19 53.4062 152.897 53.1831 152.509 53.4062C152.122 53.6293 151.834 54.1869 151.834 55.2318C151.834 56.2767 152.122 56.5056 152.515 56.2767Z" fill="white"/>
<path d="M149.439 47.8531L149.451 50.9349L151.1 49.9781V50.8703L148.471 52.3848L148.459 48.4166L149.439 47.8531Z" fill="white"/>
<path d="M127.168 66.1385V66.931C127.553 66.7209 127.986 66.6156 128.424 66.6257L128.048 67.8878C127.636 67.8766 127.229 67.9824 126.874 68.193C126.358 68.4924 126.176 68.78 126.176 69.0442C126.176 69.8014 128.63 67.8173 128.635 69.6312C128.594 70.1129 128.443 70.5789 128.195 70.9938C127.947 71.4087 127.608 71.7618 127.203 72.0262V72.8011L126.458 73.2296V72.4723C125.986 72.7487 125.441 72.8736 124.896 72.8304L125.29 71.5683C125.791 71.6156 126.294 71.4982 126.722 71.2338C127.227 70.9402 127.426 70.6467 127.426 70.4178C127.426 69.6312 124.967 71.627 124.961 69.7838C125.001 69.2891 125.156 68.8105 125.412 68.3858C125.669 67.961 126.021 67.6016 126.44 67.336V66.5553L127.168 66.1385Z" fill="white"/>
<path d="M132.293 63.9373C133.29 63.3503 133.977 63.5557 133.977 64.4773C133.937 65.2027 133.682 65.8997 133.244 66.479L132.433 67.8174L134.101 66.8547V67.9701L130.737 69.9131V69.0325L132.369 66.344C132.595 66.0463 132.729 65.6895 132.756 65.3168C132.756 64.9998 132.568 64.9117 132.199 65.1289C131.849 65.3475 131.58 65.6727 131.43 66.0564L130.52 65.9977C130.864 65.1323 131.488 64.407 132.293 63.9373Z" fill="white"/>
<path d="M140.587 59.1472C141.685 58.5132 142.489 58.9946 142.495 60.6323C142.524 61.3582 142.364 62.0792 142.032 62.7252C141.7 63.3712 141.206 63.9202 140.599 64.3188C139.495 64.9586 138.691 64.4773 138.685 62.8336C138.659 62.1075 138.82 61.3868 139.153 60.741C139.486 60.0953 139.98 59.5464 140.587 59.1472ZM140.587 63.1682C140.974 62.9452 141.262 62.3875 141.256 61.3426C141.25 60.2977 140.969 60.0747 140.575 60.2977C140.182 60.5208 139.9 61.0785 139.9 62.1234C139.9 63.1682 140.188 63.3972 140.587 63.1682Z" fill="white"/>
<path d="M143.522 61.008C143.927 60.7732 144.227 60.9199 144.227 61.4013C144.211 61.7212 144.144 62.0365 144.027 62.3346L143.64 63.5967L142.9 64.0193L143.188 62.6927C142.964 62.6927 142.824 62.5459 142.824 62.2113C142.829 61.968 142.895 61.73 143.018 61.5196C143.14 61.3091 143.313 61.1331 143.522 61.008Z" fill="white"/>
<path d="M128.336 52.2557V53.3827L126.528 54.4276L126.499 55.1907L126.798 55.0205C128.125 54.2515 128.647 54.6566 128.647 55.5723C128.6 56.182 128.395 56.7689 128.052 57.2753C127.71 57.7817 127.241 58.1901 126.693 58.4604C126.171 58.804 125.556 58.9782 124.931 58.9593L125.389 57.5975C125.826 57.6487 126.266 57.5448 126.634 57.304C126.824 57.2174 126.989 57.0844 127.114 56.9172C127.239 56.7499 127.32 56.5539 127.35 56.3471C127.35 56.0302 127.162 55.9304 126.475 56.3471L125.254 57.0516L125.472 53.911L128.336 52.2557Z" fill="white"/>
<path d="M130.966 50.6179C132.105 49.9604 132.944 50.4535 132.95 52.1558C132.977 52.9086 132.81 53.6556 132.464 54.325C132.119 54.9943 131.607 55.5633 130.978 55.9773C129.833 56.6406 128.994 56.1417 128.994 54.4393C128.965 53.6864 129.132 52.9389 129.478 52.2694C129.823 51.5999 130.336 51.031 130.966 50.6179ZM130.966 54.7857C131.371 54.5508 131.664 53.9756 131.659 52.8955C131.653 51.8154 131.359 51.5747 130.954 51.8095C130.549 52.0443 130.25 52.6196 130.256 53.7056C130.262 54.7915 130.555 55.0205 130.966 54.7857Z" fill="white"/>
<path d="M137.652 49.2442C138.315 48.8627 138.826 49.1151 138.826 50.0073C138.828 50.4283 138.721 50.8426 138.515 51.2099C138.309 51.5772 138.012 51.8849 137.652 52.103C136.983 52.4904 136.478 52.2321 136.478 51.334C136.477 50.914 136.584 50.5009 136.79 50.1347C136.996 49.7686 137.293 49.4618 137.652 49.2442ZM137.652 51.4044C137.792 51.2921 137.9 51.1454 137.966 50.9787C138.032 50.8119 138.053 50.6309 138.028 50.4535C138.028 49.9369 137.857 49.8195 137.646 49.9428C137.507 50.0554 137.399 50.2022 137.333 50.3688C137.267 50.5355 137.246 50.7163 137.27 50.8937C137.27 51.4162 137.441 51.5277 137.652 51.4044Z" fill="white"/>
<path d="M137.1 47.178L138.022 46.6438L134.975 53.5705L134.048 54.1047L137.1 47.178Z" fill="white"/>
<path d="M135.603 49.4086C135.606 49.8288 135.498 50.2424 135.293 50.6087C135.087 50.9751 134.789 51.2816 134.429 51.4984C133.772 51.8799 133.255 51.6334 133.255 50.7352C133.252 50.3182 133.355 49.9071 133.555 49.5413C133.756 49.1755 134.047 48.8671 134.4 48.6455C135.116 48.2581 135.603 48.5163 135.603 49.4086ZM134.071 50.2891C134.071 50.8174 134.247 50.9172 134.453 50.7998C134.658 50.6824 134.829 50.3772 134.829 49.8547C134.829 49.3323 134.664 49.2149 134.447 49.344C134.308 49.4558 134.201 49.6015 134.135 49.7671C134.069 49.9327 134.047 50.1126 134.071 50.2891Z" fill="white"/>
<path d="M143.487 43.3859C144.919 42.5583 145.982 43.0807 145.988 44.6304C145.942 45.4664 145.692 46.2784 145.259 46.9949C144.826 47.7115 144.224 48.3106 143.505 48.7395C142.06 49.5731 141.004 49.0506 140.998 47.5009C141.044 46.6636 141.295 45.8505 141.729 45.1329C142.163 44.4154 142.767 43.8155 143.487 43.3859ZM143.487 47.542C143.848 47.306 144.144 46.9838 144.349 46.6046C144.554 46.2254 144.661 45.8011 144.661 45.37C144.661 44.4778 144.127 44.196 143.452 44.5952C143.084 44.8267 142.781 45.147 142.569 45.5265C142.358 45.9061 142.246 46.3327 142.242 46.7671C142.242 47.6594 142.777 47.9412 143.458 47.542" fill="white"/>
<path d="M150.167 39.6349V40.7619L147.919 42.0651L147.925 43.198L149.903 42.0534V43.1746L147.925 44.3192L147.931 46.092L146.663 46.8199L146.645 41.6659L150.167 39.6349Z" fill="white"/>
<path d="M154.282 37.2575L154.288 38.3846L152.034 39.6877L152.04 40.8207L154.018 39.676L154.024 40.8031L152.04 41.9419L152.046 43.7146L150.778 44.4425L150.76 39.2886L154.282 37.2575Z" fill="white"/>
<path d="M186.016 44.9005L170.918 53.5589C170.458 53.8245 170.078 54.2099 169.82 54.6742C169.572 55.1153 169.441 55.6123 169.439 56.1182V67.1012C169.459 67.6109 169.612 68.1064 169.882 68.539C170.153 68.9716 170.531 69.3262 170.98 69.568C171.429 69.8097 171.934 69.9303 172.444 69.9177C172.954 69.9051 173.451 69.7598 173.888 69.4962L176.512 67.9994L176.753 68.3809C176.753 68.3809 176.753 68.3809 176.788 68.4161H176.817C177.252 68.7038 177.991 69.1088 178.179 69.1969C178.219 69.2099 178.262 69.2067 178.3 69.188C178.337 69.1693 178.365 69.1367 178.379 69.0971L179.347 66.3616L188.98 60.8554C189.432 60.5986 189.808 60.2263 190.069 59.7766C190.33 59.3269 190.467 58.816 190.465 58.2961V47.2955C190.483 45.1705 187.337 44.1432 186.016 44.9005Z" fill="#224971"/>
<path opacity="0.2" d="M176.753 68.3809C176.753 68.3809 176.753 68.3809 176.788 68.4161H176.817C177.252 68.7037 177.991 69.1088 178.179 69.1968C178.141 69.1867 178.108 69.1639 178.085 69.1322L177.152 67.6177L177.334 67.5121L176.512 67.9817L176.753 68.3809Z" fill="white"/>
<path opacity="0.4" d="M172.749 56.3647C172.942 55.9844 173.212 55.6485 173.542 55.3785C173.656 55.2883 173.775 55.206 173.9 55.132L188.998 46.4735C189.147 46.3881 189.316 46.3434 189.488 46.3439C189.66 46.3444 189.828 46.39 189.977 46.4762C190.126 46.5624 190.249 46.6862 190.335 46.8351C190.42 46.984 190.465 47.1529 190.465 47.3247C190.465 45.1997 187.337 44.1725 186.016 44.9297L170.918 53.5881C170.458 53.8537 170.078 54.2392 169.82 54.7034L172.749 56.3647Z" fill="white"/>
<path opacity="0.2" d="M172.421 68.6451V57.6621C172.412 57.5448 172.412 57.4271 172.421 57.3099C172.469 56.9706 172.572 56.6414 172.726 56.3354L169.791 54.6742C169.543 55.1153 169.412 55.6123 169.409 56.1182V67.1012C169.43 67.6109 169.583 68.1064 169.853 68.539C170.123 68.9716 170.502 69.3262 170.951 69.568C171.4 69.8097 171.904 69.9303 172.414 69.9177C172.924 69.9051 173.422 69.7598 173.859 69.4962C173.711 69.5745 173.545 69.6136 173.377 69.6095C173.21 69.6055 173.046 69.5585 172.901 69.4731C172.757 69.3877 172.637 69.2668 172.553 69.1218C172.469 68.9768 172.423 68.8127 172.421 68.6451Z" fill="white"/>
<path d="M179.811 58.0788C180.04 57.9497 180.228 58.0788 180.228 58.3136V58.4369V61.8416V62.4286C180.22 62.5718 180.179 62.7112 180.108 62.8356C180.036 62.96 179.937 63.0659 179.817 63.1447L177.762 64.3188C177.533 64.4479 177.351 64.3188 177.346 64.0781V59.969C177.352 59.8263 177.392 59.6871 177.464 59.5635C177.535 59.4398 177.636 59.3352 177.757 59.2587L179.811 58.0788ZM179.042 63.0215C179.169 62.941 179.274 62.8313 179.35 62.7015C179.426 62.5718 179.469 62.4259 179.476 62.276C179.476 62.0001 179.283 61.8885 179.042 62.0294C178.915 62.1099 178.81 62.2196 178.734 62.3493C178.659 62.479 178.615 62.625 178.608 62.7749C178.608 63.0508 178.807 63.1624 179.042 63.0215Z" fill="#224971"/>
<g opacity="0.5">
<path d="M179.811 58.0788C180.04 57.9497 180.228 58.0788 180.228 58.3136V58.4369V61.8416V62.4286C180.22 62.5718 180.179 62.7112 180.108 62.8356C180.036 62.96 179.937 63.0659 179.817 63.1447L177.762 64.3188C177.533 64.4479 177.351 64.3188 177.346 64.0781V59.969C177.352 59.8263 177.392 59.6871 177.464 59.5635C177.535 59.4398 177.636 59.3352 177.757 59.2587L179.811 58.0788ZM179.042 63.0215C179.169 62.941 179.274 62.8313 179.35 62.7015C179.426 62.5718 179.469 62.4259 179.476 62.276C179.476 62.0001 179.283 61.8885 179.042 62.0294C178.915 62.1099 178.81 62.2196 178.734 62.3493C178.659 62.479 178.615 62.625 178.608 62.7749C178.608 63.0508 178.807 63.1624 179.042 63.0215Z" fill="white"/>
</g>
<path d="M181.901 52.3438C182.799 51.8272 183.515 52.2909 183.462 53.3475L183.38 55.0323L185.763 53.6528C186.579 53.1832 186.755 54.2692 186.204 55.0381C186.791 55.1966 186.597 56.1476 186.098 56.7522C186.562 56.9635 186.151 58.0319 185.581 58.478C185.951 58.6306 185.634 59.7812 184.994 60.1569L182.646 61.507L181.167 62.364C180.662 62.6575 180.251 62.4227 180.251 61.8416V58.4369L181.191 56.1593C181.653 55.0719 181.904 53.9065 181.93 52.7253L181.901 52.3438Z" fill="white"/>
<path d="M217.791 77.0099C217.791 76.9428 217.773 76.8769 217.739 76.8191C217.705 76.7613 217.656 76.7137 217.597 76.6812L215.877 75.7361C215.82 75.7042 215.755 75.6875 215.689 75.6875C215.624 75.6875 215.559 75.7042 215.501 75.7361L200.574 84.3065C200.364 84.4292 200.198 84.6138 200.098 84.8348C200.033 84.9827 199.999 85.1426 199.998 85.3044V89.6835L195.925 93.8982C195.555 94.2739 195.52 94.8433 195.801 94.9314L197.427 95.8295C197.456 95.8583 197.491 95.8798 197.53 95.8921C197.569 95.9044 197.61 95.9071 197.65 95.8999L199.998 95.6123V98.8291C199.999 98.8954 200.017 98.9604 200.049 99.018C200.082 99.0755 200.129 99.1237 200.186 99.1578L201.894 100.103C201.948 100.13 202.007 100.144 202.068 100.144C202.128 100.144 202.187 100.13 202.241 100.103L217.163 91.5208C217.338 91.4194 217.485 91.2741 217.588 91.0993C217.691 90.9244 217.746 90.7258 217.75 90.5229L217.791 77.0099Z" fill="#224971"/>
<path opacity="0.1" d="M201.759 99.8036C201.759 99.8687 201.775 99.9328 201.807 99.9895C201.839 100.046 201.885 100.093 201.941 100.126L200.233 99.1814C200.176 99.1472 200.129 99.0991 200.096 99.0415C200.064 98.9839 200.046 98.9189 200.045 98.8526V95.6358L201.765 95.4304L201.759 99.8036Z" fill="black"/>
<path opacity="0.2" d="M200.574 84.3065L215.49 75.7361C215.547 75.7042 215.612 75.6875 215.677 75.6875C215.743 75.6875 215.808 75.7042 215.865 75.7361L217.585 76.6929C217.527 76.6594 217.461 76.6418 217.394 76.6418C217.327 76.6418 217.262 76.6594 217.204 76.6929L202.288 85.275C202.062 85.41 201.889 85.6167 201.795 85.862L200.086 84.8759C200.182 84.6379 200.353 84.4379 200.574 84.3065Z" fill="white"/>
<path opacity="0.1" d="M200.01 89.6835V85.3044C200.011 85.1427 200.045 84.9828 200.11 84.8348L201.818 85.821C201.764 85.9614 201.736 86.1107 201.736 86.2613V90.6404L200.01 89.6835Z" fill="white"/>
<path opacity="0.05" d="M195.936 93.8983L200.01 89.6835L201.736 90.6404L197.656 94.8551C197.345 95.178 197.269 95.6476 197.439 95.8295L195.813 94.9314C195.531 94.8434 195.566 94.274 195.936 93.8983Z" fill="white"/>
<path d="M212.232 82.5102C212.494 82.321 212.801 82.2044 213.123 82.1725C213.445 82.1405 213.769 82.1943 214.063 82.3283C215.085 82.9153 215.091 84.7878 214.063 86.5313L213.476 87.5585L209.854 93.8748L206.174 91.785L205.587 91.4446C204.565 90.8575 204.56 88.985 205.587 87.2357C206.02 86.4475 206.648 85.7843 207.412 85.3103C207.675 85.1217 207.982 85.0052 208.303 84.9722C208.624 84.9393 208.949 84.9911 209.244 85.1224L209.831 85.457L210.418 84.4415C210.849 83.6541 211.473 82.9895 212.232 82.5102Z" fill="white"/>
</svg>
