<svg width="6" height="12" viewBox="0 0 6 12" fill="none" xmlns="http://www.w3.org/2000/svg">
<path d="M4.69325 6.76456L4.67431 6.74372L3.61 7.91499L2.19051 9.47714L1.0219 10.7632L0.532226 11.3021C0.52489 11.3102 0.504159 11.3387 0.500003 11.4154C0.50003 11.4177 0.500585 11.4258 0.506569 11.4408C0.512692 11.4561 0.523043 11.4746 0.537912 11.494C0.538985 11.4945 0.540224 11.4951 0.541614 11.4958C0.54489 11.4972 0.548078 11.4983 0.550802 11.4991C0.551908 11.4987 0.553199 11.4982 0.55464 11.4975C0.558057 11.496 0.561419 11.494 0.56439 11.4919C0.567352 11.4897 0.569212 11.4879 0.570107 11.4869L0.940152 11.8232L0.570109 11.4869L0.578912 11.4773L0.578889 11.4772L0.582654 11.4732C0.713778 11.3321 0.84095 11.1911 0.970931 11.0469C1.03729 10.9734 1.10439 10.899 1.17312 10.8233L2.39344 9.48036L3.81294 7.91821L4.77724 6.857L4.69325 6.76456ZM3.77506 4.26712L4.67415 5.25657C4.67835 5.25206 4.68255 5.24756 4.68675 5.24306L4.69325 5.2359L4.77779 5.14286L3.64898 3.90061L2.22949 2.33846L1.06088 1.0524L0.572965 0.515445C0.572808 0.515275 0.572653 0.515107 0.572499 0.514943C0.56761 0.509725 0.564207 0.507786 0.560835 0.506306C0.55856 0.505308 0.554676 0.50387 0.548819 0.502582C0.547186 0.503682 0.545393 0.504942 0.543447 0.506379C0.537509 0.510765 0.530838 0.516292 0.523715 0.523001C0.521265 0.527309 0.5176 0.534729 0.51381 0.545157C0.509713 0.556428 0.506411 0.568634 0.50424 0.580513C0.502042 0.592536 0.501523 0.601359 0.501523 0.605952C0.501523 0.645548 0.520767 0.685773 0.532226 0.698383L0.16218 1.03464L0.532228 0.698385L0.54103 0.708073L0.541053 0.708052L0.544721 0.71218C0.672962 0.85648 0.80108 0.996427 0.932025 1.13946C0.998894 1.2125 1.0665 1.28635 1.13524 1.362L2.35556 2.70497L3.77506 4.26712Z" stroke="#506173"/>
</svg>
