<svg width="241" height="190" viewBox="0 0 241 190" fill="none" xmlns="http://www.w3.org/2000/svg">
<path d="M214.143 101.192V94.4412C214.143 93.1539 213.632 91.9193 212.722 91.0091C211.813 90.0988 210.579 89.5875 209.293 89.5875H192.176C191.54 89.5875 190.909 89.4619 190.321 89.218C189.732 88.9741 189.198 88.6165 188.747 88.1658C188.297 87.7151 187.94 87.1801 187.696 86.5912C187.452 86.0023 187.327 85.3711 187.327 84.7337V77.9831C187.327 76.6958 187.838 75.4613 188.747 74.551C189.657 73.6408 190.89 73.1294 192.176 73.1294H192.717C193.354 73.1294 193.984 73.0039 194.573 72.76C195.161 72.516 195.696 72.1585 196.146 71.7078C196.596 71.2571 196.953 70.722 197.197 70.1332C197.441 69.5443 197.566 68.9131 197.566 68.2757V61.5251C197.566 60.8877 197.441 60.2565 197.197 59.6677C196.953 59.0788 196.596 58.5437 196.146 58.093C195.696 57.6423 195.161 57.2848 194.573 57.0408C193.984 56.7969 193.354 56.6714 192.717 56.6714H54.8251C53.539 56.6714 52.3055 57.1828 51.396 58.093C50.4866 59.0032 49.9757 60.2378 49.9757 61.5251V68.2757C49.9757 69.563 50.4866 70.7976 51.396 71.7078C52.3055 72.618 53.539 73.1294 54.8251 73.1294C55.4619 73.1294 56.0925 73.255 56.6809 73.4989C57.2693 73.7428 57.8039 74.1003 58.2542 74.551C58.7045 75.0017 59.0617 75.5368 59.3054 76.1257C59.5491 76.7146 59.6746 77.3457 59.6746 77.9831V84.7337C59.6746 85.3711 59.5491 86.0023 59.3054 86.5912C59.0617 87.1801 58.7045 87.7151 58.2542 88.1658C57.8039 88.6165 57.2693 88.9741 56.6809 89.218C56.0925 89.4619 55.4619 89.5874 54.8251 89.5874H36.0718C35.435 89.5874 34.8044 89.713 34.216 89.9569C33.6277 90.2008 33.0931 90.5584 32.6427 91.0091C32.1924 91.4598 31.8352 91.9948 31.5915 92.5837C31.3478 93.1726 31.2224 93.8038 31.2224 94.4412V101.192C31.2224 101.829 31.3478 102.46 31.5915 103.049C31.8352 103.638 32.1924 104.173 32.6427 104.624C33.0931 105.075 33.6277 105.432 34.216 105.676C34.8044 105.92 35.435 106.045 36.0718 106.045H43.4303C44.7165 106.045 45.95 106.557 46.8594 107.467C47.7689 108.377 48.2798 109.612 48.2798 110.899V117.65C48.2798 118.937 47.7689 120.172 46.8594 121.082C45.95 121.992 44.7165 122.504 43.4303 122.504H43.4125C42.1264 122.504 40.8929 123.015 39.9835 123.925C39.074 124.835 38.5631 126.07 38.5631 127.357V134.108C38.5631 134.745 38.6885 135.376 38.9322 135.965C39.1759 136.554 39.5331 137.089 39.9835 137.54C40.4338 137.991 40.9684 138.348 41.5567 138.592C42.1451 138.836 42.7757 138.962 43.4125 138.962H44.4772C45.114 138.962 45.7446 139.087 46.333 139.331C46.9213 139.575 47.4559 139.932 47.9062 140.383C48.3566 140.834 48.7138 141.369 48.9575 141.958C49.2012 142.547 49.3266 143.178 49.3266 143.815V150.566C49.3266 151.853 48.8157 153.088 47.9062 153.998C46.9968 154.908 45.7633 155.42 44.4772 155.42H27.0049C26.368 155.42 25.7374 155.545 25.149 155.789C24.5607 156.033 24.0261 156.391 23.5758 156.841C23.1255 157.292 22.7682 157.827 22.5245 158.416C22.2808 159.005 22.1554 159.636 22.1554 160.273V167.024C22.1554 167.661 22.2808 168.292 22.5245 168.881C22.7682 169.47 23.1255 170.005 23.5758 170.456C24.0261 170.907 24.5607 171.264 25.149 171.508C25.7374 171.752 26.368 171.878 27.0049 171.878H195.32C195.957 171.878 196.588 171.752 197.176 171.508C197.765 171.264 198.299 170.907 198.749 170.456C199.2 170.005 199.557 169.47 199.801 168.881C200.044 168.292 200.17 167.661 200.17 167.024V160.273C200.17 159.636 200.044 159.005 199.801 158.416C199.557 157.827 199.2 157.292 198.749 156.841C198.299 156.391 197.765 156.033 197.176 155.789C196.588 155.545 195.957 155.42 195.32 155.42H191.116C190.479 155.42 189.848 155.294 189.26 155.05C188.671 154.806 188.137 154.449 187.687 153.998C187.236 153.547 186.879 153.012 186.635 152.423C186.392 151.834 186.266 151.203 186.266 150.566V143.815C186.266 143.178 186.392 142.547 186.635 141.958C186.879 141.369 187.236 140.834 187.687 140.383C188.137 139.932 188.671 139.575 189.26 139.331C189.848 139.087 190.479 138.962 191.116 138.962H201.03C202.316 138.962 203.55 138.45 204.459 137.54C205.368 136.63 205.879 135.395 205.879 134.108V127.357C205.879 126.07 205.368 124.835 204.459 123.925C203.55 123.015 202.316 122.504 201.03 122.504H198.022C196.736 122.504 195.503 121.992 194.593 121.082C193.684 120.172 193.173 118.937 193.173 117.65V110.899C193.173 109.612 193.684 108.377 194.593 107.467C195.503 106.557 196.736 106.045 198.022 106.045H209.293C210.579 106.045 211.813 105.534 212.722 104.624C213.632 103.714 214.143 102.479 214.143 101.192Z" fill="#DBE8EC"/>
<path d="M120.247 166.627C155.799 166.627 184.619 137.782 184.619 102.199C184.619 66.6161 155.799 37.7705 120.247 37.7705C84.6956 37.7705 55.8752 66.6161 55.8752 102.199C55.8752 137.782 84.6956 166.627 120.247 166.627Z" fill="#DBE8EC"/>
<path d="M144.144 80.1646L179.168 98.8903V153.494L144.144 134.768V80.1646Z" fill="#DB620F"/>
<path d="M144.144 80.1646L62.3474 98.8903V153.494L144.144 134.768V80.1646Z" fill="#EE781D"/>
<path d="M130.112 62.8809L48.3157 81.6066L62.3474 98.7593L144.144 80.0336L130.112 62.8809Z" fill="#F98232"/>
<path d="M97.371 172.089L62.3474 153.364V98.7598L97.371 117.485V172.089Z" fill="#F98232"/>
<path d="M83.3393 129.956L48.3157 111.231L62.3474 98.7598L97.371 117.485L83.3393 129.956Z" fill="#FC934C"/>
<path d="M179.168 98.7596L144.144 80.0338L158.176 67.5625L193.2 86.2883L179.168 98.7596Z" fill="#EE781D"/>
<path d="M97.3711 172.089L179.168 153.364V98.7598L97.3711 117.485V172.089Z" fill="#EE781D"/>
<path d="M97.3711 117.747L179.168 99.0215L193.2 114.171L111.403 132.896L97.3711 117.747Z" fill="#F98232"/>
<path d="M42.4023 34.0418C44.2523 33.7735 46.1314 33.7765 47.9805 34.0506C49.8471 34.3017 51.6713 34.8035 53.4039 35.5425C55.1452 36.2841 56.7536 37.3058 58.1655 38.5669C59.5688 39.8167 60.7218 41.3223 61.5629 43.0034C60.4368 41.5588 59.1387 40.2573 57.6975 39.1277C56.2631 38.0271 54.6962 37.1113 53.0336 36.4018C52.206 36.0358 51.3566 35.7213 50.4902 35.4601C49.6269 35.1822 48.7436 34.9676 47.8548 34.7674C46.059 34.3834 44.236 34.1407 42.4023 34.0418Z" fill="#EE781D"/>
<path d="M156.623 42.4625C156.827 40.6027 157.3 38.7825 158.029 37.0594C158.739 35.3135 159.681 33.6715 160.83 32.1776C161.983 30.676 163.374 29.3733 164.947 28.3209C166.508 27.2741 168.253 26.5338 170.089 26.1396C168.41 26.8692 166.826 27.8011 165.372 28.9148C163.949 30.0291 162.671 31.3182 161.568 32.7516C161.007 33.4619 160.49 34.2063 160.02 34.9804C159.535 35.7473 159.107 36.5496 158.69 37.3607C157.869 39.0046 157.178 40.7104 156.623 42.4625Z" fill="#3086A3"/>
<path d="M111.485 37.5986C111.03 35.7841 110.84 33.9129 110.924 32.0439C110.982 30.1598 111.295 28.2922 111.852 26.4917C112.411 24.6822 113.262 22.9763 114.371 21.4417C115.47 19.9167 116.848 18.6148 118.433 17.6055C117.112 18.8743 115.951 20.2998 114.976 21.8503C114.029 23.3909 113.279 25.0445 112.744 26.7724C112.465 27.6338 112.239 28.5117 112.068 29.4011C111.88 30.289 111.757 31.1903 111.649 32.0958C111.451 33.9229 111.396 35.7628 111.485 37.5986Z" fill="#D62828"/>
<path d="M182.29 59.7382C182.482 57.8771 182.944 56.054 183.661 54.3262C184.36 52.5758 185.292 50.9278 186.431 49.4267C187.575 47.9178 188.957 46.6062 190.524 45.5438C192.077 44.4869 193.818 43.7355 195.652 43.3296C193.977 44.0698 192.399 45.0119 190.953 46.1349C189.536 47.2583 188.266 48.5555 187.173 49.9959C186.616 50.7098 186.104 51.4575 185.64 52.2347C185.159 53.0046 184.736 53.8095 184.325 54.6234C183.514 56.2725 182.834 57.9827 182.29 59.7382Z" fill="#EE781D"/>
<path d="M75.8032 68.1162C76.0072 68.2013 76.1749 68.3553 76.277 68.5514C76.3726 68.7514 76.4353 68.9654 76.4626 69.1854C76.5268 69.6178 76.5177 70.0471 76.5554 70.4531C76.5387 70.8034 76.6528 71.1474 76.8755 71.4181C76.9935 71.4973 77.1344 71.5351 77.2761 71.5258C77.4179 71.5164 77.5526 71.4604 77.6592 71.3664C77.9859 71.1375 78.2986 70.8891 78.5955 70.6225C78.9563 70.2771 79.4008 70.0317 79.8853 69.9107C80.2069 69.859 80.5359 69.9369 80.8003 70.1274C80.9341 70.2201 81.0495 70.3369 81.1406 70.4718C81.2168 70.5975 81.2769 70.7322 81.3196 70.8728C81.4279 71.3312 81.4658 71.8035 81.4319 72.2734C81.398 72.6423 81.4158 73.0142 81.485 73.3782C81.504 73.488 81.5651 73.586 81.6553 73.6514C81.734 73.7113 81.8331 73.7375 81.9311 73.7244C82.2653 73.6377 82.5743 73.4732 82.8331 73.2445C83.1759 72.9639 83.5439 72.7157 83.9323 72.503C84.169 72.375 84.4344 72.3096 84.7034 72.313C84.9989 72.322 85.2792 72.446 85.4847 72.6588C85.6612 72.8615 85.7751 73.1111 85.8127 73.3773C85.8445 73.6032 85.8528 73.8318 85.8373 74.0594C85.8075 74.4946 85.7449 74.9067 85.731 75.3149C85.6985 75.5153 85.7186 75.7207 85.7892 75.911C85.8598 76.1013 85.9785 76.27 86.1337 76.4006C85.9296 76.3157 85.7617 76.162 85.6592 75.966C85.563 75.7662 85.4999 75.5521 85.4723 75.332C85.4077 74.8997 85.4161 74.4703 85.3781 74.0643C85.3947 73.7141 85.2807 73.3702 85.058 73.0995C84.9408 73.0196 84.8005 72.9811 84.659 72.9897C84.5174 72.9984 84.3828 73.0539 84.2762 73.1475C83.9495 73.3757 83.6367 73.6235 83.3397 73.8893C82.9793 74.2345 82.5356 74.4802 82.052 74.6026C81.7309 74.6559 81.4018 74.5799 81.1365 74.3912C81.0018 74.2997 80.8855 74.1835 80.7939 74.0488C80.7161 73.9236 80.6547 73.7888 80.6115 73.6478C80.5013 73.1891 80.4628 72.7161 80.4974 72.2456C80.532 71.876 80.5147 71.5034 80.446 71.1387C80.4292 71.0776 80.406 71.0186 80.3767 70.9624C80.3387 70.9326 80.3246 70.8793 80.2766 70.8628C80.1985 70.8027 80.1 70.7755 80.0021 70.787C79.6682 70.873 79.3594 71.037 79.1011 71.2655C78.7584 71.5457 78.391 71.7941 78.0033 72.0076C77.7674 72.1358 77.5029 72.2022 77.2345 72.2006C76.939 72.1929 76.6581 72.0699 76.452 71.8578C76.2752 71.6554 76.161 71.406 76.1233 71.1398C76.0911 70.914 76.0828 70.6854 76.0986 70.4578C76.1285 70.0227 76.191 69.6106 76.2053 69.2022C76.238 69.0018 76.2182 68.7964 76.1477 68.606C76.0772 68.4157 75.9585 68.2469 75.8032 68.1162Z" fill="#3086A3"/>
<path d="M120.681 47.4648C120.745 47.682 120.735 47.9144 120.652 48.125C120.562 48.3345 120.437 48.5271 120.282 48.6941C119.985 49.0311 119.64 49.3059 119.345 49.603C119.058 49.8241 118.864 50.1458 118.804 50.5035C118.815 50.6541 118.873 50.7973 118.971 50.9126C119.068 51.028 119.199 51.1098 119.345 51.1462C119.734 51.2736 120.131 51.3755 120.533 51.4514C121.039 51.5317 121.515 51.7465 121.911 52.0734C122.141 52.3014 122.279 52.6056 122.3 52.9286C122.314 53.0899 122.299 53.2524 122.256 53.4084C122.211 53.5514 122.148 53.688 122.068 53.815C121.783 54.2077 121.438 54.5521 121.044 54.8352C120.731 55.0507 120.452 55.311 120.216 55.6078C120.142 55.7037 120.106 55.8233 120.114 55.9439C120.119 56.0559 120.163 56.1625 120.239 56.245C120.515 56.4689 120.841 56.6218 121.189 56.6904C121.632 56.7947 122.065 56.9418 122.48 57.1297C122.596 57.1894 122.707 57.2579 122.813 57.3344C122.925 57.424 123.023 57.5296 123.105 57.6477C123.273 57.8897 123.349 58.184 123.32 58.4773C123.279 58.7475 123.162 59.0005 122.983 59.2069C122.829 59.3844 122.656 59.5441 122.467 59.6827C122.105 59.9482 121.739 60.1699 121.411 60.4306C121.234 60.5411 121.088 60.695 120.987 60.8776C120.886 61.0602 120.833 61.2655 120.833 61.4743C120.769 61.2572 120.779 61.0247 120.862 60.8139C120.951 60.6042 121.076 60.4114 121.231 60.2441C121.528 59.9068 121.873 59.6316 122.167 59.3342C122.454 59.1133 122.648 58.7918 122.708 58.4341C122.698 58.2838 122.64 58.1406 122.543 58.0251C122.447 57.9096 122.316 57.8277 122.17 57.7911C121.782 57.6633 121.385 57.5609 120.984 57.4846C120.477 57.4043 120.001 57.1901 119.605 56.8642C119.437 56.6915 119.315 56.4778 119.254 56.2441C119.193 56.0103 119.193 55.7646 119.255 55.5311C119.299 55.3874 119.362 55.25 119.441 55.1223C119.725 54.7283 120.071 54.3831 120.465 54.1002C120.778 53.8849 121.058 53.6245 121.296 53.3276C121.37 53.2318 121.407 53.112 121.399 52.9909C121.395 52.8791 121.352 52.7723 121.277 52.6889C121.002 52.465 120.676 52.3121 120.328 52.2436C119.885 52.1392 119.453 51.9925 119.038 51.8057C118.922 51.7465 118.81 51.6784 118.705 51.602C118.592 51.5131 118.494 51.4081 118.412 51.2904C118.243 51.049 118.166 50.755 118.195 50.4616C118.236 50.1915 118.352 49.9386 118.531 49.7322C118.685 49.5544 118.858 49.3948 119.048 49.2564C119.409 48.991 119.775 48.769 120.103 48.5086C120.28 48.3981 120.426 48.2443 120.527 48.0617C120.628 47.8791 120.681 47.6736 120.681 47.4648Z" fill="#EE781D"/>
<path d="M142.545 65.1147C142.631 64.8777 142.777 64.6671 142.969 64.5035C143.17 64.3427 143.398 64.2211 143.644 64.145C144.127 63.9879 144.625 63.9344 145.08 63.8202C145.499 63.761 145.879 63.5429 146.141 63.2112C146.242 63.0502 146.301 62.8667 146.313 62.6772C146.325 62.4878 146.291 62.2982 146.212 62.1255C145.998 61.7174 145.751 61.328 145.473 60.9613C145.119 60.508 144.903 59.9623 144.851 59.3894C144.857 59.0655 144.946 58.7484 145.109 58.4687C145.272 58.1891 145.505 57.9562 145.784 57.7925C146.28 57.5569 146.815 57.4156 147.363 57.3758C147.79 57.3533 148.21 57.2568 148.604 57.0906C148.745 57.0054 148.864 56.8871 148.95 56.7459C149.036 56.6048 149.087 56.4448 149.098 56.2798C149.06 55.8749 148.912 55.488 148.672 55.16C148.376 54.7364 148.13 54.2803 147.938 53.8007C147.839 53.5171 147.81 53.2141 147.852 52.9169C147.898 52.6196 148.018 52.3388 148.202 52.1009C148.584 51.6847 149.113 51.4343 149.677 51.4032C150.182 51.3499 150.664 51.3525 151.13 51.2783C151.365 51.2535 151.592 51.1759 151.793 51.0513C151.994 50.9267 152.164 50.7583 152.291 50.5586C152.205 50.7956 152.06 51.0064 151.868 51.1703C151.668 51.3313 151.439 51.4533 151.194 51.5299C150.71 51.6874 150.213 51.7415 149.757 51.8559C149.339 51.9152 148.959 52.1329 148.696 52.4641C148.596 52.6248 148.536 52.8079 148.523 52.9972C148.51 53.1865 148.545 53.3761 148.623 53.5489C148.835 53.957 149.082 54.3465 149.359 54.7132C149.713 55.1664 149.929 55.7111 149.984 56.2833C149.979 56.6074 149.891 56.9247 149.729 57.2052C149.566 57.4856 149.335 57.7198 149.057 57.8854C148.561 58.1231 148.025 58.2654 147.477 58.3046C147.049 58.3265 146.629 58.4225 146.234 58.5882C146.091 58.6725 145.972 58.7901 145.885 58.9308C145.798 59.0716 145.746 59.2314 145.735 59.3964C145.771 59.8011 145.918 60.1881 146.158 60.5153C146.454 60.9387 146.7 61.3942 146.894 61.873C146.993 62.1559 147.023 62.4585 146.982 62.7555C146.938 63.053 146.818 63.3341 146.633 63.5718C146.253 63.989 145.724 64.2398 145.16 64.2703C144.655 64.3238 144.173 64.3213 143.707 64.3951C143.472 64.4197 143.245 64.4972 143.044 64.6218C142.843 64.7464 142.672 64.9149 142.545 65.1147Z" fill="#3086A3"/>
<path d="M150.328 84.6632C150.353 84.4123 150.442 84.172 150.587 83.9658C150.741 83.7602 150.932 83.5854 151.151 83.4504C151.58 83.1779 152.049 83.0022 152.461 82.7782C152.852 82.6165 153.166 82.3108 153.338 81.9241C153.395 81.7431 153.407 81.5507 153.371 81.3641C153.336 81.1775 153.255 81.0025 153.136 80.855C152.828 80.5128 152.492 80.1972 152.131 79.9115C151.675 79.5606 151.331 79.0857 151.138 78.5438C151.063 78.2287 151.07 77.8995 151.159 77.5879C151.248 77.2764 151.415 76.9929 151.645 76.7648C152.066 76.413 152.55 76.1428 153.07 75.9681C153.478 75.8398 153.861 75.6418 154.201 75.3827C154.317 75.2648 154.403 75.1207 154.451 74.9625C154.499 74.8043 154.508 74.6368 154.478 74.4743C154.34 74.0917 154.101 73.7536 153.787 73.4958C153.395 73.1591 153.043 72.7788 152.738 72.3622C152.572 72.112 152.468 71.8259 152.435 71.5275C152.405 71.2282 152.452 70.9262 152.571 70.6501C152.838 70.1517 153.288 69.7774 153.826 69.607C154.302 69.4294 154.77 69.3118 155.203 69.124C155.424 69.0414 155.624 68.9098 155.788 68.7391C155.952 68.5683 156.075 68.3627 156.148 68.1377C156.124 68.3887 156.035 68.6291 155.891 68.8356C155.737 69.0414 155.545 69.2165 155.327 69.3518C154.898 69.6248 154.429 69.801 154.017 70.0254C153.626 70.187 153.313 70.4924 153.14 70.8787C153.083 71.0594 153.071 71.2516 153.105 71.4381C153.14 71.6247 153.22 71.7997 153.339 71.9476C153.646 72.29 153.982 72.6059 154.342 72.8919C154.797 73.2429 155.142 73.7165 155.337 74.2571C155.413 74.5722 155.406 74.9015 155.319 75.2135C155.231 75.5255 155.066 75.81 154.837 76.0396C154.416 76.3934 153.933 76.6646 153.412 76.8391C153.003 76.9668 152.619 77.1646 152.278 77.4235C152.161 77.5405 152.074 77.6842 152.025 77.8422C151.976 78.0002 151.966 78.1677 151.995 78.3305C152.131 78.7134 152.369 79.0518 152.684 79.3088C153.075 79.6453 153.427 80.025 153.734 80.4406C153.9 80.6898 154.005 80.9753 154.039 81.2733C154.07 81.5725 154.023 81.8746 153.904 82.1507C153.639 82.6496 153.189 83.0243 152.651 83.1943C152.175 83.3718 151.707 83.4895 151.274 83.6771C151.053 83.7595 150.852 83.891 150.689 84.0618C150.525 84.2325 150.402 84.4381 150.328 84.6632Z" fill="#F9AE2B"/>
<path d="M100.754 84.897C100.927 85.0215 101.046 85.2068 101.088 85.4159C101.122 85.6252 101.125 85.8383 101.099 86.0487C101.055 86.4646 100.948 86.8615 100.887 87.2486C100.788 87.5664 100.806 87.9093 100.938 88.2151C101.086 88.3909 101.301 88.41 101.636 88.2659C101.982 88.0996 102.319 87.9153 102.645 87.7139C103.042 87.4487 103.498 87.2852 103.973 87.2378C104.137 87.2333 104.3 87.2655 104.45 87.3318C104.6 87.3982 104.733 87.4972 104.84 87.6216C104.949 87.7445 105.032 87.8894 105.081 88.0465C105.119 88.1837 105.139 88.3252 105.141 88.4675C105.123 88.9165 105.043 89.3608 104.903 89.7876C104.785 90.1247 104.711 90.4756 104.682 90.8316C104.681 90.8905 104.687 90.9494 104.698 91.0072C104.724 91.0374 104.72 91.0842 104.753 91.1002C104.794 91.1604 104.851 91.1796 104.952 91.1894C105.282 91.1542 105.6 91.0467 105.884 90.8747C106.255 90.6697 106.642 90.4967 107.042 90.3575C107.286 90.2724 107.548 90.2484 107.804 90.2875C107.95 90.3136 108.088 90.3718 108.208 90.458C108.329 90.5442 108.428 90.6562 108.5 90.7859C108.615 91.0212 108.656 91.2855 108.62 91.5447C108.589 91.7601 108.539 91.9724 108.471 92.1789C108.338 92.5746 108.184 92.9433 108.07 93.3188C107.987 93.4942 107.951 93.6888 107.968 93.8824C107.984 94.076 108.051 94.2619 108.163 94.4209C107.99 94.2965 107.87 94.1114 107.827 93.9025C107.793 93.6931 107.789 93.4798 107.815 93.2693C107.859 92.8533 107.965 92.456 108.025 92.0689C108.125 91.7511 108.107 91.4082 107.975 91.1024C107.828 90.9256 107.614 90.9054 107.279 91.0483C106.934 91.2138 106.597 91.3974 106.27 91.5982C105.874 91.863 105.419 92.027 104.944 92.076C104.781 92.0813 104.618 92.0502 104.468 91.9849C104.318 91.9196 104.184 91.8218 104.076 91.6984C103.965 91.5759 103.882 91.4315 103.83 91.2745C103.792 91.137 103.771 90.9953 103.768 90.8526C103.784 90.4029 103.864 89.9577 104.004 89.5303C104.123 89.1928 104.198 88.8414 104.228 88.4848C104.229 88.4255 104.224 88.3662 104.212 88.3081C104.187 88.276 104.192 88.2292 104.158 88.2131C104.118 88.1522 104.06 88.1337 103.961 88.1217C103.632 88.1563 103.314 88.2634 103.031 88.4353C102.66 88.6399 102.274 88.8132 101.875 88.9534C101.631 89.0388 101.37 89.064 101.114 89.0269C100.968 89.0014 100.83 88.9437 100.709 88.8581C100.589 88.7725 100.488 88.6611 100.416 88.5319C100.301 88.2967 100.259 88.0324 100.295 87.7731C100.326 87.5577 100.375 87.3454 100.444 87.139C100.577 86.7434 100.731 86.3745 100.846 85.9991C100.929 85.8238 100.965 85.6293 100.949 85.4356C100.933 85.2419 100.865 85.056 100.754 84.897Z" fill="#3086A3"/>
<path d="M85.1681 21.229C85.258 21.456 85.2826 21.7037 85.2391 21.944C85.1879 22.187 85.0917 22.4183 84.9555 22.626C84.6941 23.0412 84.3614 23.3908 84.0949 23.7583C83.8219 24.0566 83.6739 24.4486 83.6814 24.8531C83.7102 25.0292 83.7853 25.1945 83.8989 25.3321C84.0125 25.4697 84.1605 25.5746 84.3279 25.6361C84.7487 25.7789 85.1801 25.8883 85.6181 25.9631C86.1683 26.0472 86.6835 26.2856 87.104 26.6507C87.3212 26.8871 87.4683 27.1795 87.5287 27.495C87.589 27.8106 87.5603 28.1367 87.4457 28.4367C87.2195 28.9163 86.909 29.3512 86.529 29.7208C86.2277 30.0026 85.9754 30.3327 85.7825 30.6975C85.7283 30.8388 85.7129 30.992 85.7377 31.1413C85.7626 31.2905 85.8269 31.4304 85.924 31.5465C86.2198 31.8007 86.5776 31.9721 86.961 32.0432C87.4481 32.1473 87.9223 32.3045 88.3751 32.5121C88.6365 32.6439 88.8615 32.8381 89.0299 33.0777C89.1978 33.3232 89.2945 33.6104 89.3093 33.9075C89.2824 34.4562 89.0401 34.9721 88.6351 35.3429C88.2931 35.6939 87.9351 35.9918 87.6334 36.3331C87.4709 36.4932 87.3482 36.6891 87.2752 36.9053C87.2022 37.1214 87.181 37.3517 87.2131 37.5776C87.123 37.3506 87.0981 37.1028 87.1413 36.8624C87.1923 36.6193 87.2882 36.3878 87.4241 36.1799C87.6853 35.7644 88.0176 35.4144 88.2838 35.0467C88.5566 34.7484 88.7048 34.3568 88.6979 33.9524C88.6694 33.7765 88.5947 33.6112 88.4817 33.4734C88.3686 33.3357 88.221 33.2304 88.0541 33.1683C87.6338 33.0249 87.2029 32.9151 86.7653 32.8398C86.2155 32.7557 85.7004 32.5181 85.2793 32.1544C85.0612 31.9186 84.913 31.6267 84.8511 31.3114C84.7893 30.9961 84.8164 30.6698 84.9294 30.369C85.1541 29.888 85.4645 29.4521 85.8454 29.0825C86.1477 28.8007 86.4009 28.4705 86.5946 28.1055C86.6496 27.9644 86.6661 27.8112 86.6423 27.6616C86.6184 27.5121 86.5552 27.3715 86.4591 27.2546C86.1638 27.0002 85.8064 26.8287 85.4233 26.7576C84.9366 26.6535 84.4626 26.4969 84.0096 26.2904C83.748 26.1598 83.5227 25.9666 83.3536 25.7279C83.1848 25.4829 83.0876 25.1958 83.0729 24.8987C83.0985 24.3501 83.3404 23.834 83.7456 23.4636C84.0875 23.1126 84.4454 22.8147 84.7475 22.4735C84.9101 22.3136 85.0329 22.1176 85.106 21.9014C85.1791 21.6853 85.2003 21.4549 85.1681 21.229Z" fill="#3086A3"/>
<path d="M81.7642 48.2727C82.2163 48.1749 82.6293 47.9452 82.9509 47.6125C83.2726 47.2799 83.4885 46.8592 83.5713 46.4037C83.6541 45.9483 83.6001 45.4785 83.4161 45.0537C83.2321 44.629 82.9264 44.2684 82.5377 44.0175C82.1489 43.7666 81.6946 43.6368 81.2321 43.6444C80.7696 43.6519 80.3198 43.7966 79.9395 44.0601C79.5591 44.3235 79.2654 44.694 79.0954 45.1245C78.9254 45.5551 78.8868 46.0264 78.9845 46.4789C79.1217 47.0822 79.4894 47.6077 80.0089 47.943C80.5285 48.2783 81.1585 48.3966 81.7642 48.2727Z" fill="#EE781D"/>
<path d="M125.909 26.6599C126.361 26.5622 126.774 26.3324 127.096 25.9998C127.417 25.6671 127.633 25.2464 127.716 24.7909C127.799 24.3355 127.745 23.8657 127.561 23.4409C127.377 23.0162 127.071 22.6556 126.682 22.4047C126.294 22.1538 125.839 22.024 125.377 22.0316C124.914 22.0391 124.464 22.1838 124.084 22.4473C123.704 22.7107 123.41 23.0812 123.24 23.5117C123.07 23.9423 123.031 24.4136 123.129 24.8661C123.266 25.4694 123.634 25.9949 124.154 26.3302C124.673 26.6655 125.303 26.7838 125.909 26.6599Z" fill="#3086A3"/>
<path d="M131.14 46.9089C131.592 46.8112 132.005 46.5814 132.327 46.2488C132.648 45.9161 132.864 45.4954 132.947 45.04C133.03 44.5845 132.976 44.1147 132.792 43.6899C132.608 43.2652 132.302 42.9046 131.913 42.6537C131.525 42.4029 131.07 42.273 130.608 42.2806C130.145 42.2882 129.696 42.4328 129.315 42.6963C128.935 42.9598 128.641 43.3302 128.471 43.7608C128.301 44.1913 128.263 44.6626 128.36 45.1151C128.497 45.7184 128.865 46.244 129.385 46.5792C129.904 46.9145 130.534 47.0328 131.14 46.9089Z" fill="#DBE8EC"/>
<path d="M118.643 78.404C119.095 78.3063 119.508 78.0766 119.83 77.7439C120.151 77.4112 120.367 76.9906 120.45 76.5351C120.533 76.0796 120.479 75.6098 120.295 75.1851C120.111 74.7603 119.805 74.3997 119.416 74.1488C119.028 73.898 118.573 73.7681 118.111 73.7757C117.648 73.7833 117.198 73.928 116.818 74.1914C116.438 74.4549 116.144 74.8253 115.974 75.2559C115.804 75.6864 115.765 76.1578 115.863 76.6103C116 77.2135 116.368 77.7391 116.888 78.0743C117.407 78.4096 118.037 78.528 118.643 78.404Z" fill="#DBE8EC"/>
<path d="M135.522 93.0027C135.974 92.9049 136.387 92.6752 136.709 92.3425C137.03 92.0099 137.246 91.5892 137.329 91.1337C137.412 90.6782 137.358 90.2084 137.174 89.7837C136.99 89.3589 136.684 88.9983 136.295 88.7475C135.907 88.4966 135.452 88.3668 134.99 88.3743C134.527 88.3819 134.077 88.5266 133.697 88.7901C133.317 89.0535 133.023 89.4239 132.853 89.8545C132.683 90.285 132.645 90.7564 132.742 91.2089C132.879 91.8122 133.247 92.3377 133.767 92.673C134.286 93.0082 134.916 93.1266 135.522 93.0027Z" fill="#DBE8EC"/>
<path d="M120.994 104.052C121.446 103.954 121.859 103.725 122.181 103.392C122.502 103.059 122.718 102.639 122.801 102.183C122.884 101.728 122.83 101.258 122.646 100.833C122.462 100.408 122.156 100.048 121.767 99.7968C121.379 99.5459 120.924 99.4161 120.462 99.4237C119.999 99.4312 119.549 99.5759 119.169 99.8394C118.789 100.103 118.495 100.473 118.325 100.904C118.155 101.334 118.116 101.806 118.214 102.258C118.351 102.861 118.719 103.387 119.239 103.722C119.758 104.058 120.388 104.176 120.994 104.052Z" fill="#F9AE2B"/>
<path d="M176.948 83.5588C177.4 83.4611 177.813 83.2314 178.134 82.8987C178.456 82.566 178.672 82.1453 178.755 81.6899C178.838 81.2344 178.784 80.7646 178.6 80.3398C178.416 79.9151 178.11 79.5545 177.721 79.3036C177.332 79.0528 176.878 78.9229 176.416 78.9305C175.953 78.9381 175.503 79.0827 175.123 79.3462C174.743 79.6097 174.449 79.9801 174.279 80.4107C174.109 80.8412 174.07 81.3125 174.168 81.7651C174.305 82.3683 174.673 82.8939 175.192 83.2291C175.712 83.5644 176.342 83.6827 176.948 83.5588Z" fill="#3086A3"/>
<path d="M182.711 48.0017C183.163 47.9039 183.576 47.6742 183.898 47.3416C184.22 47.0089 184.435 46.5882 184.518 46.1327C184.601 45.6773 184.547 45.2075 184.363 44.7827C184.179 44.358 183.873 43.9974 183.485 43.7465C183.096 43.4956 182.642 43.3658 182.179 43.3734C181.717 43.3809 181.267 43.5256 180.886 43.7891C180.506 44.0525 180.212 44.423 180.042 44.8535C179.872 45.2841 179.834 45.7554 179.931 46.2079C180.069 46.8112 180.436 47.3367 180.956 47.672C181.475 48.0073 182.105 48.1256 182.711 48.0017Z" fill="#D62828"/>
<path d="M65.1921 82.4529C65.6443 82.3551 66.0573 82.1254 66.3789 81.7927C66.7006 81.4601 66.9165 81.0394 66.9993 80.5839C67.0821 80.1284 67.0281 79.6586 66.8441 79.2339C66.6601 78.8091 66.3544 78.4485 65.9657 78.1977C65.5769 77.9468 65.1226 77.817 64.6601 77.8245C64.1976 77.8321 63.7478 77.9768 63.3674 78.2402C62.9871 78.5037 62.6934 78.8741 62.5234 79.3047C62.3534 79.7352 62.3148 80.2066 62.4125 80.6591C62.5496 81.2624 62.9174 81.7879 63.4369 82.1232C63.9565 82.4584 64.5865 82.5768 65.1921 82.4529Z" fill="#D62828"/>
<path d="M72.2167 97.6936C72.6688 97.5958 73.0818 97.3661 73.4035 97.0334C73.7251 96.7008 73.941 96.2801 74.0238 95.8246C74.1066 95.3692 74.0526 94.8994 73.8686 94.4746C73.6846 94.0499 73.379 93.6893 72.9902 93.4384C72.6015 93.1875 72.1471 93.0577 71.6846 93.0653C71.2222 93.0728 70.7723 93.2175 70.392 93.481C70.0117 93.7444 69.7179 94.1149 69.5479 94.5454C69.3779 94.976 69.3393 95.4473 69.437 95.8998C69.5742 96.5031 69.9419 97.0286 70.4615 97.3639C70.981 97.6992 71.611 97.8175 72.2167 97.6936Z" fill="#3086A3"/>
<path d="M105.866 40.7981C104.559 42.6253 103.804 44.7891 103.688 47.0331C101.863 45.7253 99.701 44.9689 97.459 44.8536C98.7656 43.0264 99.5213 40.8626 99.6366 38.6187C101.462 39.9264 103.624 40.6828 105.866 40.7981Z" fill="#3086A3"/>
<path d="M65.5262 58.2693C64.2196 60.0965 63.4639 62.2603 63.3486 64.5043C61.5231 63.1965 59.3611 62.4401 57.1191 62.3248C58.4257 60.4976 59.1815 58.3338 59.2967 56.0898C61.1223 57.3976 63.2842 58.154 65.5262 58.2693Z" fill="#3086A3"/>
<path d="M99.6557 67.0994C98.3491 68.9266 97.5934 71.0904 97.4781 73.3344C95.6526 72.0266 93.4907 71.2702 91.2487 71.1549C92.5553 69.3277 93.311 67.1639 93.4262 64.9199C95.2518 66.2277 97.4137 66.9841 99.6557 67.0994Z" fill="#F9AE2B"/>
<path d="M147.418 31.8152C146.112 33.6424 145.356 35.8062 145.241 38.0502C143.415 36.7424 141.253 35.986 139.011 35.8707C140.318 34.0435 141.074 31.8797 141.189 29.6357C143.014 30.9435 145.176 31.6999 147.418 31.8152Z" fill="#EE781D"/>
<path d="M139.232 70.2308C137.925 72.0579 137.169 74.2217 137.054 76.4657C135.229 75.158 133.067 74.4016 130.825 74.2862C132.131 72.4591 132.887 70.2952 133.002 68.0513C134.828 69.359 136.99 70.1154 139.232 70.2308Z" fill="#3086A3"/>
<path d="M175.826 60.0164C174.52 61.8436 173.764 64.0074 173.649 66.2514C171.823 64.9436 169.661 64.1872 167.419 64.0719C168.726 62.2447 169.482 60.0809 169.597 57.8369C171.422 59.1447 173.584 59.9011 175.826 60.0164Z" fill="#D62828"/>
<path d="M199.524 61.2728C198.217 63.0999 197.462 65.2637 197.346 67.5077C195.521 66.2 193.359 65.4436 191.117 65.3282C192.424 63.5011 193.179 61.3372 193.295 59.0933C195.12 60.401 197.282 61.1574 199.524 61.2728Z" fill="#3086A3"/>
<path d="M160.827 93.949C159.52 95.7762 158.765 97.94 158.649 100.184C156.824 98.8762 154.662 98.1198 152.42 98.0045C153.726 96.1773 154.482 94.0135 154.597 91.7695C156.423 93.0773 158.585 93.8337 160.827 93.949Z" fill="#F9AE2B"/>
<path d="M94.1563 95.5291C92.8497 97.3562 92.094 99.5201 91.9788 101.764C90.1532 100.456 87.9913 99.6999 85.7493 99.5846C87.0559 97.7574 87.8116 95.5936 87.9269 93.3496C89.7524 94.6574 91.9143 95.4138 94.1563 95.5291Z" fill="#DBE8EC"/>
</svg>
