<svg width="24" height="24" viewBox="0 0 24 24" fill="none" xmlns="http://www.w3.org/2000/svg">
<g clip-path="url(#clip0_1_1496)">
<path d="M12.9798 3.84099C13.1204 3.70054 13.311 3.62165 13.5098 3.62165C13.7085 3.62165 13.8991 3.70054 14.0398 3.84099L22.7298 12.531C22.799 12.6026 22.8818 12.6597 22.9733 12.699C23.0648 12.7382 23.1632 12.7589 23.2628 12.7597C23.3624 12.7605 23.4612 12.7415 23.5533 12.7037C23.6455 12.666 23.7292 12.6102 23.7996 12.5398C23.8699 12.4693 23.9256 12.3856 23.9633 12.2934C24.0009 12.2012 24.0199 12.1024 24.019 12.0028C24.018 11.9032 23.9973 11.8048 23.958 11.7134C23.9186 11.6219 23.8614 11.5391 23.7898 11.47L15.1008 2.77999C14.8918 2.57106 14.6438 2.40532 14.3708 2.29225C14.0978 2.17917 13.8052 2.12097 13.5098 2.12097C13.2143 2.12097 12.9217 2.17917 12.6487 2.29225C12.3757 2.40532 12.1277 2.57106 11.9188 2.77999L3.22877 11.47C3.15717 11.5392 3.10007 11.622 3.06081 11.7135C3.02154 11.805 3.0009 11.9035 3.00008 12.003C2.99926 12.1026 3.01829 12.2014 3.05604 12.2935C3.0938 12.3857 3.14952 12.4694 3.21998 12.5398C3.29043 12.6102 3.37419 12.6658 3.46638 12.7035C3.55857 12.7412 3.65734 12.7601 3.75693 12.7592C3.85651 12.7583 3.95491 12.7375 4.0464 12.6982C4.13788 12.6588 4.22061 12.6017 4.28977 12.53L12.9798 3.84099Z" fill="#224971"/>
<path d="M13.5098 5.43201L21.6688 13.591C21.6988 13.621 21.7288 13.649 21.7598 13.677V19.875C21.7598 20.91 20.9198 21.75 19.8848 21.75H16.5098C16.3109 21.75 16.1201 21.671 15.9794 21.5303C15.8388 21.3897 15.7598 21.1989 15.7598 21V16.5C15.7598 16.3011 15.6807 16.1103 15.5401 15.9697C15.3994 15.829 15.2087 15.75 15.0098 15.75H12.0098C11.8109 15.75 11.6201 15.829 11.4794 15.9697C11.3388 16.1103 11.2598 16.3011 11.2598 16.5V21C11.2598 21.1989 11.1807 21.3897 11.0401 21.5303C10.8994 21.671 10.7087 21.75 10.5098 21.75H7.13477C6.63748 21.75 6.16057 21.5525 5.80894 21.2008C5.45731 20.8492 5.25977 20.3723 5.25977 19.875V13.677C5.29088 13.6492 5.32122 13.6205 5.35077 13.591L13.5098 5.43201Z" fill="#224971"/>
</g>
<defs>
<clipPath id="clip0_1_1496">
<rect width="24" height="24" fill="white"/>
</clipPath>
</defs>
</svg>
