<svg width="6" height="12" viewBox="0 0 6 12" fill="none" xmlns="http://www.w3.org/2000/svg">
<path d="M4.69325 6.76456L4.67431 6.74372L3.61 7.91499L2.19051 9.47714L1.0219 10.7632L0.532226 11.3021C0.524889 11.3102 0.504159 11.3387 0.500003 11.4154C0.500029 11.4177 0.500582 11.4258 0.506569 11.4408C0.512691 11.4561 0.523043 11.4746 0.537912 11.494C0.538984 11.4945 0.540223 11.4951 0.541613 11.4958C0.544889 11.4972 0.548077 11.4983 0.550801 11.4991C0.551908 11.4987 0.553199 11.4982 0.55464 11.4975C0.558057 11.496 0.561419 11.494 0.564389 11.4919C0.567351 11.4897 0.569211 11.4879 0.570106 11.4869L0.940152 11.8232L0.570108 11.4869L0.578911 11.4773L0.578888 11.4772L0.582654 11.4732C0.713778 11.3321 0.840949 11.1911 0.970928 11.0469C1.03729 10.9734 1.10439 10.899 1.17312 10.8233L2.39344 9.48036L3.81294 7.91821L4.77724 6.857L4.69325 6.76456ZM3.77506 4.26712L4.67415 5.25657C4.67835 5.25206 4.68255 5.24756 4.68675 5.24306L4.69325 5.2359L4.77779 5.14286L3.64898 3.90061L2.22949 2.33846L1.06088 1.0524L0.572964 0.515445C0.572808 0.515275 0.572653 0.515108 0.5725 0.514944C0.56761 0.509725 0.564206 0.507786 0.560834 0.506306C0.55856 0.505308 0.554676 0.50387 0.548819 0.502582C0.547185 0.503682 0.545392 0.504942 0.543447 0.506379C0.537509 0.510765 0.530838 0.516292 0.523714 0.523001C0.521265 0.527309 0.517599 0.534729 0.513809 0.545157C0.509712 0.556428 0.506411 0.568634 0.50424 0.580512C0.502042 0.592536 0.501523 0.601358 0.501523 0.605952C0.501523 0.645548 0.520766 0.685773 0.532225 0.698383L0.162179 1.03464L0.532227 0.698385L0.54103 0.708073L0.541052 0.708052L0.544721 0.71218C0.672968 0.856488 0.801095 0.996444 0.932047 1.13949C0.998909 1.21252 1.06651 1.28636 1.13524 1.362L2.35556 2.70497L3.77506 4.26712Z" stroke="#506173"/>
</svg>
