<svg width="24" height="24" viewBox="0 0 24 24" fill="none" xmlns="http://www.w3.org/2000/svg">
<g clip-path="url(#clip0_53_201)">
<path d="M16.8333 9.99991V10.4999H17.3333H18.8333V21.3332C18.8333 21.5543 18.7455 21.7662 18.5893 21.9225C18.433 22.0788 18.221 22.1666 18 22.1666H6.00001C5.77899 22.1666 5.56703 22.0788 5.41075 21.9225C5.25447 21.7662 5.16667 21.5543 5.16667 21.3332V10.4999H6.66667H7.16667V9.99991V7.14658H7.16677L7.16657 7.13667C7.14056 5.82347 7.63579 4.55342 8.54389 3.60446C9.4492 2.6584 10.6914 2.10826 12 2.0734C13.3086 2.10826 14.5508 2.6584 15.4561 3.60446C16.3642 4.55342 16.8595 5.82347 16.8334 7.13667L16.8333 7.13667V7.14658V9.99991ZM12.6667 19.1666H13.1667V18.6666V17.1253C13.4713 16.9376 13.7247 16.6742 13.9005 16.3581C14.1334 15.9395 14.2162 15.4538 14.1351 14.9816C14.0539 14.5094 13.8138 14.0792 13.4545 13.7623C13.0952 13.4454 12.6384 13.2609 12.1598 13.2393C11.6812 13.2178 11.2096 13.3605 10.8233 13.6439C10.437 13.9272 10.1592 14.3342 10.036 14.7971C9.9128 15.2601 9.9516 15.7513 10.146 16.1892C10.297 16.5294 10.5349 16.8216 10.8333 17.0378V18.6666V19.1666H11.3333H12.6667ZM16 10.4999H16.5V9.99991V7.15295C16.5304 5.93143 16.077 4.74725 15.2384 3.85832C14.3982 2.96774 13.2397 2.4459 12.016 2.40683L12 2.40632L11.984 2.40683C10.7603 2.4459 9.60182 2.96774 8.76165 3.85832C7.92303 4.74725 7.46963 5.93144 7.50001 7.15297V9.99991V10.4999H8.00001H16Z" stroke="#224971"/>
</g>
<defs>
<clipPath id="clip0_53_201">
<rect width="24" height="24" fill="white"/>
</clipPath>
</defs>
</svg>
