<svg width="20" height="20" viewBox="0 0 20 20" fill="none" xmlns="http://www.w3.org/2000/svg">
<path d="M4.16667 9.99998V3.33331M15.8333 16.6666V14.1666M4.16667 16.6666V13.3333M15.8333 10.8333V3.33331M10 5.83331V3.33331M10 16.6666V9.16665" stroke="#1D4870" stroke-linecap="round"/>
<path d="M4.16667 13.3333C5.08714 13.3333 5.83333 12.5871 5.83333 11.6667C5.83333 10.7462 5.08714 10 4.16667 10C3.24619 10 2.5 10.7462 2.5 11.6667C2.5 12.5871 3.24619 13.3333 4.16667 13.3333Z" stroke="#1D4870" stroke-linecap="round"/>
<path d="M9.99999 9.16665C10.9205 9.16665 11.6667 8.42045 11.6667 7.49998C11.6667 6.57951 10.9205 5.83331 9.99999 5.83331C9.07952 5.83331 8.33333 6.57951 8.33333 7.49998C8.33333 8.42045 9.07952 9.16665 9.99999 9.16665Z" stroke="#1D4870" stroke-linecap="round"/>
<path d="M15.8333 14.1666C16.7538 14.1666 17.5 13.4205 17.5 12.5C17.5 11.5795 16.7538 10.8333 15.8333 10.8333C14.9129 10.8333 14.1667 11.5795 14.1667 12.5C14.1667 13.4205 14.9129 14.1666 15.8333 14.1666Z" stroke="#1D4870" stroke-linecap="round"/>
</svg>
