<svg width="269" height="245" viewBox="0 0 269 245" fill="none" xmlns="http://www.w3.org/2000/svg">
<path d="M71.8891 61.3868L43.1822 52.7149C42.0681 52.3784 40.8921 53.0087 40.5556 54.1228L35.4497 71.0251C35.1131 72.1392 35.7434 73.3151 36.8575 73.6517L65.5644 82.3236C66.6785 82.6601 67.8545 82.0298 68.191 80.9157L73.2969 64.0134C73.6335 62.8993 73.0032 61.7233 71.8891 61.3868Z" stroke="#224971" stroke-width="1.00285" stroke-miterlimit="10"/>
<path d="M39.5428 56.7331L72.1757 66.623" stroke="#224971" stroke-miterlimit="10"/>
<path d="M38.549 60.0078L71.1879 69.8977" stroke="#224971" stroke-miterlimit="10"/>
<path d="M61.2562 76.022C61.1731 76.2975 61.1468 76.5871 61.1786 76.8731C61.2105 77.1591 61.3 77.4357 61.4418 77.6862C60.9525 77.9279 60.3898 77.9749 59.8673 77.818C59.5345 77.7174 59.2315 77.5368 58.9847 77.2919C58.738 77.047 58.5551 76.7453 58.4521 76.4133C58.3491 76.0813 58.3291 75.7291 58.3938 75.3876C58.4586 75.046 58.6062 74.7256 58.8236 74.4543C59.041 74.1831 59.3217 73.9693 59.6409 73.8317C59.9602 73.6942 60.3083 73.637 60.6548 73.6653C61.0012 73.6936 61.3355 73.8065 61.6282 73.994C61.9209 74.1815 62.1632 74.4379 62.3338 74.7408C62.0778 74.8717 61.8505 75.0525 61.6655 75.2725C61.4804 75.4925 61.3412 75.7474 61.2562 76.022Z" stroke="#224971" stroke-miterlimit="10"/>
<path d="M65.3211 77.2552C65.1986 77.6573 64.9595 78.0141 64.6343 78.2804C64.309 78.5466 63.912 78.7105 63.4936 78.7511C63.0753 78.7918 62.6542 78.7075 62.2837 78.5088C61.9132 78.3102 61.61 78.0061 61.4124 77.6351C61.2147 77.2641 61.1315 76.8428 61.1733 76.4245C61.2151 76.0062 61.3801 75.6097 61.6472 75.2852C61.9144 74.9606 62.2718 74.7226 62.6743 74.6012C63.0767 74.4798 63.5061 74.4805 63.9082 74.6031C64.4472 74.7676 64.8988 75.1393 65.1637 75.6366C65.4287 76.134 65.4853 76.7161 65.3211 77.2552Z" stroke="#224971" stroke-miterlimit="10"/>
<path d="M267.007 102.187L243.27 94.9936C242.16 94.657 240.986 95.2845 240.65 96.3951L236.49 110.122C236.153 111.233 236.78 112.406 237.891 112.743L261.627 119.936C262.738 120.273 263.911 119.645 264.248 118.535L268.408 104.808C268.745 103.697 268.117 102.524 267.007 102.187Z" stroke="#224971" stroke-miterlimit="10"/>
<path d="M240.01 98.5076L267.77 106.919" stroke="#224971" stroke-miterlimit="10"/>
<path d="M239.166 101.297L266.92 109.708" stroke="#224971" stroke-miterlimit="10"/>
<path d="M258.478 114.899C258.407 115.133 258.384 115.378 258.411 115.621C258.437 115.864 258.513 116.099 258.634 116.312C258.372 116.439 258.083 116.501 257.792 116.492C257.5 116.483 257.216 116.403 256.962 116.259C256.709 116.115 256.494 115.912 256.337 115.666C256.179 115.421 256.084 115.141 256.059 114.851C256.034 114.56 256.08 114.268 256.193 114C256.306 113.731 256.483 113.494 256.708 113.309C256.934 113.124 257.2 112.997 257.486 112.938C257.771 112.879 258.067 112.89 258.347 112.971C258.791 113.105 259.167 113.405 259.394 113.809C259.176 113.919 258.981 114.072 258.824 114.259C258.666 114.447 258.549 114.664 258.478 114.899Z" stroke="#224971" stroke-miterlimit="10"/>
<path d="M261.933 115.964C261.827 116.303 261.623 116.602 261.348 116.825C261.072 117.047 260.737 117.183 260.384 117.216C260.031 117.249 259.677 117.176 259.365 117.008C259.053 116.839 258.798 116.582 258.632 116.269C258.466 115.956 258.396 115.601 258.432 115.249C258.467 114.896 258.606 114.562 258.831 114.288C259.056 114.014 259.356 113.813 259.695 113.71C260.034 113.606 260.396 113.606 260.735 113.708C260.963 113.776 261.175 113.889 261.358 114.04C261.542 114.19 261.694 114.376 261.805 114.586C261.917 114.796 261.985 115.026 262.007 115.262C262.029 115.499 262.004 115.738 261.933 115.964Z" stroke="#224971" stroke-miterlimit="10"/>
<path d="M229.018 36.6028L194.366 52.4676L202.62 70.4955L237.272 54.6308L229.018 36.6028Z" stroke="#224971" stroke-miterlimit="10"/>
<path d="M234.293 52.0397L229.048 40.5873C228.558 40.811 228 40.8314 227.495 40.644C226.99 40.4566 226.58 40.0767 226.354 39.5876L198.343 52.4108C198.567 52.9008 198.587 53.4594 198.4 53.9644C198.212 54.4693 197.833 54.8794 197.343 55.1048L202.588 66.5572C202.83 66.4458 203.093 66.3834 203.36 66.3737C203.627 66.364 203.893 66.4071 204.143 66.5006C204.394 66.594 204.623 66.736 204.818 66.9183C205.014 67.1006 205.171 67.3196 205.282 67.5629L233.287 54.7336C233.175 54.4908 233.113 54.2283 233.103 53.9613C233.094 53.6944 233.137 53.4281 233.23 53.1778C233.324 52.9275 233.466 52.6981 233.648 52.5028C233.83 52.3075 234.049 52.1501 234.293 52.0397Z" stroke="#224971" stroke-miterlimit="10"/>
<path d="M218.992 57.6844C221.273 55.9322 221.702 52.6624 219.95 50.3813C218.197 48.1001 214.927 47.6714 212.646 49.4237C210.365 51.176 209.936 54.4457 211.689 56.7269C213.441 59.008 216.711 59.4367 218.992 57.6844Z" stroke="#224971" stroke-miterlimit="10"/>
<path d="M217.237 56.0746L217.626 56.9247L217.255 57.0924L216.872 56.2542C216.216 56.5396 215.481 56.5862 214.794 56.3859V55.8651C215.401 56.0487 216.052 56.017 216.638 55.7753L215.758 53.8356C214.848 54.0093 213.908 54.141 213.459 53.1592C213.136 52.4527 213.364 51.6026 214.453 50.998L214.064 50.1419L214.435 49.9743L214.842 50.8423C215.381 50.6087 215.974 50.5299 216.554 50.6149V51.1357C216.043 51.0619 215.521 51.1217 215.04 51.3093L215.938 53.2729C216.866 53.0873 217.853 52.9197 218.332 53.9135C218.632 54.6019 218.374 55.47 217.237 56.0746ZM215.525 53.3148L214.675 51.441C213.938 51.8541 213.777 52.4048 213.992 52.8718C214.244 53.4585 214.842 53.4345 215.519 53.3148H215.525ZM217.782 54.1589C217.518 53.5603 216.884 53.6201 216.177 53.7578L217.021 55.6077C217.835 55.1766 217.991 54.6319 217.776 54.1589H217.782Z" fill="#224971"/>
<path d="M37.785 118.725L11.1387 121.124L12.386 134.983L39.0324 132.584L37.785 118.725Z" stroke="#224971" stroke-width="1.00404" stroke-miterlimit="10"/>
<path d="M36.8907 129.782L36.1364 121.011C35.7611 121.043 35.3886 120.924 35.1003 120.682C34.812 120.44 34.6313 120.093 34.5978 119.718L13.1419 121.574C13.1718 121.949 13.053 122.32 12.8109 122.608C12.5689 122.896 12.2233 123.077 11.8488 123.112L12.6031 131.883C12.7891 131.866 12.9765 131.887 13.1546 131.943C13.3326 131.999 13.4979 132.09 13.6408 132.21C13.7837 132.33 13.9015 132.477 13.9875 132.643C14.0734 132.809 14.1258 132.99 14.1416 133.176L35.5976 131.32C35.5676 130.945 35.6865 130.573 35.9285 130.286C36.1705 129.998 36.5162 129.817 36.8907 129.782Z" stroke="#224971" stroke-miterlimit="10"/>
<path d="M28.0006 126.136C28.0631 126.854 27.9111 127.575 27.5638 128.207C27.2165 128.839 26.6895 129.354 26.0496 129.687C25.4096 130.019 24.6854 130.154 23.9686 130.075C23.2518 129.996 22.5745 129.706 22.0224 129.242C21.4704 128.778 21.0684 128.161 20.8673 127.468C20.6662 126.776 20.675 126.039 20.8926 125.351C21.1102 124.664 21.5269 124.056 22.0899 123.605C22.6529 123.155 23.3369 122.881 24.0555 122.819C24.5324 122.777 25.0129 122.83 25.4695 122.974C25.926 123.118 26.3497 123.351 26.7162 123.659C27.0826 123.967 27.3847 124.344 27.6051 124.769C27.8255 125.194 27.9599 125.659 28.0006 126.136Z" stroke="#224971" stroke-miterlimit="10"/>
<path d="M24.708 128.446L24.7619 129.099H24.4805L24.4207 128.452C23.9231 128.486 23.4297 128.344 23.0258 128.051L23.1575 127.716C23.5147 127.976 23.9495 128.107 24.3907 128.087L24.265 126.597C23.6244 126.501 22.9719 126.363 22.912 125.615C22.8641 125.07 23.2114 124.561 24.0734 124.418L24.0196 123.765H24.3009L24.3548 124.406C24.77 124.379 25.1845 124.468 25.5521 124.663L25.4384 125.004C25.1189 124.838 24.7626 124.756 24.4027 124.765L24.5284 126.267C25.181 126.363 25.8754 126.489 25.9412 127.249C25.9772 127.806 25.6 128.315 24.708 128.446ZM24.2291 126.225L24.1034 124.807C23.5047 124.908 23.2892 125.232 23.3191 125.591C23.3491 125.95 23.7502 126.148 24.2291 126.225ZM25.5162 127.315C25.4743 126.866 25.0492 126.716 24.5524 126.668L24.6721 128.087C25.2947 127.986 25.5461 127.674 25.5162 127.315Z" fill="#224971"/>
<path d="M253.354 44.6822C256.23 44.6822 258.562 42.3503 258.562 39.4738C258.562 36.5973 256.23 34.2655 253.354 34.2655C250.477 34.2655 248.146 36.5973 248.146 39.4738C248.146 42.3503 250.477 44.6822 253.354 44.6822Z" stroke="#224971" stroke-miterlimit="10"/>
<path d="M253.587 42.3653V43.2992H253.156V42.3713C252.442 42.3572 251.755 42.0971 251.211 41.6349L251.444 41.168C251.92 41.586 252.524 41.8307 253.156 41.8624V39.7252C252.258 39.5037 251.36 39.2283 251.36 38.1507C251.36 37.3725 251.923 36.696 253.156 36.6002V35.6483H253.563V36.5763C254.151 36.5887 254.723 36.765 255.216 37.0851L255.012 37.564C254.578 37.284 254.079 37.1211 253.563 37.0911V39.2463C254.479 39.4678 255.449 39.7252 255.449 40.8208C255.473 41.605 254.88 42.2935 253.587 42.3653ZM253.18 39.1385V37.1091C252.342 37.1809 251.983 37.6119 251.983 38.1268C251.959 38.7434 252.51 38.9709 253.156 39.1385H253.18ZM254.881 40.8507C254.881 40.2101 254.282 39.9886 253.587 39.815V41.8624C254.479 41.7846 254.881 41.3715 254.881 40.8507Z" fill="#224971"/>
<path d="M219.05 109.153C221.849 108.493 223.584 105.688 222.925 102.889C222.265 100.089 219.46 98.3539 216.66 99.0137C213.861 99.6734 212.126 102.478 212.786 105.278C213.445 108.078 216.25 109.812 219.05 109.153Z" stroke="#224971" stroke-miterlimit="10"/>
<path d="M216.542 106.661L216.057 107.458L215.71 107.242L216.195 106.452C215.592 106.069 215.143 105.486 214.926 104.805L215.369 104.53C215.556 105.133 215.943 105.654 216.465 106.009L217.59 104.183C216.937 103.53 216.309 102.818 216.872 101.902C217.279 101.237 218.111 100.956 219.224 101.525L219.715 100.723L220.062 100.938L219.578 101.728C220.068 102.048 220.464 102.495 220.721 103.021L220.296 103.327C220.07 102.862 219.73 102.463 219.308 102.165L218.177 104.003C218.847 104.674 219.536 105.398 218.961 106.332C218.548 107.003 217.686 107.272 216.542 106.661ZM217.889 103.668L218.949 101.938C218.201 101.561 217.656 101.728 217.386 102.165C217.063 102.722 217.404 103.207 217.889 103.698V103.668ZM218.44 106.015C218.775 105.47 218.386 104.973 217.877 104.458L216.812 106.194C217.608 106.637 218.165 106.518 218.434 106.045L218.44 106.015Z" fill="#224971"/>
<path d="M143.111 3.54826C143.539 4.48527 143.679 5.52808 143.514 6.54484C143.349 7.56159 142.887 8.50664 142.185 9.26049C141.483 10.0143 140.573 10.5431 139.571 10.78C138.568 11.0169 137.518 10.9512 136.553 10.5913C135.588 10.2313 134.751 9.59332 134.149 8.7579C133.546 7.92247 133.205 6.92715 133.168 5.89777C133.131 4.86839 133.4 3.85119 133.941 2.97478C134.483 2.09837 135.271 1.40211 136.208 0.974023C136.83 0.688895 137.503 0.52931 138.187 0.504409C138.87 0.479508 139.552 0.589779 140.194 0.828907C140.835 1.06804 141.423 1.43132 141.923 1.89795C142.424 2.36459 142.827 2.9254 143.111 3.54826Z" stroke="#224971" stroke-miterlimit="10"/>
<path d="M139.788 8.23579L140.177 9.08588L139.806 9.25949L139.411 8.41538C138.755 8.70076 138.02 8.74736 137.334 8.54709V8.02625C137.938 8.20886 138.587 8.17929 139.172 7.94244L138.286 5.99081C137.376 6.16443 136.436 6.29014 135.987 5.31433C135.664 4.60192 135.891 3.75781 136.987 3.15317L136.597 2.29709L136.963 2.12946L137.352 2.97357C137.89 2.73995 138.483 2.66117 139.064 2.74608V3.26691C138.552 3.19445 138.031 3.25422 137.549 3.44052L138.447 5.40413C139.375 5.21854 140.363 5.0569 140.842 6.04469C141.207 6.76308 140.932 7.63114 139.788 8.23579ZM138.076 5.47597L137.232 3.62611C136.496 4.03918 136.334 4.58995 136.55 5.05092C136.807 5.61366 137.4 5.5957 138.076 5.47597ZM140.333 6.32008C140.064 5.72142 139.435 5.78727 138.729 5.91897L139.573 7.76883C140.357 7.3378 140.549 6.799 140.333 6.32008Z" fill="#224971"/>
<path d="M125.57 214.474C126.213 215.882 126.424 217.448 126.176 218.976C125.928 220.503 125.233 221.923 124.179 223.056C123.124 224.188 121.758 224.983 120.252 225.338C118.746 225.694 117.168 225.596 115.718 225.055C114.268 224.514 113.011 223.555 112.106 222.3C111.201 221.045 110.688 219.55 110.633 218.003C110.578 216.457 110.982 214.929 111.795 213.612C112.608 212.295 113.794 211.25 115.201 210.607C116.136 210.18 117.146 209.941 118.173 209.904C119.2 209.867 120.224 210.033 121.187 210.392C122.15 210.752 123.032 211.297 123.784 211.997C124.537 212.697 125.143 213.539 125.57 214.474Z" stroke="#224971" stroke-miterlimit="10"/>
<path d="M120.571 221.526L121.17 222.807L120.613 223.059L120.015 221.789C119.031 222.22 117.927 222.293 116.896 221.993L116.931 221.215C117.84 221.486 118.814 221.437 119.691 221.077L118.356 218.156C116.997 218.413 115.579 218.605 114.908 217.138C114.417 216.072 114.764 214.797 116.405 213.887L115.806 212.612L116.357 212.355L116.955 213.624C117.766 213.275 118.657 213.157 119.53 213.283V214.061C118.763 213.953 117.982 214.043 117.261 214.324L118.602 217.27C119.997 216.994 121.481 216.749 122.164 218.233C122.679 219.317 122.295 220.622 120.571 221.526ZM118.009 217.377L116.734 214.6C115.638 215.198 115.393 216.042 115.716 216.749C116.099 217.593 116.985 217.563 118.009 217.377ZM121.397 218.652C120.996 217.772 120.045 217.844 119.003 218.054L120.272 220.832C121.451 220.179 121.721 219.365 121.397 218.652Z" fill="#224971"/>
<path d="M13.4891 92.8862C12.3266 93.9074 10.8873 94.5609 9.35337 94.7642C7.81941 94.9675 6.25962 94.7114 4.8712 94.0283C3.48278 93.3452 2.32808 92.2657 1.55308 90.9264C0.778083 89.5871 0.417596 88.0481 0.517192 86.5039C0.616788 84.9598 1.172 83.4798 2.11262 82.2511C3.05325 81.0225 4.33705 80.1003 5.80172 79.6012C7.2664 79.1021 8.84616 79.0485 10.3413 79.4472C11.8364 79.8459 13.1798 80.6789 14.2015 81.8409C14.8802 82.6128 15.4002 83.5109 15.7317 84.4838C16.0633 85.4567 16.1998 86.4854 16.1337 87.5112C16.0675 88.5369 15.7999 89.5395 15.3462 90.4618C14.8924 91.384 14.2614 92.2079 13.4891 92.8862Z" stroke="#224971" stroke-miterlimit="10"/>
<path d="M5.31147 90.1324L4.25783 91.0603L3.85074 90.5994L4.89839 89.6834C4.20431 88.8621 3.81706 87.8252 3.80285 86.75L4.56314 86.5584C4.56352 87.5015 4.88202 88.4169 5.46712 89.1566L7.86175 87.0373C7.22119 85.8101 6.62852 84.505 7.86175 83.4454C8.74777 82.6731 10.0648 82.6372 11.4058 83.9423L12.4954 83.0203L12.8965 83.4753L11.8488 84.3973C12.4061 85.0752 12.7665 85.8932 12.8905 86.762L12.1482 87.0074C12.0289 86.2419 11.7179 85.5191 11.2442 84.9061L8.80764 87.0433C9.47215 88.2945 10.1367 89.6475 8.90941 90.7311C8.01741 91.5093 6.65845 91.5512 5.31147 90.1324ZM8.54423 86.4806L10.8371 84.4631C9.92713 83.5891 9.04112 83.595 8.49035 84.1039C7.77196 84.7145 8.05931 85.5646 8.52627 86.4806H8.54423ZM8.29878 90.0725C9.02914 89.438 8.6879 88.546 8.18503 87.5881L5.89217 89.6056C6.83206 90.5694 7.7061 90.6053 8.30476 90.0905L8.29878 90.0725Z" fill="#224971"/>
<path d="M49.3084 159.624C49.3918 157.538 47.7682 155.779 45.6819 155.696C43.5957 155.612 41.8367 157.236 41.7533 159.322C41.6698 161.408 43.2935 163.167 45.3797 163.251C47.466 163.334 49.2249 161.711 49.3084 159.624Z" stroke="#224971" stroke-width="1.0008" stroke-miterlimit="10"/>
<path d="M46.619 160.205L47.05 160.726L46.8285 160.912L46.3974 160.397C45.9924 160.723 45.4863 160.896 44.9667 160.888L44.8828 160.517C45.3398 160.529 45.7873 160.385 46.152 160.11L45.1582 158.912C44.5596 159.206 43.925 159.475 43.4221 158.876C43.0629 158.445 43.0629 157.805 43.7095 157.17L43.2725 156.649L43.4999 156.464L43.931 156.979C44.2643 156.714 44.664 156.546 45.0864 156.494L45.1941 156.853C44.8241 156.904 44.4725 157.046 44.1704 157.266L45.1702 158.463C45.7689 158.158 46.4453 157.865 46.9662 158.463C47.3314 158.906 47.3194 159.565 46.619 160.205ZM44.9068 158.601L43.9609 157.47C43.5299 157.901 43.5239 158.314 43.7574 158.601C43.9908 158.888 44.4578 158.811 44.9068 158.601ZM46.6489 158.763C46.3496 158.409 45.9185 158.559 45.4516 158.793L46.3974 159.924C46.8584 159.469 46.8884 159.05 46.6489 158.757V158.763Z" fill="#224971"/>
<path d="M165.507 234.134C165.985 234.708 166.282 235.411 166.36 236.154C166.439 236.897 166.295 237.646 165.948 238.307C165.6 238.969 165.064 239.512 164.408 239.869C163.752 240.226 163.005 240.38 162.261 240.312C161.517 240.245 160.81 239.958 160.229 239.488C159.648 239.019 159.219 238.387 158.997 237.674C158.775 236.961 158.769 236.198 158.98 235.481C159.192 234.765 159.611 234.127 160.185 233.649C160.955 233.009 161.948 232.7 162.946 232.791C163.944 232.882 164.865 233.365 165.507 234.134Z" stroke="#224971" stroke-miterlimit="10"/>
<path d="M164.07 238.055L164.507 238.576L164.279 238.761L163.848 238.247C163.446 238.572 162.941 238.746 162.424 238.737L162.34 238.366C162.797 238.381 163.246 238.237 163.609 237.959L162.615 236.762C162.016 237.055 161.376 237.325 160.879 236.726C160.514 236.295 160.514 235.654 161.16 235.02L160.729 234.499L160.957 234.313L161.388 234.828C161.72 234.561 162.12 234.393 162.543 234.343L162.651 234.702C162.279 234.754 161.926 234.896 161.621 235.116L162.627 236.313C163.226 236.008 163.902 235.714 164.423 236.313C164.77 236.756 164.758 237.414 164.07 238.055ZM162.352 236.427L161.406 235.295C160.969 235.726 160.963 236.139 161.202 236.427C161.442 236.714 161.897 236.66 162.352 236.427ZM164.088 236.594C163.789 236.235 163.357 236.385 162.891 236.594L163.836 237.726C164.303 237.319 164.333 236.9 164.088 236.612V236.594Z" fill="#224971"/>
<path d="M62.1166 18.924C62.3071 16.8465 60.7774 15.0078 58.6998 14.8173C56.6223 14.6268 54.7836 16.1565 54.5931 18.234C54.4025 20.3116 55.9323 22.1503 58.0098 22.3408C60.0874 22.5313 61.926 21.0016 62.1166 18.924Z" stroke="#224971" stroke-miterlimit="10"/>
<path d="M59.8314 20.0832L60.2624 20.6041L60.0349 20.7896L59.6039 20.2748C59.2017 20.6013 58.697 20.7752 58.1791 20.7657L58.0953 20.3945C58.5522 20.4065 58.9997 20.263 59.3644 19.9874L58.3706 18.7901C57.772 19.0835 57.1314 19.3529 56.6345 18.7542C56.2753 18.3232 56.2693 17.6826 56.9219 17.048L56.4849 16.5272L56.7124 16.3416L57.1434 16.8565C57.476 16.5907 57.8761 16.4228 58.2988 16.3715L58.4066 16.7307C58.0365 16.7821 57.6849 16.9239 57.3829 17.1438L58.3826 18.3411C58.9813 18.0358 59.6578 17.7425 60.1786 18.3411C60.5318 18.7841 60.5138 19.4427 59.8314 20.0832ZM58.1072 18.4728L57.1613 17.3174C56.7303 17.7485 56.7183 18.1615 56.9578 18.4489C57.1973 18.7362 57.6522 18.6884 58.1072 18.4728ZM59.8493 18.6345C59.55 18.2813 59.113 18.4309 58.652 18.6345L59.5979 19.7659C60.0589 19.3469 60.0888 18.9278 59.8493 18.6345Z" fill="#224971"/>
<path opacity="0.2" d="M143.488 173.454C143.488 173.454 138.872 196.879 110.562 202.189C110.562 202.189 103.168 208.086 100.708 211.576C98.2473 215.066 85.1427 220.999 71.7926 239.51C58.4425 258.02 38.567 199.238 38.567 199.238L82.4966 142.186L143.488 173.454Z" fill="black" fill-opacity="0.7"/>
<path d="M168.65 63.462C168.65 63.462 183.915 55.9967 187.274 57.2838C190.632 58.5709 193.859 66.2936 181.018 73.6871C168.177 81.0805 172.008 94.8556 172.008 94.8556H181.168C181.168 94.8556 186.663 97.0946 188.8 99.9742C190.938 102.854 192.464 112.672 193.686 116C194.907 119.329 194.284 122.663 190.938 123.747C190.938 123.747 188.8 133.062 189.411 137.193C190.022 141.324 189.716 143.982 185.747 144.484C184.749 144.589 183.739 144.474 182.789 144.15C181.839 143.825 180.971 143.297 180.245 142.604C179.519 141.91 178.952 141.067 178.584 140.133C178.216 139.198 178.056 138.195 178.114 137.193L175.061 148.256L177.198 152.507C180.218 153.675 183.008 155.365 185.442 157.499C189.716 161.163 193.991 162.163 192.77 166.246C191.548 170.329 189.106 174.729 176.283 169.628C163.459 164.528 152.773 144.484 152.773 144.484L145.068 74.597L168.65 63.462Z" fill="white"/>
<path opacity="0.4" d="M184.718 103.608C177.797 113.043 185.454 123.909 185.454 123.909C185.454 123.909 180.665 126.579 180.527 133.391C180.473 136.223 181.186 140.18 182.036 143.844C180.791 143.256 179.752 142.307 179.054 141.121C178.356 139.935 178.031 138.566 178.12 137.193L175.061 148.256L177.198 152.5C179.447 153.361 181.566 154.527 183.496 155.967C181.599 160.325 181.018 165.713 181.186 171.268C179.518 170.826 177.881 170.278 176.283 169.628C163.459 164.522 152.773 144.484 152.773 144.484L145.068 74.591L168.65 63.4619C168.65 63.4619 176.989 59.385 182.7 57.7746C182.257 63.1147 183.299 68.6403 184.053 71.7174C183.079 72.4303 182.066 73.0879 181.018 73.687C168.195 81.0804 172.008 94.8556 172.008 94.8556H181.174C181.174 94.8556 186.394 96.9868 188.633 99.7586C187.102 100.789 185.774 102.094 184.718 103.608Z" fill="#8797A8"/>
<path d="M144.799 162.193C144.799 162.193 128.192 194.754 98.2593 202.141C98.2593 202.141 97.1159 208.583 92.0512 211.349C89.3453 212.821 78.4257 229.183 68.8412 244.119L15.7521 211.552C19.0208 208.32 22.7444 204.596 26.528 200.711C37.6032 189.42 49.4207 176.764 53.0366 170.502C56.2693 164.935 60.3582 155.272 63.9202 146.191C68.482 134.577 72.1937 123.909 72.1937 123.909L89.89 104.237L117.71 73.304L118.907 77.2611L144.799 162.193Z" fill="#FFA8A7"/>
<path opacity="0.4" d="M117.734 73.304L144.799 162.193C144.799 162.193 128.192 194.754 98.2593 202.141C98.2593 202.141 97.1158 208.583 92.0512 211.349C89.6206 212.672 80.5749 225.992 71.8225 239.486C75.0672 228.351 84.4602 210.6 84.4602 210.6C78.4317 203.458 80.1917 195.933 82.6043 198.076C85.0169 200.22 91.0813 206.242 91.4645 206.619C88.8004 203.482 88.1838 198.567 88.1838 198.567C88.1838 198.567 95.6551 203.536 96.2597 195.574C96.8644 187.612 91.7818 168.155 91.7818 168.155L78.4376 116.994L117.734 73.304Z" fill="#8797A8"/>
<path d="M145.068 74.597L168.65 63.462C168.65 63.462 183.915 55.9967 187.274 57.2838C190.632 58.5709 193.859 66.2936 181.018 73.6871C168.177 81.0805 172.008 94.8556 172.008 94.8556H181.168C181.168 94.8556 186.663 97.0946 188.8 99.9742C190.938 102.854 192.464 112.672 193.686 116C194.907 119.329 194.284 122.663 190.938 123.747C190.938 123.747 188.8 133.062 189.411 137.193C190.022 141.324 189.716 143.982 185.747 144.484C184.749 144.589 183.739 144.474 182.789 144.15C181.839 143.825 180.971 143.297 180.245 142.604C179.519 141.91 178.952 141.067 178.584 140.133C178.216 139.198 178.056 138.195 178.114 137.193L175.061 148.256L177.198 152.507C180.218 153.675 183.008 155.365 185.442 157.499C189.716 161.163 193.991 162.163 192.77 166.246C191.548 170.329 189.106 174.729 176.283 169.628C163.459 164.528 152.773 144.484 152.773 144.484" stroke="#224971" stroke-linecap="round" stroke-linejoin="round"/>
<path d="M190.938 123.747C186.358 124.986 181.018 124.07 179.03 115.964C177.043 107.859 181.018 99.2019 183.61 98.4057" stroke="#224971" stroke-linecap="round" stroke-linejoin="round"/>
<path d="M178.114 137.193C178.114 137.193 177.809 126.77 181.628 124.196" stroke="#224971" stroke-linecap="round" stroke-linejoin="round"/>
<path opacity="0.4" d="M66.7458 188.959C66.7458 188.959 55.5569 187.564 53.0605 182.559C50.9951 178.416 39.8002 193.934 26.5519 200.71C37.6271 189.42 49.4446 176.764 53.0605 170.502C56.2932 164.935 60.3821 155.272 63.9441 146.191C63.7645 153.722 59.7535 165.252 60.8969 171.256C59.6717 171.581 58.6235 172.374 57.9792 173.466C57.3349 174.557 57.1465 175.858 57.4546 177.087C58.3107 181.859 66.7458 188.959 66.7458 188.959Z" fill="#8797A8"/>
<path d="M144.799 162.193C144.799 162.193 128.192 194.754 98.2533 202.141C98.2533 202.141 97.1158 208.583 92.0512 211.349C89.3452 212.821 78.4317 229.183 68.8352 244.119" stroke="#224971" stroke-linecap="round" stroke-linejoin="round"/>
<path d="M15.7521 211.552C28.5395 198.915 48.1934 178.878 53.0605 170.502C60.424 157.829 72.2176 123.903 72.2176 123.903L117.716 73.304" stroke="#224971" stroke-linecap="round" stroke-linejoin="round"/>
<path d="M91.7519 111.947C91.7519 111.947 98.7442 118.209 100.732 123.921" stroke="#224971" stroke-linecap="round" stroke-linejoin="round"/>
<path d="M174.289 20.7416H99.0555C96.8304 20.7416 95.0265 22.5454 95.0265 24.7706V184.93C95.0265 187.155 96.8304 188.959 99.0555 188.959H174.289C176.514 188.959 178.318 187.155 178.318 184.93V24.7706C178.318 22.5454 176.514 20.7416 174.289 20.7416Z" fill="#224971"/>
<path d="M153.18 25.3213L151.588 28.2368C151.419 28.5531 151.169 28.8181 150.862 29.0036C150.555 29.1891 150.204 29.2882 149.846 29.2904H123.505C123.147 29.2885 122.796 29.1909 122.489 29.0077C122.181 28.8246 121.929 28.5625 121.757 28.2487L120.17 25.3333C120 25.0182 119.747 24.7551 119.44 24.5717C119.132 24.3884 118.78 24.2916 118.422 24.2916H100.013C99.751 24.2924 99.4915 24.3449 99.2495 24.4462C99.0076 24.5475 98.788 24.6955 98.6033 24.8818C98.4187 25.0681 98.2726 25.2891 98.1735 25.5319C98.0744 25.7748 98.0242 26.0348 98.0258 26.2971V183.744C98.0258 184.272 98.235 184.778 98.6076 185.152C98.9801 185.526 99.4857 185.736 100.013 185.738H173.325C173.588 185.74 173.848 185.689 174.092 185.59C174.335 185.49 174.556 185.344 174.743 185.158C174.929 184.973 175.077 184.753 175.178 184.51C175.279 184.267 175.331 184.007 175.331 183.744V26.2971C175.331 25.7684 175.121 25.2613 174.747 24.8875C174.373 24.5136 173.866 24.3036 173.337 24.3036H154.934C154.578 24.3001 154.226 24.3928 153.918 24.5719C153.609 24.751 153.354 25.0098 153.18 25.3213Z" fill="#8797A8" stroke="#224971" stroke-linecap="round" stroke-linejoin="round"/>
<path d="M130.958 26.7342C131.55 26.7342 132.03 26.2544 132.03 25.6626C132.03 25.0708 131.55 24.591 130.958 24.591C130.366 24.591 129.886 25.0708 129.886 25.6626C129.886 26.2544 130.366 26.7342 130.958 26.7342Z" stroke="white" stroke-miterlimit="10"/>
<path d="M143.452 25.6625C143.451 25.7937 143.411 25.9216 143.337 26.0301C143.263 26.1386 143.159 26.2228 143.038 26.2722C142.916 26.3216 142.783 26.3339 142.654 26.3076C142.526 26.2812 142.408 26.2175 142.316 26.1243C142.223 26.0312 142.161 25.9127 142.135 25.784C142.11 25.6553 142.124 25.522 142.174 25.4009C142.225 25.2798 142.31 25.1764 142.419 25.1036C142.528 25.0309 142.656 24.992 142.788 24.992C142.875 24.992 142.962 25.0094 143.043 25.0432C143.124 25.077 143.198 25.1264 143.26 25.1888C143.321 25.2511 143.37 25.3251 143.403 25.4064C143.436 25.4877 143.453 25.5748 143.452 25.6625Z" stroke="white" stroke-miterlimit="10"/>
<path d="M140.471 25.2435H133.957C133.903 25.2435 133.848 25.2544 133.798 25.2755C133.747 25.2966 133.701 25.3276 133.663 25.3666C133.625 25.4056 133.594 25.4518 133.574 25.5026C133.553 25.5535 133.543 25.6078 133.544 25.6626C133.544 25.7721 133.588 25.8772 133.665 25.9546C133.743 26.0321 133.848 26.0756 133.957 26.0756H140.471C140.58 26.0756 140.685 26.0321 140.763 25.9546C140.84 25.8772 140.884 25.7721 140.884 25.6626C140.885 25.6078 140.874 25.5535 140.854 25.5026C140.834 25.4518 140.803 25.4056 140.765 25.3666C140.726 25.3276 140.681 25.2966 140.63 25.2755C140.58 25.2544 140.525 25.2435 140.471 25.2435Z" fill="white"/>
<path d="M111.657 28.2847H104.635V31.266H111.657V28.2847Z" stroke="#224971" stroke-linecap="round" stroke-linejoin="round"/>
<path d="M112.741 28.7875H111.651V30.7691H112.741V28.7875Z" stroke="#224971" stroke-linecap="round" stroke-linejoin="round"/>
<path d="M161.418 30.1884H160.173V31.272H161.418V30.1884Z" stroke="#224971" stroke-linecap="round" stroke-linejoin="round"/>
<path d="M163.848 29.0989H162.603V31.272H163.848V29.0989Z" stroke="#224971" stroke-linecap="round" stroke-linejoin="round"/>
<path d="M166.279 28.0093H165.034V31.266H166.279V28.0093Z" stroke="#224971" stroke-linecap="round" stroke-linejoin="round"/>
<path d="M168.704 26.9198H167.458V31.2661H168.704V26.9198Z" stroke="#224971" stroke-linecap="round" stroke-linejoin="round"/>
<path opacity="0.5" d="M174.816 59.0797H98.5226V131.847H174.816V59.0797Z" fill="white"/>
<path d="M119.595 47.4597V48.7229C119.595 50.2854 118.847 51.1176 117.315 51.1176H116.59V54.7754H115.058V45.0472H117.315C118.847 45.0472 119.595 45.8972 119.595 47.4597ZM116.602 46.442V49.7406H117.327C117.811 49.7406 118.075 49.5191 118.075 48.8247V47.358C118.075 46.6635 117.811 46.442 117.327 46.442H116.602Z" fill="#224971"/>
<path d="M125.085 54.7933H123.541L123.271 53.0273H121.397L121.128 54.7933H119.721L121.284 45.0472H123.523L125.085 54.7933ZM121.589 51.7042H123.068L122.343 46.7773H122.313L121.589 51.7042Z" fill="#224971"/>
<path d="M126.546 51.5666L124.612 45.0472H126.241L127.396 49.4892H127.426L128.581 45.0472H130.042L128.108 51.5666V54.7933H126.576L126.546 51.5666Z" fill="#224971"/>
<path d="M133.856 51.9677H133.886L134.915 45.0472H137.046V54.7933H135.598V47.807L134.568 54.7933H133.119L132.006 47.9028V54.7933H130.611V45.0472H132.742L133.856 51.9677Z" fill="#224971"/>
<path d="M139.693 49.154H141.806V50.5488H139.705V53.4044H142.351V54.7933H138.16V45.0472H142.351V46.442H139.705L139.693 49.154Z" fill="#224971"/>
<path d="M144.679 47.7351H144.649V54.7933H143.272V45.0472H145.194L146.739 50.8841V45.0472H148.104V54.7933H146.535L144.679 47.7351Z" fill="#224971"/>
<path d="M148.786 45.0472H153.522V46.442H151.917V54.7933H150.385V46.442H148.786V45.0472Z" fill="#224971"/>
<path d="M156.251 44.9394C157.736 44.9394 158.502 45.8314 158.502 47.3879V47.6932H157.054V47.2921C157.054 46.5917 156.778 46.3283 156.287 46.3283C155.796 46.3283 155.527 46.5917 155.527 47.2921C155.527 47.9926 155.832 48.5314 156.832 49.4054C158.113 50.5369 158.52 51.3391 158.52 52.4526C158.52 54.0151 157.736 54.9071 156.233 54.9071C154.731 54.9071 153.953 54.0151 153.953 52.4526V51.8539H155.401V52.5543C155.401 53.2488 155.707 53.5002 156.192 53.5002C156.676 53.5002 156.988 53.2488 156.988 52.5543C156.988 51.8599 156.682 51.3151 155.677 50.4351C154.396 49.3096 153.994 48.5014 153.994 47.3879C153.994 45.8314 154.761 44.9394 156.251 44.9394Z" fill="#224971"/>
<path d="M168.704 67.898H104.635V77.4705H168.704V67.898Z" fill="white" stroke="#224971" stroke-linecap="round" stroke-linejoin="round"/>
<path d="M168.704 85.8518H104.635V95.4243H168.704V85.8518Z" fill="white" stroke="#224971" stroke-linecap="round" stroke-linejoin="round"/>
<path d="M168.704 102.177H104.635V111.75H168.704V102.177Z" fill="white" stroke="#224971" stroke-linecap="round" stroke-linejoin="round"/>
<path d="M134.969 115.24H104.635V126.447H134.969V115.24Z" fill="white" stroke="#224971" stroke-linecap="round" stroke-linejoin="round"/>
<path d="M168.709 115.24H138.375V126.447H168.709V115.24Z" fill="white" stroke="#224971" stroke-linecap="round" stroke-linejoin="round"/>
<path d="M108.628 66.2278V66.4852H106.623V63.6536H108.568V63.911H106.928V64.9227H108.389V65.1742H106.928V66.2278H108.628Z" fill="#224971"/>
<path d="M112.783 65.2518V66.4851H112.471V65.2878C112.471 64.8388 112.244 64.6053 111.873 64.6053C111.773 64.6011 111.673 64.6186 111.581 64.6568C111.488 64.695 111.405 64.7528 111.338 64.8263C111.27 64.8998 111.219 64.9872 111.188 65.0824C111.158 65.1776 111.148 65.2783 111.16 65.3776V66.4911H110.873V65.2937C110.873 64.8448 110.645 64.6113 110.274 64.6113C110.174 64.607 110.075 64.6246 109.982 64.6628C109.89 64.701 109.807 64.7588 109.739 64.8323C109.671 64.9058 109.62 64.9932 109.59 65.0884C109.559 65.1836 109.55 65.2843 109.562 65.3835V66.4971H109.275V64.3718H109.55V64.7609C109.632 64.6286 109.748 64.5209 109.886 64.4493C110.024 64.3776 110.179 64.3446 110.334 64.3539C110.491 64.3406 110.648 64.3768 110.783 64.4573C110.919 64.5378 111.025 64.6587 111.089 64.8029C111.176 64.6589 111.3 64.5412 111.449 64.4621C111.597 64.3831 111.765 64.3457 111.933 64.3539C112.05 64.3459 112.169 64.3641 112.279 64.4072C112.389 64.4502 112.488 64.517 112.569 64.6028C112.65 64.6885 112.712 64.7912 112.748 64.9034C112.785 65.0156 112.797 65.1346 112.783 65.2518Z" fill="#224971"/>
<path d="M115.171 65.1681V66.4851H114.896V66.1559C114.815 66.2744 114.705 66.3695 114.575 66.4315C114.446 66.4935 114.303 66.5203 114.16 66.5091C113.681 66.5091 113.387 66.2576 113.387 65.9104C113.387 65.5632 113.597 65.3118 114.208 65.3118H114.866V65.1801C114.866 64.8149 114.657 64.6173 114.267 64.6173C114.009 64.6133 113.759 64.7026 113.561 64.8688L113.429 64.6532C113.677 64.4614 113.984 64.36 114.297 64.3659C114.41 64.3474 114.526 64.3548 114.635 64.3875C114.745 64.4202 114.845 64.4773 114.929 64.5545C115.014 64.6318 115.079 64.7272 115.121 64.8335C115.163 64.9397 115.18 65.0542 115.171 65.1681ZM114.884 65.8506V65.4973H114.214C113.8 65.4973 113.669 65.659 113.669 65.8805C113.669 66.102 113.866 66.2816 114.208 66.2816C114.348 66.2857 114.487 66.2465 114.604 66.1695C114.722 66.0924 114.814 65.9811 114.866 65.8506H114.884Z" fill="#224971"/>
<path d="M115.884 63.6894C115.885 63.6349 115.908 63.5831 115.947 63.5451C115.986 63.5071 116.039 63.4859 116.093 63.4859C116.147 63.4859 116.199 63.5073 116.237 63.5455C116.275 63.5837 116.297 63.6354 116.297 63.6894C116.297 63.7434 116.275 63.7952 116.237 63.8333C116.199 63.8715 116.147 63.893 116.093 63.893C116.039 63.893 115.986 63.8717 115.947 63.8337C115.908 63.7957 115.885 63.744 115.884 63.6894ZM115.95 64.3599H116.237V66.4852H115.95V64.3599Z" fill="#224971"/>
<path d="M117.039 63.4859H117.327V66.4792H117.039V63.4859Z" fill="#224971"/>
<path d="M110.61 73.5912V73.8486H108.604V71.017H110.55V71.2744H108.879V72.2801H110.346V72.5376H108.879V73.5912H110.61Z" fill="#224971"/>
<path d="M114.764 72.6034V73.8367H114.477V72.6394C114.477 72.1904 114.25 71.9569 113.878 71.9569C113.779 71.9517 113.679 71.9685 113.587 72.006C113.494 72.0434 113.411 72.1007 113.343 72.1738C113.275 72.2468 113.224 72.3339 113.194 72.4288C113.163 72.5237 113.154 72.6242 113.166 72.7232V73.8427H112.879V72.6453C112.879 72.1963 112.651 71.9629 112.28 71.9629C112.18 71.9577 112.081 71.9745 111.988 72.0119C111.896 72.0494 111.813 72.1067 111.745 72.1797C111.677 72.2528 111.626 72.3398 111.595 72.4348C111.565 72.5297 111.555 72.6302 111.568 72.7291V73.8486H111.274V71.7174H111.55V72.1065C111.633 71.9758 111.749 71.8697 111.887 71.7991C112.025 71.7286 112.179 71.6963 112.334 71.7054C112.49 71.694 112.647 71.7309 112.782 71.8112C112.917 71.8915 113.024 72.0113 113.088 72.1544C113.175 72.01 113.299 71.892 113.448 71.8129C113.597 71.7338 113.764 71.6966 113.932 71.7054C114.049 71.7003 114.165 71.7205 114.273 71.7647C114.38 71.8089 114.477 71.8761 114.556 71.9616C114.636 72.047 114.695 72.1487 114.731 72.2596C114.767 72.3704 114.778 72.4878 114.764 72.6034Z" fill="#224971"/>
<path d="M117.147 72.5197V73.8367H116.872V73.5075C116.792 73.6253 116.682 73.7196 116.554 73.7807C116.425 73.8418 116.283 73.8673 116.141 73.8547C115.662 73.8547 115.363 73.6033 115.363 73.256C115.363 72.9088 115.579 72.6574 116.189 72.6574H116.866V72.5316C116.866 72.1665 116.656 71.9689 116.267 71.9689C116.007 71.9656 115.755 72.0547 115.555 72.2204L115.429 72.0048C115.675 71.8094 115.983 71.7076 116.297 71.7175C116.408 71.703 116.521 71.7133 116.627 71.7478C116.734 71.7823 116.831 71.84 116.912 71.9168C116.994 71.9936 117.057 72.0875 117.098 72.1918C117.138 72.2961 117.155 72.4081 117.147 72.5197ZM116.866 73.1962V72.8489H116.195C115.782 72.8489 115.65 73.0106 115.65 73.2321C115.65 73.4536 115.848 73.6332 116.189 73.6332C116.334 73.6415 116.477 73.6037 116.599 73.5251C116.72 73.4465 116.814 73.3313 116.866 73.1962Z" fill="#224971"/>
<path d="M117.859 71.0349C117.861 70.9804 117.884 70.9286 117.923 70.8906C117.962 70.8526 118.014 70.8314 118.069 70.8314C118.096 70.8306 118.123 70.8353 118.149 70.8451C118.174 70.855 118.197 70.8699 118.217 70.8889C118.236 70.9078 118.252 70.9305 118.262 70.9556C118.273 70.9807 118.278 71.0077 118.278 71.0349C118.278 71.0905 118.256 71.1438 118.217 71.1831C118.178 71.2224 118.124 71.2445 118.069 71.2445C118.013 71.2445 117.96 71.2224 117.921 71.1831C117.881 71.1438 117.859 71.0905 117.859 71.0349ZM117.925 71.7054H118.213V73.8367H117.925V71.7054Z" fill="#224971"/>
<path d="M119.021 70.8314H119.302V73.8247H119.021V70.8314Z" fill="#224971"/>
<path d="M122.05 72.6034V73.8366H121.763V72.6393C121.775 72.5508 121.768 72.4607 121.741 72.3754C121.715 72.2901 121.669 72.2118 121.609 72.1464C121.548 72.0809 121.473 72.0299 121.39 71.9971C121.307 71.9643 121.217 71.9506 121.128 71.9568C121.026 71.9483 120.923 71.9624 120.828 71.9982C120.732 72.0339 120.645 72.0905 120.573 72.1637C120.502 72.2369 120.447 72.325 120.414 72.4217C120.38 72.5184 120.369 72.6214 120.38 72.7231V73.8426H120.092V71.7114H120.368V72.1065C120.454 71.9732 120.575 71.8652 120.717 71.7937C120.859 71.7222 121.017 71.6896 121.176 71.6994C121.296 71.6898 121.416 71.7068 121.529 71.7493C121.641 71.7918 121.743 71.8586 121.826 71.945C121.91 72.0315 121.973 72.1353 122.012 72.2491C122.051 72.363 122.064 72.484 122.05 72.6034Z" fill="#224971"/>
<path d="M124.445 72.5196V73.8367H124.169V73.5074C124.09 73.6253 123.98 73.7196 123.851 73.7807C123.723 73.8417 123.581 73.8673 123.439 73.8546C122.954 73.8546 122.661 73.6032 122.661 73.256C122.661 72.9088 122.87 72.6573 123.481 72.6573H124.157V72.5316C124.157 72.1664 123.954 71.9689 123.559 71.9689C123.301 71.9649 123.05 72.0542 122.852 72.2203L122.72 72.0048C122.967 71.8103 123.274 71.7086 123.589 71.7174C123.7 71.702 123.813 71.7116 123.921 71.7456C124.028 71.7797 124.126 71.8372 124.208 71.9141C124.29 71.9911 124.354 72.0853 124.395 72.1901C124.436 72.2949 124.453 72.4075 124.445 72.5196ZM124.157 73.1961V72.8489H123.493C123.08 72.8489 122.942 73.0105 122.942 73.232C122.942 73.4535 123.14 73.6331 123.481 73.6331C123.626 73.6428 123.771 73.6055 123.894 73.5269C124.017 73.4483 124.111 73.3323 124.163 73.1961H124.157Z" fill="#224971"/>
<path d="M128.743 72.6035V73.8367H128.456V72.6394C128.456 72.1904 128.228 71.957 127.857 71.957C127.757 71.9518 127.658 71.9686 127.565 72.006C127.473 72.0435 127.39 72.1008 127.322 72.1738C127.254 72.2469 127.203 72.3339 127.172 72.4289C127.142 72.5238 127.132 72.6243 127.145 72.7232V73.8427H126.839V72.6454C126.839 72.1964 126.612 71.9629 126.241 71.9629C126.141 71.9578 126.042 71.9745 125.949 72.012C125.857 72.0495 125.774 72.1068 125.706 72.1798C125.638 72.2529 125.587 72.3399 125.556 72.4348C125.525 72.5298 125.516 72.6303 125.528 72.7292V73.8487H125.241V71.7175H125.516V72.1066C125.599 71.9759 125.716 71.8697 125.854 71.7992C125.992 71.7287 126.146 71.6963 126.301 71.7055C126.457 71.6923 126.614 71.7285 126.75 71.809C126.885 71.8895 126.992 72.0103 127.055 72.1545C127.142 72.0106 127.266 71.8928 127.415 71.8138C127.564 71.7348 127.731 71.6974 127.899 71.7055C128.016 71.6985 128.134 71.7174 128.243 71.7608C128.352 71.8043 128.451 71.8712 128.531 71.9569C128.612 72.0425 128.673 72.1449 128.709 72.2566C128.746 72.3684 128.757 72.4868 128.743 72.6035Z" fill="#224971"/>
<path d="M131.383 72.8608H129.587C129.602 73.0695 129.7 73.2636 129.858 73.4005C130.016 73.5375 130.223 73.606 130.431 73.5912C130.554 73.5945 130.676 73.5711 130.789 73.5225C130.901 73.4739 131.002 73.4013 131.084 73.3098L131.245 73.4954C131.093 73.6558 130.896 73.7675 130.68 73.8166C130.464 73.8657 130.238 73.8499 130.031 73.7713C129.824 73.6927 129.645 73.5547 129.516 73.3746C129.387 73.1946 129.314 72.9804 129.306 72.7591C129.298 72.6186 129.32 72.4782 129.369 72.3465C129.418 72.2148 129.494 72.0946 129.592 71.9935C129.69 71.8924 129.807 71.8125 129.937 71.7588C130.067 71.7051 130.207 71.6788 130.347 71.6815C130.488 71.6787 130.627 71.705 130.756 71.7588C130.885 71.8126 131.002 71.8927 131.099 71.994C131.196 72.0953 131.271 72.2157 131.318 72.3473C131.366 72.479 131.386 72.6192 131.377 72.7591C131.377 72.7591 131.383 72.8309 131.383 72.8608ZM129.587 72.6453H131.096C131.096 72.4453 131.016 72.2534 130.875 72.1119C130.733 71.9705 130.542 71.891 130.341 71.891C130.141 71.891 129.95 71.9705 129.808 72.1119C129.667 72.2534 129.587 72.4453 129.587 72.6453Z" fill="#224971"/>
<path d="M135.55 72.7651C135.55 73.4536 135.292 73.8547 134.873 73.8547C134.814 73.858 134.755 73.849 134.7 73.8285C134.644 73.8079 134.593 73.7762 134.551 73.7352C134.508 73.6942 134.474 73.6448 134.451 73.5902C134.429 73.5356 134.417 73.4768 134.418 73.4176C134.335 73.5561 134.216 73.6696 134.074 73.7465C133.932 73.8233 133.772 73.8607 133.61 73.8547C133.334 73.8547 133.069 73.7449 132.874 73.5496C132.678 73.3542 132.568 73.0893 132.568 72.813C132.568 72.5367 132.678 72.2718 132.874 72.0764C133.069 71.8811 133.334 71.7713 133.61 71.7713C133.77 71.7645 133.928 71.8003 134.069 71.875C134.21 71.9497 134.328 72.0606 134.412 72.1964V71.7953H134.676V73.3278C134.676 73.5553 134.789 73.6391 134.927 73.6391C135.173 73.6391 135.334 73.3278 135.334 72.7831C135.341 72.5668 135.302 72.3516 135.22 72.1514C135.138 71.9512 135.014 71.7704 134.858 71.6208C134.702 71.4713 134.516 71.3562 134.312 71.2831C134.108 71.2101 133.892 71.1806 133.676 71.1966C133.462 71.1966 133.25 71.2387 133.053 71.3206C132.855 71.4024 132.676 71.5223 132.525 71.6736C132.373 71.8248 132.253 72.0043 132.172 72.2018C132.09 72.3994 132.048 72.6111 132.048 72.825C132.048 73.0388 132.09 73.2505 132.172 73.4481C132.253 73.6457 132.373 73.8252 132.525 73.9764C132.676 74.1276 132.855 74.2475 133.053 74.3294C133.25 74.4112 133.462 74.4533 133.676 74.4533C133.946 74.4526 134.212 74.3912 134.454 74.2737L134.52 74.4713C134.256 74.5955 133.968 74.6589 133.676 74.6569C133.19 74.6569 132.724 74.4639 132.381 74.1203C132.037 73.7768 131.844 73.3108 131.844 72.825C131.844 72.3391 132.037 71.8732 132.381 71.5296C132.724 71.1861 133.19 70.9931 133.676 70.9931C133.918 70.9756 134.161 71.0087 134.389 71.0902C134.618 71.1717 134.827 71.2998 135.003 71.4665C135.179 71.6332 135.319 71.8347 135.413 72.0583C135.507 72.2818 135.554 72.5226 135.55 72.7651ZM134.412 72.807C134.422 72.7003 134.409 72.5928 134.374 72.4913C134.34 72.3898 134.285 72.2966 134.213 72.2176C134.14 72.1385 134.052 72.0754 133.954 72.0323C133.856 71.9891 133.75 71.9668 133.643 71.9668C133.536 71.9668 133.43 71.9891 133.332 72.0323C133.234 72.0754 133.146 72.1385 133.073 72.2176C133.001 72.2966 132.946 72.3898 132.912 72.4913C132.877 72.5928 132.864 72.7003 132.874 72.807C132.864 72.9137 132.877 73.0213 132.912 73.1227C132.946 73.2242 133.001 73.3174 133.073 73.3964C133.146 73.4755 133.234 73.5386 133.332 73.5817C133.43 73.6249 133.536 73.6472 133.643 73.6472C133.75 73.6472 133.856 73.6249 133.954 73.5817C134.052 73.5386 134.14 73.4755 134.213 73.3964C134.285 73.3174 134.34 73.2242 134.374 73.1227C134.409 73.0213 134.422 72.9137 134.412 72.807Z" fill="#224971"/>
<path d="M138.004 72.8608H136.208C136.214 72.9647 136.241 73.0663 136.286 73.1598C136.332 73.2534 136.395 73.3371 136.473 73.406C136.551 73.475 136.642 73.5279 136.74 73.5618C136.839 73.5956 136.943 73.6097 137.046 73.6032C137.169 73.6065 137.291 73.5831 137.404 73.5345C137.516 73.4859 137.617 73.4133 137.699 73.3218L137.861 73.5074C137.708 73.6678 137.511 73.7795 137.295 73.8286C137.079 73.8777 136.853 73.8619 136.646 73.7833C136.439 73.7047 136.26 73.5667 136.131 73.3866C136.002 73.2066 135.929 72.9924 135.921 72.771C135.914 72.6306 135.935 72.4902 135.984 72.3585C136.034 72.2267 136.109 72.1066 136.207 72.0055C136.305 71.9044 136.422 71.8245 136.552 71.7708C136.682 71.7171 136.822 71.6908 136.963 71.6935C137.103 71.6907 137.242 71.717 137.371 71.7708C137.501 71.8246 137.617 71.9047 137.714 72.006C137.811 72.1073 137.886 72.2276 137.934 72.3593C137.981 72.491 138.001 72.6312 137.992 72.771C137.992 72.771 138.004 72.8309 138.004 72.8608ZM136.208 72.6453H137.717C137.717 72.4453 137.637 72.2534 137.496 72.1119C137.355 71.9705 137.163 71.891 136.963 71.891C136.763 71.891 136.571 71.9705 136.429 72.1119C136.288 72.2534 136.208 72.4453 136.208 72.6453Z" fill="#224971"/>
<path d="M142.111 72.6034V73.8367H141.806V72.6394C141.806 72.1904 141.578 71.9569 141.207 71.9569C141.107 71.9518 141.008 71.9685 140.915 72.006C140.823 72.0434 140.74 72.1007 140.672 72.1738C140.604 72.2468 140.553 72.3339 140.522 72.4288C140.492 72.5237 140.482 72.6242 140.495 72.7232V73.8427H140.207V72.6454C140.207 72.1964 139.98 71.9629 139.609 71.9629C139.509 71.9577 139.41 71.9745 139.317 72.012C139.225 72.0494 139.142 72.1067 139.074 72.1798C139.006 72.2528 138.955 72.3399 138.924 72.4348C138.893 72.5297 138.884 72.6302 138.896 72.7292V73.8487H138.609V71.7174H138.884V72.1066C138.966 71.9763 139.082 71.8704 139.219 71.7999C139.356 71.7293 139.509 71.6967 139.663 71.7055C139.82 71.6936 139.977 71.7303 140.113 71.8106C140.249 71.8909 140.357 72.0109 140.423 72.1545C140.508 72.0101 140.631 71.8919 140.779 71.8127C140.927 71.7335 141.094 71.6964 141.261 71.7055C141.379 71.6975 141.497 71.7157 141.607 71.7588C141.717 71.8018 141.816 71.8686 141.897 71.9544C141.979 72.0401 142.04 72.1428 142.077 72.255C142.114 72.3672 142.125 72.4862 142.111 72.6034Z" fill="#224971"/>
<path d="M144.494 72.5196V73.8366H144.2V73.5074C144.12 73.6247 144.01 73.7187 143.882 73.7798C143.754 73.8408 143.612 73.8666 143.47 73.8546C142.985 73.8546 142.692 73.6032 142.692 73.2559C142.692 72.9087 142.901 72.6573 143.512 72.6573H144.2V72.5316C144.2 72.1664 143.997 71.9688 143.602 71.9688C143.344 71.9648 143.093 72.0541 142.895 72.2203L142.764 72.0047C143.01 71.8102 143.318 71.7085 143.632 71.7174C143.743 71.7009 143.858 71.7098 143.966 71.7434C144.074 71.777 144.173 71.8344 144.255 71.9114C144.338 71.9885 144.402 72.0831 144.444 72.1884C144.485 72.2936 144.502 72.4068 144.494 72.5196ZM144.206 73.1961V72.8488H143.542C143.129 72.8488 142.991 73.0105 142.991 73.232C142.991 73.4535 143.189 73.6331 143.53 73.6331C143.673 73.6401 143.815 73.6017 143.936 73.5232C144.056 73.4447 144.149 73.3302 144.2 73.1961H144.206Z" fill="#224971"/>
<path d="M145.212 71.035C145.212 70.9935 145.224 70.953 145.247 70.9186C145.271 70.8841 145.303 70.8572 145.342 70.8414C145.38 70.8255 145.422 70.8214 145.463 70.8295C145.503 70.8375 145.541 70.8575 145.57 70.8868C145.599 70.9161 145.619 70.9534 145.627 70.9941C145.635 71.0347 145.631 71.0769 145.615 71.1152C145.599 71.1534 145.573 71.1862 145.538 71.2092C145.504 71.2322 145.463 71.2445 145.422 71.2445C145.366 71.2445 145.313 71.2224 145.274 71.1831C145.234 71.1438 145.212 71.0905 145.212 71.035ZM145.272 71.7055H145.559V73.8367H145.272V71.7055Z" fill="#224971"/>
<path d="M146.362 70.8314H146.649V73.8247H146.362V70.8314Z" fill="#224971"/>
<path d="M147.266 73.6331C147.265 73.6046 147.27 73.5762 147.28 73.5497C147.291 73.5232 147.307 73.4991 147.327 73.4789C147.347 73.4587 147.371 73.4429 147.398 73.4323C147.424 73.4218 147.453 73.4168 147.481 73.4176C147.538 73.4176 147.593 73.4403 147.633 73.4807C147.674 73.5211 147.697 73.576 147.697 73.6331C147.697 73.6908 147.674 73.7463 147.634 73.7877C147.594 73.829 147.539 73.8531 147.481 73.8546C147.452 73.8546 147.424 73.8489 147.397 73.8377C147.371 73.8265 147.347 73.8101 147.326 73.7894C147.306 73.7688 147.291 73.7443 147.28 73.7174C147.27 73.6906 147.265 73.6619 147.266 73.6331Z" fill="#224971"/>
<path d="M148.032 72.771C148.028 72.6268 148.053 72.4833 148.107 72.3494C148.161 72.2155 148.242 72.0942 148.344 71.9931C148.447 71.8919 148.57 71.8131 148.705 71.7615C148.839 71.7099 148.983 71.6868 149.127 71.6934C149.292 71.6826 149.456 71.7157 149.603 71.7894C149.751 71.863 149.876 71.9745 149.966 72.1125L149.75 72.2562C149.683 72.16 149.593 72.0814 149.489 72.0272C149.385 71.973 149.269 71.9448 149.151 71.9449C148.944 71.9625 148.75 72.0575 148.609 72.2111C148.468 72.3646 148.39 72.5655 148.39 72.774C148.39 72.9825 148.468 73.1834 148.609 73.3369C148.75 73.4905 148.944 73.5855 149.151 73.6031C149.269 73.6042 149.385 73.5764 149.489 73.5222C149.594 73.4679 149.683 73.3888 149.75 73.2918L149.966 73.4355C149.875 73.5726 149.749 73.6834 149.602 73.7569C149.455 73.8305 149.292 73.8641 149.127 73.8546C148.983 73.8613 148.838 73.8379 148.703 73.786C148.568 73.7341 148.445 73.6547 148.342 73.5529C148.239 73.4511 148.158 73.329 148.105 73.1945C148.052 73.0599 148.027 72.9157 148.032 72.771Z" fill="#224971"/>
<path d="M150.277 72.7711C150.277 72.5568 150.34 72.3473 150.459 72.1691C150.578 71.9909 150.748 71.8521 150.946 71.77C151.144 71.688 151.362 71.6666 151.572 71.7084C151.782 71.7502 151.975 71.8534 152.127 72.0049C152.278 72.1565 152.381 72.3496 152.423 72.5597C152.465 72.7699 152.443 72.9878 152.361 73.1858C152.279 73.3838 152.141 73.553 151.962 73.6721C151.784 73.7912 151.575 73.8547 151.36 73.8547C151.217 73.8597 151.074 73.8351 150.94 73.7824C150.806 73.7298 150.685 73.6501 150.583 73.5485C150.481 73.4469 150.402 73.3254 150.349 73.1917C150.296 73.0579 150.272 72.9148 150.277 72.7711ZM152.151 72.7711C152.146 72.6135 152.094 72.4609 152.003 72.3326C151.911 72.2043 151.783 72.1062 151.636 72.0506C151.488 71.9949 151.327 71.9844 151.174 72.0203C151.02 72.0562 150.881 72.1368 150.773 72.2521C150.665 72.3673 150.594 72.5119 150.569 72.6675C150.544 72.8232 150.565 72.9828 150.63 73.1263C150.696 73.2697 150.803 73.3905 150.937 73.4733C151.071 73.5561 151.227 73.5972 151.384 73.5913C151.489 73.5898 151.593 73.5672 151.688 73.5248C151.784 73.4824 151.871 73.421 151.942 73.3444C152.014 73.2678 152.069 73.1776 152.105 73.0791C152.141 72.9805 152.156 72.8758 152.151 72.7711Z" fill="#224971"/>
<path d="M156.539 72.6034V73.8367H156.251V72.6394C156.251 72.1904 156.024 71.9569 155.653 71.9569C155.553 71.9518 155.454 71.9685 155.361 72.006C155.269 72.0434 155.186 72.1007 155.118 72.1738C155.05 72.2468 154.999 72.3339 154.968 72.4288C154.937 72.5237 154.928 72.6242 154.94 72.7232V73.8427H154.653V72.6454C154.653 72.1964 154.425 71.9629 154.054 71.9629C153.955 71.9577 153.855 71.9745 153.763 72.012C153.67 72.0494 153.587 72.1067 153.519 72.1798C153.451 72.2528 153.4 72.3399 153.37 72.4348C153.339 72.5297 153.329 72.6302 153.342 72.7292V73.8487H153.055V71.7174H153.33V72.1066C153.412 71.9763 153.527 71.8704 153.664 71.7999C153.801 71.7293 153.954 71.6967 154.108 71.7055C154.266 71.6936 154.423 71.7303 154.559 71.8106C154.695 71.8909 154.803 72.0109 154.868 72.1545C154.954 72.0105 155.078 71.8927 155.225 71.8136C155.373 71.7345 155.539 71.6971 155.707 71.7055C155.823 71.7003 155.939 71.7205 156.047 71.7647C156.155 71.809 156.252 71.8761 156.331 71.9616C156.41 72.0471 156.47 72.1488 156.505 72.2596C156.541 72.3704 156.553 72.4878 156.539 72.6034Z" fill="#224971"/>
<path d="M109.113 90.6889L109.616 90.9762L109.526 91.1439L109.017 90.8505V91.4492H108.832V90.8505L108.323 91.1439L108.227 90.9762L108.736 90.6889L108.227 90.4075L108.323 90.2339L108.832 90.5332V89.9346H109.017V90.5332L109.526 90.2339L109.616 90.4075L109.113 90.6889Z" fill="#224971"/>
<path d="M110.759 90.6889L111.262 90.9762L111.166 91.1439L110.664 90.8505V91.4492H110.472V90.8505L109.969 91.1439L109.867 90.9762L110.376 90.6889L109.867 90.4075L109.969 90.2339L110.472 90.5332V89.9346H110.676V90.5332L111.178 90.2339L111.274 90.4075L110.759 90.6889Z" fill="#224971"/>
<path d="M112.4 90.6889L112.903 90.9762L112.807 91.1439L112.304 90.8505V91.4492H112.118V90.8505L111.615 91.1439L111.52 90.9762L112.022 90.6889L111.52 90.4075L111.615 90.2339L112.118 90.5332V89.9346H112.304V90.5332L112.807 90.2339L112.903 90.4075L112.4 90.6889Z" fill="#224971"/>
<path d="M114.04 90.6889L114.543 90.9762L114.453 91.1439L113.944 90.8505V91.4492H113.759V90.8505L113.25 91.1439L113.154 90.9762L113.663 90.6889L113.154 90.4075L113.25 90.2339L113.759 90.5332V89.9346H113.944V90.5332L114.453 90.2339L114.543 90.4075L114.04 90.6889Z" fill="#224971"/>
<path d="M115.686 90.6889L116.189 90.9762L116.093 91.1439L115.59 90.8505V91.4492H115.399V90.8505L114.896 91.1439L114.794 90.9762L115.303 90.6889L114.794 90.4075L114.896 90.2339L115.399 90.5332V89.9346H115.59V90.5332L116.093 90.2339L116.189 90.4075L115.686 90.6889Z" fill="#224971"/>
<path d="M117.327 90.6889L117.829 90.9762L117.734 91.1439L117.231 90.8505V91.4492H117.045V90.8505L116.542 91.1439L116.447 90.9762L116.949 90.6889L116.447 90.4075L116.542 90.2339L117.045 90.5332V89.9346H117.261V90.5332L117.764 90.2339L117.859 90.4075L117.327 90.6889Z" fill="#224971"/>
<path d="M118.967 90.6889L119.47 90.9762L119.38 91.1439L118.871 90.8505V91.4492H118.686V90.8505L118.177 91.1439L118.081 90.9762L118.59 90.6889L118.081 90.4075L118.177 90.2339L118.686 90.5332V89.9346H118.871V90.5332L119.38 90.2339L119.47 90.4075L118.967 90.6889Z" fill="#224971"/>
<path d="M120.613 90.6889L121.116 90.9762L121.02 91.1439L120.511 90.8505V91.4492H120.326V90.8505L119.823 91.1439L119.721 90.9762L120.23 90.6889L119.721 90.4075L119.823 90.2339L120.326 90.5332V89.9346H120.511V90.5332L121.02 90.2339L121.116 90.4075L120.613 90.6889Z" fill="#224971"/>
<path d="M122.254 90.6889L122.756 90.9762L122.661 91.1439L122.158 90.8505V91.4492H121.972V90.8505L121.469 91.1439L121.374 90.9762L121.876 90.6889L121.374 90.4075L121.469 90.2339L121.972 90.5332V89.9346H122.158V90.5332L122.661 90.2339L122.756 90.4075L122.254 90.6889Z" fill="#224971"/>
<path d="M123.894 90.6889L124.397 90.9762L124.307 91.1439L123.798 90.8505V91.4492H123.613V90.8505L123.104 91.1439L123.008 90.9762L123.511 90.6889L123.008 90.4075L123.104 90.2339L123.613 90.5332V89.9346H123.798V90.5332L124.307 90.2339L124.397 90.4075L123.894 90.6889Z" fill="#224971"/>
<path d="M125.54 90.6889L126.037 90.9762L125.947 91.1439L125.438 90.8505V91.4492H125.253V90.8505L124.75 91.1439L124.648 90.9762L125.157 90.6889L124.648 90.4075L124.75 90.2339L125.253 90.5332V89.9346H125.438V90.5332L125.947 90.2339L126.037 90.4075L125.54 90.6889Z" fill="#224971"/>
<path d="M108.844 82.5712C108.844 83.1699 108.407 83.541 107.688 83.541H106.928V84.433H106.623V81.6133H107.682C108.407 81.6133 108.844 81.9725 108.844 82.5712ZM108.544 82.5712C108.544 82.1162 108.245 81.8588 107.676 81.8588H106.928V83.2776H107.682C108.245 83.2896 108.544 83.0322 108.544 82.5712Z" fill="#224971"/>
<path d="M111.017 83.1279V84.4449H110.741V84.1157C110.66 84.2335 110.549 84.3277 110.42 84.3887C110.291 84.4498 110.147 84.4753 110.005 84.4629C109.526 84.4629 109.233 84.2174 109.233 83.8642C109.233 83.511 109.442 83.2656 110.053 83.2656H110.729V83.1398C110.729 82.7747 110.52 82.5771 110.131 82.5771C109.873 82.5731 109.622 82.6624 109.424 82.8285L109.293 82.613C109.539 82.4185 109.847 82.3168 110.161 82.3257C110.272 82.3102 110.385 82.3198 110.493 82.3539C110.6 82.3879 110.698 82.4455 110.78 82.5224C110.862 82.5993 110.926 82.6936 110.967 82.7983C111.008 82.9031 111.025 83.0157 111.017 83.1279ZM110.729 83.8043V83.4571H110.077C109.664 83.4571 109.532 83.6188 109.532 83.8403C109.532 84.0618 109.73 84.2414 110.071 84.2414C110.212 84.2458 110.352 84.2062 110.47 84.1279C110.588 84.0496 110.678 83.9365 110.729 83.8043Z" fill="#224971"/>
<path d="M111.502 84.2055L111.627 83.978C111.85 84.1344 112.116 84.2181 112.388 84.2174C112.789 84.2174 112.956 84.0798 112.956 83.8642C112.956 83.3135 111.579 83.7505 111.579 82.9064C111.579 82.5592 111.879 82.3077 112.418 82.3077C112.682 82.3043 112.943 82.3726 113.172 82.5053L113.046 82.7328C112.859 82.6114 112.64 82.5488 112.418 82.5532C112.034 82.5532 111.867 82.7028 111.867 82.9064C111.867 83.505 113.244 83.0501 113.244 83.8642C113.244 84.2354 112.92 84.4629 112.364 84.4629C112.056 84.4729 111.753 84.3825 111.502 84.2055Z" fill="#224971"/>
<path d="M113.477 84.2055L113.609 83.978C113.829 84.135 114.093 84.2188 114.363 84.2174C114.77 84.2174 114.962 84.0798 114.962 83.8642C114.962 83.3135 113.585 83.7505 113.585 82.9064C113.585 82.5592 113.884 82.3077 114.429 82.3077C114.692 82.3036 114.951 82.3719 115.177 82.5053L115.052 82.7328C114.874 82.6167 114.666 82.5543 114.453 82.5532C114.064 82.5532 113.896 82.7028 113.896 82.9064C113.896 83.505 115.273 83.0501 115.273 83.8642C115.273 84.2354 114.95 84.4629 114.399 84.4629C114.071 84.486 113.746 84.395 113.477 84.2055Z" fill="#224971"/>
<path d="M118.835 82.3196L118.027 84.4449H117.758L117.087 82.7028L116.417 84.4449H116.141L115.345 82.3196H115.62L116.285 84.1156L116.967 82.3196H117.219L117.895 84.1156L118.572 82.3196H118.835Z" fill="#224971"/>
<path d="M118.991 83.3793C118.991 83.165 119.054 82.9555 119.173 82.7773C119.293 82.5991 119.462 82.4602 119.66 82.3782C119.858 82.2962 120.076 82.2748 120.286 82.3166C120.496 82.3584 120.689 82.4616 120.841 82.6131C120.992 82.7646 121.095 82.9577 121.137 83.1679C121.179 83.3781 121.158 83.596 121.076 83.794C120.994 83.992 120.855 84.1612 120.676 84.2803C120.498 84.3993 120.289 84.4629 120.074 84.4629C119.931 84.4679 119.788 84.4433 119.654 84.3906C119.52 84.3379 119.399 84.2583 119.297 84.1567C119.195 84.055 119.116 83.9336 119.063 83.7998C119.01 83.6661 118.986 83.523 118.991 83.3793ZM120.865 83.3793C120.865 83.1697 120.781 82.9687 120.633 82.8205C120.485 82.6723 120.284 82.5891 120.074 82.5891C119.865 82.5891 119.664 82.6723 119.516 82.8205C119.367 82.9687 119.284 83.1697 119.284 83.3793C119.284 83.5889 119.367 83.7899 119.516 83.9381C119.664 84.0863 119.865 84.1695 120.074 84.1695C120.284 84.1695 120.485 84.0863 120.633 83.9381C120.781 83.7899 120.865 83.5889 120.865 83.3793Z" fill="#224971"/>
<path d="M122.816 82.3017V82.5711H122.744C122.643 82.5666 122.543 82.5844 122.449 82.6233C122.356 82.6621 122.272 82.7211 122.204 82.796C122.136 82.8709 122.085 82.9598 122.056 83.0565C122.026 83.1532 122.018 83.2552 122.032 83.3554V84.4389H121.745V82.3137H122.05V82.7268C122.122 82.5887 122.233 82.4749 122.369 82.3993C122.506 82.3238 122.661 82.2899 122.816 82.3017Z" fill="#224971"/>
<path d="M125.253 81.4456V84.4389H124.977V84.0199C124.892 84.1593 124.771 84.2733 124.627 84.3501C124.483 84.427 124.321 84.4638 124.157 84.4569C123.885 84.4366 123.63 84.3139 123.444 84.1135C123.258 83.9131 123.154 83.6498 123.154 83.3763C123.154 83.1029 123.258 82.8395 123.444 82.6391C123.63 82.4387 123.885 82.3161 124.157 82.2957C124.317 82.2897 124.475 82.3251 124.617 82.3986C124.758 82.472 124.879 82.581 124.965 82.7148V81.4397L125.253 81.4456ZM124.971 83.3793C124.963 83.2251 124.91 83.0766 124.818 82.9523C124.727 82.828 124.601 82.7332 124.456 82.6798C124.311 82.6263 124.153 82.6166 124.003 82.6516C123.853 82.6867 123.716 82.7651 123.609 82.8771C123.503 82.9891 123.432 83.1298 123.404 83.2818C123.377 83.4339 123.395 83.5905 123.456 83.7325C123.517 83.8745 123.618 83.9955 123.747 84.0806C123.876 84.1658 124.027 84.2112 124.181 84.2115C124.289 84.2134 124.396 84.1928 124.496 84.1511C124.595 84.1094 124.685 84.0475 124.759 83.9692C124.834 83.891 124.891 83.7981 124.927 83.6966C124.964 83.595 124.979 83.487 124.971 83.3793Z" fill="#224971"/>
<path d="M129.509 105.919V108.757H129.234V106.182H128.563V105.919H129.509Z" fill="#224971"/>
<path d="M132.119 108.481V108.745H130.132V108.535L131.329 107.38C131.647 107.068 131.712 106.877 131.712 106.685C131.712 106.356 131.479 106.152 131.048 106.152C130.904 106.143 130.759 106.167 130.625 106.222C130.491 106.277 130.372 106.362 130.276 106.47L130.066 106.29C130.194 106.153 130.35 106.045 130.524 105.975C130.698 105.904 130.885 105.873 131.072 105.883C131.67 105.883 132.012 106.176 132.012 106.649C132.002 106.822 131.956 106.99 131.875 107.143C131.795 107.296 131.682 107.43 131.545 107.535L130.581 108.481H132.119Z" fill="#224971"/>
<path d="M134.358 107.93C134.358 108.403 134.011 108.768 133.329 108.768C132.955 108.78 132.592 108.65 132.311 108.403L132.449 108.17C132.688 108.39 133.004 108.508 133.329 108.499C133.802 108.499 134.059 108.284 134.059 107.93C134.059 107.577 133.82 107.368 133.293 107.368H133.089V107.152L133.874 106.17H132.425V105.919H134.221V106.128L133.425 107.116C134.053 107.158 134.358 107.475 134.358 107.93Z" fill="#224971"/>
<path d="M137.172 107.996H136.603V108.744H136.316V107.996H134.718V107.787L136.22 105.907H136.544L135.095 107.715H136.322V107.056H136.603V107.715H137.172V107.996Z" fill="#224971"/>
<path d="M140.423 107.906C140.423 108.391 140.088 108.768 139.393 108.768C139.02 108.78 138.656 108.649 138.375 108.403L138.519 108.17C138.635 108.28 138.771 108.365 138.92 108.422C139.069 108.479 139.228 108.505 139.387 108.499C139.872 108.499 140.123 108.266 140.123 107.9C140.123 107.535 139.896 107.302 139.178 107.302H138.579L138.729 105.877H140.279V106.14H138.98L138.884 107.038H139.249C140.1 107.068 140.423 107.409 140.423 107.906Z" fill="#224971"/>
<path d="M142.919 107.894C142.918 108.017 142.892 108.138 142.841 108.25C142.791 108.362 142.718 108.462 142.626 108.545C142.535 108.627 142.428 108.689 142.311 108.728C142.195 108.766 142.072 108.78 141.949 108.768C141.195 108.768 140.788 108.242 140.788 107.35C140.788 106.458 141.315 105.883 142.081 105.883C142.316 105.874 142.55 105.928 142.758 106.039L142.638 106.272C142.471 106.176 142.28 106.131 142.087 106.14C141.489 106.14 141.081 106.53 141.081 107.302C141.081 107.368 141.081 107.445 141.081 107.529C141.164 107.373 141.29 107.245 141.444 107.159C141.598 107.073 141.773 107.033 141.949 107.044C142.07 107.029 142.193 107.04 142.31 107.075C142.426 107.111 142.534 107.171 142.625 107.251C142.717 107.332 142.791 107.431 142.841 107.541C142.892 107.652 142.919 107.773 142.919 107.894ZM142.632 107.894C142.632 107.517 142.357 107.296 141.92 107.296C141.832 107.285 141.743 107.292 141.658 107.317C141.573 107.341 141.494 107.383 141.426 107.439C141.358 107.495 141.302 107.564 141.261 107.642C141.22 107.721 141.196 107.806 141.189 107.894C141.189 108.206 141.447 108.493 141.937 108.493C142.023 108.507 142.11 108.502 142.193 108.479C142.276 108.456 142.354 108.415 142.42 108.359C142.486 108.304 142.539 108.234 142.575 108.156C142.612 108.078 142.631 107.993 142.632 107.906V107.894Z" fill="#224971"/>
<path d="M145.218 105.919V106.128L144.021 108.757H143.704L144.871 106.182H143.416V106.709H143.129V105.919H145.218Z" fill="#224971"/>
<path d="M147.703 107.954C147.703 108.457 147.277 108.768 146.601 108.768C145.925 108.768 145.511 108.457 145.511 107.954C145.51 107.793 145.562 107.636 145.661 107.509C145.76 107.382 145.9 107.292 146.056 107.254C145.926 107.219 145.811 107.14 145.73 107.032C145.65 106.923 145.609 106.79 145.613 106.655C145.613 106.194 146.002 105.907 146.601 105.907C147.2 105.907 147.601 106.194 147.601 106.655C147.599 106.79 147.553 106.921 147.471 107.029C147.39 107.137 147.276 107.216 147.146 107.254C147.304 107.29 147.445 107.38 147.547 107.507C147.648 107.634 147.703 107.792 147.703 107.954ZM147.403 107.954C147.403 107.607 147.104 107.386 146.601 107.386C146.098 107.386 145.805 107.607 145.805 107.954C145.805 108.301 146.098 108.553 146.601 108.553C147.104 108.553 147.403 108.313 147.403 107.948V107.954ZM146.595 107.152C147.038 107.152 147.301 106.954 147.301 106.643C147.301 106.332 147.02 106.134 146.595 106.134C146.17 106.134 145.895 106.326 145.895 106.643C145.895 106.96 146.158 107.152 146.595 107.152Z" fill="#224971"/>
<path d="M151.211 107.302C151.211 108.266 150.684 108.768 149.912 108.768C149.678 108.777 149.447 108.723 149.241 108.613L149.361 108.379C149.528 108.475 149.719 108.521 149.912 108.511C150.51 108.511 150.911 108.116 150.911 107.35C150.917 107.274 150.917 107.198 150.911 107.122C150.831 107.278 150.706 107.408 150.553 107.494C150.4 107.58 150.225 107.62 150.049 107.607C149.929 107.62 149.808 107.609 149.693 107.572C149.578 107.536 149.472 107.475 149.381 107.395C149.291 107.315 149.218 107.217 149.169 107.107C149.119 106.997 149.092 106.878 149.091 106.757C149.093 106.634 149.119 106.513 149.17 106.401C149.22 106.289 149.293 106.189 149.384 106.107C149.475 106.025 149.583 105.962 149.699 105.924C149.816 105.885 149.939 105.871 150.061 105.883C150.786 105.883 151.211 106.41 151.211 107.302ZM150.81 106.739C150.81 106.428 150.552 106.14 150.061 106.14C149.975 106.126 149.887 106.131 149.803 106.155C149.719 106.179 149.641 106.221 149.575 106.278C149.508 106.335 149.455 106.406 149.42 106.485C149.384 106.565 149.366 106.652 149.367 106.739C149.367 107.116 149.642 107.338 150.079 107.338C150.252 107.351 150.423 107.296 150.555 107.183C150.688 107.071 150.77 106.912 150.786 106.739H150.81Z" fill="#224971"/>
<path d="M152.408 105.919V108.757H152.115V106.182H151.444V105.919H152.408Z" fill="#224971"/>
<path d="M153.078 107.326C153.078 106.422 153.557 105.883 154.21 105.883C154.863 105.883 155.341 106.422 155.341 107.326C155.341 108.23 154.868 108.768 154.21 108.768C153.551 108.768 153.078 108.23 153.078 107.326ZM155.042 107.326C155.042 106.571 154.707 106.128 154.21 106.128C153.713 106.128 153.378 106.547 153.378 107.326C153.378 108.104 153.719 108.523 154.21 108.523C154.701 108.523 155.042 108.08 155.042 107.326Z" fill="#224971"/>
<path d="M156.539 105.919V108.757H156.245V106.182H155.575V105.919H156.539Z" fill="#224971"/>
<path d="M159.059 105.919V108.757H158.766V106.182H158.095V105.919H159.059Z" fill="#224971"/>
<path d="M160.514 105.919V108.757H160.226V106.182H159.556V105.919H160.514Z" fill="#224971"/>
<path d="M163.124 108.481V108.744H161.136V108.535L162.334 107.38C162.651 107.068 162.717 106.877 162.717 106.685C162.717 106.356 162.483 106.152 162.052 106.152C161.908 106.143 161.763 106.167 161.63 106.222C161.496 106.277 161.376 106.361 161.28 106.47L161.071 106.29C161.199 106.153 161.355 106.046 161.529 105.976C161.702 105.906 161.889 105.874 162.076 105.883C162.675 105.883 163.016 106.176 163.016 106.649C163.007 106.822 162.96 106.99 162.88 107.143C162.799 107.296 162.686 107.43 162.549 107.535L161.562 108.481H163.124Z" fill="#224971"/>
<path d="M164.273 105.919V108.757H163.956V106.182H163.292V105.919H164.273Z" fill="#224971"/>
<path d="M116.536 105.26V104.829C116.536 104.629 116.457 104.437 116.315 104.296C116.174 104.154 115.982 104.075 115.782 104.075H108.137C107.937 104.075 107.745 104.154 107.604 104.296C107.462 104.437 107.383 104.629 107.383 104.829V105.26H116.536Z" fill="#224971"/>
<path d="M107.383 105.853V109.026C107.383 109.226 107.462 109.418 107.604 109.559C107.745 109.701 107.937 109.78 108.137 109.78H115.782C115.982 109.78 116.174 109.701 116.315 109.559C116.457 109.418 116.536 109.226 116.536 109.026V105.853H107.383Z" fill="#224971"/>
<path d="M107.497 122.561C107.497 121.658 107.97 121.125 108.628 121.125C109.287 121.125 109.76 121.658 109.76 122.561C109.76 123.465 109.281 124.004 108.628 124.004C107.976 124.004 107.497 123.465 107.497 122.561ZM109.46 122.561C109.46 121.807 109.119 121.364 108.628 121.364C108.137 121.364 107.796 121.783 107.796 122.561C107.796 123.34 108.131 123.759 108.628 123.759C109.125 123.759 109.478 123.322 109.478 122.561H109.46Z" fill="#224971"/>
<path d="M112.352 123.19C112.352 123.693 111.927 124.004 111.25 124.004C110.574 124.004 110.161 123.693 110.161 123.19C110.158 123.029 110.211 122.873 110.31 122.746C110.409 122.62 110.549 122.531 110.705 122.496C110.578 122.455 110.467 122.375 110.388 122.267C110.309 122.16 110.265 122.031 110.262 121.897C110.262 121.436 110.652 121.149 111.25 121.149C111.849 121.149 112.25 121.436 112.25 121.897C112.246 122.031 112.201 122.161 112.121 122.268C112.04 122.375 111.929 122.455 111.801 122.496C111.958 122.531 112.099 122.619 112.199 122.746C112.299 122.872 112.353 123.029 112.352 123.19ZM112.052 123.19C112.052 122.843 111.753 122.627 111.25 122.627C110.747 122.627 110.454 122.843 110.454 123.19C110.454 123.537 110.753 123.789 111.25 123.789C111.747 123.789 112.052 123.537 112.052 123.184V123.19ZM111.274 122.388C111.717 122.388 111.981 122.19 111.981 121.885C111.981 121.58 111.699 121.37 111.274 121.37C110.849 121.37 110.574 121.562 110.574 121.879C110.574 122.196 110.813 122.388 111.274 122.388Z" fill="#224971"/>
<path d="M113.783 120.574H114.046L112.705 124.381H112.471L113.783 120.574Z" fill="#224971"/>
<path d="M116.063 123.717V123.98H114.076V123.771L115.273 122.621C115.591 122.304 115.65 122.113 115.65 121.921C115.65 121.592 115.423 121.388 114.992 121.388C114.847 121.379 114.701 121.403 114.566 121.458C114.432 121.513 114.311 121.597 114.214 121.706L114.01 121.526C114.138 121.389 114.294 121.282 114.468 121.213C114.642 121.143 114.829 121.113 115.016 121.125C115.614 121.125 115.95 121.412 115.95 121.885C115.944 122.058 115.899 122.227 115.819 122.38C115.74 122.533 115.627 122.667 115.489 122.771L114.525 123.717H116.063Z" fill="#224971"/>
<path d="M118.332 123.142C118.332 123.627 117.997 124.004 117.303 124.004C116.929 124.015 116.566 123.885 116.285 123.639L116.429 123.406C116.544 123.516 116.68 123.601 116.829 123.658C116.978 123.714 117.137 123.741 117.297 123.735C117.782 123.735 118.033 123.501 118.033 123.136C118.033 122.771 117.811 122.538 117.087 122.538H116.488L116.632 121.119H118.183V121.376H116.884L116.788 122.28H117.153C118.009 122.31 118.332 122.645 118.332 123.142Z" fill="#224971"/>
<path d="M108.82 119.323V119.485H107.574V117.724H108.772V117.892H107.754V118.491H108.664V118.652H107.754V119.305L108.82 119.323Z" fill="#224971"/>
<path d="M110.334 119.485L109.772 118.706L109.173 119.485H108.957L109.628 118.581L109.029 117.724H109.239L109.772 118.443L110.298 117.724H110.496L109.897 118.575L110.568 119.485H110.334Z" fill="#224971"/>
<path d="M112.202 118.329C112.202 118.7 111.927 118.928 111.484 118.928H111.011V119.485H110.825V117.724H111.484C111.927 117.724 112.202 117.952 112.202 118.329ZM112.016 118.329C112.016 118.048 111.831 117.886 111.478 117.886H111.011V118.766H111.478C111.831 118.766 112.016 118.605 112.016 118.329Z" fill="#224971"/>
<path d="M113.292 117.724H114.004C114.237 117.724 114.461 117.817 114.626 117.982C114.791 118.147 114.884 118.371 114.884 118.605C114.884 118.838 114.791 119.062 114.626 119.227C114.461 119.392 114.237 119.485 114.004 119.485H113.292V117.724ZM113.992 119.323C114.183 119.323 114.365 119.247 114.5 119.112C114.635 118.978 114.71 118.795 114.71 118.605C114.71 118.414 114.635 118.231 114.5 118.097C114.365 117.962 114.183 117.886 113.992 117.886H113.477V119.323H113.992Z" fill="#224971"/>
<path d="M116.327 118.664V119.484H116.153V119.275C116.105 119.35 116.037 119.41 115.956 119.449C115.876 119.488 115.787 119.504 115.698 119.496C115.405 119.496 115.219 119.341 115.219 119.113C115.219 118.886 115.351 118.736 115.728 118.736H116.147V118.658C116.152 118.609 116.146 118.559 116.129 118.513C116.112 118.466 116.084 118.424 116.049 118.39C116.013 118.356 115.969 118.331 115.922 118.316C115.875 118.301 115.825 118.297 115.776 118.305C115.614 118.302 115.457 118.358 115.333 118.461L115.255 118.329C115.408 118.208 115.599 118.144 115.794 118.149C115.865 118.139 115.937 118.145 116.005 118.167C116.074 118.188 116.136 118.226 116.187 118.275C116.239 118.325 116.278 118.386 116.302 118.454C116.327 118.521 116.335 118.593 116.327 118.664ZM116.147 119.083V118.868H115.734C115.477 118.868 115.393 118.97 115.393 119.107C115.393 119.245 115.519 119.353 115.728 119.353C115.817 119.359 115.905 119.337 115.981 119.289C116.056 119.242 116.114 119.172 116.147 119.089V119.083Z" fill="#224971"/>
<path d="M117.506 119.401C117.43 119.467 117.331 119.501 117.231 119.496C117.179 119.502 117.126 119.496 117.077 119.479C117.028 119.461 116.983 119.434 116.946 119.397C116.908 119.36 116.88 119.316 116.862 119.267C116.844 119.218 116.837 119.165 116.842 119.113V118.311H116.608V118.161H116.842V117.892H117.021V118.179H117.422V118.329H117.021V119.089C117.017 119.121 117.019 119.153 117.029 119.183C117.038 119.214 117.055 119.241 117.077 119.265C117.099 119.288 117.125 119.305 117.155 119.317C117.185 119.328 117.217 119.332 117.249 119.329C117.32 119.33 117.39 119.307 117.446 119.263L117.506 119.401Z" fill="#224971"/>
<path d="M118.937 118.88H117.859C117.869 119.009 117.928 119.129 118.026 119.215C118.124 119.3 118.251 119.343 118.38 119.335C118.457 119.338 118.533 119.324 118.603 119.294C118.674 119.264 118.737 119.219 118.787 119.161L118.889 119.281C118.824 119.352 118.744 119.408 118.655 119.445C118.566 119.482 118.47 119.5 118.374 119.496C118.283 119.501 118.193 119.488 118.108 119.455C118.023 119.423 117.945 119.374 117.88 119.31C117.816 119.247 117.765 119.17 117.731 119.086C117.698 119.001 117.682 118.911 117.686 118.82C117.681 118.733 117.694 118.646 117.724 118.565C117.754 118.483 117.8 118.408 117.86 118.346C117.921 118.283 117.993 118.233 118.073 118.199C118.153 118.165 118.239 118.148 118.326 118.149C118.415 118.143 118.504 118.155 118.587 118.187C118.67 118.219 118.744 118.269 118.806 118.333C118.867 118.397 118.913 118.474 118.941 118.558C118.969 118.642 118.978 118.732 118.967 118.82L118.937 118.88ZM117.829 118.742H118.769C118.756 118.627 118.701 118.52 118.614 118.442C118.528 118.365 118.416 118.322 118.299 118.322C118.183 118.322 118.071 118.365 117.984 118.442C117.898 118.52 117.842 118.627 117.829 118.742Z" fill="#224971"/>
<path d="M140.932 121.149V123.98H140.644V121.406H139.974V121.149H140.932Z" fill="#224971"/>
<path d="M143.542 123.717V123.98H141.554V123.771L142.752 122.621C143.069 122.304 143.135 122.113 143.135 121.921C143.135 121.592 142.901 121.388 142.47 121.388C142.326 121.379 142.181 121.403 142.047 121.458C141.914 121.513 141.794 121.597 141.698 121.706L141.488 121.526C141.617 121.39 141.773 121.283 141.947 121.214C142.121 121.145 142.307 121.114 142.494 121.125C143.093 121.125 143.434 121.412 143.434 121.885C143.425 122.058 143.378 122.226 143.298 122.379C143.217 122.532 143.104 122.666 142.967 122.771L142.003 123.717H143.542Z" fill="#224971"/>
<path d="M145.781 123.166C145.781 123.639 145.434 124.004 144.751 124.004C144.378 124.016 144.014 123.886 143.733 123.639L143.877 123.406C143.993 123.516 144.131 123.602 144.281 123.659C144.431 123.716 144.591 123.741 144.751 123.735C145.224 123.735 145.482 123.519 145.482 123.166C145.482 122.813 145.242 122.603 144.715 122.603H144.512V122.388L145.296 121.406H143.847V121.149H145.643V121.352L144.841 122.358C145.476 122.394 145.781 122.711 145.781 123.166Z" fill="#224971"/>
<path d="M140.07 118.604C140.068 118.484 140.091 118.364 140.137 118.253C140.183 118.142 140.251 118.041 140.337 117.957C140.424 117.873 140.526 117.807 140.639 117.764C140.751 117.721 140.871 117.702 140.992 117.706C141.11 117.703 141.229 117.723 141.339 117.768C141.449 117.812 141.549 117.879 141.632 117.964L141.518 118.084C141.45 118.015 141.369 117.961 141.279 117.925C141.19 117.889 141.094 117.872 140.998 117.874C140.896 117.865 140.795 117.877 140.698 117.909C140.602 117.942 140.514 117.994 140.439 118.062C140.364 118.131 140.304 118.214 140.263 118.307C140.222 118.4 140.201 118.5 140.201 118.601C140.201 118.703 140.222 118.803 140.263 118.896C140.304 118.989 140.364 119.072 140.439 119.141C140.514 119.209 140.602 119.261 140.698 119.294C140.795 119.326 140.896 119.338 140.998 119.329C141.094 119.332 141.191 119.316 141.28 119.28C141.37 119.243 141.451 119.189 141.518 119.119L141.632 119.239C141.549 119.326 141.448 119.394 141.337 119.438C141.225 119.482 141.105 119.502 140.986 119.496C140.866 119.501 140.747 119.482 140.635 119.439C140.523 119.396 140.421 119.331 140.336 119.248C140.25 119.164 140.182 119.064 140.136 118.953C140.091 118.843 140.068 118.724 140.07 118.604Z" fill="#224971"/>
<path d="M144.428 117.724L143.829 119.485H143.632L143.117 117.982L142.602 119.485H142.404L141.806 117.724H141.997L142.506 119.239L143.033 117.724H143.207L143.721 119.245L144.236 117.724H144.428Z" fill="#224971"/>
<path d="M125.229 139.192H123.648L123.307 139.953H122.996L124.289 137.121H124.588L125.881 139.953H125.564L125.229 139.192ZM125.115 138.953L124.445 137.432L123.762 138.953H125.115Z" fill="#224971"/>
<path d="M126.055 138.887C126.05 138.742 126.075 138.598 126.128 138.464C126.182 138.329 126.262 138.207 126.365 138.105C126.468 138.003 126.591 137.924 126.726 137.872C126.861 137.82 127.006 137.797 127.151 137.803C127.315 137.794 127.478 137.828 127.624 137.903C127.771 137.977 127.894 138.09 127.983 138.229L127.773 138.372C127.706 138.275 127.617 138.196 127.512 138.141C127.408 138.085 127.292 138.056 127.174 138.055C126.954 138.055 126.742 138.143 126.586 138.299C126.43 138.455 126.342 138.666 126.342 138.887C126.342 139.108 126.43 139.319 126.586 139.475C126.742 139.632 126.954 139.719 127.174 139.719C127.292 139.718 127.407 139.69 127.511 139.635C127.615 139.581 127.705 139.503 127.773 139.408L127.983 139.552C127.893 139.688 127.769 139.799 127.623 139.872C127.477 139.946 127.314 139.98 127.151 139.971C127.006 139.977 126.861 139.954 126.726 139.902C126.591 139.85 126.468 139.771 126.365 139.669C126.262 139.567 126.182 139.445 126.128 139.31C126.075 139.176 126.05 139.032 126.055 138.887Z" fill="#224971"/>
<path d="M129.689 139.821C129.563 139.924 129.403 139.977 129.24 139.971C129.16 139.976 129.08 139.964 129.005 139.936C128.93 139.908 128.861 139.864 128.805 139.807C128.748 139.75 128.704 139.682 128.676 139.607C128.648 139.532 128.636 139.452 128.641 139.372V138.067H128.264V137.821H128.635V137.354H128.923V137.821H129.575V138.067H128.923V139.336C128.915 139.387 128.919 139.44 128.935 139.489C128.951 139.538 128.977 139.584 129.013 139.621C129.049 139.659 129.093 139.687 129.141 139.705C129.19 139.723 129.242 139.73 129.294 139.725C129.409 139.727 129.521 139.689 129.611 139.617L129.689 139.821Z" fill="#224971"/>
<path d="M130.15 137.151C130.15 137.095 130.172 137.042 130.211 137.003C130.251 136.963 130.304 136.941 130.359 136.941C130.415 136.941 130.468 136.963 130.508 137.003C130.547 137.042 130.569 137.095 130.569 137.151C130.569 137.206 130.547 137.26 130.508 137.299C130.468 137.338 130.415 137.36 130.359 137.36C130.304 137.36 130.251 137.338 130.211 137.299C130.172 137.26 130.15 137.206 130.15 137.151ZM130.216 137.821H130.503V139.953H130.216V137.821Z" fill="#224971"/>
<path d="M131.084 138.887C131.084 138.673 131.147 138.464 131.266 138.286C131.385 138.108 131.554 137.969 131.751 137.886C131.949 137.804 132.166 137.782 132.377 137.824C132.587 137.865 132.78 137.968 132.931 138.119C133.083 138.27 133.187 138.462 133.229 138.672C133.272 138.882 133.251 139.099 133.17 139.297C133.089 139.496 132.951 139.665 132.774 139.785C132.596 139.905 132.387 139.969 132.173 139.971C132.029 139.975 131.886 139.951 131.752 139.898C131.618 139.846 131.496 139.766 131.394 139.665C131.292 139.563 131.212 139.442 131.158 139.308C131.105 139.174 131.08 139.031 131.084 138.887ZM132.958 138.887C132.949 138.732 132.896 138.584 132.804 138.459C132.712 138.335 132.586 138.24 132.44 138.187C132.295 138.134 132.137 138.124 131.987 138.16C131.836 138.195 131.699 138.274 131.593 138.387C131.487 138.499 131.417 138.641 131.39 138.793C131.363 138.946 131.382 139.102 131.444 139.244C131.506 139.386 131.608 139.507 131.737 139.591C131.867 139.676 132.019 139.72 132.173 139.719C132.281 139.72 132.387 139.699 132.486 139.657C132.585 139.615 132.674 139.553 132.748 139.475C132.821 139.396 132.878 139.304 132.914 139.203C132.95 139.102 132.965 138.994 132.958 138.887Z" fill="#224971"/>
<path d="M135.819 138.719V139.953H135.532V138.755C135.544 138.667 135.536 138.577 135.508 138.492C135.481 138.407 135.435 138.329 135.373 138.264C135.312 138.199 135.237 138.149 135.153 138.117C135.07 138.085 134.98 138.072 134.891 138.079C134.79 138.071 134.688 138.086 134.593 138.122C134.497 138.158 134.411 138.215 134.341 138.288C134.27 138.361 134.216 138.449 134.183 138.545C134.15 138.641 134.138 138.744 134.149 138.845V139.965H133.862V137.833H134.137V138.246C134.223 138.112 134.343 138.004 134.485 137.931C134.627 137.859 134.786 137.825 134.945 137.833C135.063 137.825 135.181 137.843 135.292 137.884C135.402 137.926 135.503 137.991 135.586 138.076C135.669 138.16 135.733 138.261 135.773 138.372C135.813 138.483 135.829 138.602 135.819 138.719Z" fill="#224971"/>
<path d="M137.998 137.378V138.492H139.459V138.749H137.998V139.947H137.699V137.115H139.639V137.372L137.998 137.378Z" fill="#224971"/>
<path d="M140.094 137.151C140.094 137.095 140.116 137.042 140.155 137.003C140.194 136.963 140.248 136.941 140.303 136.941C140.359 136.941 140.412 136.963 140.451 137.003C140.491 137.042 140.513 137.095 140.513 137.151C140.513 137.206 140.491 137.26 140.451 137.299C140.412 137.338 140.359 137.36 140.303 137.36C140.248 137.36 140.194 137.338 140.155 137.299C140.116 137.26 140.094 137.206 140.094 137.151ZM140.153 137.821H140.441V139.953H140.153V137.821Z" fill="#224971"/>
<path d="M143.213 137.821V139.695C143.235 139.839 143.223 139.987 143.178 140.126C143.133 140.265 143.055 140.391 142.952 140.494C142.849 140.597 142.722 140.675 142.584 140.72C142.445 140.765 142.297 140.777 142.153 140.755C141.794 140.771 141.441 140.656 141.159 140.432L141.303 140.21C141.538 140.405 141.836 140.509 142.141 140.503C142.68 140.503 142.925 140.252 142.925 139.731V139.444C142.835 139.578 142.711 139.686 142.566 139.759C142.422 139.831 142.261 139.865 142.099 139.857C141.957 139.868 141.814 139.849 141.679 139.802C141.545 139.755 141.421 139.681 141.316 139.584C141.212 139.487 141.128 139.369 141.071 139.239C141.014 139.108 140.985 138.967 140.985 138.824C140.985 138.682 141.014 138.54 141.071 138.41C141.128 138.279 141.212 138.161 141.316 138.064C141.421 137.968 141.545 137.893 141.679 137.846C141.814 137.799 141.957 137.781 142.099 137.791C142.263 137.785 142.427 137.821 142.573 137.895C142.72 137.969 142.845 138.08 142.937 138.217V137.809L143.213 137.821ZM142.937 138.833C142.942 138.672 142.899 138.514 142.813 138.378C142.727 138.242 142.602 138.134 142.455 138.07C142.308 138.005 142.145 137.985 141.987 138.014C141.828 138.042 141.682 138.117 141.567 138.229C141.451 138.341 141.372 138.485 141.339 138.642C141.305 138.8 141.32 138.964 141.38 139.113C141.441 139.262 141.544 139.389 141.678 139.479C141.811 139.569 141.968 139.617 142.129 139.617C142.234 139.624 142.339 139.609 142.438 139.573C142.536 139.537 142.626 139.481 142.702 139.408C142.778 139.336 142.838 139.248 142.879 139.151C142.919 139.054 142.939 138.95 142.937 138.845V138.833Z" fill="#224971"/>
<path d="M145.937 137.821V139.953H145.661V139.563C145.582 139.694 145.469 139.8 145.334 139.872C145.199 139.944 145.047 139.978 144.895 139.971C144.772 139.982 144.649 139.966 144.534 139.924C144.418 139.882 144.314 139.814 144.228 139.726C144.142 139.639 144.076 139.533 144.036 139.417C143.996 139.3 143.983 139.177 143.997 139.055V137.821H144.284V139.019C144.271 139.108 144.279 139.198 144.306 139.284C144.333 139.37 144.379 139.449 144.44 139.514C144.502 139.58 144.577 139.631 144.661 139.663C144.745 139.695 144.835 139.708 144.925 139.701C145.025 139.706 145.126 139.689 145.219 139.651C145.313 139.614 145.397 139.556 145.466 139.483C145.535 139.409 145.587 139.322 145.618 139.226C145.65 139.13 145.661 139.029 145.649 138.929V137.809L145.937 137.821Z" fill="#224971"/>
<path d="M147.792 137.803V138.085H147.72C147.619 138.08 147.517 138.098 147.423 138.137C147.329 138.177 147.244 138.236 147.176 138.311C147.107 138.387 147.056 138.476 147.026 138.574C146.996 138.671 146.988 138.774 147.002 138.875V139.959H146.715V137.827H146.99V138.246C147.065 138.101 147.181 137.981 147.324 137.902C147.466 137.823 147.63 137.789 147.792 137.803Z" fill="#224971"/>
<path d="M150.187 138.977H148.391C148.397 139.081 148.424 139.182 148.469 139.276C148.515 139.369 148.578 139.453 148.656 139.522C148.734 139.591 148.824 139.644 148.923 139.678C149.021 139.711 149.125 139.726 149.229 139.719C149.352 139.722 149.474 139.699 149.586 139.65C149.699 139.602 149.8 139.529 149.882 139.438L150.043 139.623C149.89 139.784 149.694 139.895 149.478 139.944C149.262 139.994 149.036 139.978 148.829 139.899C148.622 139.821 148.443 139.683 148.314 139.502C148.184 139.322 148.111 139.108 148.104 138.887C148.096 138.746 148.118 138.606 148.167 138.473C148.216 138.341 148.292 138.221 148.39 138.119C148.487 138.018 148.605 137.937 148.735 137.883C148.865 137.829 149.004 137.802 149.145 137.803C149.286 137.8 149.426 137.827 149.555 137.881C149.685 137.935 149.802 138.016 149.899 138.118C149.996 138.22 150.071 138.341 150.118 138.473C150.166 138.606 150.185 138.747 150.175 138.887C150.175 138.887 150.187 138.941 150.187 138.977ZM148.391 138.761H149.9C149.9 138.561 149.82 138.369 149.679 138.228C149.537 138.086 149.345 138.007 149.145 138.007C148.945 138.007 148.753 138.086 148.612 138.228C148.47 138.369 148.391 138.561 148.391 138.761Z" fill="#224971"/>
<path d="M126.498 151.309V152.554H125.391V151.357C124.401 151.326 123.44 151.017 122.619 150.465L123.217 149.112C123.857 149.559 124.602 149.831 125.379 149.902V148.046C124.139 147.741 122.762 147.334 122.762 145.742C122.762 144.544 123.618 143.551 125.379 143.347V142.114H126.486V143.311C127.282 143.356 128.055 143.59 128.743 143.994L128.186 145.358C127.665 145.049 127.087 144.845 126.486 144.76V146.652C127.719 146.939 129.078 147.352 129.078 148.92C129.09 150.1 128.246 151.1 126.498 151.309ZM125.391 146.4V144.832C124.792 144.963 124.564 145.287 124.564 145.652C124.564 146.017 124.9 146.244 125.391 146.4ZM127.3 149.076C127.3 148.687 126.977 148.477 126.498 148.31V149.842C127.055 149.723 127.3 149.435 127.3 149.076Z" fill="#224971"/>
<path d="M135.646 149.753V151.225H129.767V150.058L132.76 147.22C133.454 146.562 133.574 146.167 133.574 145.784C133.574 145.185 133.149 144.82 132.329 144.82C132.017 144.808 131.707 144.872 131.427 145.008C131.146 145.144 130.903 145.346 130.719 145.598L129.407 144.754C129.762 144.275 130.23 143.892 130.769 143.639C131.308 143.386 131.902 143.272 132.497 143.305C134.233 143.305 135.388 144.197 135.388 145.61C135.388 146.364 135.173 147.053 134.083 148.064L132.287 149.753H135.646Z" fill="#224971"/>
<path d="M136.37 147.334C136.37 144.766 137.795 143.305 139.704 143.305C141.614 143.305 143.039 144.766 143.039 147.334C143.039 149.902 141.626 151.357 139.704 151.357C137.783 151.357 136.37 149.902 136.37 147.334ZM141.231 147.334C141.231 145.538 140.632 144.832 139.704 144.832C138.777 144.832 138.196 145.562 138.196 147.334C138.196 149.106 138.795 149.83 139.704 149.83C140.614 149.83 141.207 149.1 141.207 147.334H141.231Z" fill="#224971"/>
<path d="M143.919 147.334C143.919 144.766 145.344 143.305 147.254 143.305C149.163 143.305 150.588 144.766 150.588 147.334C150.588 149.902 149.175 151.357 147.254 151.357C145.332 151.357 143.919 149.902 143.919 147.334ZM148.774 147.334C148.774 145.538 148.176 144.832 147.254 144.832C146.332 144.832 145.739 145.562 145.739 147.334C145.739 149.106 146.338 149.83 147.254 149.83C148.17 149.83 148.774 149.1 148.774 147.334Z" fill="#224971"/>
<path d="M149.079 171.041H124.259C122.719 171.039 121.243 170.427 120.155 169.338C119.066 168.25 118.454 166.774 118.452 165.234C118.452 163.693 119.064 162.216 120.152 161.126C121.241 160.036 122.718 159.423 124.259 159.421H149.079C149.842 159.421 150.598 159.571 151.303 159.864C152.008 160.156 152.648 160.584 153.188 161.124C153.727 161.664 154.155 162.305 154.446 163.01C154.738 163.715 154.887 164.471 154.886 165.234C154.886 166.774 154.275 168.251 153.186 169.34C152.097 170.429 150.62 171.041 149.079 171.041Z" fill="#224971"/>
<path d="M128.707 164.587C128.707 165.318 128.18 165.755 127.312 165.755H126.39V166.832H126.031V163.42H127.312C128.18 163.444 128.707 163.881 128.707 164.587ZM128.342 164.587C128.342 164.043 127.983 163.731 127.3 163.731H126.39V165.437H127.3C127.983 165.461 128.342 165.15 128.342 164.587Z" fill="white"/>
<path d="M131.323 165.264V166.856H130.994V166.455C130.897 166.599 130.765 166.714 130.609 166.788C130.453 166.863 130.28 166.895 130.108 166.88C129.509 166.88 129.174 166.581 129.174 166.132C129.174 165.683 129.425 165.408 130.162 165.408H130.976V165.252C130.976 164.815 130.731 164.575 130.252 164.575C129.94 164.571 129.636 164.677 129.396 164.875L129.24 164.617C129.538 164.383 129.908 164.26 130.287 164.27C130.424 164.25 130.564 164.262 130.696 164.304C130.828 164.346 130.948 164.418 131.048 164.514C131.148 164.61 131.225 164.727 131.272 164.857C131.32 164.987 131.337 165.126 131.323 165.264ZM130.976 166.084V165.665H130.174C129.677 165.665 129.515 165.863 129.515 166.126C129.515 166.389 129.755 166.611 130.162 166.611C130.336 166.622 130.509 166.577 130.656 166.482C130.802 166.387 130.915 166.248 130.976 166.084Z" fill="white"/>
<path d="M134.37 164.288L133.089 167.162C132.874 167.665 132.604 167.826 132.239 167.826C132.012 167.826 131.793 167.738 131.629 167.581L131.79 167.323C131.85 167.386 131.923 167.436 132.003 167.47C132.084 167.504 132.17 167.521 132.257 167.521C132.491 167.521 132.646 167.413 132.79 167.09L132.904 166.838L131.754 164.276H132.119L133.083 166.461L134.023 164.288H134.37Z" fill="white"/>
<path d="M137.298 166.88V167.443H137.052V166.886C136.623 166.883 136.209 166.726 135.885 166.443L136.029 166.162C136.312 166.414 136.674 166.56 137.052 166.575V165.294C136.514 165.162 135.969 164.994 135.969 164.348C135.969 163.881 136.304 163.474 137.052 163.42V162.857H137.298V163.39C137.648 163.396 137.991 163.5 138.286 163.689L138.166 163.977C137.904 163.813 137.606 163.716 137.298 163.695V164.988C137.849 165.12 138.429 165.276 138.429 165.928C138.429 166.425 138.07 166.838 137.298 166.88ZM137.052 164.953V163.755C136.549 163.797 136.322 164.055 136.322 164.354C136.322 164.653 136.651 164.845 137.052 164.953ZM138.07 165.976C138.07 165.587 137.717 165.455 137.298 165.378V166.575C137.831 166.533 138.07 166.288 138.07 165.976Z" fill="white"/>
<path d="M141.243 166.545V166.856H138.848V166.611L140.267 165.216C140.65 164.839 140.722 164.617 140.722 164.372C140.722 163.977 140.447 163.737 139.926 163.737C139.752 163.729 139.579 163.758 139.417 163.823C139.256 163.888 139.111 163.988 138.992 164.114L138.741 163.899C138.894 163.737 139.08 163.61 139.286 163.526C139.493 163.442 139.715 163.404 139.938 163.414C140.626 163.414 141.069 163.767 141.069 164.336C141.061 164.544 141.006 164.748 140.908 164.932C140.811 165.117 140.674 165.277 140.507 165.402L139.345 166.545H141.243Z" fill="white"/>
<path d="M141.662 165.15C141.662 164.061 142.231 163.414 143.021 163.414C143.811 163.414 144.386 164.061 144.386 165.15C144.386 166.24 143.787 166.886 143.021 166.886C142.255 166.886 141.662 166.24 141.662 165.15ZM144.027 165.15C144.027 164.24 143.62 163.737 143.021 163.737C142.422 163.737 142.015 164.24 142.015 165.15C142.015 166.06 142.428 166.563 143.021 166.563C143.614 166.563 144.027 166.06 144.027 165.15Z" fill="white"/>
<path d="M144.889 165.15C144.889 164.061 145.487 163.414 146.254 163.414C147.02 163.414 147.619 164.061 147.619 165.15C147.619 166.24 147.02 166.886 146.254 166.886C145.487 166.886 144.889 166.24 144.889 165.15ZM147.283 165.15C147.283 164.24 146.876 163.737 146.284 163.737C145.691 163.737 145.278 164.24 145.278 165.15C145.278 166.06 145.685 166.563 146.284 166.563C146.882 166.563 147.253 166.06 147.253 165.15H147.283Z" fill="white"/>
<path d="M99.1154 152.758C100.013 166.557 93.6197 181.925 93.6197 181.925L59.0831 172.202L53.0606 170.502C59.0471 162.187 61.8968 145.807 60.3343 132.553C60.2145 131.553 60.1427 130.614 60.0888 129.716C59.4902 118.784 64.034 115.587 67.8714 110.756C72.062 105.524 81.3891 85.768 81.3891 81.0924C81.3891 76.4169 93.0929 64.9705 90.4887 51.9796C90.4887 51.9796 94.0268 49.7826 97.5828 51.5845C99.1992 52.3987 100.81 54.033 102.109 57.0623C105.156 64.1803 100.875 84.3012 97.2356 89.2342L90.2253 118.257C90.2253 118.257 92.59 122.334 94.9128 129.733C97.2218 137.214 98.6326 144.944 99.1154 152.758Z" fill="#FFA8A7"/>
<path opacity="0.4" d="M60.0888 129.716C62.0464 135.074 64.1238 138.695 63.9442 146.203C63.7646 153.71 59.7536 165.264 60.897 171.268C60.2438 171.461 59.6339 171.778 59.101 172.202L53.0785 170.502C59.0651 162.187 61.9147 145.808 60.3522 132.553C60.2145 131.553 60.1427 130.614 60.0888 129.716Z" fill="#8797A8"/>
<path opacity="0.4" d="M97.2356 89.2342L90.2253 118.257C90.2253 118.257 92.59 122.334 94.9128 129.733C90.1654 122.083 86.1304 119.796 86.1304 119.796C89.2914 116.006 91.7279 88.2883 91.7279 88.2883C91.7279 88.2883 101.636 76.6444 100.708 64.4617C100.41 60.0222 99.353 55.6667 97.5828 51.5845C99.1992 52.3987 100.81 54.033 102.109 57.0622C105.156 64.1803 100.875 84.3012 97.2356 89.2342Z" fill="#8797A8"/>
<path d="M53.0606 170.502C59.0471 162.187 61.8968 145.807 60.3402 132.553C58.7837 119.299 63.7167 115.982 67.8774 110.75C72.038 105.518 81.3891 85.768 81.3891 81.0865C81.3891 76.4049 93.0869 64.9765 90.4887 51.9796C90.4887 51.9796 97.954 47.352 102.109 57.0623C105.156 64.1863 100.875 84.3013 97.2356 89.2402L90.2313 118.257C90.2313 118.257 97.7086 131.158 99.1154 152.758C100.013 166.557 93.6197 181.931 93.6197 181.931" stroke="#224971" stroke-linecap="round" stroke-linejoin="round"/>
<path d="M76.1448 192.97C76.1448 192.97 84.0052 197.807 88.5909 205.458" stroke="#224971" stroke-linecap="round" stroke-linejoin="round"/>
<path d="M98.2233 202.123C98.2233 202.123 91.4525 203.087 85.3342 195.766C81.413 191.078 69.5057 188.959 66.7758 176.698" stroke="#224971" stroke-linecap="round" stroke-linejoin="round"/>
<path opacity="0.2" d="M196.631 238.378C179.3 230.087 189.794 223.442 165.95 213.151C142.105 202.86 141.866 194.066 144.739 173.843C147.613 153.62 145.338 132.11 152.27 130.284C159.203 128.458 146.846 100.567 154.928 90.707L194.703 168.078L196.631 238.378Z" fill="#FFA8A7"/>
<path d="M261.208 237.57C260.394 235.241 259.568 232.697 258.927 230.386C258.101 227.393 257.455 224.998 255.934 222.214C255.695 221.771 255.437 221.305 255.15 220.802C253.528 217.91 251.307 213.953 250.007 209.092C249.133 205.817 250.007 197.753 250.822 189.935C251.42 184.319 251.965 179.021 251.803 176.016L251.756 174.95C251.348 167.09 250.498 150.735 248.762 146.215C247.056 141.856 245.464 141.204 242.56 140.043C242.261 139.911 241.961 139.791 241.614 139.647C240.525 139.192 238.669 138.235 236.532 137.127C231.712 134.631 225.714 131.524 222.667 131.14C219.816 130.82 216.933 130.953 214.124 131.536C210.37 128.656 203.983 124.95 202.079 124.873C200.522 124.795 197.122 125.77 195.494 126.279L194.673 126.543C193.642 125.743 192.549 125.026 191.405 124.4C191.327 124.358 191.249 124.328 191.183 124.298C189.07 123.43 185.879 123.4 184.137 123.448C183.61 123.448 183.197 123.502 183.011 123.52C179.725 118.461 176.492 113.426 175.085 111.217C172.152 106.571 163.07 87.4563 162.98 87.2707C162.97 87.2461 162.953 87.2245 162.933 87.2077C162.912 87.191 162.887 87.1797 162.861 87.1749C162.833 87.1711 162.805 87.1711 162.777 87.1749C162.07 86.9714 156.868 85.6484 154.779 90.6891C152.492 96.1788 155.755 108.23 158.939 112.606C160.472 114.713 164.657 123.31 168.901 132.206C167.812 133.218 159.095 141.27 154.863 142.772C151.396 144 152.21 161.768 152.863 176.034C153.108 181.302 153.312 185.834 153.252 188.558C153.132 193.826 162.717 201.082 172.008 208.098C180.389 214.456 189.082 221.023 190.1 225.794C190.381 227.135 191.183 228.225 192.141 229.452C193.739 231.488 195.799 233.888 196.673 238.432C196.93 239.797 199.121 241.581 200.863 244.497H263.747C263.22 243.078 262.226 240.492 261.208 237.57ZM174.002 142.922C177.049 149.304 178.935 153.099 179.39 153.524C179.845 153.949 179.815 155.973 179.803 157.942C179.737 159.667 179.797 161.393 179.982 163.109C179.24 163.761 174.552 168.03 173.607 171.49L169.625 166.803L168.62 152.094C169.218 151.459 173.313 147.131 174.002 142.922Z" fill="#FFA8A7"/>
<path opacity="0.4" d="M243.165 183.93C244.643 197.729 244.661 205.212 246.32 209.206C249.121 215.946 253.246 217.311 253.246 217.311C251.874 214.699 250.785 211.947 249.995 209.104C249.127 205.829 249.995 197.765 250.81 189.947C251.408 184.331 251.959 179.027 251.803 176.022L251.749 174.956C251.342 167.102 250.492 150.746 248.756 146.221C247.056 141.862 245.458 141.21 242.554 140.042C242.255 139.917 241.955 139.797 241.608 139.653C240.519 139.198 238.669 138.241 236.526 137.133C231.706 134.637 225.708 131.53 222.661 131.146C219.81 130.822 216.926 130.956 214.118 131.541C210.364 128.662 203.976 124.956 202.073 124.878C200.516 124.801 196.296 126.028 194.655 126.549C201.839 132.41 212.184 139.719 212.184 139.719C220.368 141.348 219.32 144.898 222.631 146.903C225.624 148.699 228.486 143.443 231.012 142.982C234.317 142.383 238.07 145.867 237.902 150.094C237.388 161.738 241.896 172.083 243.165 183.93Z" fill="#FFA8A7"/>
<path opacity="0.4" d="M201.797 141.168C201.797 141.168 195.314 135.78 192.219 133.984C189.124 132.188 188.627 125.998 191.069 124.495C191.162 124.44 191.267 124.407 191.375 124.4L191.153 124.298C189.04 123.43 185.849 123.394 184.107 123.448C187.699 130.135 190.567 135.265 191.339 136.391C193.943 140.15 201.797 141.168 201.797 141.168Z" fill="#FFA8A7"/>
<path opacity="0.4" d="M191.961 224.956C192.237 223.526 189.878 219.335 188.842 217.635C186.49 213.755 159.173 189.617 163.13 183.176C167.087 176.734 170.703 181.5 173.205 181.919C175.001 182.218 179.934 179.279 179.91 179.033C179.348 174.07 183.927 170.844 183.927 170.844C183.927 170.844 183.508 151.088 182.455 151.423C181.401 151.758 168.793 121.759 168.793 121.759C168.793 121.759 155.467 104.039 156.221 95.7716C156.976 87.5042 162.759 87.3605 162.759 87.3605V87.139C162.052 86.9354 156.85 85.6124 154.761 90.6531C152.474 96.1428 155.737 108.194 158.921 112.57C160.454 114.677 164.639 123.274 168.883 132.17C167.794 133.182 159.077 141.234 154.845 142.736C151.378 143.964 152.192 161.732 152.845 175.998C153.09 181.266 153.294 185.798 153.234 188.522C153.114 193.79 162.699 201.046 171.99 208.062C180.371 214.42 189.064 220.987 190.082 225.759C190.363 227.1 191.165 228.189 192.123 229.416C191.932 227.938 191.878 226.445 191.961 224.956ZM174.002 142.94C177.049 149.322 178.935 153.117 179.39 153.542C179.845 153.967 179.815 155.991 179.803 157.96C179.737 159.685 179.797 161.411 179.982 163.127C179.24 163.779 174.552 168.048 173.607 171.508L169.625 166.821L168.62 152.111C169.218 151.459 173.313 147.131 174.002 142.922V142.94Z" fill="#FFA8A7"/>
<path d="M198.08 141.09C195.404 140.248 193.054 138.601 191.351 136.373C188.615 132.709 177.869 116.018 174.894 111.313C171.918 106.607 162.759 87.3605 162.759 87.3605C162.759 87.3605 157.131 85.4748 154.94 90.731C152.749 95.9872 155.749 107.865 159.083 112.438C162.418 117.012 178.264 152.231 179.521 153.369C180.778 154.506 178.893 163.905 181.413 166.18" stroke="#FFA8A7" stroke-linecap="round" stroke-linejoin="round"/>
<path d="M180.204 163.193C180.204 163.193 174.397 168.251 173.714 171.945L169.404 166.874L168.386 152.016C168.386 152.016 173.589 146.807 173.876 142.174" stroke="#FFA8A7" stroke-linecap="round" stroke-linejoin="round"/>
<path d="M169.123 132.188C169.123 132.188 159.478 141.288 154.892 142.91C150.307 144.532 153.653 178.626 153.426 188.498C153.198 198.37 188.118 215.569 190.261 225.675C191.111 229.698 194.631 230.518 196.781 238.246" stroke="#FFA8A7" stroke-linecap="round" stroke-linejoin="round"/>
<path d="M182.85 123.717C182.85 123.717 188.1 123.244 191.057 124.477C194.015 125.711 206.024 136.025 208.921 137.995C211.819 139.965 216.177 140.713 217.003 142.838" stroke="#FFA8A7" stroke-linecap="round" stroke-linejoin="round"/>
<path d="M194.59 126.758C194.59 126.758 199.977 124.962 202.037 125.064C204.096 125.166 211.843 129.734 215.315 132.787C217.976 135.147 221.04 137.009 224.361 138.282" stroke="#FFA8A7" stroke-linecap="round" stroke-linejoin="round"/>
<path d="M214.052 131.751C216.864 131.146 219.756 131.006 222.613 131.338C226.995 131.937 237.998 138.402 241.506 139.863C245.015 141.324 246.691 141.593 248.535 146.31C250.379 151.028 251.223 168.964 251.594 176.052C251.965 183.14 248.271 203.441 249.798 209.152C251.324 214.863 254.078 219.269 255.749 222.322" stroke="#FFA8A7" stroke-linecap="round" stroke-linejoin="round"/>
<path d="M168.386 152.016C168.386 152.016 167.548 148.514 166.351 148.065" stroke="#FFA8A7" stroke-linecap="round" stroke-linejoin="round"/>
<path d="M169.404 166.874C169.808 168.916 170.354 170.926 171.038 172.891C171.9 175.016 170.559 178.093 170.559 178.093" stroke="#FFA8A7" stroke-linecap="round" stroke-linejoin="round"/>
<path d="M173.714 171.945C173.577 175.345 176.959 179.321 177.779 178.758" stroke="#FFA8A7" stroke-linecap="round" stroke-linejoin="round"/>
<path d="M190.938 152.016C190.938 152.016 194.572 146.137 198.056 145.849C201.54 145.562 205.563 150.507 207.712 150.04C209.861 149.573 212.567 146.412 216.183 145.849C219.799 145.287 221.493 147.011 224.361 147.155C227.228 147.298 227.522 143.467 230.946 142.964C234.37 142.461 235.538 144.161 237.837 144.604C240.135 145.047 240.71 143.233 242.572 142.21" stroke="#FFA8A7" stroke-linecap="round" stroke-linejoin="round"/>
</svg>
