<svg width="26" height="23" viewBox="0 0 26 23" fill="none" xmlns="http://www.w3.org/2000/svg">
<path d="M0 3.14669C0.169105 3.14669 0.27678 3.14669 0.384455 3.14669C1.98578 3.146 3.58641 3.13703 5.18773 3.14669C7.21906 3.15911 8.99363 4.50643 9.62588 6.44044C9.97099 7.49649 10.3969 8.52561 10.7751 9.5713C11.6013 11.8525 12.4206 14.1364 13.2433 16.419C13.3766 16.789 13.498 17.1645 13.654 17.5248C13.6989 17.6283 13.8425 17.7498 13.9474 17.7567C14.3739 17.7836 14.8026 17.7698 15.2312 17.7684C16.8325 17.7636 18.4338 17.7746 20.0345 17.7436C20.7985 17.7291 21.5081 17.5123 21.9795 16.8401C22.5379 16.0442 22.5262 15.1835 22.1541 14.3373C21.8021 13.5366 21.0795 13.1757 20.2567 13.1287C18.683 13.0397 17.1058 13.0121 15.5294 12.9858C14.5051 12.9686 13.7969 12.4847 13.3717 11.5875C13.1667 11.1554 13.0446 10.6846 12.8637 10.1697C13.0418 10.1697 13.1598 10.1697 13.2785 10.1697C14.9696 10.1677 16.6613 10.1753 18.3524 10.1587C18.9142 10.1532 19.4823 10.1297 20.0352 10.0379C21.9312 9.72384 22.0975 7.77948 21.3487 6.74069C21.0387 6.31068 20.5432 6.08774 19.9951 6.07669C18.3048 6.04425 16.6137 6.02148 14.9234 5.99939C14.3373 5.9918 13.7507 5.99111 13.1647 5.9987C11.9989 6.01319 11.1837 5.49967 10.7544 4.40704C10.5991 4.01154 10.4659 3.60707 10.3002 3.14393C10.4693 3.14393 10.5984 3.14393 10.7268 3.14393C11.4936 3.14324 12.2605 3.12805 13.0266 3.15014C13.3075 3.15842 13.4028 3.04868 13.5008 2.80572C13.7175 2.26734 13.9315 1.71516 14.2386 1.22717C15.3057 -0.467327 17.6456 -0.417631 18.6837 1.44252C18.9059 1.84078 19.0716 2.27701 19.2179 2.71047C19.3228 3.02245 19.4643 3.17568 19.8177 3.1957C20.4562 3.2309 21.1022 3.27714 21.7262 3.41036C23.4041 3.76927 24.503 4.8336 24.9834 6.44596C25.4983 8.1736 24.7004 10.1262 23.2074 11.0201C23.0542 11.1119 22.9093 11.2161 22.7001 11.3542C22.8464 11.4252 22.9451 11.4839 23.0507 11.5226C24.5575 12.0699 25.5576 13.0887 25.8952 14.6748C26.1216 15.7398 25.9759 16.7876 25.51 17.7712C25.0924 18.6519 24.512 19.4049 23.6388 19.8964C22.8803 20.3236 22.0693 20.5445 21.2009 20.5645C21.016 20.5687 20.9097 20.5196 20.8531 20.3002C20.5197 19.0184 19.1896 18.5042 18.0867 19.2407C17.7284 19.4795 17.4937 19.8501 17.4365 20.2974C17.4006 20.5783 17.2839 20.7143 16.9754 20.6867C16.6738 20.6591 16.3666 20.6749 16.0629 20.6832C15.8172 20.6901 15.6874 20.6128 15.6143 20.3464C15.3451 19.3677 14.7605 18.9169 13.8314 18.9211C13.0045 18.9252 12.3033 19.5264 12.1618 20.3485C12.1369 20.4927 12.1756 20.697 11.9305 20.6784C11.6807 20.6598 11.3756 20.7971 11.2417 20.4265C10.8524 19.3483 10.4493 18.2757 10.0586 17.1983C9.61897 15.9849 9.18827 14.7687 8.75136 13.5546C8.13913 11.8518 7.52276 10.1504 6.9126 8.44693C6.63099 7.66214 6.28657 6.92636 5.53422 6.46874C5.05245 6.1754 4.53409 6.01112 3.97086 5.99732C3.46424 5.98489 2.95623 5.99594 2.45099 5.96764C1.4757 5.91242 0.866922 5.34022 0.49075 4.49194C0.30715 4.08332 0.180839 3.64986 0 3.14669ZM18.6105 3.11908C18.4428 2.36674 18.1771 1.71516 17.6456 1.19266C17.1279 0.683968 16.3197 0.50796 15.6798 0.833056C14.7653 1.29758 14.3939 2.15277 14.1192 3.11908C15.6288 3.11908 17.0865 3.11908 18.6105 3.11908ZM18.5346 4.55268C18.5346 4.89296 18.8707 5.23738 19.2055 5.24152C19.6134 5.24635 19.9206 4.96267 19.9275 4.57407C19.9358 4.12612 19.6486 3.81897 19.2124 3.80793C18.9204 3.80102 18.5346 4.22482 18.5346 4.55268ZM13.4663 5.24152C13.8107 5.24497 14.093 4.93851 14.0999 4.55337C14.1068 4.1696 13.801 3.80861 13.4711 3.81138C13.2226 3.81345 12.7236 4.32283 12.7236 4.57477C12.7229 4.85638 13.1488 5.23807 13.4663 5.24152Z" fill="#214A71"/>
<path d="M15.3761 20.6439C15.3775 21.4881 14.7211 22.1451 13.879 22.1424C13.0521 22.1396 12.393 21.4894 12.3854 20.6694C12.3771 19.8294 13.0356 19.1592 13.8721 19.1558C14.7204 19.1516 15.3754 19.7998 15.3761 20.6439ZM14.3436 20.6446C14.3429 20.4134 14.1241 20.1918 13.8908 20.1877C13.6651 20.1835 13.4345 20.4072 13.4269 20.637C13.4193 20.8855 13.6513 21.1188 13.897 21.1098C14.1296 21.1008 14.3436 20.8772 14.3436 20.6446Z" fill="#214A71"/>
<path d="M19.1192 22.1438C18.2827 22.1382 17.6373 21.4722 17.6449 20.6225C17.6525 19.7901 18.3262 19.1427 19.1738 19.1537C19.9813 19.1641 20.6508 19.8515 20.6412 20.6584C20.6301 21.4908 19.9551 22.1493 19.1192 22.1438ZM19.5831 20.646C19.5782 20.3996 19.3774 20.1911 19.1392 20.187C18.899 20.1821 18.6699 20.4265 18.683 20.6715C18.6961 20.9069 18.9211 21.1195 19.1503 21.1119C19.3926 21.105 19.5879 20.8951 19.5831 20.646Z" fill="url(#paint0_radial_53_148)"/>
<defs>
<radialGradient id="paint0_radial_53_148" cx="0" cy="0" r="1" gradientUnits="userSpaceOnUse" gradientTransform="translate(19.1426 20.6488) scale(1.4966)">
<stop stop-color="#458DCB"/>
<stop offset="0.0043381" stop-color="#458BC7"/>
<stop offset="0.00654692" stop-color="#4384BD"/>
<stop offset="0.00827535" stop-color="#3E79AE"/>
<stop offset="0.00975462" stop-color="#376C9D"/>
<stop offset="0.0111" stop-color="#2E5C88"/>
<stop offset="0.0123" stop-color="#214A71"/>
</radialGradient>
</defs>
</svg>
