<svg width="11" height="11" viewBox="0 0 11 11" fill="none" xmlns="http://www.w3.org/2000/svg">
<g clip-path="url(#clip0_202_3421)">
<path d="M4.81244 9.16657C4.81244 9.3489 4.88487 9.52377 5.0138 9.6527C5.14273 9.78163 5.31759 9.85406 5.49993 9.85406C5.68226 9.85406 5.85713 9.78163 5.98606 9.6527C6.11499 9.52377 6.18742 9.3489 6.18742 9.16657V6.18742H9.16657C9.3489 6.18742 9.52377 6.11499 9.6527 5.98606C9.78163 5.85713 9.85406 5.68226 9.85406 5.49993C9.85406 5.31759 9.78163 5.14273 9.6527 5.0138C9.52377 4.88487 9.3489 4.81244 9.16657 4.81244H6.18742V1.83329C6.18742 1.65096 6.11499 1.47609 5.98606 1.34716C5.85713 1.21823 5.68226 1.1458 5.49993 1.1458C5.31759 1.1458 5.14273 1.21823 5.0138 1.34716C4.88487 1.47609 4.81244 1.65096 4.81244 1.83329V4.81244H1.83329C1.65096 4.81244 1.47609 4.88487 1.34716 5.0138C1.21823 5.14273 1.1458 5.31759 1.1458 5.49993C1.1458 5.68226 1.21823 5.85713 1.34716 5.98606C1.47609 6.11499 1.65096 6.18742 1.83329 6.18742H4.81244V9.16657Z" fill="#F5F7FA"/>
</g>
<defs>
<clipPath id="clip0_202_3421">
<rect width="10.6667" height="10.6667" fill="white" transform="scale(1.03124)"/>
</clipPath>
</defs>
</svg>
