<svg width="163" height="140" viewBox="0 0 163 140" fill="none" xmlns="http://www.w3.org/2000/svg">
<path d="M162.844 75.6642V69.52C162.844 68.3484 162.378 67.2247 161.548 66.3963C160.718 65.5678 159.593 65.1024 158.419 65.1024H142.8C141.626 65.1024 140.501 64.6369 139.671 63.8085C138.841 62.98 138.375 61.8563 138.375 60.6847V54.5405C138.375 53.3689 138.841 52.2453 139.671 51.4168C140.501 50.5883 141.626 50.1229 142.8 50.1229H143.293C144.467 50.1229 145.592 49.6575 146.422 48.829C147.252 48.0005 147.718 46.8769 147.718 45.7052V39.5611C147.718 38.9809 147.604 38.4065 147.381 37.8705C147.159 37.3345 146.833 36.8475 146.422 36.4373C146.011 36.0271 145.523 35.7017 144.986 35.4797C144.449 35.2577 143.874 35.1434 143.293 35.1434H29.811C28.6374 35.1434 27.5119 35.6088 26.682 36.4373C25.8521 37.2658 25.3859 38.3894 25.3859 39.5611V45.7052C25.3859 46.8769 25.8521 48.0005 26.682 48.829C27.5119 49.6574 28.6374 50.1229 29.811 50.1229C30.9847 50.1229 32.1102 50.5883 32.9401 51.4168C33.7699 52.2453 34.2362 53.3689 34.2362 54.5405V60.6847C34.2362 61.8564 33.7699 62.98 32.9401 63.8085C32.1102 64.6369 30.9847 65.1024 29.811 65.1024H12.6987C11.5251 65.1024 10.3996 65.5678 9.56968 66.3963C8.73981 67.2247 8.27359 68.3484 8.27359 69.52V75.6642C8.27359 76.8358 8.73981 77.9595 9.56968 78.7879C10.3996 79.6164 11.5251 80.0818 12.6987 80.0818H19.4133C19.9944 80.0818 20.5699 80.1961 21.1068 80.4181C21.6436 80.6401 22.1315 80.9655 22.5424 81.3757C22.9533 81.786 23.2792 82.273 23.5016 82.8089C23.724 83.3449 23.8385 83.9194 23.8385 84.4995V90.6437C23.8385 91.8153 23.3723 92.939 22.5424 93.7674C21.7125 94.5959 20.587 95.0613 19.4134 95.0613H19.3971C18.2235 95.0613 17.098 95.5268 16.2681 96.3552C15.4382 97.1837 14.972 98.3074 14.972 99.479V105.623C14.972 106.795 15.4382 107.918 16.2681 108.747C17.098 109.575 18.2235 110.041 19.3971 110.041H20.3686C20.9497 110.041 21.5251 110.155 22.062 110.377C22.5989 110.599 23.0867 110.924 23.4976 111.335C23.9085 111.745 24.2345 112.232 24.4569 112.768C24.6792 113.304 24.7937 113.878 24.7937 114.458V120.603C24.7937 121.774 24.3275 122.898 23.4976 123.726C22.6677 124.555 21.5422 125.02 20.3686 125.02H4.42512C3.2515 125.02 2.12596 125.486 1.29609 126.314C0.466216 127.143 0 128.266 0 129.438V135.582C4.50665e-06 136.754 0.466222 137.877 1.29609 138.706C2.12596 139.534 3.25151 140 4.42512 140H145.669C146.842 140 147.968 139.534 148.798 138.706C149.628 137.877 150.094 136.754 150.094 135.582V129.438C150.094 128.266 149.628 127.143 148.798 126.314C147.968 125.486 146.842 125.02 145.669 125.02H141.832C140.658 125.02 139.533 124.555 138.703 123.726C137.873 122.898 137.407 121.774 137.407 120.603V114.458C137.407 113.287 137.873 112.163 138.703 111.335C139.533 110.506 140.658 110.041 141.832 110.041H150.879C152.052 110.041 153.178 109.575 154.008 108.747C154.838 107.918 155.304 106.795 155.304 105.623V99.479C155.304 98.3074 154.838 97.1837 154.008 96.3553C153.178 95.5268 152.052 95.0614 150.879 95.0614H148.134C146.961 95.0614 145.835 94.5959 145.005 93.7675C144.175 92.939 143.709 91.8153 143.709 90.6437V84.4995C143.709 83.3279 144.175 82.2042 145.005 81.3757C145.835 80.5473 146.961 80.0818 148.134 80.0818H158.419C159.593 80.0818 160.718 79.6164 161.548 78.7879C162.378 77.9595 162.844 76.8358 162.844 75.6642Z" fill="#DBE8EC"/>
<path d="M139.168 64.0623H44.6098L41.5265 56.2589H139.168C139.289 56.2589 139.41 56.2828 139.522 56.3292C139.634 56.3756 139.736 56.4436 139.822 56.5293C139.908 56.6151 139.976 56.7169 140.023 56.8289C140.069 56.941 140.093 57.061 140.093 57.1823V63.1389C140.093 63.2601 140.069 63.3802 140.023 63.4923C139.976 63.6043 139.908 63.7061 139.822 63.7918C139.736 63.8776 139.634 63.9456 139.522 63.992C139.41 64.0384 139.289 64.0623 139.168 64.0623Z" fill="#224971"/>
<path d="M125.392 105.062H61.0942C60.7804 105.062 60.4742 104.967 60.2163 104.788C59.9584 104.61 59.7611 104.357 59.6509 104.064L44.6098 64.0622H135.875L126.896 103.861C126.819 104.202 126.628 104.507 126.355 104.725C126.082 104.943 125.742 105.062 125.392 105.062Z" fill="#224971"/>
<path d="M131.251 84.5632C124.673 84.9844 118.096 85.2047 111.518 85.3544C108.229 85.4482 104.94 85.469 101.651 85.5242L91.7844 85.5804C85.2067 85.5864 78.6289 85.5121 72.0511 85.3575C65.4734 85.2084 58.8956 84.9869 52.3179 84.5632C58.8956 84.1395 65.4734 83.9181 72.0511 83.7689C78.6289 83.6215 85.2067 83.5472 91.7844 83.546L101.651 83.6022C104.94 83.6574 108.229 83.6782 111.518 83.772C118.096 83.9217 124.673 84.1421 131.251 84.5632Z" fill="#F5F7FA"/>
<path d="M118.385 64.0622C118.01 67.6401 117.437 71.1736 116.805 74.6936C116.165 78.2118 115.45 81.7133 114.661 85.1981C113.876 88.6838 113.019 92.1533 112.09 95.6065C111.621 97.3321 111.135 99.054 110.617 100.768C110.349 101.624 110.093 102.482 109.814 103.335L109.6 103.983C109.515 104.22 109.378 104.436 109.198 104.613C109.029 104.78 108.825 104.907 108.601 104.985C108.377 105.062 108.138 105.089 107.902 105.062C108.115 105.037 108.32 104.966 108.503 104.855C108.686 104.743 108.843 104.593 108.962 104.415C109.074 104.251 109.147 104.064 109.177 103.868L109.263 103.211C109.377 102.321 109.515 101.436 109.64 100.549C109.908 98.778 110.208 97.0145 110.526 95.2548C111.166 91.7366 111.882 88.2353 112.673 84.7509C113.46 81.2658 114.318 77.7965 115.246 74.3431C116.187 70.8924 117.187 67.455 118.385 64.0622Z" fill="#F5F7FA"/>
<path d="M81.6411 105.062C81.3956 105.089 81.1473 105.058 80.9159 104.972C80.6844 104.886 80.4761 104.748 80.3075 104.568C80.1421 104.378 80.0093 104.162 79.9147 103.929L79.61 103.299C79.204 102.459 78.8213 101.61 78.4258 100.766C77.6517 99.0714 76.9091 97.3651 76.1819 95.653C74.7337 92.2266 73.3569 88.7734 72.0512 85.2935C70.7416 81.8151 69.5014 78.3107 68.3306 74.7803C67.1697 71.2462 66.0673 67.6901 65.1568 64.0622C66.8624 67.3922 68.3762 70.794 69.8316 74.2178C71.2796 77.6443 72.6556 81.0978 73.9597 84.5783C75.2667 88.0577 76.5061 91.5624 77.6778 95.0925C78.2587 96.8594 78.8242 98.6321 79.3582 100.417C79.6167 101.312 79.8881 102.203 80.1362 103.102L80.3221 103.776C80.3645 103.988 80.441 104.192 80.5487 104.379C80.6676 104.567 80.8276 104.727 81.0167 104.845C81.2059 104.963 81.4193 105.038 81.6411 105.062Z" fill="#F5F7FA"/>
<path d="M77.0597 136.517C80.5777 136.517 83.4296 133.67 83.4296 130.158C83.4296 126.646 80.5777 123.799 77.0597 123.799C73.5417 123.799 70.6898 126.646 70.6898 130.158C70.6898 133.67 73.5417 136.517 77.0597 136.517Z" fill="#224971"/>
<path d="M77.0598 133.093C78.6835 133.093 79.9998 131.779 79.9998 130.158C79.9998 128.537 78.6835 127.223 77.0598 127.223C75.4361 127.223 74.1198 128.537 74.1198 130.158C74.1198 131.779 75.4361 133.093 77.0598 133.093Z" fill="#DBE8EC"/>
<path d="M113.804 136.517C117.322 136.517 120.174 133.67 120.174 130.158C120.174 126.646 117.322 123.799 113.804 123.799C110.286 123.799 107.434 126.646 107.434 130.158C107.434 133.67 110.286 136.517 113.804 136.517Z" fill="#224971"/>
<path d="M113.804 133.093C115.427 133.093 116.744 131.779 116.744 130.158C116.744 128.537 115.427 127.223 113.804 127.223C112.18 127.223 110.864 128.537 110.864 130.158C110.864 131.779 112.18 133.093 113.804 133.093Z" fill="#DBE8EC"/>
<path d="M92.3485 64.0622C92.9736 67.4538 93.3961 70.8575 93.7577 74.2648C94.1109 77.6726 94.3882 81.0849 94.5894 84.5017C94.7949 87.9183 94.9265 91.3393 94.984 94.7647C95.0308 98.1907 95.0154 101.62 94.7954 105.062C94.1677 101.671 93.7444 98.2672 93.3835 94.8599C93.0304 91.452 92.7541 88.0397 92.5546 84.6228C92.3518 81.206 92.2212 77.785 92.1628 74.3597C92.1166 70.9336 92.1313 67.5039 92.3485 64.0622Z" fill="#F5F7FA"/>
<path d="M124.582 120.571H66.9591C66.7528 120.571 66.5514 120.509 66.3815 120.392C66.2115 120.275 66.081 120.11 66.0072 119.918L32.6347 33.071H14.9579C14.6875 33.071 14.4282 32.9638 14.237 32.7729C14.0458 32.582 13.9383 32.3231 13.9383 32.0532C13.9383 31.7832 14.0458 31.5243 14.237 31.3334C14.4282 31.1426 14.6875 31.0353 14.9579 31.0353H33.3355C33.5418 31.0353 33.7431 31.0978 33.9131 31.2145C34.0831 31.3311 34.2136 31.4965 34.2874 31.6887L67.6599 118.536H124.582C124.852 118.536 125.111 118.643 125.303 118.834C125.494 119.024 125.601 119.283 125.601 119.553C125.601 119.823 125.494 120.082 125.303 120.273C125.111 120.464 124.852 120.571 124.582 120.571Z" fill="#224971"/>
<path d="M23.8234 29.1188H11.7248C11.3494 29.1188 11.0451 29.4226 11.0451 29.7974V34.6694C11.0451 35.0441 11.3494 35.3479 11.7248 35.3479H23.8234C24.1988 35.3479 24.5031 35.0441 24.5031 34.6694V29.7974C24.5031 29.4226 24.1988 29.1188 23.8234 29.1188Z" fill="#224971"/>
<path d="M44.1803 39.1598H53.002" stroke="#B9D4DB" stroke-width="3" stroke-miterlimit="10" stroke-linecap="round"/>
<path d="M44.1803 41.6985H53.002" stroke="#B9D4DB" stroke-width="3" stroke-miterlimit="10" stroke-linecap="round"/>
<path d="M44.1803 44.2367H53.002" stroke="#B9D4DB" stroke-width="3" stroke-miterlimit="10" stroke-linecap="round"/>
<path d="M147.602 70.2868H156.424" stroke="#B9D4DB" stroke-width="3" stroke-miterlimit="10" stroke-linecap="round"/>
<path d="M147.602 72.825H156.424" stroke="#B9D4DB" stroke-width="3" stroke-miterlimit="10" stroke-linecap="round"/>
<path d="M147.602 75.3637H156.424" stroke="#B9D4DB" stroke-width="3" stroke-miterlimit="10" stroke-linecap="round"/>
<path d="M19.0778 100.41H27.8996" stroke="#B9D4DB" stroke-width="3" stroke-miterlimit="10" stroke-linecap="round"/>
<path d="M19.0778 102.948H27.8996" stroke="#B9D4DB" stroke-width="3" stroke-miterlimit="10" stroke-linecap="round"/>
<path d="M19.0778 105.486H27.8996" stroke="#B9D4DB" stroke-width="3" stroke-miterlimit="10" stroke-linecap="round"/>
<path d="M44.5984 130.21C47.0762 130.21 49.0848 128.205 49.0848 125.731C49.0848 123.257 47.0762 121.252 44.5984 121.252C42.1207 121.252 40.112 123.257 40.112 125.731C40.112 128.205 42.1207 130.21 44.5984 130.21Z" fill="#B9D4DB"/>
<path d="M35.4721 127.423C36.7627 127.423 37.809 126.378 37.809 125.09C37.809 123.801 36.7627 122.757 35.4721 122.757C34.1815 122.757 33.1352 123.801 33.1352 125.09C33.1352 126.378 34.1815 127.423 35.4721 127.423Z" fill="#B9D4DB"/>
<path d="M35.2858 118.222C36.0302 118.222 36.6338 117.62 36.6338 116.877C36.6338 116.133 36.0302 115.531 35.2858 115.531C34.5413 115.531 33.9378 116.133 33.9378 116.877C33.9378 117.62 34.5413 118.222 35.2858 118.222Z" fill="#B9D4DB"/>
<path d="M42.7132 118.911C44.4979 118.911 45.9446 117.467 45.9446 115.685C45.9446 113.903 44.4979 112.459 42.7132 112.459C40.9285 112.459 39.4818 113.903 39.4818 115.685C39.4818 117.467 40.9285 118.911 42.7132 118.911Z" fill="#B9D4DB"/>
<path d="M25.1563 78.7503C27.1543 80.2157 29.9599 79.7866 31.4228 77.792C32.8856 75.7973 32.4518 72.9924 30.4538 71.5271C28.4558 70.0617 25.6502 70.4908 24.1873 72.4855C22.7244 74.4801 23.1582 77.285 25.1563 78.7503Z" fill="#B9D4DB"/>
<path d="M31.9724 69.7642C33.0132 70.5274 34.4746 70.3039 35.2366 69.265C35.9985 68.226 35.7726 66.765 34.7318 66.0017C33.6911 65.2384 32.2297 65.4619 31.4677 66.5009C30.7057 67.5399 30.9317 69.0009 31.9724 69.7642Z" fill="#B9D4DB"/>
<path d="M43.9033 79.8158C44.8041 80.4764 46.0689 80.2829 46.7284 79.3837C47.3879 78.4845 47.1924 77.22 46.2916 76.5593C45.3908 75.8987 44.126 76.0922 43.4665 76.9914C42.807 77.8906 43.0026 79.1552 43.9033 79.8158Z" fill="#B9D4DB"/>
<path d="M39.5285 73.3381C40.1288 73.7784 40.9718 73.6495 41.4113 73.0502C41.8509 72.4509 41.7205 71.6081 41.1202 71.1678C40.5199 70.7276 39.6769 70.8565 39.2374 71.4558C38.7979 72.0551 38.9282 72.8979 39.5285 73.3381Z" fill="#B9D4DB"/>
<path d="M35.3356 81.7043C36.7747 82.7597 38.7955 82.4507 39.8492 81.014C40.9028 79.5773 40.5904 77.557 39.1512 76.5016C37.7121 75.4461 35.6913 75.7552 34.6377 77.1919C33.584 78.6286 33.8965 80.6488 35.3356 81.7043Z" fill="#B9D4DB"/>
<path d="M115.122 56.9033C117.6 56.9033 119.609 54.8981 119.609 52.4245C119.609 49.9509 117.6 47.9456 115.122 47.9456C112.644 47.9456 110.636 49.9509 110.636 52.4245C110.636 54.8981 112.644 56.9033 115.122 56.9033Z" fill="#B9D4DB"/>
<path d="M117.983 44.9999C119.274 44.9999 120.32 43.9554 120.32 42.667C120.32 41.3785 119.274 40.334 117.983 40.334C116.693 40.334 115.646 41.3785 115.646 42.667C115.646 43.9554 116.693 44.9999 117.983 44.9999Z" fill="#B9D4DB"/>
<path d="M125.309 49.9791C126.053 49.9791 126.657 49.3766 126.657 48.6334C126.657 47.8902 126.053 47.2877 125.309 47.2877C124.564 47.2877 123.961 47.8902 123.961 48.6334C123.961 49.3766 124.564 49.9791 125.309 49.9791Z" fill="#B9D4DB"/>
<path d="M129.38 57.8889C131.165 57.8889 132.611 56.4446 132.611 54.6629C132.611 52.8813 131.165 51.4369 129.38 51.4369C127.595 51.4369 126.149 52.8813 126.149 54.6629C126.149 56.4446 127.595 57.8889 129.38 57.8889Z" fill="#B9D4DB"/>
<path d="M127.99 135.264C130.468 135.264 132.477 133.259 132.477 130.785C132.477 128.312 130.468 126.306 127.99 126.306C125.513 126.306 123.504 128.312 123.504 130.785C123.504 133.259 125.513 135.264 127.99 135.264Z" fill="#B9D4DB"/>
<path d="M127.99 124.187C128.735 124.187 129.338 123.585 129.338 122.841C129.338 122.098 128.735 121.496 127.99 121.496C127.246 121.496 126.642 122.098 126.642 122.841C126.642 123.585 127.246 124.187 127.99 124.187Z" fill="#B9D4DB"/>
<path d="M135.145 128.783C136.929 128.783 138.376 127.338 138.376 125.557C138.376 123.775 136.929 122.331 135.145 122.331C133.36 122.331 131.913 123.775 131.913 125.557C131.913 127.338 133.36 128.783 135.145 128.783Z" fill="#B9D4DB"/>
<g clip-path="url(#clip0_208_11280)">
<path d="M89.7529 54.5298C83.3014 51.7528 78.1429 49.491 74.2774 47.7442C70.4119 45.9975 67.3921 44.4697 65.218 43.161C63.044 41.8522 61.4809 40.6187 60.5288 39.4605C59.5767 38.3023 58.781 36.9065 58.1416 35.2732C56.9189 32.1415 56.9943 29.0521 58.368 26.0051C59.7418 22.958 62.0274 20.8103 65.2249 19.5618C66.7888 18.9511 68.4102 18.6413 70.089 18.6323C71.7677 18.6233 73.3869 18.9232 74.9463 19.532L76.0204 31.823L82.2763 29.3803L87.1826 47.1775L85.6495 25.7095L79.3936 28.1522L78.8685 15.8822C79.5513 15.0664 80.3244 14.3526 81.1878 13.7409C82.0513 13.1292 82.9862 12.6268 83.9927 12.2338C87.1902 10.9853 90.3265 11.0161 93.4014 12.3262C96.4764 13.6362 98.6253 15.8571 99.848 18.9888C100.486 20.6227 100.845 22.2087 100.925 23.7467C101.005 25.2847 100.684 27.2836 99.9617 29.7435C99.2394 32.202 98.0538 35.3717 96.4049 39.2527C94.756 43.1338 92.5386 48.2261 89.7529 54.5298ZM82.3432 46.4779L79.2314 35.2768L72.0892 38.0655L70.7559 23.1101C70.0935 23.0549 69.4287 23.0696 68.7617 23.1543C68.0946 23.239 67.4473 23.4031 66.8198 23.6466C64.804 24.4337 63.356 25.8032 62.476 27.7552C61.596 29.7072 61.5414 31.6704 62.3123 33.6447C62.7243 34.7 63.3365 35.677 64.1489 36.576C64.9613 37.4749 66.1251 38.4037 67.6402 39.3625C69.1547 40.3199 71.1035 41.3635 73.4865 42.4934C75.8694 43.6233 78.8217 44.9515 82.3432 46.4779ZM91.1873 40.2002C93.5432 34.8474 95.067 30.7217 95.7586 27.8233C96.4501 24.9249 96.4231 22.5229 95.6774 20.6172C94.9065 18.6429 93.5361 17.2361 91.5662 16.3969C89.5963 15.5576 87.6035 15.5315 85.5877 16.3186C85.2053 16.4679 84.8331 16.643 84.471 16.844C84.1089 17.045 83.763 17.2876 83.4334 17.5717L83.6375 21.7876L89.685 19.4263L91.1873 40.2002Z" fill="#224971"/>
</g>
<defs>
<clipPath id="clip0_208_11280">
<rect width="53.5081" height="52.4068" fill="white" transform="translate(47.1926 19.5412) scale(1.0041) rotate(-21.3283)"/>
</clipPath>
</defs>
</svg>
