<svg width="24" height="24" viewBox="0 0 24 24" fill="none" xmlns="http://www.w3.org/2000/svg">
<g clip-path="url(#clip0_53_154)">
<path d="M12.9798 3.84111C13.1204 3.70066 13.311 3.62177 13.5098 3.62177C13.7085 3.62177 13.8991 3.70066 14.0398 3.84111L22.7298 12.5311C22.799 12.6027 22.8818 12.6598 22.9733 12.6991C23.0648 12.7383 23.1632 12.759 23.2628 12.7598C23.3624 12.7606 23.4612 12.7416 23.5533 12.7038C23.6455 12.6661 23.7292 12.6104 23.7996 12.5399C23.87 12.4694 23.9256 12.3857 23.9633 12.2935C24.0009 12.2013 24.0199 12.1025 24.019 12.003C24.018 11.9034 23.9973 11.805 23.958 11.7135C23.9186 11.622 23.8614 11.5393 23.7898 11.4701L15.1008 2.78011C14.8918 2.57118 14.6438 2.40544 14.3708 2.29237C14.0978 2.17929 13.8052 2.12109 13.5098 2.12109C13.2143 2.12109 12.9217 2.17929 12.6487 2.29237C12.3757 2.40544 12.1277 2.57118 11.9188 2.78011L3.22877 11.4701C3.15717 11.5393 3.10007 11.6221 3.06081 11.7136C3.02155 11.8052 3.0009 11.9036 3.00009 12.0032C2.99927 12.1028 3.01829 12.2015 3.05605 12.2937C3.0938 12.3858 3.14953 12.4695 3.21998 12.5399C3.29043 12.6103 3.3742 12.6659 3.46639 12.7036C3.55858 12.7413 3.65735 12.7602 3.75693 12.7593C3.85651 12.7584 3.95492 12.7377 4.0464 12.6983C4.13789 12.659 4.22062 12.6018 4.28977 12.5301L12.9798 3.84111Z" fill="#224971" fill-opacity="0.5"/>
<path d="M13.5098 5.43213L21.6688 13.5911C21.6988 13.6211 21.7288 13.6491 21.7598 13.6771V19.8751C21.7598 20.9101 20.9198 21.7501 19.8848 21.7501H16.5098C16.3109 21.7501 16.1201 21.6711 15.9794 21.5305C15.8388 21.3898 15.7598 21.199 15.7598 21.0001V16.5001C15.7598 16.3012 15.6807 16.1105 15.5401 15.9698C15.3994 15.8291 15.2087 15.7501 15.0098 15.7501H12.0098C11.8109 15.7501 11.6201 15.8291 11.4794 15.9698C11.3388 16.1105 11.2598 16.3012 11.2598 16.5001V21.0001C11.2598 21.199 11.1807 21.3898 11.0401 21.5305C10.8994 21.6711 10.7087 21.7501 10.5098 21.7501H7.13477C6.63748 21.7501 6.16057 21.5526 5.80894 21.201C5.45731 20.8493 5.25977 20.3724 5.25977 19.8751V13.6771C5.29088 13.6493 5.32122 13.6206 5.35077 13.5911L13.5098 5.43213Z" fill="#224971" fill-opacity="0.5"/>
</g>
<defs>
<clipPath id="clip0_53_154">
<rect width="24" height="24" fill="white"/>
</clipPath>
</defs>
</svg>
