<svg width="273" height="263" viewBox="0 0 273 263" fill="none" xmlns="http://www.w3.org/2000/svg">
<path d="M231.768 128.262C178.506 97.5455 92.4288 97.5455 39.5064 128.262C-13.4161 158.979 -13.1287 208.777 40.134 239.487C93.3967 270.198 179.479 270.204 232.396 239.487C285.313 208.771 285.037 158.979 231.768 128.262Z" fill="#F5F5F5"/>
<path d="M251.003 182.272C254.933 180.011 261.28 180.011 265.186 182.272C269.093 184.534 269.07 188.207 265.139 190.474C261.209 192.742 254.862 192.742 250.956 190.474C247.049 188.207 247.072 184.551 251.003 182.272Z" fill="#E0E0E0"/>
<path d="M139.263 185.582L131.995 175.717C131.261 174.72 130.322 173.894 129.239 173.293C128.157 172.693 126.958 172.332 125.724 172.237L115.013 171.416L98.0015 161.088L104.366 157.414C104.45 157.362 104.519 157.288 104.566 157.202C104.614 157.115 104.639 157.018 104.639 156.919C104.639 156.821 104.614 156.723 104.566 156.637C104.519 156.55 104.45 156.477 104.366 156.424L101.721 154.919C101.199 154.621 100.609 154.464 100.008 154.464C99.4068 154.464 98.8164 154.621 98.2948 154.919L35.9106 190.943C35.827 190.996 35.7581 191.069 35.7104 191.156C35.6627 191.242 35.6377 191.339 35.6377 191.438C35.6377 191.537 35.6627 191.634 35.7104 191.721C35.7581 191.807 35.827 191.88 35.9106 191.933L38.4916 193.421C39.0149 193.724 39.6087 193.883 40.2133 193.883C40.8178 193.883 41.4117 193.724 41.9349 193.421L69.0121 177.802L85.7945 187.416L87.9884 193.585C88.6638 195.479 89.9091 197.118 91.5537 198.277C93.1983 199.436 95.1616 200.058 97.1744 200.059H112.837L123.466 206.187L149.147 191.277L139.263 185.582Z" fill="#E0E0E0"/>
<path d="M234.818 176.478C217.842 166.694 190.407 166.694 173.543 176.478C158.638 185.125 156.983 198.518 168.51 208.279C159.207 207.693 149.575 209.45 142.471 213.592C130.006 220.828 130.07 232.557 142.618 239.792C155.165 247.027 175.467 247.021 187.903 239.792C197.816 234.033 199.793 225.433 193.874 218.514C208.164 220.582 223.89 218.385 235.024 211.929C251.888 202.145 251.8 186.274 234.818 176.478Z" fill="#E0E0E0"/>
<path d="M37.7583 203.498C33.2884 200.92 26.0616 200.92 21.6211 203.498C17.1806 206.076 17.204 210.259 21.6739 212.837C26.1437 215.414 33.3705 215.414 37.8111 212.837C42.2516 210.259 42.234 206.076 37.7583 203.498Z" fill="#E0E0E0"/>
<path d="M81.2776 1.79273L84.4159 0L84.6095 68.5103L84.6036 68.5162L59.3097 82.94L59.2979 79.3546L59.1102 14.4297L81.2776 1.79273Z" fill="#F0F0F0"/>
<path opacity="0.1" d="M81.4654 66.7117L81.2777 1.79273L84.416 0L84.6096 68.5103L84.6037 68.5162L81.4537 66.7176L81.4654 66.7117Z" fill="black"/>
<path opacity="0.2" d="M59.298 79.3546L81.4536 66.7176L84.6036 68.5162L59.3097 82.94L59.298 79.3546Z" fill="black"/>
<path d="M46.6629 21.5303L49.8011 19.7376L49.9947 88.2479L49.9888 88.2538L24.6949 102.678L24.6832 99.0922L24.4955 34.1673L46.6629 21.5303Z" fill="#F0F0F0"/>
<path opacity="0.1" d="M46.8503 86.4494L46.6626 21.5303L49.8009 19.7376L49.9944 88.2479L49.9886 88.2538L46.8386 86.4552L46.8503 86.4494Z" fill="black"/>
<path opacity="0.2" d="M24.6831 99.0921L46.8387 86.4551L49.9888 88.2537L24.6948 102.678L24.6831 99.0921Z" fill="black"/>
<path d="M154.414 40.2427C154.221 40.0376 154.033 39.8267 153.828 39.61L153.705 39.4694C153.394 39.112 153.118 38.7488 152.801 38.3738L152.707 38.2508C152.473 37.952 152.25 37.6649 152.027 37.331L151.927 37.1962C151.716 36.8916 151.511 36.6104 151.311 36.2706C151.258 36.1944 151.212 36.1183 151.165 36.0421C151 35.7843 150.842 35.5265 150.689 35.2629C150.653 35.2104 150.619 35.1556 150.59 35.0989C150.414 34.8001 150.244 34.513 150.079 34.1908L149.962 33.9564C149.833 33.7162 149.71 33.4702 149.587 33.2241L149.469 32.978C149.317 32.6675 149.176 32.357 149.035 32.0407L148.982 31.9059C148.859 31.6189 148.742 31.3201 148.63 31.0506L148.531 30.7928C148.402 30.453 148.279 30.1132 148.167 29.7734C148.167 29.7734 148.167 29.7207 148.138 29.6914C148.02 29.3399 147.915 28.9884 147.815 28.6368L147.762 28.4376C147.645 28.0275 147.545 27.6174 147.457 27.2132C147.457 27.1195 147.422 27.0316 147.399 26.9437L147.311 26.4633C147.311 26.3637 147.27 26.2641 147.258 26.1587C147.258 25.9946 147.205 25.8306 147.182 25.6665C147.158 25.5025 147.152 25.4732 147.141 25.3736C147.094 25.0221 147.064 24.6706 147.035 24.3249C147.035 24.2488 147.035 24.1726 147.035 24.1023C147.035 23.7449 147 23.3875 147 23.036C147 22.7958 147 22.5556 147 22.3271V22.0635C147 21.9229 147 21.7764 147.035 21.6417C147.07 21.5069 147.035 21.4659 147.064 21.378C147.094 21.2902 147.064 21.1086 147.111 20.9797C147.158 20.8508 147.146 20.798 147.158 20.7102C147.17 20.6223 147.199 20.47 147.223 20.3528C147.246 20.2356 147.264 20.1712 147.281 20.0774C147.299 19.9837 147.334 19.8607 147.358 19.7494C147.381 19.638 147.41 19.5736 147.434 19.4857C147.457 19.3978 147.492 19.2807 147.528 19.1811L147.616 18.9233C147.651 18.8296 147.68 18.73 147.721 18.6362C147.762 18.5425 147.792 18.478 147.821 18.396C147.85 18.314 147.897 18.2144 147.938 18.1265C147.979 18.0386 148.015 17.9742 148.056 17.898C148.097 17.8219 148.138 17.7281 148.185 17.6461L148.314 17.4352L148.455 17.195L148.595 16.9958C148.648 16.9255 148.695 16.8494 148.754 16.7791C148.812 16.7088 148.853 16.656 148.906 16.5916C148.959 16.5271 149.012 16.4568 149.07 16.3924C149.129 16.3279 149.182 16.2752 149.235 16.2166L149.411 16.035L149.587 15.8768L149.774 15.7128L149.962 15.5722L150.162 15.4257L150.355 15.2968C150.959 14.9202 151.624 14.6525 152.32 14.5059C151 15.9881 150.226 18.2437 150.214 21.1496C150.214 21.5011 150.214 21.8585 150.249 22.2158C150.249 22.292 150.249 22.3623 150.249 22.4384C150.249 22.7841 150.308 23.1356 150.355 23.4871C150.355 23.5867 150.384 23.6863 150.396 23.7801C150.408 23.8738 150.443 24.1081 150.472 24.2722C150.502 24.4362 150.508 24.4948 150.531 24.6061L150.619 25.0865C150.619 25.1744 150.66 25.2623 150.678 25.356C150.766 25.7603 150.865 26.1704 150.977 26.5805C151 26.6478 151.019 26.7162 151.036 26.7855C151.135 27.1312 151.241 27.4827 151.358 27.8342C151.358 27.8342 151.358 27.8928 151.387 27.9162C151.499 28.2619 151.622 28.6017 151.751 28.9356C151.786 29.0235 151.816 29.1114 151.851 29.1934C151.962 29.4805 152.08 29.7793 152.203 30.0488L152.256 30.1835C152.396 30.4999 152.537 30.8104 152.69 31.1209C152.725 31.2029 152.766 31.2849 152.807 31.3669C152.93 31.613 153.053 31.8591 153.182 32.1051L153.3 32.3336C153.464 32.6383 153.634 32.9195 153.81 33.2417C153.839 33.3003 153.875 33.353 153.91 33.4116C154.062 33.6694 154.221 33.933 154.385 34.1908L154.526 34.4134C154.731 34.7239 154.936 35.0344 155.148 35.3391L155.247 35.4738C155.47 35.7902 155.693 36.0948 155.928 36.3995L156.022 36.5225C156.315 36.8974 156.608 37.2607 156.925 37.618L157.042 37.7587L157.629 38.3972L157.664 38.4324C157.869 38.6492 158.081 38.8659 158.292 39.071C158.333 39.1178 158.38 39.1589 158.427 39.2057C158.702 39.4694 158.978 39.733 159.265 39.9849L159.342 40.0552C159.635 40.313 159.928 40.5532 160.233 40.7934L160.409 40.9282C160.703 41.1566 160.996 41.3734 161.313 41.5843L161.471 41.6898C161.794 41.9007 162.116 42.1057 162.439 42.2756C162.762 42.4455 162.961 42.5627 163.219 42.6974L163.436 42.8029L164.023 43.0724L164.228 43.1603L164.768 43.3653L164.903 43.4122C165.125 43.4884 165.348 43.5587 165.565 43.6172L165.953 43.711L166.129 43.7579C166.316 43.7989 166.498 43.8282 166.68 43.8574C166.952 43.9016 167.226 43.929 167.501 43.9395H167.665C167.906 43.9395 168.141 43.9395 168.375 43.9395H168.493C168.679 43.9273 168.865 43.9058 169.05 43.875H169.22L169.396 43.834C168.961 44.3284 168.448 44.748 167.877 45.076L167.818 45.1053H167.777C167.63 45.1873 167.478 45.2577 167.325 45.328L167.167 45.3924C167.007 45.4588 166.842 45.5174 166.674 45.5682H166.586C166.393 45.6209 166.193 45.6678 166 45.7029H165.841C165.659 45.7029 165.483 45.7498 165.296 45.7673H165.155C164.926 45.7673 164.691 45.7673 164.457 45.7673H164.304H163.917L163.471 45.7146L163.19 45.6619L162.92 45.6092L162.756 45.5682H162.709L162.363 45.4861C162.146 45.4217 161.929 45.3572 161.712 45.2811L161.577 45.2342L161.031 45.0292L160.837 44.9471C160.642 44.8651 160.446 44.7772 160.251 44.6835L160.122 44.6191C160.089 44.607 160.057 44.5913 160.028 44.5722C159.77 44.4433 159.512 44.3086 159.248 44.1562C158.984 44.0039 158.603 43.7637 158.286 43.5704H158.239L158.122 43.4942C157.817 43.2833 157.535 43.0665 157.218 42.8381L157.107 42.7502L157.042 42.7033C156.743 42.4631 156.456 42.217 156.151 41.9651C156.134 41.951 156.118 41.9353 156.104 41.9183H156.074C155.787 41.6722 155.488 41.4086 155.236 41.1449L155.101 41.0102C154.889 40.8051 154.678 40.5884 154.473 40.3716L154.414 40.2427Z" fill="#EBEBEB"/>
<path d="M169.226 33.558V34.3138L171.355 35.5382V34.7825L169.226 33.558Z" fill="white"/>
<path d="M152.009 17.6696L151.681 18.1265L153.523 20.4172L153.851 19.9544L152.009 17.6696Z" fill="white"/>
<path d="M173.156 36.2002C173.156 43.9746 167.624 47.1089 160.837 43.2305C154.051 39.3521 148.607 29.8319 148.625 22.0576C148.642 14.2832 154.156 11.1489 160.943 15.0273C167.73 18.9057 173.179 28.4259 173.156 36.2002ZM155.323 28.6954C155.375 28.8599 155.483 29.0009 155.628 29.0937C155.667 29.1179 155.712 29.132 155.758 29.1347L160.966 29.5448C161.003 29.5553 161.041 29.5536 161.076 29.5398C161.111 29.526 161.141 29.501 161.16 29.4687L164.568 23.698C164.599 23.5962 164.602 23.4879 164.576 23.3847C164.55 23.2815 164.497 23.1873 164.422 23.1121C164.38 23.0634 164.33 23.0218 164.275 22.9891C164.158 22.9246 164.04 22.9305 163.982 23.0301L160.632 28.7071L155.499 28.3028C155.335 28.3028 155.253 28.4669 155.323 28.7012M165.342 23.6042L166.41 22.1044L165.823 21.4014L164.797 22.9188L165.384 23.6218M165.823 42.5919L166.41 42.5451L165.296 39.7915L164.709 39.8384L165.765 42.5685M151.974 30.3299L153.822 30.1717L153.499 29.3281L151.646 29.4863L151.974 30.3299ZM169.771 40.5941L170.1 40.1313L168.258 37.8406L167.929 38.3034L169.771 40.5941ZM152.009 17.6461L151.681 18.103L153.523 20.3937L153.851 19.9309L152.009 17.6461ZM168.287 28.9297L170.135 28.7715L169.806 27.9337L167.959 28.0861L168.287 28.9297ZM155.969 15.6893L155.382 15.7362L156.438 18.4663L157.025 18.4194L155.963 15.6893M155.91 36.8622L156.984 35.3566L156.397 34.6594L155.323 36.1592L155.91 36.8622ZM152.555 24.6764V23.944L150.425 22.7196V23.4695L152.555 24.6998M171.355 34.7883L169.226 33.558V34.3137L171.355 35.5382V34.7883ZM160.532 40.9515L161.184 41.3265V38.8834L160.532 38.5026V40.9515ZM161.254 17.3063L160.603 16.9313V19.4036L161.254 19.7844V17.3356" fill="#E0E0E0"/>
<path d="M160.597 16.9313L160.591 19.3744L161.242 19.7552L161.254 17.3063L160.597 16.9313Z" fill="white"/>
<path d="M165.87 21.3956L164.797 22.8954L165.366 23.5984L166.434 22.0986L165.87 21.3956Z" fill="white"/>
<path d="M169.807 27.9337L167.959 28.086L168.287 28.9297L170.135 28.7715L169.807 27.9337Z" fill="white"/>
<path d="M168.258 37.8407L167.929 38.3035L169.771 40.5942L170.1 40.1314L168.258 37.8407Z" fill="white"/>
<path d="M165.319 39.7916L164.75 39.8384L165.806 42.5685L166.375 42.5217L165.319 39.7916Z" fill="white"/>
<path d="M160.538 38.5027L160.532 40.9516L161.184 41.3265L161.189 38.8835L160.538 38.5027Z" fill="white"/>
<path d="M156.42 34.6594L155.347 36.1592L155.91 36.8622L156.984 35.3565L156.42 34.6594Z" fill="white"/>
<path d="M153.493 29.3281L151.646 29.4863L151.974 30.3299L153.822 30.1718L153.493 29.3281Z" fill="white"/>
<path d="M150.426 22.7195V23.4694L152.555 24.6997V23.944L150.426 22.7195Z" fill="white"/>
<path d="M155.969 15.6893L155.406 15.7361L156.462 18.4662L157.03 18.4194L155.969 15.6893Z" fill="white"/>
<path d="M160.89 28.7774C160.851 28.7532 160.807 28.7391 160.761 28.7364H160.656L155.523 28.3322C155.359 28.3322 155.277 28.4962 155.347 28.7305C155.399 28.895 155.507 29.0361 155.652 29.1289C155.691 29.1531 155.735 29.1672 155.781 29.1699L160.99 29.58C161.154 29.58 161.231 29.4219 161.16 29.1875C161.123 29.0229 161.027 28.8773 160.89 28.7774Z" fill="white"/>
<path d="M164.299 22.9833C164.181 22.9188 164.064 22.9247 164.005 23.0243L160.656 28.7012H160.761C160.807 28.704 160.851 28.7181 160.89 28.7422C161.035 28.8341 161.142 28.9758 161.19 29.1406C161.26 29.375 161.19 29.5507 161.019 29.5332C161.056 29.5436 161.094 29.5419 161.129 29.5281C161.164 29.5143 161.194 29.4893 161.213 29.457L164.621 23.6863C164.652 23.5845 164.655 23.4762 164.629 23.373C164.603 23.2698 164.55 23.1756 164.474 23.1004C164.423 23.051 164.364 23.0113 164.299 22.9833Z" fill="#F5F5F5"/>
<path d="M169.29 45.7673L169.484 45.615C169.556 45.5592 169.625 45.4986 169.689 45.4334C169.754 45.3806 169.818 45.3279 169.877 45.2693L170.07 45.0701L170.246 44.8826C170.312 44.8143 170.372 44.7419 170.428 44.6659C170.481 44.6014 170.54 44.537 170.592 44.4667C170.645 44.3964 170.704 44.3085 170.757 44.2323C170.81 44.1562 170.862 44.0917 170.909 44.0156C170.956 43.9394 171.015 43.8457 171.062 43.7578C171.109 43.6699 171.161 43.6055 171.203 43.5293C171.244 43.4532 171.296 43.3477 171.343 43.254L171.472 43.0079L171.596 42.715C171.631 42.6271 171.672 42.5451 171.707 42.4572C171.742 42.3693 171.783 42.2463 171.818 42.1408C171.854 42.0354 171.889 41.9592 171.918 41.8713C171.948 41.7835 171.983 41.6487 172.012 41.5374C172.041 41.4261 172.071 41.3499 172.094 41.2503C172.118 41.1507 172.153 41.0218 172.176 40.9047L172.247 40.6C172.247 40.477 172.288 40.3481 172.311 40.2251L172.364 39.9204L172.417 39.4869L172.452 39.2115L172.487 38.7136V38.4734C172.487 38.2234 172.487 37.9656 172.487 37.7C172.487 37.3192 172.487 36.9384 172.452 36.5283C172.449 36.503 172.449 36.4775 172.452 36.4521C172.423 36.0245 172.387 35.5909 172.329 35.1515V35.0051L172.223 34.2962C172.223 34.179 172.182 34.0618 172.159 33.9388C172.124 33.7689 172.094 33.5931 172.059 33.4174V33.3354C171.853 32.3564 171.59 31.3901 171.273 30.4412C170.849 29.1644 170.34 27.9176 169.748 26.7093L169.713 26.6331C169.372 25.9477 169.015 25.2681 168.627 24.6061L168.522 24.4245C168.346 24.1257 168.164 23.8386 167.982 23.5457L167.853 23.3406C167.349 22.5614 166.821 21.8115 166.258 21.0909C165.706 20.384 165.12 19.7063 164.498 19.058C164.269 18.8119 164.034 18.5776 163.8 18.3374L163.682 18.2319C163.377 17.9273 163.066 17.6461 162.744 17.3531H162.709C162.38 17.0602 162.04 16.7673 161.7 16.5095L161.518 16.363C161.195 16.117 160.873 15.8826 160.538 15.66L160.503 15.6307C160.292 15.4901 160.081 15.3495 159.87 15.2206C159.658 15.0917 159.506 14.9921 159.318 14.8867C159.037 14.7226 158.732 14.5762 158.479 14.4356C157.678 14.0268 156.84 13.6972 155.975 13.4513L155.746 13.3927L155.382 13.3049L155.13 13.258L154.79 13.1994H154.76H154.514L154.08 13.1525H154.045H153.91C153.595 13.135 153.28 13.135 152.965 13.1525H152.83C152.631 13.1525 152.432 13.1877 152.244 13.217C151.966 13.2569 151.692 13.3156 151.423 13.3927H151.376H151.323C151.141 13.4513 150.965 13.5158 150.789 13.5861L150.707 13.6212C150.466 13.7267 150.226 13.838 149.997 13.9669L153.247 12.0804L153.317 12.0394L153.405 11.9925C153.564 11.9105 153.728 11.8285 153.892 11.7582C153.922 11.7402 153.954 11.7246 153.986 11.7113H154.062C154.258 11.6332 154.453 11.5629 154.649 11.5004C154.867 11.4379 155.088 11.3871 155.312 11.3481H155.388H155.494C155.688 11.3136 155.883 11.2901 156.08 11.2778H156.18H156.209C156.465 11.2631 156.722 11.2631 156.978 11.2778H157.054H157.306H157.482C157.658 11.2778 157.84 11.3129 158.022 11.3422L158.608 11.4535L158.796 11.5004L159.177 11.5942H159.213C159.447 11.6586 159.688 11.7289 159.928 11.8109L160.075 11.8695C160.268 11.9339 160.462 12.0101 160.661 12.0921L160.744 12.1214L160.89 12.1859C161.096 12.2737 161.307 12.3733 161.518 12.4729L161.758 12.5901C162.034 12.7307 162.345 12.8772 162.597 13.0412C162.849 13.2053 163.295 13.463 163.641 13.6974L163.817 13.8146C164.146 14.0372 164.474 14.2715 164.797 14.5176L164.979 14.6641C165.307 14.9218 165.63 15.1855 165.947 15.4667C165.977 15.4889 166.004 15.5145 166.029 15.5428C166.34 15.8123 166.615 16.0935 166.938 16.3865L167.026 16.4685L167.085 16.5271C167.313 16.7497 167.536 16.9782 167.759 17.2184L167.794 17.2535C168.006 17.482 168.211 17.7105 168.416 17.9449L168.475 18.0093L168.545 18.0972C168.88 18.4839 169.208 18.8764 169.525 19.2689V19.3041C169.55 19.3339 169.574 19.3652 169.595 19.3978C169.849 19.7259 170.096 20.0598 170.334 20.3996L170.411 20.4992C170.423 20.5155 170.432 20.5332 170.44 20.5519C170.675 20.8742 170.898 21.2081 171.115 21.5479C171.133 21.5814 171.154 21.6128 171.179 21.6416L171.267 21.794C171.443 22.0693 171.613 22.3798 171.783 22.6317L171.86 22.7606C171.861 22.7781 171.861 22.7958 171.86 22.8133C172.053 23.1414 172.235 23.4695 172.411 23.7976L172.452 23.8796L172.54 24.0437L172.945 24.8404C172.945 24.8931 172.998 24.9517 173.027 25.0045C173.056 25.0572 173.056 25.0748 173.074 25.1041C173.232 25.4439 173.391 25.7837 173.537 26.1235C173.548 26.1595 173.562 26.1948 173.578 26.2289C173.713 26.5394 173.836 26.8499 173.96 27.1604C173.96 27.2131 174.001 27.26 174.024 27.3127C174.048 27.3655 174.053 27.3948 174.065 27.4416C174.206 27.8049 174.341 28.174 174.464 28.543V28.6075C174.593 28.9981 174.71 29.3886 174.816 29.7792L174.857 29.9257C174.86 29.951 174.86 29.9765 174.857 30.0018C174.974 30.4471 175.086 30.8865 175.18 31.3259C175.182 31.3649 175.182 31.404 175.18 31.4431L175.215 31.6188C175.25 31.7887 175.279 31.9645 175.315 32.1344C175.35 32.3043 175.356 32.3746 175.379 32.4976C175.403 32.6206 175.432 32.855 175.455 33.0307C175.455 33.1127 175.485 33.1948 175.496 33.2826C175.494 33.304 175.494 33.3257 175.496 33.3471C175.543 33.7279 175.579 34.1087 175.608 34.4837C175.608 34.5657 175.608 34.6418 175.608 34.7239C175.608 35.1105 175.649 35.4913 175.649 35.8956C175.649 40.0728 174.159 43.0079 171.783 44.3905L168.534 46.277L168.739 46.1422C168.809 46.1012 168.88 46.0602 168.944 46.0134L169.29 45.7673Z" fill="#EBEBEB"/>
<path d="M146.008 22.4267C146.008 30.8279 151.874 41.0628 159.224 45.2752C163.014 47.4604 166.439 47.6186 168.862 46.0661C168.932 46.0251 169.003 45.9841 169.067 45.9372L169.29 45.7731L169.484 45.6208C169.556 45.5651 169.625 45.5044 169.689 45.4392C169.754 45.3865 169.818 45.3338 169.877 45.2752L170.07 45.076L170.246 44.8885C170.312 44.8202 170.372 44.7478 170.428 44.6717C170.481 44.6073 170.54 44.5428 170.592 44.4725C170.645 44.4022 170.704 44.3144 170.757 44.2382C170.809 44.162 170.862 44.0976 170.909 44.0214C170.956 43.9453 171.015 43.8515 171.062 43.7636C171.109 43.6758 171.161 43.6113 171.203 43.5352C171.244 43.459 171.296 43.3535 171.343 43.2598L171.472 43.0138L171.596 42.7208C171.631 42.6329 171.672 42.5509 171.707 42.463C171.742 42.3752 171.783 42.2521 171.818 42.1467C171.854 42.0412 171.889 41.9651 171.918 41.8772C171.947 41.7893 171.983 41.6546 172.012 41.5432C172.041 41.4319 172.071 41.3558 172.094 41.2562C172.118 41.1566 172.153 41.0277 172.176 40.9105L172.247 40.6059C172.247 40.4828 172.288 40.354 172.311 40.2309L172.364 39.9263L172.417 39.4927L172.452 39.2174L172.487 38.7194V38.4792C172.487 38.2292 172.487 37.9715 172.487 37.7059C172.487 37.3251 172.487 36.9443 172.452 36.5341V36.458C172.423 36.0303 172.387 35.5968 172.329 35.1574V35.0109L172.223 34.302C172.223 34.1849 172.182 34.0677 172.159 33.9447C172.135 33.8216 172.094 33.599 172.059 33.4232V33.3412C171.853 32.3623 171.59 31.396 171.273 30.4471C170.849 29.1702 170.34 27.9234 169.748 26.7152L169.713 26.639C169.372 25.9535 169.015 25.2739 168.627 24.6119L168.522 24.4303C168.346 24.1315 168.164 23.8444 167.982 23.5515L167.853 23.3465C167.349 22.5673 166.821 21.8174 166.258 21.0968C165.706 20.3898 165.12 19.7122 164.498 19.0638C164.269 18.8178 164.034 18.5834 163.8 18.3432L163.682 18.2378C163.377 17.9331 163.066 17.6519 162.744 17.359H162.709C162.38 17.0661 162.04 16.7731 161.7 16.5154C161.635 16.4698 161.572 16.4209 161.512 16.3689C161.189 16.1228 160.867 15.8885 160.532 15.6659L160.497 15.6366C160.286 15.496 160.075 15.3554 159.864 15.2265C159.652 15.0976 159.5 14.998 159.312 14.8925C159.031 14.7285 158.726 14.582 158.473 14.4414C157.673 14.0327 156.834 13.703 155.969 13.4572L155.728 13.3986L155.364 13.3107C155.276 13.3107 155.188 13.2756 155.101 13.258L154.76 13.1994L154.485 13.1642L154.05 13.1174H153.88C153.566 13.0998 153.251 13.0998 152.936 13.1174H152.783C152.584 13.1174 152.385 13.1525 152.197 13.1818C151.919 13.2217 151.645 13.2804 151.376 13.3576H151.276C151.094 13.4162 150.918 13.4806 150.742 13.5509L150.648 13.5861C150.408 13.6915 150.167 13.8028 149.938 13.9317C147.504 15.3026 146.02 18.2319 146.008 22.4267ZM154.449 40.2836L154.414 40.2426C154.221 40.0376 154.033 39.8267 153.828 39.6099L153.704 39.4693C153.394 39.1119 153.118 38.7487 152.801 38.3737L152.707 38.2507C152.473 37.9461 152.25 37.6649 152.027 37.3251L151.927 37.1903C151.716 36.8857 151.511 36.6045 151.311 36.2647C151.258 36.1885 151.211 36.1123 151.164 36.0362C151 35.7843 150.842 35.5206 150.689 35.257C150.653 35.2044 150.619 35.1496 150.59 35.0929C150.414 34.7941 150.244 34.5071 150.079 34.1849L149.962 33.9505C149.833 33.7103 149.71 33.4643 149.587 33.2182L149.469 32.9721C149.317 32.6616 149.176 32.3511 149.035 32.0348L148.982 31.9C148.859 31.6129 148.742 31.3141 148.63 31.0447L148.531 30.7869C148.402 30.4471 148.278 30.1073 148.167 29.7675C148.167 29.7675 148.167 29.7148 148.138 29.6855C148.02 29.3339 147.915 28.9824 147.815 28.6309L147.762 28.4317C147.645 28.0216 147.545 27.6115 147.457 27.2073C147.457 27.1135 147.422 27.0257 147.399 26.9378L147.311 26.4574C147.311 26.3578 147.269 26.2582 147.258 26.1527C147.246 26.0473 147.199 25.8071 147.176 25.6313C147.152 25.4556 147.146 25.438 147.135 25.3384C147.088 24.9869 147.058 24.6354 147.029 24.2897C147.029 24.2135 147.029 24.1374 147.029 24.0671C147.029 23.7097 146.994 23.3523 146.994 23.0008C146.994 22.7606 146.994 22.5204 146.994 22.2919V22.0283C146.994 21.8877 146.994 21.7412 147.029 21.6065C147.064 21.4717 147.029 21.4307 147.058 21.3428C147.088 21.2549 147.058 21.0733 147.105 20.9444C147.152 20.8156 147.14 20.7628 147.152 20.6749C147.164 20.5871 147.193 20.4347 147.217 20.3176C147.24 20.2004 147.258 20.136 147.275 20.0422C147.293 19.9485 147.328 19.8255 147.352 19.7141C147.375 19.6028 147.404 19.5384 147.428 19.4505C147.451 19.3626 147.487 19.2455 147.522 19.1459L147.61 18.8881C147.645 18.7943 147.674 18.6947 147.715 18.601C147.756 18.5073 147.786 18.4428 147.815 18.3608C147.844 18.2788 147.891 18.1792 147.932 18.0913C147.973 18.0034 148.009 17.939 148.05 17.8628C148.091 17.7867 148.132 17.6929 148.179 17.6109L148.308 17.4L148.449 17.1598L148.589 16.9606C148.642 16.8903 148.689 16.8141 148.748 16.7438C148.806 16.6735 148.847 16.6208 148.9 16.5564C148.953 16.4919 149.006 16.4216 149.064 16.3572C149.123 16.2927 149.176 16.24 149.229 16.1814L149.405 15.9998L149.581 15.8416L149.768 15.6776L149.956 15.537L150.156 15.3905L150.349 15.2616C150.953 14.885 151.618 14.6173 152.314 14.4707C154.291 14.0489 156.684 14.5117 159.265 15.9998C166.035 19.9016 171.513 29.3691 171.49 37.1434C171.49 40.0727 170.71 42.299 169.39 43.7812C168.955 44.2756 168.442 44.6952 167.871 45.0232L167.812 45.0525C167.648 45.1404 167.478 45.2224 167.308 45.2986L167.149 45.363C166.989 45.4294 166.825 45.488 166.656 45.5388H166.568C166.369 45.5915 166.164 45.6384 165.982 45.6794H165.823C165.642 45.6794 165.466 45.7263 165.278 45.7439H165.137C164.908 45.7439 164.668 45.7439 164.427 45.7439H164.275H163.888L163.442 45.6911L163.16 45.6384L162.89 45.5857C162.82 45.5857 162.75 45.5505 162.679 45.5329L162.333 45.4509C161.879 45.3219 161.433 45.1674 160.996 44.9881L160.802 44.9061C160.562 44.8006 160.327 44.6952 160.087 44.5721C160.054 44.5601 160.022 44.5443 159.993 44.5253C159.735 44.3964 159.476 44.2616 159.213 44.1093C158.949 43.957 158.567 43.7168 158.251 43.5234H158.204C157.822 43.2657 157.441 42.9903 157.071 42.7032L157.007 42.6564C156.69 42.4045 156.373 42.1467 156.068 41.8713H156.039C155.752 41.6253 155.452 41.3616 155.2 41.098L155.065 40.9632C154.866 40.7172 154.655 40.4946 154.449 40.2836Z" fill="white"/>
<path d="M239.259 67.0574L239.224 80.7431L237.564 81.7098L237.605 66.1083L239.259 67.0574Z" fill="#F0F0F0"/>
<path d="M257.15 91.0834L257.145 92.9991L237.564 81.7097L239.224 80.743L257.15 91.0834Z" fill="#F5F5F5"/>
<path d="M235.546 82.8521L259.151 96.4616L259.209 76.2553L235.611 62.6458L235.546 82.8521ZM237.564 81.6804L237.605 66.0731L239.259 67.028L257.191 77.4036L257.15 91.0893V93.005L237.564 81.6804Z" fill="#E0E0E0"/>
<path d="M235.605 62.6458L237.265 61.685L260.864 75.2945L259.204 76.2553L235.605 62.6458Z" fill="#F5F5F5"/>
<path d="M260.864 75.2946L260.805 95.495L259.145 96.4616L259.203 76.2554L260.864 75.2946Z" fill="#F0F0F0"/>
<path d="M239.963 39.3287L239.928 53.0143L238.262 53.9751L238.309 38.3737L239.963 39.3287Z" fill="#F0F0F0"/>
<path d="M257.854 63.3488L257.848 65.2704L238.262 53.9751L239.928 53.0143L257.854 63.3488Z" fill="#F5F5F5"/>
<path d="M236.273 55.141L259.872 68.7505L259.931 48.5442L236.309 34.9172L236.273 55.141ZM238.285 53.9693L238.332 38.3679L239.963 39.3228L257.895 49.6632L257.854 63.343V65.2647L238.285 53.9693Z" fill="#E0E0E0"/>
<path d="M236.309 34.9171L237.969 33.9504L261.567 47.5599L259.907 48.5266L236.309 34.9171Z" fill="#F5F5F5"/>
<path d="M261.567 47.56L261.509 67.7663L259.849 68.7271L259.907 48.5267L261.567 47.56Z" fill="#F0F0F0"/>
<path d="M244.961 72.2539L240.069 76.103L240.057 79.8584L256.317 89.2321L256.329 85.4767L253.232 79.3311L250.451 81.487L251.431 84.5394L250.006 81.8327L244.961 72.2539Z" fill="#E0E0E0"/>
<path d="M250.299 74.1462C249.536 73.7068 248.909 74.0642 248.909 74.943C248.934 75.4215 249.073 75.8871 249.314 76.3016C249.554 76.7161 249.89 77.0677 250.293 77.3274C251.056 77.7727 251.677 77.4153 251.683 76.5365C251.657 76.0574 251.518 75.5911 251.278 75.1757C251.037 74.7603 250.702 74.4076 250.299 74.1462Z" fill="#E0E0E0"/>
<path d="M245.659 44.5252L240.773 48.3684L240.761 52.1238L257.021 61.5034L257.033 57.748L253.936 51.5965L251.15 53.7583L252.135 56.8107L250.71 54.0981L245.659 44.5252Z" fill="#E0E0E0"/>
<path d="M251.003 46.4175C250.234 45.9781 249.613 46.3296 249.613 47.2084C249.637 47.6873 249.775 48.1535 250.014 48.569C250.254 48.9845 250.589 49.3374 250.991 49.5987C251.76 50.0381 252.381 49.6866 252.381 48.8078C252.357 48.3289 252.219 47.8627 251.98 47.4472C251.74 47.0317 251.405 46.6788 251.003 46.4175Z" fill="#E0E0E0"/>
<path d="M190.226 23.5691L225.345 43.8516C225.939 44.1948 226.433 44.6875 226.776 45.2807C227.12 45.8738 227.302 46.5466 227.304 47.232V82.5007C227.285 83.1751 227.088 83.8324 226.733 84.4069C226.379 84.9813 225.88 85.4527 225.286 85.7737C224.692 86.0947 224.023 86.2542 223.348 86.236C222.673 86.2178 222.014 86.0227 221.438 85.6702L206.774 76.976L206.457 77.4857C206.457 77.4857 206.427 77.515 206.41 77.5326H206.375C205.788 77.9134 204.797 78.4524 204.574 78.5696C204.522 78.5865 204.465 78.5826 204.416 78.5585C204.366 78.5345 204.328 78.4922 204.31 78.4407L203.031 74.8201L186.296 65.4346C185.699 65.094 185.203 64.602 184.858 64.0084C184.513 63.4147 184.331 62.7406 184.33 62.0542V26.7386C184.33 23.9265 188.472 22.5615 190.226 23.5691Z" fill="#224971"/>
<path opacity="0.2" d="M206.404 77.4856C206.404 77.4856 206.375 77.5149 206.357 77.5324H206.322C205.735 77.9132 204.744 78.4522 204.521 78.5694C204.548 78.5653 204.573 78.5552 204.595 78.54C204.618 78.5248 204.636 78.5048 204.65 78.4815L205.888 76.4779L205.641 76.3373L206.732 76.9583L206.404 77.4856Z" fill="white"/>
<path opacity="0.4" d="M222.917 47.5249C222.664 47.0211 222.308 46.576 221.872 46.2184C221.723 46.0984 221.564 45.9907 221.397 45.8962L186.278 25.6079C186.08 25.495 185.855 25.4361 185.627 25.437C185.399 25.438 185.175 25.4987 184.978 25.6132C184.781 25.7277 184.617 25.8919 184.504 26.0894C184.39 26.287 184.33 26.5108 184.33 26.7386C184.33 23.9265 188.472 22.5615 190.226 23.5691L225.345 43.8516C225.953 44.2033 226.455 44.7111 226.8 45.3221L222.917 47.5249Z" fill="white"/>
<path opacity="0.2" d="M223.368 84.5452V49.2824C223.368 48.6693 223.217 48.0656 222.928 47.5248L226.811 45.322C227.141 45.9049 227.314 46.5626 227.316 47.2319V82.5006C227.296 83.1749 227.099 83.8323 226.745 84.4067C226.391 84.9812 225.892 85.4526 225.297 85.7736C224.703 86.0946 224.035 86.254 223.36 86.2359C222.685 86.2177 222.026 86.0226 221.45 85.6701C221.647 85.7756 221.867 85.8288 222.091 85.8246C222.314 85.8203 222.533 85.7588 222.725 85.6458C222.918 85.5328 223.078 85.3722 223.191 85.1795C223.303 84.9867 223.364 84.7683 223.368 84.5452Z" fill="white"/>
<path d="M192.93 40.0961L213.314 51.8484L212.088 65.8036C212.018 66.6531 211.361 66.9753 210.58 66.5066L194.965 57.4844C194.653 57.2939 194.38 57.0453 194.162 56.752L194.191 57.1504C194.285 58.0373 194.576 58.892 195.042 59.6522C195.509 60.4124 196.14 61.0589 196.889 61.5444L197.576 61.9369C197.833 61.9975 198.08 62.0963 198.309 62.2298C198.578 62.3925 198.824 62.5894 199.042 62.8157L206.357 67.0339C206.616 67.0909 206.863 67.1898 207.09 67.3268C207.356 67.4802 207.602 67.6651 207.823 67.8775L209.378 68.7739C209.551 68.8895 209.694 69.0442 209.796 69.2253C209.898 69.4065 209.955 69.6091 209.964 69.8167C209.964 70.1975 209.689 70.3498 209.378 70.1623L209.255 70.092C209.43 70.5545 209.522 71.0446 209.525 71.5391C209.525 73.0858 208.428 73.7127 207.073 72.9335C206.364 72.4717 205.774 71.8497 205.351 71.1178C204.928 70.386 204.684 69.5649 204.638 68.7211C204.626 68.3255 204.724 67.9343 204.92 67.5904L200.45 65.0127C200.622 65.4762 200.713 65.9655 200.72 66.4597C200.72 68.0123 199.617 68.6333 198.268 67.8541C197.557 67.3944 196.966 66.7729 196.543 66.0406C196.12 65.3083 195.877 64.4862 195.833 63.6417C195.82 63.2292 195.928 62.8219 196.144 62.47C194.359 61.0065 193.218 58.9039 192.965 56.6114L191.581 37.864C191.538 37.4698 191.409 37.0901 191.2 36.7526C190.992 36.415 190.711 36.1282 190.378 35.913L187.856 34.4543C187.684 34.3392 187.541 34.1854 187.439 34.0054C187.337 33.8253 187.279 33.6239 187.269 33.4173C187.269 33.0306 187.545 32.8783 187.856 33.0716L190.378 34.5246C191.044 34.957 191.604 35.5321 192.019 36.2081C192.434 36.884 192.693 37.6438 192.777 38.4322L192.93 40.0961ZM203.6 59.9625L203.629 48.7844C203.614 48.5016 203.532 48.2265 203.39 47.9812C203.249 47.7359 203.051 47.5274 202.814 47.3724C202.362 47.1147 201.999 47.3197 201.993 47.8411L201.963 59.0193C201.982 59.2989 202.065 59.5704 202.207 59.8123C202.348 60.0543 202.544 60.2601 202.779 60.4137C203.23 60.6714 203.6 60.4605 203.6 59.945M207.119 61.9838L207.149 50.8056C207.133 50.5228 207.052 50.2477 206.91 50.0024C206.768 49.7571 206.571 49.5486 206.333 49.3937C205.882 49.1359 205.512 49.3409 205.512 49.8623V61.0405C205.527 61.3235 205.608 61.599 205.75 61.8444C205.892 62.0898 206.09 62.2982 206.328 62.4524C206.779 62.7102 207.143 62.4993 207.149 61.9838M210.668 64.0226L210.704 52.8444C210.684 52.5636 210.599 52.2913 210.456 52.0492C210.312 51.8071 210.114 51.6019 209.876 51.45C209.425 51.1922 209.055 51.3973 209.055 51.9187L209.026 63.0969C209.043 63.384 209.13 63.6628 209.278 63.9095C209.426 64.1563 209.631 64.3638 209.876 64.5147C210.322 64.7724 210.692 64.5615 210.692 64.046M200.086 57.9296L200.116 46.7514C200.104 46.4678 200.024 46.1913 199.882 45.9454C199.74 45.6995 199.54 45.4916 199.3 45.3395C198.849 45.0817 198.485 45.2868 198.479 45.8082V56.9864C198.495 57.269 198.577 57.544 198.719 57.7892C198.86 58.0344 199.057 58.243 199.294 58.3983C199.746 58.6561 200.116 58.4452 200.116 57.9296M196.596 55.8908L196.631 44.7126C196.615 44.4301 196.533 44.1553 196.391 43.9102C196.249 43.6651 196.052 43.4564 195.816 43.3007C195.364 43.0429 194.995 43.248 194.995 43.7694L194.959 54.9476C194.975 55.2295 195.057 55.5038 195.198 55.7482C195.34 55.9925 195.538 56.2 195.775 56.3537C196.226 56.6173 196.596 56.4064 196.596 55.8908ZM198.356 64.005C197.851 63.712 197.441 63.9464 197.435 64.5264C197.453 64.8432 197.545 65.1513 197.704 65.4261C197.863 65.7008 198.084 65.9345 198.35 66.1082C198.86 66.4011 199.265 66.1668 199.271 65.5868C199.254 65.2697 199.163 64.961 199.004 64.686C198.845 64.4111 198.623 64.1777 198.356 64.005ZM207.155 69.0844C206.65 68.7914 206.24 69.0258 206.24 69.6058C206.255 69.9225 206.345 70.231 206.504 70.506C206.662 70.781 206.883 71.0146 207.149 71.1876C207.653 71.4805 208.07 71.2462 208.07 70.6603C208.052 70.3443 207.96 70.037 207.801 69.7632C207.642 69.4894 207.42 69.2568 207.155 69.0844Z" fill="white"/>
<path d="M219.151 52.1472C219.414 52.3073 219.63 52.5335 219.778 52.8034C220.124 53.3892 220.124 54.0454 219.778 54.2387L214.599 57.168C214.498 57.2142 214.386 57.2325 214.276 57.2212C214.166 57.2099 214.06 57.1693 213.971 57.1036C213.71 56.9408 213.494 56.7152 213.343 56.4474L210.809 52.0535C210.457 51.4676 210.463 50.8114 210.809 50.6122C210.91 50.5673 211.022 50.5496 211.132 50.5609C211.242 50.5722 211.347 50.6121 211.437 50.6767C211.698 50.8394 211.914 51.0651 212.065 51.3329L213.983 54.6722L218.535 52.0828C218.634 52.0388 218.743 52.0216 218.851 52.0329C218.959 52.0442 219.063 52.0836 219.151 52.1472Z" fill="white"/>
<path d="M215.302 46.7281C218.757 48.72 221.544 53.5475 221.532 57.5079C221.52 61.4683 218.716 63.0618 215.261 61.0699C211.806 59.078 209.026 54.2622 209.038 50.296C209.049 46.3297 211.853 44.742 215.302 46.7281ZM214.569 57.1915L219.749 54.2622C220.101 54.0689 220.101 53.4245 219.749 52.8269C219.601 52.5571 219.384 52.3308 219.121 52.1707C219.032 52.105 218.927 52.0644 218.816 52.0531C218.706 52.0417 218.594 52.0601 218.494 52.1063L213.983 54.6723L212.07 51.3564C211.919 51.0886 211.704 50.863 211.443 50.7002C211.353 50.6356 211.248 50.5957 211.137 50.5844C211.027 50.5731 210.916 50.5908 210.815 50.6358C210.469 50.835 210.463 51.4735 210.815 52.077L213.349 56.4709C213.5 56.7387 213.716 56.9643 213.977 57.1271C214.066 57.1928 214.171 57.2334 214.282 57.2447C214.392 57.2561 214.504 57.2377 214.604 57.1915" fill="#224971"/>
<path opacity="0.3" d="M215.302 46.7281C218.757 48.72 221.544 53.5475 221.532 57.5079C221.52 61.4683 218.716 63.0618 215.261 61.0699C211.806 59.078 209.026 54.2622 209.038 50.296C209.049 46.3297 211.853 44.742 215.302 46.7281ZM214.569 57.1915L219.749 54.2622C220.101 54.0689 220.101 53.4245 219.749 52.8269C219.601 52.5571 219.384 52.3308 219.121 52.1707C219.032 52.105 218.927 52.0644 218.816 52.0531C218.706 52.0417 218.594 52.0601 218.494 52.1063L213.983 54.6723L212.07 51.3564C211.919 51.0886 211.704 50.863 211.443 50.7002C211.353 50.6356 211.248 50.5957 211.137 50.5844C211.027 50.5731 210.916 50.5908 210.815 50.6358C210.469 50.835 210.463 51.4735 210.815 52.077L213.349 56.4709C213.5 56.7387 213.716 56.9643 213.977 57.1271C214.066 57.1928 214.171 57.2334 214.282 57.2447C214.392 57.2561 214.504 57.2377 214.604 57.1915" fill="white"/>
<path d="M102.712 29.7385C102.301 28.2914 99.3566 25.5379 96.4236 25.5964C96.1426 25.6053 95.8651 25.6607 95.6024 25.7605L38.7087 58.0706C37.7572 58.6107 36.9937 59.4284 36.5207 60.414C36.1453 61.1536 35.9446 61.9693 35.9341 62.7985V185.741C35.9341 188.869 39.5475 191.857 42.9439 190.428C43.021 190.406 43.0957 190.377 43.1668 190.34L100.066 157.954C100.9 157.478 101.593 156.791 102.075 155.961C102.557 155.132 102.811 154.19 102.812 153.232V30.3302C102.824 30.1279 102.79 29.9254 102.712 29.7385Z" fill="#455A64"/>
<path d="M43.8707 75.8043C43.8726 75.3276 44.0005 74.8598 44.2416 74.4483C44.4826 74.0368 44.8282 73.6962 45.2434 73.4609L98.1013 43.4239C98.3076 43.3063 98.5412 43.2447 98.7788 43.2452C99.0164 43.2457 99.2497 43.3083 99.4555 43.4268C99.6613 43.5453 99.8325 43.7155 99.952 43.9206C100.072 44.1256 100.135 44.3584 100.137 44.5956V143.723C100.132 144.199 100.003 144.666 99.762 145.077C99.5213 145.488 99.1773 145.829 98.7642 146.066L45.9297 176.156C45.7233 176.274 45.4898 176.335 45.2522 176.335C45.0146 176.334 44.7813 176.272 44.5755 176.153C44.3696 176.035 44.1985 175.865 44.0789 175.659C43.9594 175.454 43.8957 175.222 43.8942 174.984L43.8707 75.8043Z" fill="#224971"/>
<path opacity="0.2" d="M43.8707 75.8043C43.8726 75.3276 44.0005 74.8598 44.2416 74.4483C44.4826 74.0368 44.8282 73.6962 45.2434 73.4609L98.1013 43.4239C98.3076 43.3063 98.5412 43.2447 98.7788 43.2452C99.0164 43.2457 99.2497 43.3083 99.4555 43.4268C99.6613 43.5453 99.8325 43.7155 99.952 43.9206C100.072 44.1256 100.135 44.3584 100.137 44.5956V143.723C100.132 144.199 100.003 144.666 99.762 145.077C99.5213 145.488 99.1773 145.829 98.7642 146.066L45.9297 176.156C45.7233 176.274 45.4898 176.335 45.2522 176.335C45.0146 176.334 44.7813 176.272 44.5755 176.153C44.3696 176.035 44.1985 175.865 44.0789 175.659C43.9594 175.454 43.8957 175.222 43.8942 174.984L43.8707 75.8043Z" fill="black"/>
<path opacity="0.1" d="M43.8707 75.8043C43.8726 75.3276 44.0005 74.8598 44.2416 74.4483C44.4826 74.0368 44.8282 73.6962 45.2434 73.4609L98.1013 43.4239C98.3076 43.3063 98.5412 43.2447 98.7788 43.2452C99.0164 43.2457 99.2497 43.3083 99.4555 43.4268C99.6613 43.5453 99.8325 43.7155 99.952 43.9206C100.072 44.1256 100.135 44.3584 100.137 44.5956V143.723C100.132 144.199 100.003 144.666 99.762 145.077C99.5213 145.488 99.1773 145.829 98.7642 146.066L45.9297 176.156C45.7233 176.274 45.4898 176.335 45.2522 176.335C45.0146 176.334 44.7813 176.272 44.5755 176.153C44.3696 176.035 44.1985 175.865 44.0789 175.659C43.9594 175.454 43.8957 175.222 43.8942 174.984L43.8707 75.8043Z" fill="white"/>
<path opacity="0.3" d="M35.9575 62.81V185.741C35.9575 188.869 39.5709 191.857 42.9673 190.428C42.7635 190.502 42.5446 190.526 42.3294 190.498C42.1141 190.47 41.9088 190.391 41.7309 190.267C41.553 190.142 41.4077 189.977 41.3074 189.785C41.2071 189.593 41.1547 189.379 41.1547 189.162V66.208C41.1693 65.1356 41.502 64.0917 42.1109 63.2084L36.5206 60.4138C36.1516 61.1589 35.9589 61.9787 35.9575 62.81Z" fill="black"/>
<path opacity="0.1" d="M96.4294 25.5903C96.1485 25.5991 95.8709 25.6546 95.6082 25.7544L38.7086 58.0704C37.7571 58.6104 36.9937 59.4281 36.5206 60.4138L42.1109 63.2083C42.5745 62.4852 43.2038 61.8827 43.9469 61.4508L100.846 29.1231C101.007 29.0307 101.186 28.9725 101.37 28.9521C101.555 28.9317 101.742 28.9495 101.919 29.0045C102.096 29.0595 102.26 29.1505 102.401 29.2717C102.541 29.3929 102.655 29.5417 102.735 29.7089C102.307 28.2853 99.3624 25.5318 96.4294 25.5903Z" fill="white"/>
<path d="M79.0252 49.4466C79.43 49.2181 79.7585 49.3997 79.7585 49.8567C79.7432 50.1086 79.6696 50.3534 79.5433 50.572C79.4171 50.7906 79.2417 50.9769 79.0311 51.1163L67.8858 57.5607C67.4869 57.7951 67.1643 57.6017 67.1643 57.1389C67.1778 56.8903 67.2495 56.6484 67.3738 56.4327C67.4982 56.2169 67.6715 56.0334 67.8799 55.8969L79.0252 49.4466Z" fill="#263238"/>
<path d="M64.988 57.5372C65.3869 57.3087 65.7095 57.4903 65.7095 57.9531C65.6954 58.2038 65.6228 58.4477 65.4975 58.6654C65.3722 58.8831 65.1978 59.0685 64.988 59.2069C64.5891 59.4354 64.2606 59.2479 64.2606 58.7909C64.2731 58.5392 64.3456 58.2941 64.4721 58.076C64.5986 57.8579 64.7755 57.6732 64.988 57.5372Z" fill="#263238"/>
<path d="M72.1444 48.515C72.9422 48.0521 73.5875 48.4212 73.5875 49.3352C73.5626 49.8359 73.4195 50.3235 73.1697 50.7584C72.9199 51.1932 72.5706 51.5627 72.1503 51.8368C71.3526 52.2996 70.6897 51.9247 70.6897 51.0049C70.7192 50.5049 70.8663 50.0189 71.1191 49.5863C71.3718 49.1537 71.7231 48.7866 72.1444 48.515Z" fill="#263238"/>
<path d="M72.1444 164.24C73.7752 163.302 75.0774 164.052 75.0774 165.915C75.0255 166.936 74.7327 167.931 74.2231 168.818C73.7134 169.704 73.0012 170.458 72.1444 171.018C70.5196 171.955 69.1704 171.188 69.1646 169.319C69.2253 168.298 69.5269 167.305 70.0448 166.423C70.5627 165.54 71.2821 164.792 72.1444 164.24Z" fill="#263238"/>
<path d="M99.9607 41.8655L119.178 57.795L112.174 61.8374L92.9626 45.9079L99.9607 41.8655Z" fill="#224971"/>
<path d="M85.9586 49.9503L105.17 65.874L98.1656 69.9164L78.9606 53.9927L85.9586 49.9503Z" fill="#224971"/>
<path d="M78.9607 53.9927L98.1658 69.9164L91.1619 73.9588L71.9568 58.0352L78.9607 53.9927Z" fill="white"/>
<path d="M92.9628 45.9078L112.174 61.8373L105.17 65.8739L85.9589 49.9503L92.9628 45.9078Z" fill="white"/>
<path d="M57.9547 66.1142L77.1539 82.0378L70.15 86.0803L50.9508 70.1566L57.9547 66.1142Z" fill="#224971"/>
<path d="M71.9568 58.0352L91.1619 73.9588L84.1579 77.9954L64.9529 62.0717L71.9568 58.0352Z" fill="#224971"/>
<path d="M43.818 74.2751L50.951 70.1566L70.1502 86.0802L62.9996 90.2046L43.818 74.2751Z" fill="white"/>
<path d="M64.9528 62.0718L84.1578 77.9954L77.1539 82.0378L57.9547 66.1142L64.9528 62.0718Z" fill="white"/>
<path d="M119.178 57.795L112.174 61.8375C112.173 62.3115 112.298 62.7773 112.535 63.1881C112.771 63.5989 113.112 63.9402 113.523 64.1777C113.934 64.4152 114.4 64.5405 114.875 64.5411C115.349 64.5416 115.816 64.4174 116.227 64.1809C117.12 63.6597 117.861 62.9137 118.376 62.0173C118.89 61.1209 119.161 60.1055 119.16 59.0722L119.178 57.795Z" fill="#224971"/>
<path d="M112.174 61.8375L105.17 65.8799C105.169 66.3539 105.294 66.8197 105.531 67.2305C105.767 67.6413 106.108 67.9826 106.519 68.2201C106.93 68.4576 107.396 68.5829 107.871 68.5835C108.345 68.584 108.812 68.4598 109.223 68.2233C110.117 67.703 110.859 66.9572 111.373 66.0606C111.888 65.164 112.158 64.1481 112.156 63.1146L112.174 61.8375Z" fill="#E0E0E0"/>
<path d="M105.17 65.8798L98.1657 69.9164C98.1652 70.3904 98.2896 70.8562 98.5265 71.267C98.7634 71.6778 99.1043 72.0191 99.5151 72.2566C99.9259 72.4941 100.392 72.6194 100.867 72.62C101.341 72.6205 101.808 72.4963 102.219 72.2598C103.113 71.7395 103.855 70.9937 104.369 70.0971C104.884 69.2005 105.154 68.1846 105.152 67.1511L105.17 65.8798Z" fill="#224971"/>
<path d="M98.1658 69.9164L91.1619 73.9588C91.1596 74.4335 91.2829 74.9004 91.5194 75.3123C91.7558 75.7241 92.097 76.0663 92.5084 76.3041C92.9197 76.542 93.3867 76.667 93.8621 76.6667C94.3374 76.6664 94.8042 76.5406 95.2153 76.3022C96.1089 75.7828 96.8502 75.0381 97.3649 74.1425C97.8797 73.247 98.1498 72.232 98.1482 71.1994L98.1658 69.9164Z" fill="#E0E0E0"/>
<path d="M91.1618 73.9588L84.1578 77.9895C84.1574 78.4636 84.2818 78.9294 84.5187 79.3402C84.7555 79.7509 85.0965 80.0922 85.5073 80.3297C85.918 80.5672 86.3842 80.6925 86.8588 80.6931C87.3334 80.6937 87.7999 80.5695 88.2112 80.3329C89.1053 79.8126 89.8468 79.0668 90.3615 78.1702C90.8763 77.2737 91.1462 76.2578 91.1442 75.2243L91.1618 73.9588Z" fill="#224971"/>
<path d="M84.158 77.9895L77.1541 82.0261C77.1536 82.5001 77.278 82.9659 77.5149 83.3767C77.7517 83.7875 78.0927 84.1288 78.5035 84.3663C78.9143 84.6038 79.3804 84.7291 79.855 84.7297C80.3296 84.7302 80.7961 84.606 81.2074 84.3695C82.1007 83.8483 82.8416 83.1023 83.3562 82.2059C83.8708 81.3095 84.1412 80.2941 84.1404 79.2608L84.158 77.9895Z" fill="#E0E0E0"/>
<path d="M77.154 82.0378L70.1501 86.0803C70.1478 86.555 70.2711 87.0219 70.5075 87.4337C70.744 87.8456 71.0851 88.1877 71.4965 88.4256C71.9079 88.6634 72.3749 88.7885 72.8502 88.7882C73.3256 88.7878 73.7924 88.6621 74.2034 88.4237C75.1003 87.9065 75.8441 87.1615 76.3593 86.2642C76.8744 85.3669 77.1426 84.3493 77.1364 83.315L77.154 82.0378Z" fill="#224971"/>
<path opacity="0.2" d="M119.178 57.795L112.174 61.8375C112.173 62.3115 112.298 62.7773 112.535 63.1881C112.771 63.5989 113.112 63.9402 113.523 64.1777C113.934 64.4152 114.4 64.5405 114.875 64.5411C115.349 64.5416 115.816 64.4174 116.227 64.1809C117.12 63.6597 117.861 62.9137 118.376 62.0173C118.89 61.1209 119.161 60.1055 119.16 59.0722L119.178 57.795Z" fill="black"/>
<path opacity="0.2" d="M105.17 65.8798L98.1657 69.9164C98.1652 70.3904 98.2896 70.8562 98.5265 71.267C98.7634 71.6778 99.1043 72.0191 99.5151 72.2566C99.9259 72.4941 100.392 72.6194 100.867 72.62C101.341 72.6205 101.808 72.4963 102.219 72.2598C103.113 71.7395 103.855 70.9937 104.369 70.0971C104.884 69.2005 105.154 68.1846 105.152 67.1511L105.17 65.8798Z" fill="black"/>
<path opacity="0.2" d="M91.1618 73.9588L84.1578 77.9895C84.1574 78.4636 84.2818 78.9294 84.5187 79.3402C84.7555 79.7509 85.0965 80.0922 85.5073 80.3297C85.918 80.5672 86.3842 80.6925 86.8588 80.6931C87.3334 80.6937 87.7999 80.5695 88.2112 80.3329C89.1053 79.8126 89.8468 79.0668 90.3615 78.1702C90.8763 77.2737 91.1462 76.2578 91.1442 75.2243L91.1618 73.9588Z" fill="black"/>
<path opacity="0.2" d="M77.154 82.0378L70.1501 86.0803C70.1478 86.555 70.2711 87.0219 70.5075 87.4337C70.744 87.8456 71.0851 88.1877 71.4965 88.4256C71.9079 88.6634 72.3749 88.7885 72.8502 88.7882C73.3256 88.7878 73.7924 88.6621 74.2034 88.4237C75.1003 87.9065 75.8441 87.1615 76.3593 86.2642C76.8744 85.3669 77.1426 84.3493 77.1364 83.315L77.154 82.0378Z" fill="black"/>
<path d="M70.1501 86.0803L62.9995 90.1813C62.9978 90.6551 63.1213 91.1211 63.3574 91.5321C63.5936 91.9431 63.9341 92.2847 64.3445 92.5223C64.755 92.76 65.221 92.8854 65.6955 92.8858C66.1699 92.8862 66.6361 92.7616 67.047 92.5247C67.9911 91.9803 68.775 91.1972 69.3197 90.254C69.8645 89.3109 70.1509 88.2412 70.1501 87.1524V86.0803Z" fill="#E0E0E0"/>
<path d="M78.3155 106.697C76.2379 106.943 74.2224 107.564 72.3674 108.53C68.0429 110.758 64.7384 114.558 63.1344 119.146C62.4387 121.117 62.1068 123.197 62.1548 125.286C62.6159 123.312 63.2824 121.392 64.1434 119.556C66.0694 115.444 69.1066 111.95 72.9129 109.468C74.6132 108.36 76.4237 107.432 78.3155 106.697Z" fill="#224971"/>
<path d="M72.8367 137.372C71.6964 137.353 70.5662 137.155 69.4873 136.786C68.2883 136.389 67.1814 135.756 66.2322 134.924C65.283 134.091 64.5109 133.077 63.9615 131.941C63.4535 130.922 63.111 129.828 62.9467 128.701C62.824 129.881 62.9787 131.072 63.3984 132.181C63.871 133.473 64.6612 134.626 65.6965 135.533C66.7318 136.44 67.9789 137.073 69.323 137.372C70.4783 137.645 71.6814 137.645 72.8367 137.372Z" fill="#224971"/>
<path d="M81.9289 118.531C82.0434 120.092 82.0198 121.661 81.8585 123.218C81.4871 126.736 80.3327 130.127 78.4797 133.142C77.6567 134.482 76.7165 135.747 75.6699 136.921C77.0174 136.021 78.2067 134.905 79.1895 133.617C81.465 130.65 82.7016 127.019 82.709 123.282C82.7122 121.667 82.4486 120.061 81.9289 118.531Z" fill="#224971"/>
<path d="M63.5392 112.063C62.1212 113.425 60.9625 115.033 60.1194 116.809C58.133 120.928 57.8013 125.652 59.1925 130.008C59.7853 131.883 60.709 133.637 61.9202 135.187C61.1503 133.439 60.5607 131.617 60.1604 129.75C59.2828 125.569 59.5874 121.226 61.0403 117.207C61.6906 115.41 62.5281 113.686 63.5392 112.063Z" fill="#224971"/>
<path d="M85.9469 112.755C85.797 111.154 85.2219 109.623 84.281 108.32C83.2129 106.78 81.7185 105.585 79.9807 104.88C78.2428 104.176 76.337 103.993 74.4966 104.353C72.9133 104.639 71.4339 105.339 70.2086 106.38C71.5862 105.706 73.0787 105.296 74.6081 105.173C76.2957 105.019 77.9959 105.27 79.5665 105.906C81.137 106.542 82.5323 107.545 83.6357 108.829C84.6465 109.981 85.4306 111.313 85.9469 112.755Z" fill="#224971"/>
<path d="M111.106 94.3936C112.964 94.2049 114.825 94.7242 116.317 95.8475C117.808 96.9707 118.819 98.6151 119.148 100.451L121.87 115.684L138.94 127.606L135.127 132.24L118.89 123.722C117.934 123.22 117.088 122.533 116.402 121.7C115.715 120.867 115.203 119.905 114.895 118.871L109.663 101.242L111.106 94.3936Z" fill="#FFA8A7"/>
<path d="M117.441 110.762C118.95 109.961 120.158 108.692 120.885 107.148L119.354 100.164C118.963 98.3909 117.933 96.8229 116.46 95.7588C114.986 94.6947 113.173 94.2088 111.364 94.3936L111.106 94.4229L109.663 101.283L111.916 111.383C113.772 111.847 115.734 111.626 117.441 110.762Z" fill="#455A64"/>
<path d="M117.441 110.763C115.734 111.626 113.772 111.847 111.915 111.384L112.502 113.873C114.62 114.348 120.046 114.19 121.459 109.714L120.873 107.136C120.151 108.683 118.947 109.956 117.441 110.763Z" fill="#455A64"/>
<path opacity="0.2" d="M117.441 110.762C118.95 109.961 120.158 108.692 120.885 107.148L119.354 100.164C118.963 98.3909 117.933 96.8229 116.46 95.7588C114.986 94.6947 113.173 94.2088 111.364 94.3936L111.106 94.4229L109.663 101.283L111.916 111.383C113.772 111.847 115.734 111.626 117.441 110.762Z" fill="white"/>
<path opacity="0.5" d="M117.441 110.763C115.734 111.626 113.772 111.847 111.915 111.384L112.502 113.873C114.62 114.348 120.046 114.19 121.459 109.714L120.873 107.136C120.151 108.683 118.947 109.956 117.441 110.763Z" fill="white"/>
<path d="M114.884 100.949C114.884 100.949 114.203 95.7645 111.106 94.4111C111.106 94.4111 103.691 96.6315 97.544 98.9633C95.1127 99.8487 92.7315 100.866 90.411 102.01C89.0149 103.217 85.0085 106.808 83.1255 107.775C82.2057 108.234 81.2135 108.531 80.1925 108.653C78.9025 108.86 77.6641 109.312 76.5439 109.983C70.9009 113.241 66.343 121.115 66.3606 127.6C66.3606 131.848 68.3551 134.419 71.3056 134.777H71.4405C71.9066 134.826 72.3765 134.826 72.8425 134.777C77.9752 134.73 86.2051 134.689 89.4372 133.763C104.536 129.334 116.409 118.414 114.884 100.949Z" fill="#455A64"/>
<path d="M100.494 98.8227L102.706 94.8154L111.605 100.803L108.085 105.525C107.346 105.887 106.54 106.09 105.718 106.124C104.896 106.157 104.076 106.019 103.31 105.718C102.553 105.37 101.876 104.87 101.321 104.249C100.766 103.628 100.345 102.9 100.084 102.109C99.9277 101.562 99.8836 100.989 99.9541 100.424C100.025 99.8596 100.208 99.3149 100.494 98.8227Z" fill="#FFA8A7"/>
<path opacity="0.2" d="M103.539 95.3721C103.539 100.2 107.381 102.461 109.728 103.316L111.605 100.803L103.539 95.3721Z" fill="black"/>
<path d="M99.5209 90.5563C99.1924 88.6288 98.8581 86.6486 99.2335 84.727C99.6089 82.8054 100.852 80.9306 102.753 80.3682C103.139 79.5467 103.691 78.814 104.375 78.216C105.058 77.6181 105.858 77.168 106.724 76.8941C108.423 76.4311 110.179 76.218 111.939 76.2614C113.881 76.1452 115.829 76.2533 117.746 76.5836C119.678 76.9282 121.433 77.9226 122.721 79.4016C123.38 80.309 123.849 81.341 124.097 82.4347C124.345 83.5285 124.368 84.6612 124.164 85.764C123.743 87.9681 122.926 90.078 121.753 91.9917C118.022 92.2553 114.221 92.683 110.49 92.9466C108.59 93.1457 106.675 93.1633 104.771 92.9993C102.828 92.6858 101.011 91.8401 99.5209 90.5563Z" fill="#263238"/>
<path d="M122.363 81.6218C123.319 87.3554 122.686 93.241 120.533 98.6411C120.034 99.8889 119.36 101.184 118.216 101.846C117.072 102.508 115.476 102.402 114.11 102.191C111.849 101.934 109.644 101.315 107.581 100.358C105.504 99.3791 103.885 97.637 103.064 95.495C102.324 95.6437 101.558 95.5764 100.855 95.301C100.153 95.0257 99.5452 94.554 99.1045 93.9425C98.2382 92.6733 97.7892 91.1662 97.8198 89.6305C97.8198 88.6522 98.0017 87.498 98.8816 87.0703C99.7615 86.6427 100.677 87.1172 101.386 87.6913C102.55 88.6366 103.4 89.9108 103.827 91.3471C104.472 88.9627 105.475 86.6602 106.12 84.3168C106.378 83.3794 106.707 82.36 107.51 81.8386C108.508 81.2 109.81 81.5633 110.965 81.8386C114.721 82.7363 118.644 82.6617 122.363 81.6218Z" fill="#FFA8A7"/>
<path d="M115.417 88.8455L118.204 93.5265L114.884 94.1533L115.417 88.8455Z" fill="#F28F8F"/>
<path d="M111.681 95.7644L114.203 96.9888C113.988 97.276 113.684 97.4848 113.339 97.5832C112.994 97.6816 112.625 97.6642 112.291 97.5337C112.002 97.353 111.784 97.0788 111.673 96.7568C111.562 96.4348 111.565 96.0845 111.681 95.7644Z" fill="#F28F8F"/>
<path opacity="0.3" d="M111.681 95.7644L114.203 96.9888C113.988 97.276 113.684 97.4848 113.339 97.5832C112.994 97.6816 112.625 97.6642 112.291 97.5337C112.002 97.353 111.784 97.0788 111.673 96.7568C111.562 96.4348 111.565 96.0845 111.681 95.7644Z" fill="black"/>
<path d="M113.165 97.616C112.872 97.6755 112.568 97.6469 112.291 97.5339C112.059 97.4043 111.871 97.2086 111.75 96.9717C111.63 96.7348 111.584 96.4676 111.616 96.204C111.978 96.2048 112.329 96.3264 112.613 96.5497C112.929 96.8202 113.127 97.2025 113.165 97.616Z" fill="#F28F8F"/>
<path d="M110.608 89.033C110.589 89.221 110.626 89.4104 110.715 89.5772C110.804 89.7439 110.941 89.8806 111.107 89.9698C111.274 90.0591 111.464 90.0969 111.652 90.0785C111.84 90.06 112.019 89.9862 112.165 89.8664C112.312 89.7466 112.419 89.5861 112.474 89.4052C112.529 89.2244 112.529 89.0313 112.474 88.8505C112.419 88.6697 112.311 88.5092 112.165 88.3894C112.019 88.2697 111.84 88.1959 111.652 88.1776C111.4 88.1531 111.148 88.2294 110.953 88.3897C110.757 88.55 110.633 88.7814 110.608 89.033Z" fill="#263238"/>
<path d="M118.608 89.5251C118.59 89.7118 118.627 89.8997 118.715 90.0653C118.803 90.2309 118.939 90.3667 119.104 90.4555C119.269 90.5443 119.457 90.5822 119.644 90.5644C119.831 90.5466 120.009 90.4739 120.154 90.3555C120.3 90.237 120.407 90.0781 120.462 89.8989C120.518 89.7197 120.518 89.5281 120.465 89.3484C120.411 89.1687 120.305 89.0088 120.161 88.8891C120.016 88.7694 119.839 88.6951 119.653 88.6757C119.528 88.6627 119.402 88.6744 119.282 88.7101C119.163 88.7458 119.051 88.8048 118.954 88.8838C118.857 88.9627 118.776 89.06 118.717 89.1701C118.658 89.2801 118.621 89.4008 118.608 89.5251Z" fill="#263238"/>
<path d="M119.911 85.8459L121.87 87.5098C121.988 87.2584 122.025 86.9772 121.978 86.7039C121.931 86.4306 121.801 86.1782 121.606 85.9807C121.364 85.8028 121.077 85.6959 120.778 85.6721C120.478 85.6483 120.178 85.7085 119.911 85.8459Z" fill="#263238"/>
<path d="M112.109 85.7171L109.863 86.9591C109.797 86.6899 109.815 86.4071 109.914 86.1484C110.014 85.8898 110.19 85.6677 110.42 85.512C110.693 85.3862 110.995 85.3388 111.294 85.375C111.592 85.4112 111.874 85.5296 112.109 85.7171Z" fill="#263238"/>
<path d="M124.146 83.5494C115.986 84.854 107.669 84.854 99.509 83.5494C99.8903 73.5898 104.378 70.3265 112.121 70.3265C119.864 70.3265 124.234 74.4744 124.146 83.5494Z" fill="#455A64"/>
<path d="M124.146 83.5494C124.146 79.7355 123.407 76.8062 121.958 74.6795L118.714 73.7714C117.187 73.3431 115.584 73.2591 114.021 73.5254L110.93 74.0409C109.872 74.211 108.899 74.7213 108.157 75.4942C107.416 76.2672 106.948 77.2606 106.824 78.3236L106.114 84.3345C112.135 84.7675 118.186 84.504 124.146 83.5494Z" fill="#455A64"/>
<path opacity="0.29" d="M124.146 83.5494C124.146 79.7355 123.407 76.8062 121.958 74.6795L118.714 73.7714C117.187 73.3431 115.584 73.2591 114.021 73.5254L110.93 74.0409C109.872 74.211 108.899 74.7213 108.157 75.4942C107.416 76.2672 106.948 77.2606 106.824 78.3236L106.114 84.3345C112.135 84.7675 118.186 84.504 124.146 83.5494Z" fill="white"/>
<path d="M125.114 75.1657H123.683C123.219 75.1657 122.762 75.1657 122.304 75.2184C118.108 75.5231 114.13 77.2084 110.995 80.0108L106.173 84.3344C112.174 84.7629 118.205 84.4995 124.146 83.5494L127.284 79.7471C127.618 79.3355 127.828 78.8382 127.892 78.3124C127.955 77.7866 127.868 77.2537 127.641 76.7751C127.414 76.2964 127.057 75.8914 126.61 75.6067C126.163 75.322 125.644 75.1691 125.114 75.1657Z" fill="#455A64"/>
<path opacity="0.2" d="M125.114 75.1657H123.683C123.219 75.1657 122.762 75.1657 122.304 75.2184C118.108 75.5231 114.13 77.2084 110.995 80.0108L106.173 84.3344C112.174 84.7629 118.205 84.4995 124.146 83.5494L127.284 79.7471C127.618 79.3355 127.828 78.8382 127.892 78.3124C127.955 77.7866 127.868 77.2537 127.641 76.7751C127.414 76.2964 127.057 75.8914 126.61 75.6067C126.163 75.322 125.644 75.1691 125.114 75.1657Z" fill="black"/>
<path d="M149.909 128.409L128.041 141.098L106.032 128.409L127.894 115.713L149.909 128.409Z" fill="#224971"/>
<g opacity="0.3">
<path d="M149.909 128.409L128.041 141.098L106.032 128.409L127.894 115.713L149.909 128.409Z" fill="white"/>
</g>
<path d="M149.909 128.409L149.845 150.624L127.976 163.314L128.041 141.098L149.909 128.409Z" fill="#224971"/>
<g opacity="0.1">
<path d="M149.909 128.409L149.845 150.624L127.976 163.314L128.041 141.098L149.909 128.409Z" fill="white"/>
</g>
<path d="M128.041 141.098L127.976 163.314L105.967 150.624L106.032 128.409L128.041 141.098Z" fill="#224971"/>
<path d="M131.848 126.78L139.251 122.263L135.473 120.083L128.041 124.513L131.848 126.78Z" fill="#E0E0E0"/>
<path d="M131.848 126.78L128.041 124.513L120.491 120.013L116.725 122.198L124.228 126.78L128.041 129.106L138.107 135.257L142.143 132.914L131.848 126.78Z" fill="white"/>
<path d="M124.228 126.78L113.892 132.937L117.94 135.275L128.041 129.106L124.228 126.78Z" fill="#E0E0E0"/>
<path d="M142.143 132.914L138.107 135.257L138.142 135.275L138.201 157.379L142.283 155.012L142.225 132.955L142.143 132.914Z" fill="#E0E0E0"/>
<path d="M117.94 135.275L113.892 132.937L113.857 132.955L113.792 155.141L117.875 157.491L117.94 135.275Z" fill="white"/>
<path opacity="0.2" d="M117.94 135.275L113.892 132.937L113.857 132.955L113.792 155.141L117.875 157.491L117.94 135.275Z" fill="black"/>
<path d="M128.029 133.494L123.454 136.288L128.029 138.931L132.593 136.283L128.029 133.494Z" fill="white"/>
<path d="M84.7386 132.726C84.7386 132.726 86.4456 107.915 86.8034 106.363C88.1702 100.463 96.7345 100.885 97.5498 106.884C97.8842 109.333 93.9716 133.113 93.9716 133.113L108.144 148.088L111.012 150.718L113.57 150.203L119.4 150.753C119.555 150.769 119.701 150.834 119.816 150.94C119.93 151.046 120.007 151.186 120.034 151.339C120.071 151.521 120.037 151.709 119.939 151.866C119.841 152.024 119.686 152.137 119.506 152.183L115.652 153.12L118.433 155.018C118.822 155.285 119.264 155.467 119.729 155.551L124.087 156.377C124.28 156.413 124.453 156.518 124.573 156.672C124.693 156.827 124.752 157.02 124.738 157.215C124.729 157.37 124.676 157.518 124.584 157.643C124.493 157.768 124.367 157.863 124.222 157.918L121.876 158.791C120.356 159.361 118.73 159.597 117.11 159.481C115.49 159.366 113.914 158.903 112.49 158.123L107.446 155.323C106.706 154.925 106.008 154.454 105.363 153.917L87.2786 138.977C86.3673 138.229 85.6577 137.266 85.2141 136.174C84.7705 135.082 84.6071 133.897 84.7386 132.726Z" fill="#FFA8A7"/>
<path d="M97.3211 123.218L99.1337 109.743C99.2462 108.825 99.1764 107.893 98.9285 107.002C98.6806 106.111 98.2593 105.277 97.6887 104.548C97.1182 103.82 96.4095 103.21 95.6031 102.755C94.7967 102.3 93.9085 102.008 92.9891 101.896C92.0697 101.783 91.1372 101.853 90.2448 102.1C89.3523 102.348 88.5175 102.769 87.7878 103.339C87.0582 103.909 86.4481 104.616 85.9924 105.422C85.5366 106.227 85.2442 107.114 85.1317 108.032L83.6183 121.782C85.6739 122.968 87.9569 123.708 90.3182 123.952C92.6795 124.196 95.0658 123.94 97.3211 123.2V123.218Z" fill="#455A64"/>
<path opacity="0.2" d="M97.3211 123.218L99.1337 109.743C99.2462 108.825 99.1764 107.893 98.9285 107.002C98.6806 106.111 98.2593 105.277 97.6887 104.548C97.1182 103.82 96.4095 103.21 95.6031 102.755C94.7967 102.3 93.9085 102.008 92.9891 101.896C92.0697 101.783 91.1372 101.853 90.2448 102.1C89.3523 102.348 88.5175 102.769 87.7878 103.339C87.0582 103.909 86.4481 104.616 85.9924 105.422C85.5366 106.227 85.2442 107.114 85.1317 108.032L83.6183 121.782C85.6739 122.968 87.9569 123.708 90.3182 123.952C92.6795 124.196 95.0658 123.94 97.3211 123.2V123.218Z" fill="white"/>
<path d="M90.0415 123.938C87.77 123.66 85.5766 122.933 83.589 121.8L83.2429 124.969C89.3376 129.656 96.8108 126.762 96.8108 126.762L97.2918 123.218C94.9543 123.972 92.4821 124.218 90.0415 123.938Z" fill="#455A64"/>
<path opacity="0.5" d="M90.0415 123.938C87.77 123.66 85.5766 122.933 83.589 121.8L83.2429 124.969C89.3376 129.656 96.8108 126.762 96.8108 126.762L97.2918 123.218C94.9543 123.972 92.4821 124.218 90.0415 123.938Z" fill="white"/>
<path d="M248.557 169.249L258.071 169.53L267.586 169.249C267.99 175.693 266.741 182.208 265.011 185.401C264.601 186.22 263.942 186.889 263.128 187.311C260.318 188.934 255.783 188.934 252.991 187.311C252.166 186.881 251.507 186.191 251.114 185.348C249.39 182.138 248.152 175.635 248.557 169.249Z" fill="white"/>
<path d="M251.366 165.359C247.641 167.509 247.618 170.995 251.319 173.145C255.021 175.295 261.045 175.289 264.776 173.145C268.507 171 268.524 167.509 264.817 165.359C261.11 163.209 255.091 163.209 251.366 165.359Z" fill="#EBEBEB"/>
<path d="M252.839 166.214C249.906 167.889 249.906 170.608 252.803 172.289C255.701 173.971 260.394 173.965 263.303 172.289C266.213 170.614 266.236 167.889 263.333 166.214C260.429 164.538 255.748 164.538 252.839 166.214Z" fill="#E0E0E0"/>
<g opacity="0.15">
<path d="M252.839 166.214C249.906 167.889 249.906 170.608 252.803 172.289C255.701 173.971 260.394 173.965 263.303 172.289C266.213 170.614 266.236 167.889 263.333 166.214C260.429 164.538 255.748 164.538 252.839 166.214Z" fill="black"/>
</g>
<path d="M262.922 149.81C264.471 147.888 266.266 146.166 267.685 144.15C268.653 142.774 269.445 141.086 269.052 139.464C268.827 138.714 268.396 138.042 267.808 137.524C267.221 137.006 266.499 136.663 265.726 136.534C264.164 136.302 262.571 136.657 261.256 137.53C259.954 138.399 258.811 139.485 257.878 140.741C252.518 147.518 249.984 156.099 250.803 164.696C250.823 165.681 251.131 166.638 251.689 167.45C252.031 167.851 252.481 168.145 252.985 168.299C253.489 168.452 254.026 168.459 254.534 168.317C257.127 167.55 256.781 164.052 257.203 161.996C257.786 159.173 258.79 156.453 260.183 153.928C260.972 152.477 261.889 151.099 262.922 149.81Z" fill="#224971"/>
<path opacity="0.2" d="M262.922 149.81C264.471 147.888 266.266 146.166 267.685 144.15C268.653 142.774 269.445 141.086 269.052 139.464C268.827 138.714 268.396 138.042 267.808 137.524C267.221 137.006 266.499 136.663 265.726 136.534C264.164 136.302 262.571 136.657 261.256 137.53C259.954 138.399 258.811 139.485 257.878 140.741C252.518 147.518 249.984 156.099 250.803 164.696C250.823 165.681 251.131 166.638 251.689 167.45C252.031 167.851 252.481 168.145 252.985 168.299C253.489 168.452 254.026 168.459 254.534 168.317C257.127 167.55 256.781 164.052 257.203 161.996C257.786 159.173 258.79 156.453 260.183 153.928C260.972 152.477 261.889 151.099 262.922 149.81Z" fill="white"/>
<path d="M254.37 165.693C254.42 165.682 254.465 165.655 254.498 165.616C254.531 165.576 254.55 165.527 254.552 165.476C254.734 161.322 256.089 147.144 265.873 139.112C265.897 139.094 265.916 139.071 265.931 139.045C265.945 139.019 265.954 138.99 265.957 138.96C265.959 138.931 265.956 138.901 265.947 138.872C265.937 138.844 265.922 138.818 265.902 138.796C265.884 138.772 265.861 138.753 265.835 138.738C265.809 138.724 265.781 138.715 265.751 138.712C265.722 138.708 265.692 138.711 265.663 138.719C265.635 138.728 265.609 138.742 265.586 138.761C255.655 146.927 254.282 161.275 254.1 165.476C254.098 165.535 254.12 165.593 254.161 165.637C254.201 165.681 254.257 165.707 254.317 165.71L254.37 165.693Z" fill="#F0F0F0"/>
<path d="M252.944 166.138C253.149 167.047 253.536 167.905 254.081 168.661C254.626 169.417 255.319 170.056 256.118 170.538C257.614 171.249 259.28 171.529 260.928 171.346C262.595 171.149 264.233 170.756 265.808 170.174C266.594 169.911 267.462 169.559 267.568 168.587C267.58 168.332 267.536 168.079 267.44 167.843C267.343 167.607 267.197 167.395 267.011 167.222C266.852 167.065 266.684 166.918 266.506 166.782C266.425 166.721 266.363 166.637 266.331 166.54C266.299 166.444 266.297 166.34 266.326 166.242C266.354 166.144 266.412 166.058 266.492 165.994C266.571 165.931 266.669 165.893 266.77 165.886C267.237 165.854 267.701 165.795 268.16 165.71C269.239 165.542 270.252 165.087 271.093 164.392C271.704 163.852 272.168 163.167 272.443 162.4C272.677 161.744 272.748 160.924 272.249 160.437C271.942 160.181 271.567 160.019 271.17 159.969C270.824 159.892 270.472 159.828 270.126 159.775C270.025 159.761 269.933 159.713 269.862 159.641C269.791 159.569 269.746 159.475 269.734 159.375C269.721 159.275 269.742 159.173 269.792 159.086C269.843 158.998 269.921 158.93 270.014 158.891L271.492 158.275C271.917 158.138 272.302 157.898 272.613 157.578C272.804 157.281 272.928 156.946 272.977 156.596C273.025 156.246 272.997 155.889 272.894 155.551C272.712 154.626 272.396 153.735 272.179 152.821C271.916 151.921 271.874 150.97 272.055 150.05C269.29 149.743 266.491 149.929 263.79 150.601C262.978 150.769 262.209 151.105 261.532 151.585C260.611 152.323 260.359 153.425 260.47 154.626C260.474 154.674 260.461 154.723 260.433 154.763C260.405 154.802 260.364 154.831 260.316 154.845C260.269 154.858 260.219 154.854 260.175 154.835C260.13 154.815 260.093 154.78 260.071 154.737L259.15 152.979C259.012 152.729 258.783 152.541 258.511 152.454C258.238 152.366 257.942 152.387 257.684 152.511C256.856 152.925 256.122 153.503 255.525 154.21C255.195 154.584 254.944 155.02 254.786 155.493C254.628 155.966 254.566 156.466 254.604 156.963C254.718 158.33 254.948 159.684 255.291 161.011C255.313 161.087 255.311 161.168 255.284 161.242C255.258 161.316 255.208 161.38 255.142 161.424C255.077 161.468 254.999 161.489 254.92 161.486C254.841 161.482 254.765 161.454 254.704 161.404H254.663C254.409 161.208 254.091 161.116 253.771 161.146C252.938 161.246 252.727 162.089 252.669 162.81C252.627 163.926 252.719 165.044 252.944 166.138Z" fill="#224971"/>
<path opacity="0.2" d="M252.944 166.138C253.149 167.047 253.536 167.905 254.081 168.661C254.626 169.417 255.319 170.056 256.118 170.538C257.614 171.249 259.28 171.529 260.928 171.346C262.595 171.149 264.233 170.756 265.808 170.174C266.594 169.911 267.462 169.559 267.568 168.587C267.58 168.332 267.536 168.079 267.44 167.843C267.343 167.607 267.197 167.395 267.011 167.222C266.852 167.065 266.684 166.918 266.506 166.782C266.425 166.721 266.363 166.637 266.331 166.54C266.299 166.444 266.297 166.34 266.326 166.242C266.354 166.144 266.412 166.058 266.492 165.994C266.571 165.931 266.669 165.893 266.77 165.886C267.237 165.854 267.701 165.795 268.16 165.71C269.239 165.542 270.252 165.087 271.093 164.392C271.704 163.852 272.168 163.167 272.443 162.4C272.677 161.744 272.748 160.924 272.249 160.437C271.942 160.181 271.567 160.019 271.17 159.969C270.824 159.892 270.472 159.828 270.126 159.775C270.025 159.761 269.933 159.713 269.862 159.641C269.791 159.569 269.746 159.475 269.734 159.375C269.721 159.275 269.742 159.173 269.792 159.086C269.843 158.998 269.921 158.93 270.014 158.891L271.492 158.275C271.917 158.138 272.302 157.898 272.613 157.578C272.804 157.281 272.928 156.946 272.977 156.596C273.025 156.246 272.997 155.889 272.894 155.551C272.712 154.626 272.396 153.735 272.179 152.821C271.916 151.921 271.874 150.97 272.055 150.05C269.29 149.743 266.491 149.929 263.79 150.601C262.978 150.769 262.209 151.105 261.532 151.585C260.611 152.323 260.359 153.425 260.47 154.626C260.474 154.674 260.461 154.723 260.433 154.763C260.405 154.802 260.364 154.831 260.316 154.845C260.269 154.858 260.219 154.854 260.175 154.835C260.13 154.815 260.093 154.78 260.071 154.737L259.15 152.979C259.012 152.729 258.783 152.541 258.511 152.454C258.238 152.366 257.942 152.387 257.684 152.511C256.856 152.925 256.122 153.503 255.525 154.21C255.195 154.584 254.944 155.02 254.786 155.493C254.628 155.966 254.566 156.466 254.604 156.963C254.718 158.33 254.948 159.684 255.291 161.011C255.313 161.087 255.311 161.168 255.284 161.242C255.258 161.316 255.208 161.38 255.142 161.424C255.077 161.468 254.999 161.489 254.92 161.486C254.841 161.482 254.765 161.454 254.704 161.404H254.663C254.409 161.208 254.091 161.116 253.771 161.146C252.938 161.246 252.727 162.089 252.669 162.81C252.627 163.926 252.719 165.044 252.944 166.138Z" fill="black"/>
<path opacity="0.2" d="M252.944 166.138C253.149 167.047 253.536 167.905 254.081 168.661C254.626 169.417 255.319 170.056 256.118 170.538C257.614 171.249 259.28 171.529 260.928 171.346C262.595 171.149 264.233 170.756 265.808 170.174C266.594 169.911 267.462 169.559 267.568 168.587C267.58 168.332 267.536 168.079 267.44 167.843C267.343 167.607 267.197 167.395 267.011 167.222C266.852 167.065 266.684 166.918 266.506 166.782C266.425 166.721 266.363 166.637 266.331 166.54C266.299 166.444 266.297 166.34 266.326 166.242C266.354 166.144 266.412 166.058 266.492 165.994C266.571 165.931 266.669 165.893 266.77 165.886C267.237 165.854 267.701 165.795 268.16 165.71C269.239 165.542 270.252 165.087 271.093 164.392C271.704 163.852 272.168 163.167 272.443 162.4C272.677 161.744 272.748 160.924 272.249 160.437C271.942 160.181 271.567 160.019 271.17 159.969C270.824 159.892 270.472 159.828 270.126 159.775C270.025 159.761 269.933 159.713 269.862 159.641C269.791 159.569 269.746 159.475 269.734 159.375C269.721 159.275 269.742 159.173 269.792 159.086C269.843 158.998 269.921 158.93 270.014 158.891L271.492 158.275C271.917 158.138 272.302 157.898 272.613 157.578C272.804 157.281 272.928 156.946 272.977 156.596C273.025 156.246 272.997 155.889 272.894 155.551C272.712 154.626 272.396 153.735 272.179 152.821C271.916 151.921 271.874 150.97 272.055 150.05C269.29 149.743 266.491 149.929 263.79 150.601C262.978 150.769 262.209 151.105 261.532 151.585C260.611 152.323 260.359 153.425 260.47 154.626C260.474 154.674 260.461 154.723 260.433 154.763C260.405 154.802 260.364 154.831 260.316 154.845C260.269 154.858 260.219 154.854 260.175 154.835C260.13 154.815 260.093 154.78 260.071 154.737L259.15 152.979C259.012 152.729 258.783 152.541 258.511 152.454C258.238 152.366 257.942 152.387 257.684 152.511C256.856 152.925 256.122 153.503 255.525 154.21C255.195 154.584 254.944 155.02 254.786 155.493C254.628 155.966 254.566 156.466 254.604 156.963C254.718 158.33 254.948 159.684 255.291 161.011C255.313 161.087 255.311 161.168 255.284 161.242C255.258 161.316 255.208 161.38 255.142 161.424C255.077 161.468 254.999 161.489 254.92 161.486C254.841 161.482 254.765 161.454 254.704 161.404H254.663C254.409 161.208 254.091 161.116 253.771 161.146C252.938 161.246 252.727 162.089 252.669 162.81C252.627 163.926 252.719 165.044 252.944 166.138Z" fill="white"/>
<path d="M257.326 170.315C257.844 168.097 258.589 165.937 259.549 163.871C259.55 163.839 259.557 163.807 259.57 163.778C259.583 163.749 259.602 163.722 259.625 163.701L259.784 163.367C259.513 160.795 258.765 158.295 257.578 155.997C257.55 155.944 257.542 155.883 257.558 155.825C257.573 155.767 257.61 155.718 257.66 155.686C257.713 155.657 257.776 155.649 257.834 155.666C257.892 155.682 257.942 155.721 257.971 155.774C259.083 157.915 259.817 160.232 260.142 162.623C262.025 158.85 265.028 154.421 269.662 151.222C269.712 151.188 269.773 151.175 269.833 151.186C269.892 151.197 269.944 151.231 269.979 151.28C269.996 151.305 270.007 151.332 270.013 151.361C270.019 151.389 270.02 151.419 270.014 151.448C270.009 151.477 269.998 151.504 269.982 151.529C269.965 151.553 269.945 151.574 269.92 151.591C265.139 154.919 262.124 159.523 260.294 163.343C262.761 162.231 265.498 161.86 268.172 162.277C268.231 162.29 268.284 162.325 268.317 162.375C268.351 162.425 268.364 162.487 268.354 162.546C268.345 162.591 268.323 162.631 268.29 162.663C268.258 162.694 268.217 162.715 268.172 162.722H268.084C268.043 162.722 263.72 161.931 259.977 164.017C259.025 166.062 258.285 168.2 257.772 170.397C257.762 170.441 257.739 170.48 257.707 170.511C257.674 170.543 257.634 170.564 257.59 170.573H257.502C257.445 170.561 257.394 170.528 257.361 170.48C257.328 170.432 257.316 170.372 257.326 170.315Z" fill="#F0F0F0"/>
<path d="M40.5444 188.664L29.7159 188.98L18.8932 188.664C18.424 195.964 19.8553 203.404 21.8262 207.042C22.2914 207.979 23.0435 208.742 23.9731 209.222C27.1642 211.067 32.3262 211.067 35.4997 209.222C36.4417 208.736 37.195 207.951 37.6408 206.99C39.5941 203.328 41.0078 195.929 40.5444 188.664Z" fill="white"/>
<path d="M37.3477 184.235C41.5888 186.684 41.6123 190.644 37.4005 193.093C33.1888 195.542 26.3315 195.536 22.0904 193.093C17.8494 190.65 17.8259 186.684 22.0376 184.235C26.2494 181.786 33.1067 181.792 37.3477 184.235Z" fill="#EBEBEB"/>
<path d="M35.6582 185.202C38.9666 187.112 38.9842 190.205 35.6993 192.115C32.4144 194.025 27.0646 194.019 23.7563 192.115C20.4479 190.211 20.4303 187.112 23.7152 185.202C27.0001 183.292 32.3616 183.304 35.6582 185.202Z" fill="#E0E0E0"/>
<g opacity="0.15">
<path d="M35.6582 185.202C38.9666 187.112 38.9842 190.205 35.6993 192.115C32.4144 194.025 27.0646 194.019 23.7563 192.115C20.4479 190.211 20.4303 187.112 23.7152 185.202C27.0001 183.292 32.3616 183.304 35.6582 185.202Z" fill="black"/>
</g>
<path d="M47.5193 142.528C23.1229 150.507 22.8823 166.806 28.4022 178.411C29.7866 180.755 33.9866 182.026 37.6352 167.591L31.2296 168.411L38.6969 164.626L40.6385 158.838L34.4089 159.301L42.3162 155.979C43.7704 151.392 45.5081 146.9 47.5193 142.528Z" fill="#224971"/>
<path opacity="0.2" d="M47.5193 142.528C23.1229 150.507 22.8823 166.806 28.4022 178.411C29.7866 180.755 33.9866 182.026 37.6352 167.591L31.2296 168.411L38.6969 164.626L40.6385 158.838L34.4089 159.301L42.3162 155.979C43.7704 151.392 45.5081 146.9 47.5193 142.528Z" fill="black"/>
<path opacity="0.2" d="M47.5193 142.528C23.1229 150.507 22.8823 166.806 28.4022 178.411C29.7866 180.755 33.9866 182.026 37.6352 167.591L31.2296 168.411L38.6969 164.626L40.6385 158.838L34.4089 159.301L42.3162 155.979C43.7704 151.392 45.5081 146.9 47.5193 142.528Z" fill="white"/>
<path d="M40.6149 146.605C27.7509 156.354 26.5895 167.538 30.2264 179.208C28.9417 168.932 27.5515 158.539 40.6149 146.605Z" fill="white"/>
<path d="M6.19934 159.084C30.2497 162.464 33.1826 177.609 29.9681 189.332C29.0706 191.752 25.3692 193.626 19.5678 180.784L25.686 180.515L18.0603 178.206L15.2915 173.133L21.1575 172.547L13.2443 170.789C11.137 166.748 8.7843 162.839 6.19934 159.084Z" fill="#224971"/>
<path opacity="0.2" d="M6.19934 159.084C30.2497 162.464 33.1826 177.609 29.9681 189.332C29.0706 191.752 25.3692 193.626 19.5678 180.784L25.686 180.515L18.0603 178.206L15.2915 173.133L21.1575 172.547L13.2443 170.789C11.137 166.748 8.7843 162.839 6.19934 159.084Z" fill="white"/>
<path opacity="0.1" d="M6.19934 159.084C30.2497 162.464 33.1826 177.609 29.9681 189.332C29.0706 191.752 25.3692 193.626 19.5678 180.784L25.686 180.515L18.0603 178.206L15.2915 173.133L21.1575 172.547L13.2443 170.789C11.137 166.748 8.7843 162.839 6.19934 159.084Z" fill="black"/>
<path d="M13.3032 161.767C26.9063 168.716 29.8452 178.933 28.4021 190.404C27.8918 180.591 27.446 170.684 13.3032 161.767Z" fill="white"/>
<path d="M54.5525 164.761C32.5024 165.118 28.1558 178.441 29.7396 189.367C30.2792 191.646 33.4058 193.749 40.0753 182.823L34.6024 181.874L41.6943 180.661L44.7622 176.414L39.5298 175.213L46.8622 174.492C49.2231 171.094 51.7914 167.844 54.5525 164.761Z" fill="#224971"/>
<path d="M47.8536 166.355C34.8136 171.094 31.0184 179.982 31.0359 190.48C32.5904 181.722 34.0921 172.84 47.8536 166.355Z" fill="white"/>
<path opacity="0.2" d="M54.5525 164.761C32.5024 165.118 28.1558 178.441 29.7396 189.367C30.2792 191.646 33.4058 193.749 40.0753 182.823L34.6024 181.874L41.6943 180.661L44.7622 176.414L39.5298 175.213L46.8622 174.492C49.2231 171.094 51.7914 167.844 54.5525 164.761Z" fill="white"/>
<path d="M181.72 142.75C175.93 146.769 169.401 149.546 164.574 154.93C155.546 164.984 155.335 181.165 162.427 192.666C169.519 204.166 182.711 211.073 196.144 212.655C210.223 214.319 225.022 210.429 236.08 201.524C247.137 192.619 254.17 178.763 254.164 164.615C254.158 150.466 246.891 136.329 235.006 128.584C224.16 121.554 208.58 119.509 197.699 127.588C192.202 131.689 188.53 137.706 183.034 141.807C182.635 142.124 182.189 142.434 181.72 142.75Z" fill="#224971"/>
<path opacity="0.2" d="M181.72 142.75C175.93 146.769 169.401 149.546 164.574 154.93C155.546 164.984 155.335 181.165 162.427 192.666C169.519 204.166 182.711 211.073 196.144 212.655C210.223 214.319 225.022 210.429 236.08 201.524C247.137 192.619 254.17 178.763 254.164 164.615C254.158 150.466 246.891 136.329 235.006 128.584C224.16 121.554 208.58 119.509 197.699 127.588C192.202 131.689 188.53 137.706 183.034 141.807C182.635 142.124 182.189 142.434 181.72 142.75Z" fill="black"/>
<path opacity="0.1" d="M181.72 142.75C175.93 146.769 169.401 149.546 164.574 154.93C155.546 164.984 155.335 181.165 162.427 192.666C169.519 204.166 182.711 211.073 196.144 212.655C210.223 214.319 225.022 210.429 236.08 201.524C247.137 192.619 254.17 178.763 254.164 164.615C254.158 150.466 246.891 136.329 235.006 128.584C224.16 121.554 208.58 119.509 197.699 127.588C192.202 131.689 188.53 137.706 183.034 141.807C182.635 142.124 182.189 142.434 181.72 142.75Z" fill="white"/>
<path opacity="0.1" d="M184.102 201.67C184.102 201.571 184.131 201.477 184.143 201.383C184.626 198.251 186.075 195.348 188.288 193.078C190.502 190.808 193.369 189.283 196.49 188.717C202.087 187.652 207.45 185.603 212.328 182.665C215.783 180.579 219.051 178.019 222.928 176.888C226.702 175.807 230.732 176.04 234.355 177.55C231.094 174.135 225.509 172.629 221.045 174.176C224.131 169.448 226.852 164.363 227.92 158.82C228.988 153.278 228.225 147.191 224.882 142.645C223.458 140.701 221.62 139.097 219.5 137.948C217.38 136.8 215.032 136.135 212.624 136.003C210.216 135.871 207.809 136.274 205.576 137.183C203.343 138.093 201.339 139.486 199.711 141.262C196.397 144.883 194.531 149.98 192.355 154.374C190.789 157.532 189.176 160.766 186.595 163.162C182.711 166.794 177.115 168.1 173.103 171.575C168.533 175.517 166.562 181.815 166.545 187.844C166.615 191.912 167.207 195.954 168.305 199.872C173.029 204.378 178.666 207.82 184.835 209.966C183.94 207.297 183.689 204.455 184.102 201.67Z" fill="black"/>
<path d="M246.627 162.664C246.443 152.879 242.793 143.477 236.324 136.126C229.856 128.776 220.988 123.953 211.296 122.515C209.951 122.648 208.617 122.872 207.301 123.183C217.495 123.723 227.105 128.099 234.198 135.431C241.29 142.763 245.339 152.506 245.53 162.699C245.794 175.887 239.329 189.332 228.249 198.659C219.567 205.97 208.035 210.821 195.353 212.561C195.622 212.602 195.898 212.637 196.168 212.667C197.306 212.802 198.45 212.895 199.599 212.96C210.862 210.774 221.063 206.14 228.929 199.485C240.286 189.941 246.891 176.18 246.627 162.664Z" fill="white"/>
<path d="M178.986 211.366L180.441 214.243C182.488 212.344 182.864 210.815 182.864 210.815C182.201 208.472 181.427 206.087 181.04 204.927C180.846 206.544 179.743 207.933 179.28 209.509C179.109 210.114 179.011 210.738 178.986 211.366Z" fill="#37474F"/>
<path d="M179.057 214.313L180.441 214.243L178.987 211.366C178.946 212.339 179.028 213.323 179.057 214.313Z" fill="#263238"/>
<path d="M180.113 201.535C179.611 200.81 179.035 200.138 178.394 199.532C178.745 200.788 178.735 202.118 178.365 203.369C177.937 205.033 177.156 206.597 176.763 208.273C176.288 210.312 176.4 212.503 175.531 214.413C175.102 215.339 174.463 216.153 173.663 216.79C172.864 217.427 171.927 217.868 170.927 218.08C170.189 218.285 169.401 218.19 168.733 217.816C168.452 217.617 168.246 217.331 168.146 217.002C167.711 217.91 167.182 218.77 166.568 219.568C165.888 220.447 165.037 221.419 165.225 222.497C165.336 222.948 165.578 223.355 165.92 223.668C166.263 223.981 166.69 224.185 167.149 224.255C168.068 224.384 169.004 224.306 169.888 224.027C171.833 223.607 173.689 222.852 175.373 221.794C177.071 220.712 178.311 219.044 178.857 217.108C179.057 216.174 179.128 215.218 179.069 214.266C179.069 213.282 178.957 212.292 178.998 211.337C179.021 210.709 179.117 210.085 179.286 209.48C179.755 207.904 180.858 206.515 181.045 204.898C181.045 204.81 181.075 204.728 181.081 204.64C181.094 203.529 180.755 202.443 180.113 201.535Z" fill="#455A64"/>
<path opacity="0.1" d="M180.113 201.535C179.611 200.81 179.035 200.138 178.394 199.532C178.745 200.788 178.735 202.118 178.365 203.369C177.937 205.033 177.156 206.597 176.763 208.273C176.288 210.312 176.4 212.503 175.531 214.413C175.102 215.339 174.463 216.153 173.663 216.79C172.864 217.427 171.927 217.868 170.927 218.08C170.189 218.285 169.401 218.19 168.733 217.816C168.452 217.617 168.246 217.331 168.146 217.002C167.711 217.91 167.182 218.77 166.568 219.568C165.888 220.447 165.037 221.419 165.225 222.497C165.336 222.948 165.578 223.355 165.92 223.668C166.263 223.981 166.69 224.185 167.149 224.255C168.068 224.384 169.004 224.306 169.888 224.027C171.833 223.607 173.689 222.852 175.373 221.794C177.071 220.712 178.311 219.044 178.857 217.108C179.057 216.174 179.128 215.218 179.069 214.266C179.069 213.282 178.957 212.292 178.998 211.337C179.021 210.709 179.117 210.085 179.286 209.48C179.755 207.904 180.858 206.515 181.045 204.898C181.045 204.81 181.075 204.728 181.081 204.64C181.094 203.529 180.755 202.443 180.113 201.535Z" fill="black"/>
<path d="M170.927 218.08C171.927 217.868 172.864 217.427 173.663 216.79C174.463 216.153 175.102 215.339 175.531 214.413C176.4 212.503 176.288 210.312 176.763 208.273C177.156 206.597 177.937 205.033 178.365 203.369C178.735 202.118 178.745 200.788 178.394 199.532C178.23 199.368 178.066 199.204 177.895 199.045C175.42 200.323 172.616 201.389 170.358 203.018C170.406 205.902 170.222 208.786 169.806 211.641C169.5 213.497 168.937 215.301 168.135 217.002C168.234 217.331 168.441 217.617 168.721 217.816C169.053 218.003 169.419 218.122 169.798 218.168C170.176 218.213 170.56 218.183 170.927 218.08Z" fill="#FFA8A7"/>
<path d="M162.521 210.476C162.116 212.86 160.286 217.717 160.286 217.717C160.286 217.717 168.856 218.062 169.05 217.67L171.566 213.78L162.521 210.476Z" fill="#FFA8A7"/>
<path d="M188.172 153.718L166.322 165.868C164.34 166.971 162.755 168.668 161.789 170.718C160.824 172.769 160.528 175.071 160.943 177.299L165.184 200.147L161.705 211.19C164.709 215.209 171.601 215.414 171.601 215.414C175.449 207.71 178.271 204.441 180.453 197.985C182.635 191.529 184.096 187.077 184.096 187.077L202.28 182.12C206.434 180.992 210.153 178.647 212.959 175.386C215.764 172.126 217.526 168.1 218.018 163.83C218.329 161.088 218.341 159.219 218.341 159.219L188.172 153.718Z" fill="#455A64"/>
<path opacity="0.2" d="M186.706 160.906C186.709 163.343 187.576 165.701 189.152 167.561L175.373 176.156C173.107 177.571 171.428 179.755 170.645 182.308L165.184 200.147L170.111 180.28C170.678 177.995 172.118 176.023 174.124 174.785L186.724 167.04C185.269 163.408 186.706 160.906 186.706 160.906Z" fill="black"/>
<path d="M164.938 228.79L165.137 232C167.771 231.063 168.715 229.803 168.715 229.803C169.026 227.383 169.255 224.888 169.361 223.669C168.539 225.081 166.979 225.925 165.929 227.184C165.532 227.676 165.199 228.215 164.938 228.79Z" fill="#37474F"/>
<path d="M163.841 231.52L165.137 232L164.938 228.79C164.515 229.663 164.199 230.606 163.841 231.52Z" fill="#263238"/>
<path d="M169.836 220.183C169.66 219.321 169.397 218.479 169.05 217.67C168.877 218.962 168.344 220.18 167.513 221.185C166.463 222.544 165.125 223.675 164.111 225.058C162.867 226.751 162.104 228.807 160.562 230.219C159.801 230.903 158.892 231.402 157.905 231.674C156.919 231.947 155.882 231.986 154.878 231.789C154.121 231.685 153.436 231.287 152.971 230.682C152.786 230.389 152.703 230.043 152.736 229.698C151.98 230.366 151.156 230.955 150.279 231.455C149.305 232 148.138 232.557 147.879 233.64C147.81 234.094 147.875 234.557 148.067 234.974C148.259 235.39 148.569 235.742 148.959 235.984C149.751 236.463 150.641 236.76 151.563 236.851C153.517 237.229 155.522 237.263 157.488 236.951C159.469 236.626 161.261 235.583 162.521 234.021C163.074 233.242 163.518 232.39 163.841 231.49C164.199 230.576 164.515 229.633 164.938 228.76C165.2 228.188 165.533 227.65 165.929 227.161C166.979 225.895 168.539 225.052 169.361 223.646C169.402 223.575 169.454 223.505 169.495 223.423C169.948 222.406 170.067 221.272 169.836 220.183Z" fill="#455A64"/>
<path d="M154.877 231.795C155.882 231.992 156.918 231.953 157.905 231.68C158.892 231.407 159.801 230.909 160.562 230.225C162.104 228.813 162.867 226.757 164.11 225.063C165.125 223.681 166.457 222.55 167.513 221.191C168.344 220.186 168.876 218.968 169.05 217.676L168.786 217.031C166.005 217.236 163.002 217.102 160.286 217.723C159.197 220.394 157.893 222.973 156.385 225.433C155.376 227.022 154.147 228.462 152.736 229.709C152.703 230.054 152.786 230.4 152.971 230.694C153.437 231.297 154.122 231.693 154.877 231.795Z" fill="#FFA8A7"/>
<path d="M210.604 121.454C214.165 113.187 214.375 103.862 211.19 95.4423C210.17 92.7825 208.727 90.1696 206.363 88.5468C203.336 86.508 199.423 86.5373 195.775 86.6427C193.839 86.7013 191.862 86.7599 190.044 87.4278C189.138 87.7352 188.32 88.2578 187.661 88.9508C187.002 89.6437 186.521 90.4862 186.26 91.4058C183.873 90.9664 181.468 92.847 180.823 95.1845C180.177 97.5221 181.022 100.065 182.506 101.986C183.99 103.908 186.026 105.285 188.114 106.544C186.859 107.201 185.932 108.712 185.498 110.059C185.064 111.413 185.166 112.881 185.785 114.161C184.661 114.172 183.567 114.527 182.651 115.179C181.736 115.831 181.042 116.747 180.664 117.805C180.359 118.863 180.313 119.979 180.528 121.06C180.743 122.14 181.214 123.153 181.902 124.015C183.303 125.733 185.233 126.94 187.392 127.448C189.541 127.949 191.761 128.068 193.951 127.799C196.215 129.99 200.362 129.944 203.207 128.584C206.052 127.225 209.343 124.337 210.604 121.454Z" fill="#263238"/>
<path d="M190.337 115.953H189.78C186.055 115.994 181.339 118.531 179.033 125.022L170.082 142.34L180.3 146.863L185.891 130.518L190.337 115.953Z" fill="#FFA8A7"/>
<path d="M183.157 127.448C182.447 129.492 182.401 131.695 182.289 133.892C182.178 136.089 181.925 138.661 180.934 140.589C179.842 139.833 178.533 139.451 177.205 139.499C175.877 139.548 174.601 140.025 173.566 140.858C172.823 141.485 172.254 142.292 171.912 143.202L180.301 146.916L185.891 130.57L188.642 121.56C187.384 122.131 186.251 122.945 185.31 123.956C184.368 124.966 183.637 126.153 183.157 127.448Z" fill="#AB6160"/>
<path d="M180.394 143.746C180.007 142.782 179.379 141.932 178.57 141.279C177.761 140.625 176.797 140.19 175.772 140.014C173.725 139.68 171.408 140.753 170.082 142.358C168.967 143.699 169.143 145.521 169.847 147.121C170.436 148.362 171.436 149.361 172.679 149.949C173.922 150.536 175.33 150.676 176.664 150.343C179.303 149.599 181.392 146.295 180.394 143.746Z" fill="#FFA8A7"/>
<path d="M191.276 115.637C187.334 116.264 184.888 126.223 183.609 130.008C182.283 133.916 184.084 136.751 186.09 139.112C186.453 139.541 186.722 140.041 186.88 140.58C187.039 141.118 187.083 141.684 187.011 142.241L182.893 157.631C194.214 166.027 213.197 161.961 218.347 159.219C218.407 153.842 217.271 148.52 215.021 143.635C213.505 140.48 212.65 137.049 212.51 133.552L212.317 127.905L213.683 118.156L203.852 115.813L195.188 115.426C193.881 115.422 192.575 115.493 191.276 115.637Z" fill="#224971"/>
<path opacity="0.4" d="M191.276 115.637C187.334 116.264 184.888 126.223 183.609 130.008C182.283 133.916 184.084 136.751 186.09 139.112C186.453 139.541 186.722 140.041 186.88 140.58C187.039 141.118 187.083 141.684 187.011 142.241L182.893 157.631C194.214 166.027 213.197 161.961 218.347 159.219C218.407 153.842 217.271 148.52 215.021 143.635C213.505 140.48 212.65 137.049 212.51 133.552L212.317 127.905L213.683 118.156L203.852 115.813L195.188 115.426C193.881 115.422 192.575 115.493 191.276 115.637Z" fill="black"/>
<path d="M191.188 160.103C191.188 160.103 191.188 160.103 191.188 160.068C191.188 160.033 191.188 160.033 191.188 159.998V159.963V159.934V159.898L184.5 147.461V147.425V147.39V147.355L184.471 147.314V147.273C184.442 147.232 184.442 147.232 184.413 147.191L184.377 147.156L184.348 147.115V147.086V147.056V147.027L184.248 146.939H184.213H184.184H184.149H184.107L184.066 146.91H184.019L175.267 141.696H175.221H175.18H175.133H175.092H175.05H175.009H174.974H174.933H174.886H174.845H174.798H174.681C174.637 141.697 174.596 141.714 174.564 141.743L173.648 142.791H173.678C173.602 142.85 173.596 142.973 173.707 143.178L180.394 155.616C180.769 156.192 181.276 156.67 181.873 157.01L189.563 161.334C189.956 161.556 190.196 161.562 190.232 161.398C190.232 161.398 190.232 161.457 190.232 161.469L191.152 160.42C191.156 160.404 191.156 160.388 191.152 160.373C191.155 160.359 191.155 160.345 191.152 160.332L191.188 160.103ZM173.848 142.575C173.848 142.575 173.848 142.575 173.901 142.575H173.93H173.848ZM182.647 147.537C182.717 147.595 182.793 147.654 182.858 147.718C182.811 147.654 182.735 147.595 182.664 147.537H182.647ZM190.267 161.181C190.256 161.093 190.228 161.007 190.185 160.93C190.225 161.001 190.252 161.078 190.267 161.158C190.267 161.158 190.261 161.146 190.267 161.181Z" fill="#455A64"/>
<path opacity="0.15" d="M191.188 160.104C191.188 160.104 191.188 160.104 191.188 160.068C191.188 160.033 191.188 160.033 191.188 159.998V159.963V159.934V159.898L184.501 147.461L183.48 148.468L190.173 160.906C190.213 160.977 190.241 161.054 190.255 161.135C190.262 161.159 190.263 161.184 190.258 161.209C190.253 161.233 190.242 161.256 190.226 161.275L191.147 160.227C191.15 160.211 191.15 160.195 191.147 160.18C191.149 160.166 191.149 160.152 191.147 160.139L191.188 160.104Z" fill="white"/>
<path opacity="0.2" d="M184.389 147.385V147.349V147.314L184.36 147.273V147.232C184.33 147.191 184.33 147.191 184.301 147.15L184.266 147.115L184.237 147.074V147.045V147.015V146.986L184.137 146.898H184.102H184.072H184.037H183.996L183.955 146.869H183.908L175.268 141.696H175.221H175.18H175.133H175.092H175.051H175.009H174.974H174.933H174.886H174.845H174.798H174.681C174.638 141.697 174.596 141.714 174.564 141.743L173.649 142.791C173.692 142.744 173.768 142.733 173.877 142.756C174.026 142.795 174.168 142.854 174.3 142.932L181.99 147.256C182.144 147.339 182.292 147.435 182.43 147.543C182.577 147.656 182.718 147.777 182.852 147.906C182.983 148.026 183.104 148.155 183.216 148.293C183.312 148.405 183.396 148.527 183.468 148.656L184.389 147.607V147.385Z" fill="white"/>
<path d="M217.455 121.413C216.364 119.545 214.933 118.109 212.763 117.945C212.763 117.945 209.243 119.773 209.243 128.069L209.478 148.826C208.967 149.031 208.457 149.248 207.952 149.458C203.662 151.301 199.178 152.655 194.584 153.495C192.189 151.595 189.207 150.584 186.149 150.636L187.281 152.745C185.134 154.122 180.277 151.644 180.277 151.644C179.919 154.667 181.884 157.807 184.489 159.395C187.093 160.982 211.93 158.651 217.197 155.247C220.664 153.009 219.843 131.607 219.843 131.607C220.082 128.048 219.25 124.498 217.455 121.413Z" fill="#FFA8A7"/>
<path d="M175.027 145.363C174.861 146.18 174.767 147.009 174.745 147.841C174.938 149.825 175.779 151.691 177.139 153.149C177.42 153.47 177.774 153.719 178.171 153.876C178.366 153.952 178.577 153.974 178.783 153.941C178.989 153.908 179.183 153.821 179.344 153.688C179.636 153.34 179.785 152.894 179.761 152.44C179.827 151.769 179.789 151.091 179.649 150.431C179.512 149.763 179.134 149.169 178.588 148.761C178.165 148.512 177.714 148.315 177.244 148.175C176.793 147.978 176.392 147.682 176.071 147.308L175.027 145.363Z" fill="#FFA8A7"/>
<path d="M195.159 111.577V119.416C194.39 120.142 193.651 120.974 193.581 122.011C193.568 122.507 193.691 122.998 193.939 123.429C194.186 123.86 194.547 124.214 194.983 124.454C195.87 124.923 196.907 125.024 197.869 124.735C198.82 124.442 199.693 123.937 200.421 123.259C201.453 122.306 202.286 121.157 202.87 119.88C203.454 118.603 203.778 117.222 203.823 115.818V107.868L195.159 111.577Z" fill="#FFA8A7"/>
<path d="M203.489 107.868C202.667 112.18 200.984 115.918 195.159 117.242V111.548L203.489 107.868Z" fill="#AB6160"/>
<path d="M201.453 103.334C201.368 104.025 201.368 104.723 201.453 105.414C201.548 105.935 201.81 106.412 202.198 106.773C202.387 106.944 202.615 107.067 202.863 107.129C203.111 107.191 203.37 107.192 203.618 107.13C203.453 106.451 203.558 105.734 203.91 105.13C204.262 104.526 204.834 104.08 205.506 103.887C206.179 103.694 206.9 103.767 207.52 104.092C208.139 104.417 208.61 104.968 208.832 105.63C208.971 106.108 209.002 106.61 208.924 107.101C208.846 107.593 208.66 108.06 208.381 108.472C207.814 109.292 207.066 109.97 206.193 110.452C205.69 110.643 205.136 110.651 204.628 110.476C204.12 110.3 203.689 109.952 203.412 109.491C200.908 112.942 196.408 115.637 192.085 115.449C190.902 115.435 189.747 115.081 188.759 114.43C187.082 113.258 186.882 111.343 186.601 109.468C186.195 107.103 186.114 104.695 186.36 102.309C186.753 99.0161 188.079 95.7353 190.537 93.5208C192.279 100.563 198.931 102.912 201.453 103.334Z" fill="#FFA8A7"/>
<path d="M192.443 102.889L189.639 106.644L192.425 107.476L192.443 102.889Z" fill="#AB6160"/>
<path d="M195.018 109.145L192.748 109.966C192.909 110.229 193.15 110.433 193.437 110.547C193.724 110.661 194.04 110.679 194.338 110.598C194.6 110.47 194.811 110.256 194.935 109.992C195.058 109.728 195.088 109.429 195.018 109.145Z" fill="#AB6160"/>
<path opacity="0.3" d="M195.018 109.145L192.748 109.966C192.909 110.229 193.15 110.433 193.437 110.547C193.724 110.661 194.04 110.679 194.338 110.598C194.6 110.47 194.811 110.256 194.935 109.992C195.058 109.728 195.088 109.429 195.018 109.145Z" fill="black"/>
<path d="M193.581 110.593C193.828 110.666 194.091 110.666 194.338 110.593C194.544 110.5 194.72 110.349 194.843 110.159C194.965 109.969 195.03 109.747 195.03 109.52C194.698 109.479 194.362 109.567 194.093 109.765C193.823 109.964 193.64 110.258 193.581 110.587V110.593Z" fill="#AB6160"/>
<path d="M196.537 103.48C196.537 103.643 196.489 103.802 196.399 103.937C196.308 104.072 196.179 104.177 196.029 104.239C195.879 104.3 195.713 104.316 195.554 104.284C195.394 104.252 195.248 104.173 195.133 104.058C195.019 103.943 194.941 103.796 194.91 103.637C194.879 103.477 194.896 103.312 194.959 103.162C195.022 103.013 195.128 102.885 195.264 102.795C195.4 102.706 195.559 102.659 195.722 102.66C195.83 102.66 195.936 102.681 196.035 102.723C196.135 102.764 196.225 102.824 196.301 102.901C196.376 102.977 196.436 103.067 196.477 103.167C196.518 103.266 196.538 103.373 196.537 103.48Z" fill="#263238"/>
<path d="M189.657 103.181C189.653 103.399 189.565 103.606 189.41 103.758C189.255 103.91 189.047 103.996 188.829 103.996C188.612 103.996 188.403 103.909 188.249 103.756C188.095 103.602 188.008 103.393 188.008 103.176C188.008 102.958 188.095 102.749 188.249 102.596C188.403 102.442 188.612 102.355 188.829 102.355C188.938 102.355 189.046 102.377 189.146 102.418C189.246 102.46 189.337 102.521 189.414 102.597C189.491 102.674 189.552 102.765 189.594 102.865C189.635 102.966 189.657 103.073 189.657 103.181Z" fill="#263238"/>
<path d="M188.87 99.9241L187.046 101.172C186.969 100.947 186.962 100.703 187.027 100.474C187.092 100.245 187.226 100.041 187.41 99.8889C187.632 99.7582 187.887 99.6922 188.145 99.6984C188.403 99.7046 188.654 99.7828 188.87 99.9241Z" fill="#263238"/>
<path d="M195.892 99.8538L197.705 101.119C197.785 100.895 197.795 100.651 197.733 100.421C197.671 100.19 197.541 99.9845 197.359 99.8303C197.136 99.6973 196.881 99.629 196.622 99.6332C196.363 99.6373 196.11 99.7137 195.892 99.8538Z" fill="#263238"/>
</svg>
