<svg width="34" height="34" viewBox="0 0 34 34" fill="none" xmlns="http://www.w3.org/2000/svg">
<mask id="mask0_293_1527" style="mask-type:alpha" maskUnits="userSpaceOnUse" x="-4" y="-4" width="42" height="42">
<rect x="-3.39993" y="-3.40017" width="40.8001" height="40.8001" fill="#D9D9D9"/>
</mask>
<g mask="url(#mask0_293_1527)">
<path d="M17 25.5001C17.4817 25.5001 17.8855 25.3371 18.2113 25.0113C18.5371 24.6855 18.7 24.2817 18.7 23.8001C18.7 23.3184 18.5371 22.9146 18.2113 22.5888C17.8855 22.263 17.4817 22.1001 17 22.1001C16.5184 22.1001 16.1146 22.263 15.7888 22.5888C15.463 22.9146 15.3 23.3184 15.3 23.8001C15.3 24.2817 15.463 24.6855 15.7888 25.0113C16.1146 25.3371 16.5184 25.5001 17 25.5001ZM15.3 18.7H18.7V8.50002H15.3V18.7ZM17 34.0001C14.6484 34.0001 12.4384 33.5538 10.37 32.6613C8.30169 31.7688 6.50252 30.5576 4.97251 29.0276C3.44251 27.4976 2.23126 25.6984 1.33875 23.6301C0.446251 21.5617 0 19.3517 0 17C0 14.6484 0.446251 12.4384 1.33875 10.37C2.23126 8.30169 3.44251 6.50252 4.97251 4.97251C6.50252 3.44251 8.30169 2.23126 10.37 1.33875C12.4384 0.446251 14.6484 0 17 0C19.3517 0 21.5617 0.446251 23.6301 1.33875C25.6984 2.23126 27.4976 3.44251 29.0276 4.97251C30.5576 6.50252 31.7688 8.30169 32.6613 10.37C33.5538 12.4384 34.0001 14.6484 34.0001 17C34.0001 19.3517 33.5538 21.5617 32.6613 23.6301C31.7688 25.6984 30.5576 27.4976 29.0276 29.0276C27.4976 30.5576 25.6984 31.7688 23.6301 32.6613C21.5617 33.5538 19.3517 34.0001 17 34.0001ZM17 30.6001C20.7967 30.6001 24.0126 29.2826 26.6476 26.6476C29.2826 24.0126 30.6001 20.7967 30.6001 17C30.6001 13.2034 29.2826 9.98752 26.6476 7.35252C24.0126 4.71751 20.7967 3.40001 17 3.40001C13.2034 3.40001 9.98752 4.71751 7.35252 7.35252C4.71751 9.98752 3.40001 13.2034 3.40001 17C3.40001 20.7967 4.71751 24.0126 7.35252 26.6476C9.98752 29.2826 13.2034 30.6001 17 30.6001Z" fill="#E33629"/>
</g>
</svg>
