<svg width="32" height="32" viewBox="0 0 32 32" fill="none" xmlns="http://www.w3.org/2000/svg">
<g clip-path="url(#clip0_43_246)">
<path d="M20 25.3334C20.0002 26.0061 19.7461 26.6541 19.2887 27.1474C18.8312 27.6407 18.2042 27.9429 17.5333 27.9934L17.3333 28H14.6667C13.9939 28.0002 13.3459 27.7461 12.8526 27.2887C12.3593 26.8312 12.0571 26.2042 12.0067 25.5334L12 25.3334H20ZM16 2.66669C18.42 2.66665 20.7454 3.60655 22.4856 5.28812C24.2259 6.96969 25.245 9.26147 25.328 11.68L25.3333 12V17.0187L27.7627 21.8774C27.8687 22.0894 27.9217 22.3239 27.9173 22.5609C27.9129 22.7979 27.851 23.0303 27.7371 23.2381C27.6232 23.446 27.4607 23.6232 27.2633 23.7545C27.066 23.8858 26.8397 23.9673 26.604 23.992L26.4507 24H5.54933C5.31222 24.0001 5.07862 23.9427 4.86856 23.8327C4.6585 23.7227 4.47824 23.5634 4.34322 23.3685C4.20821 23.1736 4.12246 22.9488 4.09334 22.7135C4.06422 22.4782 4.09258 22.2393 4.176 22.0174L4.23733 21.8774L6.66667 17.0187V12C6.66667 9.52467 7.65 7.1507 9.40034 5.40036C11.1507 3.65002 13.5246 2.66669 16 2.66669Z" fill="#1D4870" fill-opacity="0.8"/>
</g>
<defs>
<clipPath id="clip0_43_246">
<rect width="32" height="32" fill="white"/>
</clipPath>
</defs>
</svg>
