<svg width="20" height="20" viewBox="0 0 20 20" fill="none" xmlns="http://www.w3.org/2000/svg">
<g clip-path="url(#clip0_1_210)">
<path d="M5.89874 19.6256C5.50442 19.3632 5.15494 19.0391 4.86374 18.6656C4.54342 18.2801 4.24663 17.8756 3.97499 17.4543C3.33754 16.5205 2.83763 15.4998 2.49061 14.4237C2.07374 13.1737 1.87186 11.9756 1.87186 10.8037C1.87186 9.49497 2.15499 8.35247 2.70874 7.39247C3.11922 6.64212 3.72275 6.01508 4.45686 5.57622C5.1683 5.13433 5.98576 4.8925 6.82311 4.87622C7.11624 4.87622 7.43186 4.91872 7.76686 4.99997C8.00748 5.0681 8.30061 5.17559 8.65873 5.30934C9.11436 5.48497 9.36498 5.59247 9.44998 5.61872C9.71686 5.71622 9.94123 5.75872 10.1175 5.75872C10.2512 5.75872 10.44 5.71622 10.6544 5.65122C10.775 5.60872 11.0025 5.53372 11.3281 5.39434C11.6506 5.27684 11.9044 5.17622 12.1062 5.10122C12.4156 5.00997 12.715 4.92559 12.9819 4.88309C13.2982 4.83322 13.6193 4.82 13.9387 4.84372C14.4922 4.8799 15.0374 4.99719 15.5569 5.19184C16.4062 5.53372 17.0931 6.06747 17.6044 6.82622C17.3883 6.9594 17.1855 7.11302 16.9987 7.28497C16.5922 7.64533 16.246 8.06838 15.9731 8.53809C15.6164 9.18 15.4315 9.90313 15.4362 10.6375C15.4494 11.5393 15.6806 12.3337 16.1362 13.0206C16.4712 13.5297 16.9065 13.965 17.4156 14.3C17.6762 14.4756 17.9006 14.5962 18.1156 14.6775C18.015 14.99 17.9075 15.2925 17.7806 15.5925C17.4929 16.2652 17.1441 16.9102 16.7387 17.5193C16.3775 18.0437 16.0944 18.4343 15.8794 18.6943C15.5444 19.0912 15.2219 19.3943 14.8962 19.6056C14.5381 19.8431 14.115 19.97 13.685 19.97C13.3938 19.9811 13.1026 19.9459 12.8225 19.8656C12.5819 19.7843 12.3437 19.6962 12.1094 19.5956C11.8657 19.4837 11.6144 19.3891 11.3575 19.3125C10.7223 19.1493 10.0563 19.1482 9.42061 19.3093C9.15998 19.3843 8.90936 19.4718 8.66186 19.5793C8.31373 19.7256 8.08248 19.8237 7.94873 19.8656C7.68186 19.9437 7.40498 19.9925 7.12498 20.0087C6.69186 20.0087 6.28811 19.885 5.88811 19.6343L5.89874 19.6256ZM11.6112 4.24122C11.045 4.52434 10.5044 4.64497 9.96748 4.60559C9.88311 4.06497 9.96748 3.51185 10.1919 2.90622C10.3829 2.39314 10.6651 1.91884 11.025 1.50622C11.405 1.07186 11.8661 0.715832 12.3825 0.458097C12.9325 0.174972 13.4569 0.0218475 13.9581 -0.000652444C14.0231 0.565597 13.9581 1.12247 13.75 1.72435C13.5574 2.2564 13.2756 2.7518 12.9169 3.18935C12.5506 3.6243 12.1012 3.98171 11.595 4.24059L11.6112 4.24122Z" fill="black"/>
</g>
<defs>
<clipPath id="clip0_1_210">
<rect width="19.6452" height="19.6452" fill="white" transform="scale(1.01806)"/>
</clipPath>
</defs>
</svg>
