<svg width="34" height="34" viewBox="0 0 34 34" fill="none" xmlns="http://www.w3.org/2000/svg">
<rect width="34" height="34" rx="17" fill="#DAE6F2"/>
<mask id="mask0_202_3453" style="mask-type:alpha" maskUnits="userSpaceOnUse" x="5" y="5" width="24" height="25">
<rect x="5" y="5.18848" width="24" height="24" fill="#224971"/>
</mask>
<g mask="url(#mask0_202_3453)">
<path d="M16.3506 21.7383H17.6506V15.9884H16.3506V21.7383ZM16.9953 14.4768C17.1944 14.4768 17.363 14.4095 17.5011 14.2749C17.6392 14.1403 17.7083 13.9734 17.7083 13.7744C17.7083 13.5754 17.641 13.4068 17.5063 13.2687C17.3717 13.1305 17.2049 13.0615 17.0059 13.0615C16.8069 13.0615 16.6383 13.1288 16.5001 13.2634C16.362 13.3981 16.2929 13.5649 16.2929 13.7639C16.2929 13.9629 16.3603 14.1315 16.4949 14.2696C16.6295 14.4078 16.7963 14.4768 16.9953 14.4768ZM17.0092 26.2883C15.7573 26.2883 14.5783 26.0515 13.4722 25.5778C12.366 25.1042 11.3979 24.4524 10.5676 23.6226C9.7374 22.7927 9.08534 21.8253 8.61146 20.7204C8.13758 19.6155 7.90063 18.4349 7.90063 17.1786C7.90063 15.9223 8.13747 14.7452 8.61113 13.6474C9.0848 12.5496 9.73655 11.5856 10.5664 10.7554C11.3962 9.92515 12.3636 9.27309 13.4686 8.79921C14.5735 8.32532 15.7541 8.08838 17.0104 8.08838C18.2667 8.08838 19.4437 8.32521 20.5415 8.79888C21.6394 9.27255 22.6034 9.9243 23.4336 10.7541C24.2638 11.584 24.9159 12.5494 25.3898 13.6505C25.8636 14.7515 26.1006 15.9279 26.1006 17.1798C26.1006 18.4316 25.8638 19.6106 25.3901 20.7168C24.9164 21.8229 24.2647 22.7911 23.4348 23.6213C22.605 24.4516 21.6395 25.1036 20.5385 25.5775C19.4375 26.0514 18.261 26.2883 17.0092 26.2883ZM17.0006 24.9884C19.1673 24.9884 21.0089 24.23 22.5256 22.7134C24.0423 21.1967 24.8006 19.355 24.8006 17.1884C24.8006 15.0217 24.0423 13.18 22.5256 11.6634C21.0089 10.1467 19.1673 9.38835 17.0006 9.38835C14.8339 9.38835 12.9923 10.1467 11.4756 11.6634C9.95894 13.18 9.20061 15.0217 9.20061 17.1884C9.20061 19.355 9.95894 21.1967 11.4756 22.7134C12.9923 24.23 14.8339 24.9884 17.0006 24.9884Z" fill="#224971"/>
</g>
</svg>
