<svg width="279" height="220" viewBox="0 0 279 220" fill="none" xmlns="http://www.w3.org/2000/svg">
<path d="M244.191 94.8516V87.035C244.191 85.5445 243.6 84.115 242.547 83.0611C241.494 82.0071 240.066 81.415 238.577 81.415H218.761C218.024 81.415 217.294 81.2696 216.613 80.9872C215.932 80.7047 215.313 80.2908 214.791 79.7689C214.27 79.247 213.857 78.6275 213.574 77.9456C213.292 77.2637 213.147 76.5329 213.147 75.7949V67.9784C213.147 67.2403 213.292 66.5095 213.574 65.8277C213.857 65.1458 214.27 64.5263 214.791 64.0044C215.313 63.4825 215.932 63.0685 216.613 62.7861C217.294 62.5037 218.024 62.3583 218.761 62.3583H219.387C220.876 62.3583 222.304 61.7662 223.357 60.7122C224.409 59.6583 225.001 58.2288 225.001 56.7382V48.9217C225.001 47.4312 224.409 46.0017 223.357 44.9477C222.304 43.8938 220.876 43.3016 219.387 43.3016H72.6298C71.1408 43.3016 69.7129 43.8938 68.66 44.9477C67.6072 46.0017 67.0157 47.4312 67.0157 48.9217V56.7382C67.0157 58.2288 67.6072 59.6583 68.66 60.7122C69.7129 61.7662 71.1408 62.3583 72.6298 62.3583C74.1187 62.3583 75.5467 62.9504 76.5996 64.0044C77.6524 65.0584 78.2439 66.4878 78.2439 67.9784V75.7949C78.2439 77.2854 77.6524 78.7149 76.5996 79.7689C75.5467 80.8229 74.1187 81.415 72.6298 81.415H50.9196C49.4306 81.415 48.0026 82.0071 46.9498 83.0611C45.8969 84.115 45.3055 85.5445 45.3055 87.035V94.8516C45.3055 96.3421 45.8969 97.7716 46.9498 98.8256C48.0026 99.8795 49.4306 100.472 50.9196 100.472H59.4383C60.1756 100.472 60.9056 100.617 61.5868 100.899C62.2679 101.182 62.8868 101.596 63.4081 102.118C63.9294 102.64 64.343 103.259 64.6251 103.941C64.9072 104.623 65.0524 105.354 65.0524 106.092V113.908C65.0524 114.646 64.9072 115.377 64.6251 116.059C64.343 116.741 63.9294 117.36 63.4081 117.882C62.8868 118.404 62.2679 118.818 61.5868 119.101C60.9056 119.383 60.1756 119.528 59.4383 119.528H59.4177C57.9288 119.528 56.5008 120.12 55.448 121.174C54.3951 122.228 53.8037 123.658 53.8037 125.148V132.965C53.8037 133.703 53.9489 134.434 54.231 135.116C54.5131 135.797 54.9267 136.417 55.448 136.939C55.9693 137.461 56.5882 137.875 57.2693 138.157C57.9505 138.44 58.6805 138.585 59.4178 138.585H60.6502C62.1392 138.585 63.5672 139.177 64.62 140.231C65.6729 141.285 66.2643 142.715 66.2643 144.205V152.022C66.2643 153.512 65.6729 154.942 64.62 155.996C63.5672 157.05 62.1392 157.642 60.6502 157.642H40.4229C38.934 157.642 37.506 158.234 36.4532 159.288C35.4003 160.342 34.8088 161.771 34.8088 163.262V171.078C34.8088 172.569 35.4003 173.998 36.4532 175.052C37.506 176.106 38.934 176.698 40.4229 176.698H222.401C223.89 176.698 225.318 176.106 226.371 175.052C227.424 173.998 228.015 172.569 228.015 171.078V163.262C228.015 161.771 227.424 160.342 226.371 159.288C225.318 158.234 223.89 157.642 222.401 157.642H217.533C216.044 157.642 214.616 157.05 213.563 155.996C212.511 154.942 211.919 153.512 211.919 152.022V144.205C211.919 142.715 212.511 141.285 213.563 140.231C214.616 139.177 216.044 138.585 217.533 138.585H229.011C229.748 138.585 230.478 138.44 231.159 138.157C231.84 137.875 232.459 137.461 232.981 136.939C233.502 136.417 233.915 135.797 234.198 135.116C234.48 134.434 234.625 133.703 234.625 132.965V125.148C234.625 123.658 234.033 122.228 232.981 121.174C231.928 120.12 230.5 119.528 229.011 119.528H225.529C224.792 119.528 224.062 119.383 223.381 119.101C222.699 118.818 222.081 118.404 221.559 117.882C221.038 117.36 220.624 116.741 220.342 116.059C220.06 115.377 219.915 114.646 219.915 113.908V106.092C219.915 105.354 220.06 104.623 220.342 103.941C220.624 103.259 221.038 102.64 221.559 102.118C222.081 101.596 222.699 101.182 223.381 100.899C224.062 100.617 224.792 100.472 225.529 100.472H238.577C240.066 100.472 241.494 99.8795 242.547 98.8256C243.6 97.7716 244.191 96.3421 244.191 94.8516Z" fill="#DBE8EC"/>
<path d="M161.992 99.6003H93.3839V162.094H161.992V99.6003Z" fill="#224971"/>
<path d="M198.46 99.6003H161.992V162.094H198.46V99.6003Z" fill="#8797A8"/>
<path d="M198.46 99.7552H161.992L174.483 82.6993C174.603 82.5359 174.759 82.4031 174.94 82.3116C175.12 82.2201 175.319 82.1724 175.522 82.1724H208.796C209.034 82.1724 209.267 82.2384 209.47 82.363C209.673 82.4877 209.837 82.6662 209.944 82.8787C210.052 83.0911 210.099 83.3293 210.079 83.5667C210.06 83.8041 209.975 84.0315 209.834 84.2236L198.46 99.7552Z" fill="#224971"/>
<path d="M93.5536 99.7552H130.021L117.53 82.6993C117.41 82.5359 117.254 82.4031 117.074 82.3116C116.893 82.2201 116.694 82.1724 116.491 82.1724H83.2174C82.9794 82.1724 82.7461 82.2384 82.5434 82.363C82.3406 82.4877 82.1764 82.6662 82.0688 82.8787C81.9612 83.0911 81.9146 83.3293 81.934 83.5667C81.9534 83.8041 82.0382 84.0315 82.1789 84.2236L93.5536 99.7552Z" fill="#8797A8"/>
<path d="M219.033 122.529L198.46 99.7551V124.66H218.058C218.305 124.66 218.547 124.589 218.754 124.456C218.962 124.322 219.126 124.132 219.229 123.908C219.332 123.683 219.368 123.434 219.333 123.189C219.299 122.945 219.195 122.716 219.033 122.529Z" fill="#224971"/>
<path d="M153.556 66.0822H105.974V99.755H153.556V66.0822Z" fill="#EE781D"/>
<path d="M128.374 101.834H115.284C115.031 101.834 114.783 101.767 114.564 101.641C114.345 101.514 114.163 101.332 114.037 101.113C113.911 100.894 113.844 100.646 113.844 100.393C113.844 100.14 113.911 99.8912 114.037 99.6721L120.582 88.3232L127.128 76.9742C127.254 76.7551 127.436 76.5732 127.654 76.4467C127.873 76.3203 128.122 76.2537 128.374 76.2537C128.627 76.2537 128.875 76.3203 129.094 76.4467C129.313 76.5732 129.495 76.7551 129.621 76.9742L136.166 88.3232L142.712 99.6721C142.838 99.8912 142.905 100.14 142.905 100.393C142.905 100.646 142.838 100.894 142.712 101.113C142.585 101.332 142.404 101.514 142.185 101.641C141.966 101.767 141.718 101.834 141.465 101.834H128.374Z" fill="#DBE8EC"/>
<path d="M129.094 83.3503C129.094 82.9522 128.772 82.6294 128.374 82.6294C127.976 82.6294 127.654 82.9522 127.654 83.3503V94.0977C127.654 94.4959 127.976 94.8187 128.374 94.8187C128.772 94.8187 129.094 94.4959 129.094 94.0977V83.3503Z" fill="#224971"/>
<path d="M130.089 97.81C130.183 96.8621 129.491 96.0175 128.544 95.9237C127.597 95.8298 126.753 96.5222 126.66 97.4701C126.566 98.4181 127.258 99.2626 128.204 99.3565C129.151 99.4503 129.995 98.758 130.089 97.81Z" fill="#224971"/>
<path d="M139.786 124.66H74.5793C74.3327 124.66 74.0913 124.589 73.8837 124.456C73.6762 124.322 73.5113 124.132 73.4086 123.908C73.3059 123.683 73.2697 123.434 73.3044 123.189C73.3391 122.945 73.4432 122.716 73.6043 122.529L93.2294 99.7551H161.838L140.761 124.213C140.64 124.353 140.491 124.466 140.323 124.543C140.154 124.62 139.971 124.66 139.786 124.66Z" fill="#224971"/>
<path d="M203.579 145.378C205.205 145.378 205.205 146.238 206.832 146.238C208.458 146.238 208.458 145.378 210.084 145.378C211.711 145.378 211.711 146.238 213.339 146.238C214.966 146.238 214.966 145.378 216.593 145.378" stroke="#B9D4DB" stroke-width="3" stroke-miterlimit="10" stroke-linecap="round"/>
<path d="M203.579 149.133C205.205 149.133 205.205 149.993 206.832 149.993C208.458 149.993 208.458 149.133 210.084 149.133C211.711 149.133 211.711 149.993 213.339 149.993C214.966 149.993 214.966 149.133 216.593 149.133" stroke="#B9D4DB" stroke-width="3" stroke-miterlimit="10" stroke-linecap="round"/>
<path d="M203.579 152.888C205.205 152.888 205.205 153.748 206.832 153.748C208.458 153.748 208.458 152.888 210.084 152.888C211.711 152.888 211.711 153.748 213.339 153.748C214.966 153.748 214.966 152.888 216.593 152.888" stroke="#B9D4DB" stroke-width="3" stroke-miterlimit="10" stroke-linecap="round"/>
<path d="M47.7234 125.519C49.35 125.519 49.35 126.378 50.9767 126.378C52.6028 126.378 52.6028 125.519 54.2289 125.519C55.8562 125.519 55.8562 126.378 57.4834 126.378C59.1107 126.378 59.1107 125.519 60.7379 125.519" stroke="#B9D4DB" stroke-width="3" stroke-miterlimit="10" stroke-linecap="round"/>
<path d="M47.7234 129.274C49.35 129.274 49.35 130.134 50.9767 130.134C52.6028 130.134 52.6028 129.274 54.2289 129.274C55.8562 129.274 55.8562 130.134 57.4834 130.134C59.1107 130.134 59.1107 129.274 60.7379 129.274" stroke="#B9D4DB" stroke-width="3" stroke-miterlimit="10" stroke-linecap="round"/>
<path d="M47.7234 133.029C49.35 133.029 49.35 133.889 50.9767 133.889C52.6028 133.889 52.6028 133.029 54.2289 133.029C55.8562 133.029 55.8562 133.889 57.4834 133.889C59.1107 133.889 59.1107 133.029 60.7379 133.029" stroke="#B9D4DB" stroke-width="3" stroke-miterlimit="10" stroke-linecap="round"/>
<path d="M120.144 51.7959C121.771 51.7959 121.771 52.6553 123.397 52.6553C125.023 52.6553 125.023 51.7959 126.649 51.7959C128.277 51.7959 128.277 52.6553 129.904 52.6553C131.531 52.6553 131.531 51.7959 133.158 51.7959" stroke="#B9D4DB" stroke-width="3" stroke-miterlimit="10" stroke-linecap="round"/>
<path d="M120.144 55.551C121.771 55.551 121.771 56.4104 123.397 56.4104C125.023 56.4104 125.023 55.551 126.649 55.551C128.277 55.551 128.277 56.4104 129.904 56.4104C131.531 56.4104 131.531 55.551 133.158 55.551" stroke="#B9D4DB" stroke-width="3" stroke-miterlimit="10" stroke-linecap="round"/>
<path d="M120.144 59.3062C121.771 59.3062 121.771 60.1655 123.397 60.1655C125.023 60.1655 125.023 59.3062 126.649 59.3062C128.277 59.3062 128.277 60.1655 129.904 60.1655C131.531 60.1655 131.531 59.3062 133.158 59.3062" stroke="#B9D4DB" stroke-width="3" stroke-miterlimit="10" stroke-linecap="round"/>
<path d="M78.852 173.667C81.9243 173.667 84.4148 171.174 84.4148 168.098C84.4148 165.023 81.9243 162.53 78.852 162.53C75.7797 162.53 73.2892 165.023 73.2892 168.098C73.2892 171.174 75.7797 173.667 78.852 173.667Z" fill="#B9D4DB"/>
<path d="M82.8885 156.296C84.4815 156.296 85.7729 155.004 85.7729 153.409C85.7729 151.814 84.4815 150.521 82.8885 150.521C81.2954 150.521 80.004 151.814 80.004 153.409C80.004 155.004 81.2954 156.296 82.8885 156.296Z" fill="#B9D4DB"/>
<path d="M94.3117 172.842C96.5874 172.842 98.4323 170.995 98.4323 168.717C98.4323 166.439 96.5874 164.592 94.3117 164.592C92.0359 164.592 90.191 166.439 90.191 168.717C90.191 170.995 92.0359 172.842 94.3117 172.842Z" fill="#B9D4DB"/>
<path d="M73.3853 98.0207C77.0407 98.0207 80.004 95.0543 80.004 91.395C80.004 87.7357 77.0407 84.7693 73.3853 84.7693C69.7299 84.7693 66.7666 87.7357 66.7666 91.395C66.7666 95.0543 69.7299 98.0207 73.3853 98.0207Z" fill="#B9D4DB"/>
<path d="M60.7378 90.1271C62.6419 90.1271 64.1854 88.5819 64.1854 86.6758C64.1854 84.7698 62.6419 83.2246 60.7378 83.2246C58.8338 83.2246 57.2903 84.7698 57.2903 86.6758C57.2903 88.5819 58.8338 90.1271 60.7378 90.1271Z" fill="#B9D4DB"/>
<path d="M63.9045 76.9349C65.0028 76.9349 65.8932 76.0436 65.8932 74.9441C65.8932 73.8447 65.0028 72.9534 63.9045 72.9534C62.8062 72.9534 61.9159 73.8447 61.9159 74.9441C61.9159 76.0436 62.8062 76.9349 63.9045 76.9349Z" fill="#B9D4DB"/>
<path d="M74.9132 81.125C77.5461 81.125 79.6805 78.9883 79.6805 76.3526C79.6805 73.717 77.5461 71.5803 74.9132 71.5803C72.2804 71.5803 70.146 73.717 70.146 76.3526C70.146 78.9883 72.2804 81.125 74.9132 81.125Z" fill="#B9D4DB"/>
<path d="M188.427 65.8868C192.082 65.8868 195.046 62.9204 195.046 59.2611C195.046 55.6018 192.082 52.6354 188.427 52.6354C184.772 52.6354 181.808 55.6018 181.808 59.2611C181.808 62.9204 184.772 65.8868 188.427 65.8868Z" fill="#B9D4DB"/>
<path d="M198.958 54.2612C200.862 54.2612 202.406 52.7161 202.406 50.81C202.406 48.9039 200.862 47.3588 198.958 47.3588C197.054 47.3588 195.511 48.9039 195.511 50.81C195.511 52.7161 197.054 54.2612 198.958 54.2612Z" fill="#B9D4DB"/>
<path d="M212.128 72.7354C213.776 72.7354 215.112 71.3981 215.112 69.7484C215.112 68.0987 213.776 66.7614 212.128 66.7614C210.48 66.7614 209.144 68.0987 209.144 69.7484C209.144 71.3981 210.48 72.7354 212.128 72.7354Z" fill="#B9D4DB"/>
<path d="M207.397 61.5368C208.495 61.5368 209.386 60.6455 209.386 59.5461C209.386 58.4466 208.495 57.5553 207.397 57.5553C206.299 57.5553 205.408 58.4466 205.408 59.5461C205.408 60.6455 206.299 61.5368 207.397 61.5368Z" fill="#B9D4DB"/>
<path d="M200.545 73.0583C203.178 73.0583 205.313 70.9217 205.313 68.286C205.313 65.6503 203.178 63.5137 200.545 63.5137C197.912 63.5137 195.778 65.6503 195.778 68.286C195.778 70.9217 197.912 73.0583 200.545 73.0583Z" fill="#B9D4DB"/>
</svg>
