<svg width="343" height="270" viewBox="0 0 343 270" fill="none" xmlns="http://www.w3.org/2000/svg">
<path d="M196.367 153.714L192.925 155.859L188.133 154.249L189.292 153.104L196.367 153.714Z" fill="#009ADA" fill-opacity="0.7"/>
<path d="M23.6306 83.556L23.5957 86.3739L31.8636 86.4406L31.8985 83.6227L23.6306 83.556Z" fill="#009ADA" fill-opacity="0.7"/>
<path d="M31.872 84.2353L28.425 86.3756L23.6376 84.7704L24.7915 83.6209L31.872 84.2353Z" fill="#009ADA" fill-opacity="0.7"/>
<path d="M24.5061 179.356L21.0592 181.5L16.2717 179.891L17.4256 178.746L24.5061 179.356Z" fill="#009ADA" fill-opacity="0.7"/>
<path d="M48.0756 228.108L44.6287 230.249L39.8413 228.643L40.9951 227.494L48.0756 228.108Z" fill="#009ADA" fill-opacity="0.7"/>
<path d="M146.456 105.79L139.252 102.71L148.474 103.023L155.677 106.107L146.456 105.79Z" fill="#985294" fill-opacity="0.7"/>
<path d="M86.1589 234.577L78.9507 231.493L88.1769 231.806L95.3802 234.89L86.1589 234.577Z" fill="#985294" fill-opacity="0.7"/>
<path d="M287.814 121.482L290.162 116.853L293.599 121.209L291.256 125.838L287.814 121.482Z" fill="#C0CC29" fill-opacity="0.7"/>
<path d="M88.2503 162.198L83.9834 157.933L92.2324 160.049L96.4896 164.318L88.2503 162.198Z" fill="#DFA200" fill-opacity="0.7"/>
<path d="M27.5754 206.146L32.4316 204.327L27.1483 209.602L22.2921 211.414L27.5754 206.146Z" fill="#C0CC29" fill-opacity="0.7"/>
<path d="M103.242 190.529L108.098 188.709L102.814 193.985L97.9533 195.796L103.242 190.529Z" fill="#C0CC29" fill-opacity="0.7"/>
<path d="M240.962 60.921L245.818 59.1056L240.534 64.3813L235.678 66.1926L240.962 60.921Z" fill="#C0CC29" fill-opacity="0.7"/>
<path d="M5.28825 24.063L10.1444 22.2437L4.86107 27.5193L0 29.3307L5.28825 24.063Z" fill="#C0CC29" fill-opacity="0.7"/>
<path d="M277.262 94.585L279.605 89.9515L283.047 94.3115L280.704 98.945L277.262 94.585Z" fill="#985294" fill-opacity="0.7"/>
<path d="M258.535 102.056L267.565 100.689L261.982 104.431L252.952 105.798L258.535 102.056Z" fill="#BB005C" fill-opacity="0.5"/>
<path d="M49.2346 116.644L57.4346 118.998L48.2525 119.549L40.0526 117.19L49.2346 116.644Z" fill="#BB005C" fill-opacity="0.5"/>
<path d="M62.7471 186.822L59.4917 194.972L47.9724 191.452L51.223 183.303L62.7471 186.822Z" fill="#BB005C" fill-opacity="0.5"/>
<path d="M89.8073 28.5422L79.1964 28.5462L79.8102 18.6132L90.4161 18.6093L89.8073 28.5422Z" fill="#BB005C" fill-opacity="0.5"/>
<path d="M148.331 82.0113L137.725 82.0153L138.334 72.0824L148.94 72.0784L148.331 82.0113Z" fill="#BB005C" fill-opacity="0.5"/>
<path d="M97.5354 55.9579L95.5223 63.8495L84.3025 61.511L86.3108 53.6154L97.5354 55.9579Z" fill="#FDED00" fill-opacity="0.7"/>
<path d="M96.0621 102.924L94.049 110.816L82.8292 108.477L84.8375 100.586L96.0621 102.924Z" fill="#FDED00" fill-opacity="0.7"/>
<path d="M227.154 80.3313L225.146 88.2269L213.922 85.8844L215.93 77.9927L227.154 80.3313Z" fill="#FDED00" fill-opacity="0.7"/>
<path d="M227.154 131.264L225.146 139.156L213.922 136.817L215.93 128.922L227.154 131.264Z" fill="#FDED00" fill-opacity="0.7"/>
<path d="M122.577 122.544L120.564 130.435L109.34 128.097L111.348 120.201L122.577 122.544Z" fill="#C0CC29" fill-opacity="0.7"/>
<path d="M276.251 148.164L266.327 149.04L265.64 139.702L275.559 138.822L276.251 148.164Z" fill="#DFA200" fill-opacity="0.7"/>
<path d="M181.495 29.7985L179.481 37.6902L168.262 35.3516L170.27 27.46L181.495 29.7985Z" fill="#C0CC29" fill-opacity="0.7"/>
<path d="M300.807 228.367L298.794 236.262L287.574 233.92L289.582 226.028L300.807 228.367Z" fill="#C0CC29" fill-opacity="0.7"/>
<path d="M335.168 55.4189L325.249 56.2989L324.557 46.9565L334.48 46.0766L335.168 55.4189Z" fill="#FDED00" fill-opacity="0.7"/>
<path d="M121.64 212.657L111.49 215.154L108.49 205.511L118.635 203.01L121.64 212.657Z" fill="#985294" fill-opacity="0.7"/>
<path d="M313.17 79.1573L307.558 83.9969L299.938 84.7104L301.946 76.8188L313.17 79.1573Z" fill="#BB005C" fill-opacity="0.5"/>
<path d="M209.326 236.111L203.713 240.95L196.093 241.664L198.101 233.772L209.326 236.111Z" fill="#BB005C" fill-opacity="0.5"/>
<path d="M18.5752 101.157L12.9579 105.997L5.34227 106.71L7.35053 98.8144L18.5752 101.157Z" fill="#985294" fill-opacity="0.7"/>
<path d="M254.234 252.219L250.978 260.369L239.459 256.849L242.71 248.7L254.234 252.219Z" fill="#BB005C" fill-opacity="0.5"/>
<path d="M34.7587 256.975L31.5033 265.125L19.984 261.605L23.2346 253.456L34.7587 256.975Z" fill="#FDED00" fill-opacity="0.7"/>
<path d="M165.379 139.577L156.207 142.751L152.175 133.98L161.348 130.801L165.379 139.577Z" fill="#985294" fill-opacity="0.7"/>
<path d="M309.733 33.7511L300.556 36.9259L296.53 28.1544L305.702 24.9795L309.733 33.7511Z" fill="#985294" fill-opacity="0.7"/>
<path d="M61.5343 29.5889L52.3621 32.7638L48.3308 23.9922L57.503 20.8173L61.5343 29.5889Z" fill="#985294" fill-opacity="0.7"/>
<path d="M48.2767 159.79L39.1045 162.965L35.0733 154.19L44.2504 151.015L48.2767 159.79Z" fill="#985294" fill-opacity="0.7"/>
<path d="M325.426 157.322L323.418 165.213L312.193 162.875L314.201 154.983L325.426 157.322Z" fill="#FDED00" fill-opacity="0.7"/>
<path d="M17.7309 133.075L24.124 139.481L11.7454 136.298L5.35731 129.897L17.7309 133.075Z" fill="#DFA200" fill-opacity="0.7"/>
<path d="M118.065 155.894L123.236 152.68L130.424 155.09L128.686 156.814L118.065 155.894Z" fill="#009ADA" fill-opacity="0.7"/>
<path d="M162.988 248.046L168.158 244.831L175.347 247.241L173.613 248.965L162.988 248.046Z" fill="#009ADA" fill-opacity="0.7"/>
<path d="M261.044 173.197L257.523 180.149L252.363 173.613L255.883 166.661L261.044 173.197Z" fill="#FDED00" fill-opacity="0.7"/>
<path d="M245.577 234.431L242.056 241.383L236.896 234.847L240.416 227.895L245.577 234.431Z" fill="#FDED00" fill-opacity="0.7"/>
<path d="M230.596 163.568L227.076 170.521L221.915 163.985L225.436 157.032L230.596 163.568Z" fill="#C0CC29" fill-opacity="0.7"/>
<path d="M327.7 137.222L334.093 143.619L321.719 140.441L315.331 134.039L327.7 137.222Z" fill="#DFA200" fill-opacity="0.7"/>
<path d="M146.431 6.94045L142.979 13.754L137.917 7.3487L141.369 0.531218L146.431 6.94045Z" fill="#FDED00" fill-opacity="0.7"/>
<path d="M162.04 23.4331L158.289 28.0587L152.642 23.6907L156.399 19.0652L162.04 23.4331Z" fill="#985294" fill-opacity="0.7"/>
<path d="M316.75 214.783L307.725 216.15L313.308 212.408L322.338 211.045L316.75 214.783Z" fill="#BB005C" fill-opacity="0.5"/>
<path d="M261.152 115.077L264.599 112.932L269.391 114.542L268.232 115.691L261.152 115.077Z" fill="#009ADA" fill-opacity="0.7"/>
<path d="M190.313 26.6276L194.32 14.0509L189.051 3.4402L185.045 16.0129L190.313 26.6276Z" fill="#985294" fill-opacity="0.7"/>
<path d="M192.576 14.8958L190.229 19.5293L186.792 15.1693L189.134 10.5397L192.576 14.8958Z" fill="#985294" fill-opacity="0.7"/>
<path d="M174.68 216.349L161.992 218.267L169.833 213.011L182.521 211.093L174.68 216.349Z" fill="#BB005C" fill-opacity="0.5"/>
<path d="M193.865 37.8432L193.83 40.6098L201.937 40.6748L201.971 37.9082L193.865 37.8432Z" fill="#FDED00" fill-opacity="0.7"/>
<path d="M193.864 40.0173L197.242 37.9166L201.936 39.4941L200.806 40.6198L193.864 40.0173Z" fill="#FDED00" fill-opacity="0.7"/>
<path d="M198.376 79.2534L191.109 82.1509L193.549 77.7155L200.816 74.8221L198.376 79.2534Z" fill="#FDED00" fill-opacity="0.7"/>
<path d="M54.6552 77.8274L62.7275 80.2968L53.5161 80.7248L45.4486 78.2555L54.6552 77.8274Z" fill="#C0CC29" fill-opacity="0.7"/>
<path d="M72.8227 48.661L62.6783 49.0614L66.518 43.8135L76.6624 43.4132L72.8227 48.661Z" fill="#BB005C" fill-opacity="0.5"/>
<path d="M195.081 115.248L184.937 115.648L188.776 110.4L198.921 110L195.081 115.248Z" fill="#BB005C" fill-opacity="0.5"/>
<path d="M15.7227 61.5402L18.6246 66.3996L8.25922 65.2066L5.35731 60.3432L15.7227 61.5402Z" fill="#DFA200" fill-opacity="0.7"/>
<path d="M28.4252 35.8436L31.332 40.7031L20.9666 39.51L18.0647 34.6466L28.4252 35.8436Z" fill="#DFA200" fill-opacity="0.7"/>
<path d="M272.367 207.521L268.778 212.071L264.58 204.326L268.174 199.776L272.367 207.521Z" fill="#DFA200" fill-opacity="0.7"/>
<path d="M152.893 175.554L155.799 180.413L145.429 179.22L142.527 174.361L152.893 175.554Z" fill="#DFA200" fill-opacity="0.7"/>
<path d="M118.281 261.76L121.183 266.619L110.818 265.426L107.916 260.567L118.281 261.76Z" fill="#DFA200" fill-opacity="0.7"/>
<path d="M5.35753 9.91902L5.32343 12.6857L13.4301 12.7507L13.4642 9.98412L5.35753 9.91902Z" fill="#FDED00" fill-opacity="0.7"/>
<path d="M140.814 29.0615L138.511 33.6039L135.138 29.335L137.441 24.7887L140.814 29.0615Z" fill="#FDED00" fill-opacity="0.7"/>
<path d="M326.889 9.96511L334.093 13.0488L324.871 12.7317L317.668 9.64802L326.889 9.96511Z" fill="#985294" fill-opacity="0.7"/>
<path d="M200.576 266.721L207.779 269.801L198.558 269.488L191.354 266.404L200.576 266.721Z" fill="#985294" fill-opacity="0.7"/>
<path d="M217.761 19.2473L215.414 23.8808L211.972 19.5247L214.319 14.8912L217.761 19.2473Z" fill="#C0CC29" fill-opacity="0.7"/>
<path d="M279.57 26.3317L277.223 30.9612L273.781 26.6052L276.128 21.9756L279.57 26.3317Z" fill="#C0CC29" fill-opacity="0.7"/>
<path d="M202.977 207.66L200.63 212.29L197.188 207.934L199.535 203.3L202.977 207.66Z" fill="#C0CC29" fill-opacity="0.7"/>
<path d="M251.563 3.74169L242.533 5.10519L248.116 1.3635L257.146 0L251.563 3.74169Z" fill="#BB005C" fill-opacity="0.5"/>
<path d="M59.6047 5.65277L63.8667 9.91766L55.6176 7.79711L51.3605 3.52825L59.6047 5.65277Z" fill="#DFA200" fill-opacity="0.7"/>
<path d="M114.603 96.2616L112.305 100.808L108.932 96.5351L111.23 91.9927L114.603 96.2616Z" fill="#FDED00" fill-opacity="0.7"/>
<path d="M343 97.8871L340.697 102.429L337.324 98.1566L339.627 93.6143L343 97.8871Z" fill="#FDED00" fill-opacity="0.7"/>
<path d="M287.583 67.3147L285.236 71.9482L281.799 67.5922L284.146 62.9587L287.583 67.3147Z" fill="#985294" fill-opacity="0.7"/>
<path d="M156.757 67.4654L154.41 72.0989L150.973 67.7428L153.32 63.1093L156.757 67.4654Z" fill="#C0CC29" fill-opacity="0.7"/>
<path d="M108.151 13.9601L105.804 18.5896L102.362 14.2335L104.709 9.604L108.151 13.9601Z" fill="#C0CC29" fill-opacity="0.7"/>
<path d="M197.085 179.121L188.055 180.489L193.638 176.747L202.667 175.384L197.085 179.121Z" fill="#BB005C" fill-opacity="0.5"/>
<path d="M267.707 49.4222L259.507 47.0639L268.684 46.5129L276.884 48.8713L267.707 49.4222Z" fill="#BB005C" fill-opacity="0.5"/>
</svg>
