<svg width="34" height="34" viewBox="0 0 34 34" fill="none" xmlns="http://www.w3.org/2000/svg">
<rect width="34" height="34" rx="17" fill="#DAE6F2"/>
<mask id="mask0_202_3442" style="mask-type:alpha" maskUnits="userSpaceOnUse" x="5" y="5" width="24" height="24">
<rect x="5" y="5" width="24" height="24" fill="#D9D9D9"/>
</mask>
<g mask="url(#mask0_202_3442)">
<path d="M10.3077 26.5001C9.80257 26.5001 9.375 26.3251 9.025 25.9751C8.675 25.6251 8.5 25.1975 8.5 24.6924V11.3078C8.5 10.8027 8.675 10.3751 9.025 10.0251C9.375 9.67514 9.80257 9.50014 10.3077 9.50014H11.6923V7.38477H13.2308V9.50014H20.8077V7.38477H22.3076V9.50014H23.6923C24.1974 9.50014 24.625 9.67514 24.975 10.0251C25.325 10.3751 25.5 10.8027 25.5 11.3078V24.6924C25.5 25.1975 25.325 25.6251 24.975 25.9751C24.625 26.3251 24.1974 26.5001 23.6923 26.5001H10.3077ZM10.3077 25.0001H23.6923C23.7692 25.0001 23.8397 24.9681 23.9038 24.904C23.9679 24.8398 24 24.7693 24 24.6924V15.3078H9.99997V24.6924C9.99997 24.7693 10.032 24.8398 10.0961 24.904C10.1602 24.9681 10.2308 25.0001 10.3077 25.0001ZM9.99997 13.8079H24V11.3078C24 11.2309 23.9679 11.1604 23.9038 11.0963C23.8397 11.0322 23.7692 11.0001 23.6923 11.0001H10.3077C10.2308 11.0001 10.1602 11.0322 10.0961 11.0963C10.032 11.1604 9.99997 11.2309 9.99997 11.3078V13.8079ZM17 19.077C16.7551 19.077 16.5465 18.9908 16.374 18.8184C16.2016 18.646 16.1154 18.4373 16.1154 18.1924C16.1154 17.9476 16.2016 17.7389 16.374 17.5665C16.5465 17.3941 16.7551 17.3078 17 17.3078C17.2448 17.3078 17.4535 17.3941 17.6259 17.5665C17.7984 17.7389 17.8846 17.9476 17.8846 18.1924C17.8846 18.4373 17.7984 18.646 17.6259 18.8184C17.4535 18.9908 17.2448 19.077 17 19.077ZM13 19.077C12.7551 19.077 12.5465 18.9908 12.374 18.8184C12.2016 18.646 12.1154 18.4373 12.1154 18.1924C12.1154 17.9476 12.2016 17.7389 12.374 17.5665C12.5465 17.3941 12.7551 17.3078 13 17.3078C13.2448 17.3078 13.4535 17.3941 13.6259 17.5665C13.7984 17.7389 13.8846 17.9476 13.8846 18.1924C13.8846 18.4373 13.7984 18.646 13.6259 18.8184C13.4535 18.9908 13.2448 19.077 13 19.077ZM21 19.077C20.7551 19.077 20.5465 18.9908 20.374 18.8184C20.2016 18.646 20.1154 18.4373 20.1154 18.1924C20.1154 17.9476 20.2016 17.7389 20.374 17.5665C20.5465 17.3941 20.7551 17.3078 21 17.3078C21.2448 17.3078 21.4535 17.3941 21.6259 17.5665C21.7984 17.7389 21.8846 17.9476 21.8846 18.1924C21.8846 18.4373 21.7984 18.646 21.6259 18.8184C21.4535 18.9908 21.2448 19.077 21 19.077ZM17 23.0001C16.7551 23.0001 16.5465 22.9139 16.374 22.7415C16.2016 22.569 16.1154 22.3604 16.1154 22.1155C16.1154 21.8706 16.2016 21.662 16.374 21.4896C16.5465 21.3171 16.7551 21.2309 17 21.2309C17.2448 21.2309 17.4535 21.3171 17.6259 21.4896C17.7984 21.662 17.8846 21.8706 17.8846 22.1155C17.8846 22.3604 17.7984 22.569 17.6259 22.7415C17.4535 22.9139 17.2448 23.0001 17 23.0001ZM13 23.0001C12.7551 23.0001 12.5465 22.9139 12.374 22.7415C12.2016 22.569 12.1154 22.3604 12.1154 22.1155C12.1154 21.8706 12.2016 21.662 12.374 21.4896C12.5465 21.3171 12.7551 21.2309 13 21.2309C13.2448 21.2309 13.4535 21.3171 13.6259 21.4896C13.7984 21.662 13.8846 21.8706 13.8846 22.1155C13.8846 22.3604 13.7984 22.569 13.6259 22.7415C13.4535 22.9139 13.2448 23.0001 13 23.0001ZM21 23.0001C20.7551 23.0001 20.5465 22.9139 20.374 22.7415C20.2016 22.569 20.1154 22.3604 20.1154 22.1155C20.1154 21.8706 20.2016 21.662 20.374 21.4896C20.5465 21.3171 20.7551 21.2309 21 21.2309C21.2448 21.2309 21.4535 21.3171 21.6259 21.4896C21.7984 21.662 21.8846 21.8706 21.8846 22.1155C21.8846 22.3604 21.7984 22.569 21.6259 22.7415C21.4535 22.9139 21.2448 23.0001 21 23.0001Z" fill="#224971"/>
</g>
</svg>
