<svg width="236" height="184" viewBox="0 0 236 184" fill="none" xmlns="http://www.w3.org/2000/svg">
<path d="M210.739 36.2663H218.146C219.405 36.2663 220.613 35.7711 221.504 34.8896C222.394 34.008 222.895 32.8125 222.895 31.5658V25.0283C222.895 23.7817 222.394 22.5862 221.504 21.7047C220.613 20.8232 219.405 20.328 218.146 20.328H23.1026C22.479 20.328 21.8615 20.4496 21.2853 20.6858C20.7092 20.922 20.1857 21.2682 19.7447 21.7047C19.3037 22.1411 18.9539 22.6593 18.7153 23.2296C18.4766 23.7998 18.3538 24.411 18.3538 25.0283V31.5659C18.3537 32.8125 18.8541 34.0081 19.7447 34.8896C20.6352 35.7711 21.8431 36.2663 23.1026 36.2663H30.3084C30.9321 36.2663 31.5496 36.3879 32.1257 36.6241C32.7019 36.8603 33.2254 37.2066 33.6664 37.6431C34.1074 38.0795 34.4572 38.5977 34.6958 39.168C34.9345 39.7383 35.0573 40.3495 35.0573 40.9668V47.5042C35.0573 48.1214 34.9345 48.7327 34.6958 49.3029C34.4572 49.8732 34.1074 50.3914 33.6664 50.8279C33.2254 51.2644 32.7019 51.6106 32.1257 51.8468C31.5496 52.083 30.9321 52.2046 30.3084 52.2046H30.291C29.0315 52.2047 27.8236 52.6999 26.9331 53.5814C26.0425 54.4629 25.5422 55.6585 25.5422 56.9051V63.4425C25.5422 64.6891 26.0425 65.8847 26.9331 66.7662C27.8236 67.6477 29.0315 68.143 30.291 68.143H31.3336C32.593 68.143 33.8009 68.6382 34.6915 69.5196C35.582 70.4011 36.0824 71.5967 36.0824 72.8433V79.3808C36.0822 80.4593 35.7073 81.505 35.0207 82.3425C34.3341 83.18 33.3775 83.7583 32.3112 83.9806H23.1026C22.7741 83.9807 22.4464 84.0144 22.1249 84.0813H14.2238C12.9643 84.0813 11.7564 84.5765 10.8658 85.4579C9.97524 86.3394 9.47489 87.535 9.47485 88.7816V95.3191C9.47486 96.5658 9.97519 97.7613 10.8658 98.6429C11.7564 99.5244 12.9643 100.02 14.2238 100.02H31.2861C32.3524 100.242 33.309 100.82 33.9956 101.658C34.6823 102.495 35.0571 103.541 35.0573 104.619V111.157C35.0573 111.774 34.9345 112.385 34.6958 112.955C34.4572 113.526 34.1074 114.044 33.6664 114.48C33.2254 114.917 32.7019 115.263 32.1257 115.499C31.5496 115.736 30.9321 115.857 30.3084 115.857H30.291C29.6674 115.857 29.0499 115.979 28.4737 116.215C27.8976 116.451 27.374 116.797 26.9331 117.234C26.4921 117.67 26.1423 118.188 25.9037 118.759C25.665 119.329 25.5422 119.94 25.5422 120.557V127.095C25.5422 127.712 25.665 128.323 25.9037 128.894C26.1423 129.464 26.4921 129.982 26.9331 130.419C27.3741 130.855 27.8976 131.201 28.4737 131.438C29.0499 131.674 29.6674 131.795 30.291 131.795H31.3336C32.593 131.795 33.8009 132.291 34.6915 133.172C35.5821 134.054 36.0824 135.249 36.0824 136.496V143.033C36.0824 144.28 35.5821 145.476 34.6915 146.357C33.8009 147.239 32.593 147.734 31.3336 147.734H21.4853C20.8617 147.734 20.2441 147.855 19.668 148.092C19.0918 148.328 18.5683 148.674 18.1273 149.11C17.6864 149.547 17.3366 150.065 17.0979 150.635C16.8592 151.206 16.7364 151.817 16.7364 152.434V158.972C16.7364 159.589 16.8592 160.2 17.0979 160.77C17.3366 161.341 17.6864 161.859 18.1273 162.295C18.5683 162.732 19.0918 163.078 19.668 163.314C20.2441 163.55 20.8617 163.672 21.4853 163.672H208.093C208.717 163.672 209.335 163.55 209.911 163.314C210.487 163.078 211.01 162.732 211.451 162.295C211.892 161.859 212.242 161.341 212.481 160.77C212.719 160.2 212.842 159.589 212.842 158.972V152.434C212.842 151.817 212.719 151.206 212.481 150.635C212.242 150.065 211.892 149.547 211.451 149.11C211.01 148.674 210.487 148.328 209.911 148.092C209.335 147.855 208.717 147.734 208.093 147.734H203.976C202.716 147.734 201.509 147.239 200.618 146.357C199.727 145.476 199.227 144.28 199.227 143.033V136.496C199.227 135.249 199.727 134.054 200.618 133.172C201.509 132.291 202.716 131.795 203.976 131.795H213.685C214.308 131.795 214.926 131.674 215.502 131.438C216.078 131.201 216.602 130.855 217.042 130.419C217.483 129.982 217.833 129.464 218.072 128.894C218.311 128.323 218.433 127.712 218.433 127.095V120.557C218.433 119.94 218.311 119.329 218.072 118.759C217.833 118.188 217.483 117.67 217.042 117.234C216.602 116.797 216.078 116.451 215.502 116.215C214.926 115.979 214.308 115.857 213.685 115.857H210.739C209.48 115.857 208.272 115.362 207.381 114.48C206.491 113.599 205.991 112.403 205.991 111.157V104.619C205.991 103.373 206.491 102.177 207.381 101.295C208.272 100.414 209.48 99.9187 210.739 99.9187H221.776C222.4 99.9187 223.018 99.7971 223.594 99.5609C224.17 99.3247 224.693 98.9785 225.134 98.542C225.575 98.1056 225.925 97.5874 226.164 97.0171C226.402 96.4469 226.525 95.8357 226.525 95.2184V88.6809C226.525 88.0636 226.402 87.4524 226.164 86.8821C225.925 86.3118 225.575 85.7937 225.134 85.3572C224.693 84.9208 224.17 84.5745 223.594 84.3383C223.018 84.1021 222.4 83.9805 221.776 83.9806H205.015C203.755 83.9806 202.547 83.4853 201.657 82.6038C200.766 81.7223 200.266 80.5267 200.266 79.2801V72.7425C200.266 71.664 200.641 70.6183 201.327 69.7809C202.014 68.9434 202.971 68.3651 204.037 68.143H213.685C214.308 68.143 214.926 68.0214 215.502 67.7852C216.078 67.5489 216.602 67.2027 217.042 66.7662C217.483 66.3297 217.833 65.8116 218.072 65.2413C218.311 64.671 218.433 64.0598 218.433 63.4425V56.9051C218.433 56.2879 218.311 55.6766 218.072 55.1063C217.833 54.5361 217.483 54.0179 217.042 53.5814C216.602 53.1449 216.078 52.7987 215.502 52.5625C214.926 52.3262 214.308 52.2047 213.685 52.2046H210.739C209.48 52.2046 208.272 51.7094 207.381 50.8279C206.491 49.9464 205.991 48.7508 205.991 47.5042V40.9668C205.991 39.7202 206.491 38.5246 207.381 37.6431C208.272 36.7616 209.48 36.2663 210.739 36.2663Z" fill="#DBE8EC"/>
<path d="M174.949 33.4606H93.3223C92.1191 33.4606 91.1438 34.426 91.1438 35.6168V156.601C91.1438 157.792 92.1191 158.758 93.3223 158.758H174.949C176.153 158.758 177.128 157.792 177.128 156.601V35.6168C177.128 34.426 176.153 33.4606 174.949 33.4606Z" fill="#224971"/>
<path d="M149.263 125.96V144.123H102.479C101.977 144.123 101.494 143.925 101.139 143.573C100.783 143.221 100.584 142.744 100.584 142.246V40.6279C100.584 40.1302 100.783 39.653 101.139 39.3011C101.494 38.9493 101.977 38.7516 102.479 38.7516H165.792C166.295 38.7516 166.777 38.9493 167.132 39.3011C167.488 39.653 167.688 40.1302 167.688 40.6279V125.96H149.263Z" fill="#DAE6F2"/>
<path d="M149.262 144.123V125.96H167.688L149.262 144.123Z" fill="#DBE8EC"/>
<path d="M74.0089 56.1743H50.7106C50.109 56.1743 49.6213 56.657 49.6213 57.2524V70.2344C49.6213 70.8298 50.109 71.3125 50.7106 71.3125H74.0089C74.6104 71.3125 75.0981 70.8298 75.0981 70.2344V57.2524C75.0981 56.657 74.6104 56.1743 74.0089 56.1743Z" fill="#8797A8"/>
<path d="M65.744 54.073H58.9752C58.3737 54.073 57.886 54.5557 57.886 55.1511V57.9482C57.886 58.5436 58.3737 59.0263 58.9752 59.0263H65.744C66.3455 59.0263 66.8332 58.5436 66.8332 57.9482V55.1511C66.8332 54.5557 66.3455 54.073 65.744 54.073Z" fill="#409CB5"/>
<path d="M208.391 96.9379H185.092C184.491 96.9379 184.003 97.4206 184.003 98.016V110.998C184.003 111.593 184.491 112.076 185.092 112.076H208.391C208.992 112.076 209.48 111.593 209.48 110.998V98.016C209.48 97.4206 208.992 96.9379 208.391 96.9379Z" fill="#8797A8"/>
<path d="M200.126 94.8364H193.357C192.756 94.8364 192.268 95.3191 192.268 95.9146V98.7116C192.268 99.3071 192.756 99.7898 193.357 99.7898H200.126C200.728 99.7898 201.215 99.3071 201.215 98.7116V95.9146C201.215 95.3191 200.728 94.8364 200.126 94.8364Z" fill="#409CB5"/>
<path d="M35.9407 86.7771H57.6752C58.6003 86.7775 59.5156 86.9642 60.3654 87.326C61.2152 87.6878 61.9817 88.217 62.6182 88.8814C63.2547 89.5459 63.7478 90.3316 64.0676 91.1908C64.3874 92.05 64.5271 92.9646 64.4783 93.879C63.792 106.908 61.6116 120.896 61.6116 120.896C61.6116 120.896 42.5116 123.161 40.0595 123.161H38.3279C37.5265 123.161 36.7354 122.981 36.0142 122.636C35.2929 122.29 34.6602 121.787 34.1634 121.164C33.6666 120.542 33.3187 119.816 33.1458 119.041C32.9728 118.267 32.9794 117.464 33.1649 116.692L38.914 92.7798C39.0995 92.0081 39.1061 91.2048 38.9332 90.4303C38.7603 89.6557 38.4124 88.93 37.9156 88.3075C37.4188 87.685 36.786 87.182 36.0648 86.8362C35.3435 86.4903 34.5525 86.3107 33.7511 86.3107L35.9407 86.7771Z" fill="#C0DFFF"/>
<path d="M37.4958 123.208H58.7822L56.6727 132.589L63.6294 102.587C63.8079 101.817 63.8088 101.017 63.6319 100.247C63.4551 99.4771 63.1051 98.7564 62.6081 98.1387C62.111 97.521 61.4796 97.0222 60.7609 96.6793C60.0422 96.3365 59.2546 96.1584 58.4568 96.1584H55.0677C53.8764 96.1584 52.7198 96.5552 51.7839 97.2847C50.8481 98.0143 50.1874 99.0343 49.9083 100.181L45.2189 119.139C44.9397 120.285 44.2791 121.305 43.3432 122.035C42.4074 122.764 41.2507 123.161 40.0595 123.161L37.4958 123.208Z" fill="#8797A8"/>
<path d="M26.52 96.6194L28.6739 90.0342C29.0052 88.9569 29.6775 88.0134 30.5916 87.343C31.5058 86.6726 32.6134 86.3107 33.7512 86.3107C34.5526 86.3107 35.3436 86.4903 36.0649 86.8362C36.7861 87.182 37.4189 87.685 37.9157 88.3075C38.4125 88.9299 38.7604 89.6557 38.9333 90.4303C39.1062 91.2048 39.0996 92.0081 38.9141 92.7798L37.991 96.6194H26.52Z" fill="#4D76B8"/>
<path d="M58.457 96.1584C59.2549 96.1584 60.0424 96.3365 60.7611 96.6793C61.4799 97.0222 62.1112 97.521 62.6083 98.1387C63.1054 98.7564 63.4553 99.4771 63.6322 100.247C63.809 101.017 63.8081 101.817 63.6297 102.587L52.0957 152.329C51.9172 153.099 51.9163 153.899 52.0932 154.669C52.27 155.439 52.62 156.159 53.117 156.777C53.6141 157.395 54.2455 157.894 54.9642 158.237C55.6829 158.579 56.4705 158.757 57.2683 158.757H59.3358L88.1549 152.329L99.6889 102.587C99.8674 101.817 99.8682 101.017 99.6914 100.247C99.5145 99.4772 99.1646 98.7565 98.6675 98.1388C98.1704 97.5211 97.5391 97.0222 96.8204 96.6794C96.1016 96.3365 95.3141 96.1585 94.5162 96.1585H91.1271L58.457 96.1584Z" fill="#C0DFFF"/>
<path d="M93.3274 158.757H95.3949C96.5461 158.757 97.6661 158.387 98.5859 157.702C99.5058 157.017 100.176 156.054 100.494 154.959L102.901 146.696C103.22 145.601 103.889 144.639 104.809 143.953C105.729 143.268 106.849 142.898 108 142.898H108.581H71.9411C70.7899 142.898 69.6699 143.268 68.7501 143.953C67.8302 144.639 67.1604 145.601 66.8416 146.696L64.4352 154.959C64.1164 156.054 63.4465 157.017 62.5267 157.702C61.6068 158.387 60.4869 158.757 59.3357 158.757H93.3274Z" fill="#4D76B8"/>
<path d="M71.9412 142.898H72.5216C73.3242 142.898 74.1164 143.078 74.8385 143.425C75.5605 143.772 76.1938 144.276 76.6904 144.9C77.1871 145.524 77.5344 146.251 77.706 147.027C77.8776 147.804 77.8692 148.608 77.6814 149.38L76.8075 152.973H112.867L113.741 149.38C113.928 148.608 113.937 147.804 113.765 147.027C113.594 146.251 113.246 145.524 112.75 144.9C112.253 144.276 111.62 143.772 110.898 143.425C110.176 143.078 109.383 142.898 108.581 142.898H108H71.9412Z" fill="#C0DFFF"/>
<path d="M60.6245 134.221L85.9072 134.221" stroke="#4D76B8" stroke-width="4" stroke-miterlimit="10"/>
<path d="M62.3596 128.236L87.6423 128.236" stroke="#4D76B8" stroke-width="4" stroke-miterlimit="10"/>
<path d="M64.134 122.196L89.4167 122.196" stroke="#4D76B8" stroke-width="4" stroke-miterlimit="10"/>
<path d="M65.9084 116.156H91.1911" stroke="#4D76B8" stroke-width="4" stroke-miterlimit="10"/>
<path d="M67.6831 110.117L92.9658 110.117" stroke="#4D76B8" stroke-width="4" stroke-miterlimit="10"/>
<path d="M69.4575 104.077H94.7402" stroke="#4D76B8" stroke-width="4" stroke-miterlimit="10"/>
<path d="M39 116H46" stroke="#4D76B8" stroke-width="4" stroke-miterlimit="10"/>
<path d="M39 110H48" stroke="#4D76B8" stroke-width="4" stroke-miterlimit="10"/>
<path d="M40 104H50" stroke="#4D76B8" stroke-width="4" stroke-miterlimit="10"/>
<path d="M41 98H51" stroke="#4D76B8" stroke-width="4" stroke-miterlimit="10"/>
<path d="M110.593 98.2473H157.679" stroke="#4D76B8" stroke-width="3" stroke-miterlimit="10"/>
<path d="M110.593 106.716H157.679" stroke="#4D76B8" stroke-width="3" stroke-miterlimit="10"/>
<path d="M110.593 115.186H157.679" stroke="#4D76B8" stroke-width="3" stroke-miterlimit="10"/>
<path d="M110.593 54.2236H157.679" stroke="#4D76B8" stroke-width="3" stroke-miterlimit="10"/>
<path d="M155.501 25.2426H112.771C111.568 25.2426 110.593 26.2079 110.593 27.3988V40.423C110.593 41.6139 111.568 42.5792 112.771 42.5792H155.501C156.704 42.5792 157.679 41.6139 157.679 40.423V27.3988C157.679 26.2079 156.704 25.2426 155.501 25.2426Z" fill="#8797A8"/>
<path d="M73.0457 79.8979H84.0544" stroke="#B9D4DB" stroke-width="3" stroke-miterlimit="10" stroke-linecap="round"/>
<path d="M73.0457 83.0387H84.0544" stroke="#B9D4DB" stroke-width="3" stroke-miterlimit="10" stroke-linecap="round"/>
<path d="M73.0457 86.1793H84.0544" stroke="#B9D4DB" stroke-width="3" stroke-miterlimit="10" stroke-linecap="round"/>
<path d="M184.434 27.2335H195.443" stroke="#B9D4DB" stroke-width="3" stroke-miterlimit="10" stroke-linecap="round"/>
<path d="M184.434 30.3741H195.443" stroke="#B9D4DB" stroke-width="3" stroke-miterlimit="10" stroke-linecap="round"/>
<path d="M184.434 33.5148H195.443" stroke="#B9D4DB" stroke-width="3" stroke-miterlimit="10" stroke-linecap="round"/>
<path d="M184.434 139.968H195.443" stroke="#B9D4DB" stroke-width="3" stroke-miterlimit="10" stroke-linecap="round"/>
<path d="M184.434 143.108H195.443" stroke="#B9D4DB" stroke-width="3" stroke-miterlimit="10" stroke-linecap="round"/>
<path d="M184.434 146.249H195.443" stroke="#B9D4DB" stroke-width="3" stroke-miterlimit="10" stroke-linecap="round"/>
<path d="M32.5597 159.927C35.1585 159.927 37.2652 157.842 37.2652 155.27C37.2652 152.697 35.1585 150.612 32.5597 150.612C29.961 150.612 27.8542 152.697 27.8542 155.27C27.8542 157.842 29.961 159.927 32.5597 159.927Z" fill="#B9D4DB"/>
<path d="M26.2856 146.558C27.6331 146.558 28.7255 145.477 28.7255 144.143C28.7255 142.81 27.6331 141.728 26.2856 141.728C24.9381 141.728 23.8457 142.81 23.8457 144.143C23.8457 145.477 24.9381 146.558 26.2856 146.558Z" fill="#B9D4DB"/>
<path d="M42.246 150.008C44.171 150.008 45.7316 148.464 45.7316 146.558C45.7316 144.653 44.171 143.108 42.246 143.108C40.321 143.108 38.7605 144.653 38.7605 146.558C38.7605 148.464 40.321 150.008 42.246 150.008Z" fill="#B9D4DB"/>
<path d="M196.276 78.4718C199.368 78.4718 201.874 75.9908 201.874 72.9303C201.874 69.8698 199.368 67.3888 196.276 67.3888C193.184 67.3888 190.677 69.8698 190.677 72.9303C190.677 75.9908 193.184 78.4718 196.276 78.4718Z" fill="#B9D4DB"/>
<path d="M185.578 71.8698C187.188 71.8698 188.494 70.5774 188.494 68.9833C188.494 67.3891 187.188 66.0968 185.578 66.0968C183.967 66.0968 182.662 67.3891 182.662 68.9833C182.662 70.5774 183.967 71.8698 185.578 71.8698Z" fill="#B9D4DB"/>
<path d="M188.256 60.8362C189.185 60.8362 189.939 60.0908 189.939 59.1712C189.939 58.2517 189.185 57.5062 188.256 57.5062C187.327 57.5062 186.574 58.2517 186.574 59.1712C186.574 60.0908 187.327 60.8362 188.256 60.8362Z" fill="#B9D4DB"/>
<path d="M197.568 64.3407C199.796 64.3407 201.601 62.5537 201.601 60.3493C201.601 58.1449 199.796 56.3579 197.568 56.3579C195.341 56.3579 193.536 58.1449 193.536 60.3493C193.536 62.5537 195.341 64.3407 197.568 64.3407Z" fill="#B9D4DB"/>
<path d="M66.7133 46.29C69.8054 46.29 72.3119 43.8089 72.3119 40.7484C72.3119 37.6879 69.8054 35.2069 66.7133 35.2069C63.6213 35.2069 61.1147 37.6879 61.1147 40.7484C61.1147 43.8089 63.6213 46.29 66.7133 46.29Z" fill="#B9D4DB"/>
<path d="M66.9404 32.3364C68.551 32.3364 69.8566 31.0441 69.8566 29.45C69.8566 27.8558 68.551 26.5635 66.9404 26.5635C65.3298 26.5635 64.0242 27.8558 64.0242 29.45C64.0242 31.0441 65.3298 32.3364 66.9404 32.3364Z" fill="#B9D4DB"/>
<path d="M86.3641 33.6347C87.758 33.6347 88.8881 32.5162 88.8881 31.1364C88.8881 29.7567 87.758 28.6382 86.3641 28.6382C84.9701 28.6382 83.8401 29.7567 83.8401 31.1364C83.8401 32.5162 84.9701 33.6347 86.3641 33.6347Z" fill="#B9D4DB"/>
<path d="M77.1817 30.3737C78.1107 30.3737 78.8638 29.6283 78.8638 28.7087C78.8638 27.7891 78.1107 27.0437 77.1817 27.0437C76.2526 27.0437 75.4995 27.7891 75.4995 28.7087C75.4995 29.6283 76.2526 30.3737 77.1817 30.3737Z" fill="#B9D4DB"/>
<path d="M79.1365 41.7885C81.3636 41.7885 83.169 40.0015 83.169 37.7971C83.169 35.5927 81.3636 33.8057 79.1365 33.8057C76.9094 33.8057 75.104 35.5927 75.104 37.7971C75.104 40.0015 76.9094 41.7885 79.1365 41.7885Z" fill="#B9D4DB"/>
<g clip-path="url(#clip0_293_1371)">
<path fill-rule="evenodd" clip-rule="evenodd" d="M133.509 84.6132C134.224 84.6132 134.91 84.8962 135.416 85.3999C135.922 85.9037 136.206 86.5869 136.206 87.2993C136.206 88.0117 135.922 88.695 135.416 89.1987C134.91 89.7025 134.224 89.9855 133.509 89.9855C132.793 89.9855 132.107 89.7025 131.601 89.1987C131.096 88.695 130.811 88.0117 130.811 87.2993C130.811 86.5869 131.096 85.9037 131.601 85.3999C132.107 84.8962 132.793 84.6132 133.509 84.6132ZM125.068 80.584C125.962 80.584 126.82 80.9378 127.452 81.5674C128.084 82.1971 128.439 83.0512 128.439 83.9417C128.439 84.8322 128.084 85.6862 127.452 86.3159C126.82 86.9456 125.962 87.2993 125.068 87.2993C124.174 87.2993 123.316 86.9456 122.684 86.3159C122.052 85.6862 121.696 84.8322 121.696 83.9417C121.696 83.0512 122.052 82.1971 122.684 81.5674C123.316 80.9378 124.174 80.584 125.068 80.584ZM140.682 81.2555C141.397 81.2555 142.083 81.5385 142.589 82.0423C143.095 82.546 143.379 83.2293 143.379 83.9417C143.379 84.6541 143.095 85.3373 142.589 85.841C142.083 86.3448 141.397 86.6278 140.682 86.6278C139.966 86.6278 139.28 86.3448 138.774 85.841C138.269 85.3373 137.985 84.6541 137.985 83.9417C137.985 83.2293 138.269 82.546 138.774 82.0423C139.28 81.5385 139.966 81.2555 140.682 81.2555ZM143.623 75.6402C144.159 75.6402 144.674 75.8524 145.053 76.2302C145.433 76.608 145.646 77.1205 145.646 77.6548C145.646 78.1891 145.433 78.7015 145.053 79.0793C144.674 79.4571 144.159 79.6694 143.623 79.6694C143.086 79.6694 142.572 79.4571 142.193 79.0793C141.813 78.7015 141.6 78.1891 141.6 77.6548C141.6 77.1205 141.813 76.608 142.193 76.2302C142.572 75.8524 143.086 75.6402 143.623 75.6402ZM122.046 71.1825C122.94 71.1825 123.797 71.5363 124.43 72.166C125.062 72.7957 125.417 73.6497 125.417 74.5402C125.417 75.4307 125.062 76.2847 124.43 76.9144C123.797 77.5441 122.94 77.8979 122.046 77.8979C121.152 77.8979 120.294 77.5441 119.662 76.9144C119.03 76.2847 118.674 75.4307 118.674 74.5402C118.674 73.6497 119.03 72.7957 119.662 72.166C120.294 71.5363 121.152 71.1825 122.046 71.1825ZM142.66 70.1175C143.018 70.1175 143.361 70.259 143.614 70.5109C143.866 70.7627 144.009 71.1044 144.009 71.4606C144.009 71.8168 143.866 72.1584 143.614 72.4102C143.361 72.6621 143.018 72.8036 142.66 72.8036C142.302 72.8036 141.959 72.6621 141.706 72.4102C141.454 72.1584 141.311 71.8168 141.311 71.4606C141.311 71.1044 141.454 70.7627 141.706 70.5109C141.959 70.259 142.302 70.1175 142.66 70.1175ZM129.463 63.1241C130.536 63.1241 131.565 63.5486 132.324 64.3043C133.082 65.0599 133.509 66.0847 133.509 67.1533C133.509 68.222 133.082 69.2468 132.324 70.0024C131.565 70.758 130.536 71.1825 129.463 71.1825C128.39 71.1825 127.361 70.758 126.602 70.0024C125.843 69.2468 125.417 68.222 125.417 67.1533C125.417 66.0847 125.843 65.0599 126.602 64.3043C127.361 63.5486 128.39 63.1241 129.463 63.1241ZM139.577 67.1533C139.756 67.1533 139.928 67.2241 140.054 67.35C140.18 67.476 140.251 67.6468 140.251 67.8249C140.251 68.003 140.18 68.1738 140.054 68.2997C139.928 68.4257 139.756 68.4964 139.577 68.4964C139.398 68.4964 139.227 68.4257 139.1 68.2997C138.974 68.1738 138.903 68.003 138.903 67.8249C138.903 67.6468 138.974 67.476 139.1 67.35C139.227 67.2241 139.398 67.1533 139.577 67.1533Z" fill="#4D76B8"/>
</g>
<defs>
<clipPath id="clip0_293_1371">
<rect width="26.9714" height="26.8613" fill="white" transform="translate(118.674 63.1241)"/>
</clipPath>
</defs>
</svg>
