<svg width="210" height="134" viewBox="0 0 210 134" fill="none" xmlns="http://www.w3.org/2000/svg">
<path d="M209.382 51.5499V43.7334C209.382 42.2429 208.791 40.8134 207.738 39.7594C206.685 38.7055 205.257 38.1133 203.768 38.1133H183.952C183.215 38.1133 182.485 37.968 181.804 37.6855C181.123 37.4031 180.504 36.9891 179.983 36.4673C179.461 35.9454 179.048 35.3258 178.766 34.644C178.483 33.9621 178.338 33.2313 178.338 32.4933V24.6767C178.338 23.9387 178.483 23.2079 178.766 22.526C179.048 21.8442 179.461 21.2246 179.983 20.7028C180.504 20.1809 181.123 19.7669 181.804 19.4845C182.485 19.202 183.215 19.0567 183.952 19.0567H184.578C186.067 19.0567 187.495 18.4646 188.548 17.4106C189.601 16.3566 190.192 14.9271 190.192 13.4366V5.62008C190.192 4.12954 189.601 2.70005 188.548 1.64608C187.495 0.592115 186.067 0 184.578 0H37.821C36.332 0 34.904 0.592115 33.8512 1.64608C32.7983 2.70005 32.2069 4.12954 32.2069 5.62008V13.4366C32.2069 14.9271 32.7983 16.3566 33.8512 17.4106C34.904 18.4646 36.332 19.0567 37.821 19.0567C39.3099 19.0567 40.7379 19.6488 41.7907 20.7028C42.8436 21.7567 43.4351 23.1862 43.4351 24.6767V32.4933C43.4351 33.9838 42.8436 35.4133 41.7907 36.4673C40.7379 37.5212 39.3099 38.1133 37.821 38.1133H16.1107C14.6218 38.1133 13.1938 38.7055 12.141 39.7594C11.0881 40.8134 10.4966 42.2429 10.4966 43.7334V51.5499C10.4966 53.0405 11.0881 54.4699 12.141 55.5239C13.1938 56.5779 14.6218 57.17 16.1107 57.17H24.6295C25.3667 57.17 26.0968 57.3154 26.7779 57.5978C27.4591 57.8802 28.0779 58.2942 28.5993 58.8161C29.1206 59.338 29.5341 59.9575 29.8162 60.6394C30.0984 61.3212 30.2436 62.052 30.2436 62.7901V70.6066C30.2436 71.3447 30.0984 72.0755 29.8162 72.7574C29.5341 73.4392 29.1206 74.0588 28.5993 74.5806C28.0779 75.1025 27.4591 75.5165 26.7779 75.7989C26.0968 76.0814 25.3667 76.2267 24.6295 76.2267H24.6089C23.1199 76.2267 21.692 76.8188 20.6391 77.8728C19.5863 78.9268 18.9948 80.3563 18.9948 81.8468V89.6633C18.9948 90.4013 19.14 91.1321 19.4222 91.814C19.7043 92.4958 20.1178 93.1154 20.6391 93.6373C21.1605 94.1591 21.7794 94.5731 22.4605 94.8555C23.1416 95.138 23.8717 95.2833 24.6089 95.2833H25.8414C27.3304 95.2833 28.7583 95.8755 29.8112 96.9294C30.864 97.9834 31.4555 99.4129 31.4555 100.903V108.72C31.4555 110.211 30.864 111.64 29.8112 112.694C28.7583 113.748 27.3304 114.34 25.8414 114.34H5.6141C4.12515 114.34 2.69718 114.932 1.64433 115.986C0.591486 117.04 0 118.47 0 119.96V127.777C0 129.267 0.591486 130.697 1.64433 131.751C2.69718 132.805 4.12515 133.397 5.6141 133.397H187.592C189.081 133.397 190.509 132.805 191.562 131.751C192.615 130.697 193.206 129.267 193.206 127.777V119.96C193.206 118.47 192.615 117.04 191.562 115.986C190.509 114.932 189.081 114.34 187.592 114.34H182.724C181.235 114.34 179.807 113.748 178.755 112.694C177.702 111.64 177.11 110.211 177.11 108.72V100.903C177.11 99.4129 177.702 97.9834 178.755 96.9294C179.807 95.8755 181.235 95.2833 182.724 95.2833H194.202C194.939 95.2833 195.669 95.138 196.35 94.8555C197.032 94.5731 197.65 94.1591 198.172 93.6373C198.693 93.1154 199.107 92.4958 199.389 91.814C199.671 91.1321 199.816 90.4013 199.816 89.6633V81.8468C199.816 80.3563 199.225 78.9268 198.172 77.8728C197.119 76.8188 195.691 76.2267 194.202 76.2267H190.72C189.983 76.2267 189.253 76.0814 188.572 75.7989C187.891 75.5165 187.272 75.1025 186.75 74.5806C186.229 74.0588 185.816 73.4392 185.533 72.7574C185.251 72.0755 185.106 71.3447 185.106 70.6066V62.7901C185.106 62.052 185.251 61.3212 185.533 60.6394C185.816 59.9575 186.229 59.338 186.75 58.8161C187.272 58.2942 187.891 57.8802 188.572 57.5978C189.253 57.3154 189.983 57.17 190.72 57.17H203.768C205.257 57.17 206.685 56.5779 207.738 55.5239C208.791 54.4699 209.382 53.0405 209.382 51.5499Z" fill="#DBE8EC"/>
<path d="M171.855 101.019C173.482 101.019 173.482 101.878 175.109 101.878C176.735 101.878 176.735 101.019 178.361 101.019C179.988 101.019 179.988 101.878 181.616 101.878C183.243 101.878 183.243 101.019 184.87 101.019" stroke="#B9D4DB" stroke-width="3" stroke-miterlimit="10" stroke-linecap="round"/>
<path d="M171.855 104.774C173.482 104.774 173.482 105.634 175.109 105.634C176.735 105.634 176.735 104.774 178.361 104.774C179.988 104.774 179.988 105.634 181.616 105.634C183.243 105.634 183.243 104.774 184.87 104.774" stroke="#B9D4DB" stroke-width="3" stroke-miterlimit="10" stroke-linecap="round"/>
<path d="M171.855 108.529C173.482 108.529 173.482 109.389 175.109 109.389C176.735 109.389 176.735 108.529 178.361 108.529C179.988 108.529 179.988 109.389 181.616 109.389C183.243 109.389 183.243 108.529 184.87 108.529" stroke="#B9D4DB" stroke-width="3" stroke-miterlimit="10" stroke-linecap="round"/>
<path d="M16 81.1602C17.6266 81.1602 17.6266 82.0195 19.2533 82.0195C20.8794 82.0195 20.8794 81.1602 22.5055 81.1602C24.1328 81.1602 24.1328 82.0195 25.76 82.0195C27.3873 82.0195 27.3873 81.1602 29.0145 81.1602" stroke="#B9D4DB" stroke-width="3" stroke-miterlimit="10" stroke-linecap="round"/>
<path d="M16 84.9155C17.6266 84.9155 17.6266 85.7749 19.2533 85.7749C20.8794 85.7749 20.8794 84.9155 22.5055 84.9155C24.1328 84.9155 24.1328 85.7749 25.76 85.7749C27.3873 85.7749 27.3873 84.9155 29.0145 84.9155" stroke="#B9D4DB" stroke-width="3" stroke-miterlimit="10" stroke-linecap="round"/>
<path d="M16 88.6704C17.6266 88.6704 17.6266 89.5298 19.2533 89.5298C20.8794 89.5298 20.8794 88.6704 22.5055 88.6704C24.1328 88.6704 24.1328 89.5298 25.76 89.5298C27.3873 89.5298 27.3873 88.6704 29.0145 88.6704" stroke="#B9D4DB" stroke-width="3" stroke-miterlimit="10" stroke-linecap="round"/>
<path d="M88.4209 7.43701C90.0475 7.43701 90.0475 8.29639 91.6742 8.29639C93.3003 8.29639 93.3003 7.43701 94.9264 7.43701C96.5537 7.43701 96.5537 8.29639 98.1809 8.29639C99.8082 8.29639 99.8082 7.43701 101.435 7.43701" stroke="#B9D4DB" stroke-width="3" stroke-miterlimit="10" stroke-linecap="round"/>
<path d="M88.4209 11.1919C90.0475 11.1919 90.0475 12.0513 91.6742 12.0513C93.3003 12.0513 93.3003 11.1919 94.9264 11.1919C96.5537 11.1919 96.5537 12.0513 98.1809 12.0513C99.8082 12.0513 99.8082 11.1919 101.435 11.1919" stroke="#B9D4DB" stroke-width="3" stroke-miterlimit="10" stroke-linecap="round"/>
<path d="M88.4209 14.9473C90.0475 14.9473 90.0475 15.8066 91.6742 15.8066C93.3003 15.8066 93.3003 14.9473 94.9264 14.9473C96.5537 14.9473 96.5537 15.8066 98.1809 15.8066C99.8082 15.8066 99.8082 14.9473 101.435 14.9473" stroke="#B9D4DB" stroke-width="3" stroke-miterlimit="10" stroke-linecap="round"/>
<path d="M47.1287 129.308C50.201 129.308 52.6916 126.815 52.6916 123.739C52.6916 120.664 50.201 118.17 47.1287 118.17C44.0565 118.17 41.5659 120.664 41.5659 123.739C41.5659 126.815 44.0565 129.308 47.1287 129.308Z" fill="#B9D4DB"/>
<path d="M51.1652 111.938C52.7582 111.938 54.0496 110.645 54.0496 109.05C54.0496 107.455 52.7582 106.163 51.1652 106.163C49.5722 106.163 48.2808 107.455 48.2808 109.05C48.2808 110.645 49.5722 111.938 51.1652 111.938Z" fill="#B9D4DB"/>
<path d="M62.5884 128.483C64.8641 128.483 66.709 126.636 66.709 124.358C66.709 122.08 64.8641 120.233 62.5884 120.233C60.3126 120.233 58.4678 122.08 58.4678 124.358C58.4678 126.636 60.3126 128.483 62.5884 128.483Z" fill="#B9D4DB"/>
<path d="M41.6621 53.6621C45.3175 53.6621 48.2808 50.6957 48.2808 47.0364C48.2808 43.3771 45.3175 40.4106 41.6621 40.4106C38.0067 40.4106 35.0435 43.3771 35.0435 47.0364C35.0435 50.6957 38.0067 53.6621 41.6621 53.6621Z" fill="#B9D4DB"/>
<path d="M29.0149 45.7682C30.919 45.7682 32.4625 44.223 32.4625 42.317C32.4625 40.4109 30.919 38.8657 29.0149 38.8657C27.1109 38.8657 25.5674 40.4109 25.5674 42.317C25.5674 44.223 27.1109 45.7682 29.0149 45.7682Z" fill="#B9D4DB"/>
<path d="M32.1815 32.5758C33.2798 32.5758 34.1702 31.6845 34.1702 30.585C34.1702 29.4855 33.2798 28.5942 32.1815 28.5942C31.0832 28.5942 30.1929 29.4855 30.1929 30.585C30.1929 31.6845 31.0832 32.5758 32.1815 32.5758Z" fill="#B9D4DB"/>
<path d="M43.1901 36.7658C45.823 36.7658 47.9574 34.6292 47.9574 31.9935C47.9574 29.3578 45.823 27.2212 43.1901 27.2212C40.5572 27.2212 38.4229 29.3578 38.4229 31.9935C38.4229 34.6292 40.5572 36.7658 43.1901 36.7658Z" fill="#B9D4DB"/>
<path d="M156.704 21.5278C160.359 21.5278 163.322 18.5614 163.322 14.9021C163.322 11.2428 160.359 8.27637 156.704 8.27637C153.048 8.27637 150.085 11.2428 150.085 14.9021C150.085 18.5614 153.048 21.5278 156.704 21.5278Z" fill="#B9D4DB"/>
<path d="M167.235 9.90247C169.139 9.90247 170.683 8.3573 170.683 6.45123C170.683 4.54517 169.139 3 167.235 3C165.331 3 163.788 4.54517 163.788 6.45123C163.788 8.3573 165.331 9.90247 167.235 9.90247Z" fill="#B9D4DB"/>
<path d="M180.405 28.3764C182.053 28.3764 183.389 27.0391 183.389 25.3894C183.389 23.7397 182.053 22.4023 180.405 22.4023C178.757 22.4023 177.421 23.7397 177.421 25.3894C177.421 27.0391 178.757 28.3764 180.405 28.3764Z" fill="#B9D4DB"/>
<path d="M175.674 17.1778C176.772 17.1778 177.662 16.2865 177.662 15.187C177.662 14.0876 176.772 13.1963 175.674 13.1963C174.575 13.1963 173.685 14.0876 173.685 15.187C173.685 16.2865 174.575 17.1778 175.674 17.1778Z" fill="#B9D4DB"/>
<path d="M168.822 28.6994C171.455 28.6994 173.589 26.5628 173.589 23.9271C173.589 21.2914 171.455 19.1548 168.822 19.1548C166.189 19.1548 164.055 21.2914 164.055 23.9271C164.055 26.5628 166.189 28.6994 168.822 28.6994Z" fill="#B9D4DB"/>
<g clip-path="url(#clip0_215_1399)">
<path d="M122.625 108.792C122.626 111.336 121.665 113.786 119.935 115.651C118.205 117.516 115.835 118.659 113.298 118.85L112.542 118.875H102.458C99.9144 118.876 97.4642 117.915 95.5989 116.185C93.7335 114.456 92.591 112.085 92.4002 109.548L92.375 108.792H122.625ZM107.5 23.0834C116.65 23.0832 125.443 26.6372 132.024 32.9957C138.604 39.3541 142.458 48.0199 142.771 57.165L142.792 58.375V77.3519L151.978 95.7237C152.378 96.5253 152.579 97.4122 152.562 98.3083C152.545 99.2044 152.312 100.083 151.881 100.869C151.45 101.655 150.836 102.325 150.089 102.822C149.343 103.318 148.488 103.626 147.596 103.72L147.017 103.75H67.9834C67.0868 103.75 66.2035 103.533 65.4092 103.117C64.6149 102.701 63.9333 102.099 63.4228 101.362C62.9123 100.625 62.588 99.7752 62.4779 98.8854C62.3678 97.9956 62.475 97.0924 62.7905 96.2531L63.0224 95.7237L72.2083 77.3519V58.375C72.2083 49.0151 75.9265 40.0385 82.545 33.4201C89.1635 26.8016 98.14 23.0834 107.5 23.0834Z" fill="#1D4870" fill-opacity="0.8"/>
</g>
<defs>
<clipPath id="clip0_215_1399">
<rect width="121" height="121" fill="white" transform="translate(47 13)"/>
</clipPath>
</defs>
</svg>
