<svg width="15" height="15" viewBox="0 0 15 15" fill="none" xmlns="http://www.w3.org/2000/svg">
<path d="M10.999 10.999C9.99207 11.7666 8.76595 12.1918 7.5 12.2125C3.37658 12.2125 1.02034 7.5 1.02034 7.5C1.75307 6.1345 2.76934 4.94148 4.00098 4.00098M6.26297 2.92889C6.66844 2.83399 7.08357 2.78654 7.5 2.78752C11.6234 2.78752 13.9797 7.5 13.9797 7.5C13.6221 8.16894 13.1956 8.79872 12.7073 9.3791M8.7488 8.7488C8.58702 8.92243 8.39192 9.06169 8.17515 9.15827C7.95838 9.25486 7.72437 9.3068 7.48709 9.31098C7.24981 9.31517 7.01412 9.27152 6.79407 9.18264C6.57403 9.09376 6.37414 8.96147 6.20633 8.79366C6.03852 8.62586 5.90623 8.42597 5.81735 8.20592C5.72847 7.98588 5.68483 7.75018 5.68901 7.5129C5.6932 7.27562 5.74514 7.04162 5.84172 6.82485C5.93831 6.60807 6.07757 6.41298 6.25119 6.25119M1.02034 1.02034L13.9797 13.9797" stroke="#142433" stroke-width="2" stroke-linecap="round" stroke-linejoin="round"/>
</svg>
