<svg width="220" height="173" viewBox="0 0 220 173" fill="none" xmlns="http://www.w3.org/2000/svg">
<path d="M114.389 138.904C145.736 138.904 171.148 113.535 171.148 82.2411C171.148 50.9473 145.736 25.5786 114.389 25.5786C83.0426 25.5786 57.6311 50.9473 57.6311 82.2411C57.6311 113.535 83.0426 138.904 114.389 138.904Z" fill="#DBE8EC"/>
<path d="M194.474 75.6054V69.4863C194.474 68.3195 194.01 67.2004 193.184 66.3753C192.357 65.5502 191.236 65.0867 190.067 65.0867H171.127C170.549 65.0867 169.975 64.9729 169.441 64.7518C168.906 64.5307 168.42 64.2066 168.011 63.7981C167.602 63.3895 167.277 62.9045 167.056 62.3707C166.834 61.837 166.72 61.2648 166.72 60.6871V54.568C166.72 53.4011 167.184 52.2821 168.011 51.457C168.837 50.6319 169.958 50.1684 171.127 50.1684H178.388C179.556 50.1684 180.677 49.7048 181.504 48.8797C182.33 48.0546 182.795 46.9356 182.795 45.7687V39.6496C182.795 38.4828 182.33 37.3637 181.504 36.5386C180.677 35.7135 179.556 35.25 178.388 35.25H48.4457C47.2769 35.25 46.156 35.7135 45.3295 36.5386C44.503 37.3637 44.0387 38.4828 44.0387 39.6496V45.7687C44.0387 46.9356 44.503 48.0546 45.3295 48.8797C46.156 49.7048 47.2769 50.1684 48.4457 50.1684C49.6146 50.1684 50.7355 50.6319 51.562 51.457C52.3885 52.2821 52.8528 53.4011 52.8528 54.568V60.6871C52.8528 61.8539 52.3885 62.973 51.562 63.7981C50.7355 64.6232 49.6146 65.0867 48.4457 65.0867H28.0186C26.8498 65.0867 25.7289 65.5502 24.9024 66.3753C24.0759 67.2004 23.6116 68.3195 23.6116 69.4863V75.6054C23.6116 76.7723 24.0759 77.8913 24.9024 78.7164C25.7289 79.5415 26.8498 80.005 28.0186 80.005H48.2443C48.8231 80.005 49.3961 80.1188 49.9308 80.3399C50.4655 80.561 50.9514 80.8851 51.3606 81.2937C51.7698 81.7022 52.0945 82.1872 52.3159 82.721C52.5374 83.2548 52.6514 83.8269 52.6514 84.4047V90.5238C52.7594 96.1231 40.5244 94.9234 38.0905 94.9234H38.0743C36.9055 94.9234 35.7845 95.387 34.9581 96.2121C34.1316 97.0371 33.6673 98.1562 33.6673 99.3231V105.442C33.6673 106.609 34.1316 107.728 34.9581 108.553C35.7845 109.378 36.9055 109.842 38.0743 109.842H49.1957C50.3645 109.842 51.4855 110.305 52.3119 111.13C53.1384 111.955 53.6027 113.075 53.6027 114.241V120.361C53.6027 121.527 53.1384 122.646 52.3119 123.472C51.4855 124.297 50.3645 124.76 49.1957 124.76H36.7019C35.5331 124.76 34.4121 125.224 33.5856 126.049C32.7591 126.874 32.2948 127.993 32.2948 129.16V135.279C32.2948 136.446 32.7591 137.565 33.5856 138.39C34.4121 139.215 35.5331 139.678 36.7019 139.678H177.369C178.538 139.678 179.659 139.215 180.485 138.39C181.312 137.565 181.776 136.446 181.776 135.279V129.16C181.776 127.993 181.312 126.874 180.485 126.049C179.659 125.224 178.538 124.76 177.369 124.76H170.163C168.994 124.76 167.874 124.297 167.047 123.472C166.221 122.646 165.756 121.527 165.756 120.361V114.241C165.756 113.075 166.221 111.955 167.047 111.13C167.874 110.305 168.994 109.842 170.163 109.842H182.558C183.727 109.842 184.848 109.378 185.674 108.553C186.501 107.728 186.965 106.609 186.965 105.442V99.3231C186.965 98.1562 186.501 97.0371 185.674 96.2121C184.848 95.387 183.727 94.9234 182.558 94.9234H176.44C175.271 94.9234 174.15 94.4599 173.324 93.6348C172.497 92.8097 172.033 91.6907 172.033 90.5238V84.4047C172.033 83.8269 172.147 83.2548 172.368 82.721C172.59 82.1872 172.914 81.7022 173.324 81.2937C173.733 80.8851 174.219 80.561 174.753 80.3399C175.288 80.1188 175.861 80.005 176.44 80.005H190.067C191.236 80.005 192.357 79.5415 193.184 78.7164C194.01 77.8913 194.474 76.7723 194.474 75.6054Z" fill="#DBE8EC"/>
<path d="M115.306 66.0604C124.084 66.0604 131.2 58.9565 131.2 50.1935C131.2 41.4305 124.084 34.3267 115.306 34.3267C106.528 34.3267 99.4125 41.4305 99.4125 50.1935C99.4125 58.9565 106.528 66.0604 115.306 66.0604Z" fill="#224971"/>
<path d="M109.679 46.8894C109.679 46.8698 109.679 46.8502 109.679 46.8305C109.679 45.723 110.007 44.6401 110.622 43.718C111.236 42.796 112.11 42.0759 113.134 41.6483C114.157 41.2208 115.285 41.1048 116.374 41.315C117.463 41.5251 118.466 42.0521 119.256 42.8296C120.046 43.607 120.589 44.6004 120.815 45.6847C121.041 46.769 120.941 47.8959 120.528 48.9237C120.115 49.9516 119.406 50.8345 118.492 51.4615C117.577 52.0885 116.497 52.4315 115.388 52.4476V57.5487" stroke="#F5F7FA" stroke-width="4" stroke-linecap="round" stroke-linejoin="round"/>
<path d="M142.041 39.5127H152.975" stroke="#224971" stroke-width="3" stroke-miterlimit="10" stroke-linecap="round"/>
<path d="M142.041 42.6587H152.975" stroke="#224971" stroke-width="3" stroke-miterlimit="10" stroke-linecap="round"/>
<path d="M142.041 45.8047H152.975" stroke="#224971" stroke-width="3" stroke-miterlimit="10" stroke-linecap="round"/>
<path d="M40.3289 99.2593H51.2621" stroke="#224971" stroke-width="3" stroke-miterlimit="10" stroke-linecap="round"/>
<path d="M40.3289 102.405H51.2621" stroke="#224971" stroke-width="3" stroke-miterlimit="10" stroke-linecap="round"/>
<path d="M40.3289 105.551H51.2621" stroke="#224971" stroke-width="3" stroke-miterlimit="10" stroke-linecap="round"/>
<path d="M163.017 121.693H173.95" stroke="#224971" stroke-width="3" stroke-miterlimit="10" stroke-linecap="round"/>
<path d="M163.017 124.839H173.95" stroke="#224971" stroke-width="3" stroke-miterlimit="10" stroke-linecap="round"/>
<path d="M163.017 127.985H173.95" stroke="#224971" stroke-width="3" stroke-miterlimit="10" stroke-linecap="round"/>
<path d="M176.195 106.2C178.776 106.2 180.869 104.112 180.869 101.535C180.869 98.9584 178.776 96.8696 176.195 96.8696C173.614 96.8696 171.522 98.9584 171.522 101.535C171.522 104.112 173.614 106.2 176.195 106.2Z" fill="#B9D4DB"/>
<path d="M163.863 107.321C165.201 107.321 166.286 106.238 166.286 104.901C166.286 103.565 165.201 102.482 163.863 102.482C162.525 102.482 161.44 103.565 161.44 104.901C161.44 106.238 162.525 107.321 163.863 107.321Z" fill="#B9D4DB"/>
<path d="M170.016 93.5747C171.928 93.5747 173.478 92.0275 173.478 90.1189C173.478 88.2103 171.928 86.6631 170.016 86.6631C168.104 86.6631 166.554 88.2103 166.554 90.1189C166.554 92.0275 168.104 93.5747 170.016 93.5747Z" fill="#B9D4DB"/>
<path d="M69.856 137.218C72.9269 137.218 75.4163 134.733 75.4163 131.668C75.4163 128.602 72.9269 126.117 69.856 126.117C66.7852 126.117 64.2958 128.602 64.2958 131.668C64.2958 134.733 66.7852 137.218 69.856 137.218Z" fill="#B9D4DB"/>
<path d="M59.2311 130.605C60.8306 130.605 62.1273 129.31 62.1273 127.714C62.1273 126.117 60.8306 124.822 59.2311 124.822C57.6315 124.822 56.3348 126.117 56.3348 127.714C56.3348 129.31 57.6315 130.605 59.2311 130.605Z" fill="#B9D4DB"/>
<path d="M61.8913 119.553C62.814 119.553 63.5619 118.806 63.5619 117.885C63.5619 116.964 62.814 116.217 61.8913 116.217C60.9687 116.217 60.2207 116.964 60.2207 117.885C60.2207 118.806 60.9687 119.553 61.8913 119.553Z" fill="#B9D4DB"/>
<path d="M71.1395 123.063C73.3514 123.063 75.1444 121.273 75.1444 119.065C75.1444 116.857 73.3514 115.067 71.1395 115.067C68.9277 115.067 67.1346 116.857 67.1346 119.065C67.1346 121.273 68.9277 123.063 71.1395 123.063Z" fill="#B9D4DB"/>
<path d="M73.9279 53.8893C76.9987 53.8893 79.4882 51.4041 79.4882 48.3385C79.4882 45.2728 76.9987 42.7876 73.9279 42.7876C70.8571 42.7876 68.3677 45.2728 68.3677 48.3385C68.3677 51.4041 70.8571 53.8893 73.9279 53.8893Z" fill="#B9D4DB"/>
<path d="M74.1536 39.9121C75.7531 39.9121 77.0498 38.6176 77.0498 37.0207C77.0498 35.4239 75.7531 34.1294 74.1536 34.1294C72.554 34.1294 71.2573 35.4239 71.2573 37.0207C71.2573 38.6176 72.554 39.9121 74.1536 39.9121Z" fill="#B9D4DB"/>
<path d="M93.4441 41.2124C94.8285 41.2124 95.9508 40.0921 95.9508 38.71C95.9508 37.3279 94.8285 36.2075 93.4441 36.2075C92.0597 36.2075 90.9374 37.3279 90.9374 38.71C90.9374 40.0921 92.0597 41.2124 93.4441 41.2124Z" fill="#B9D4DB"/>
<path d="M84.3246 37.946C85.2472 37.946 85.9952 37.1993 85.9952 36.2782C85.9952 35.3571 85.2472 34.6104 84.3246 34.6104C83.4019 34.6104 82.6539 35.3571 82.6539 36.2782C82.6539 37.1993 83.4019 37.946 84.3246 37.946Z" fill="#B9D4DB"/>
<path d="M86.266 49.38C88.4778 49.38 90.2709 47.59 90.2709 45.3819C90.2709 43.1738 88.4778 41.3838 86.266 41.3838C84.0542 41.3838 82.2611 43.1738 82.2611 45.3819C82.2611 47.59 84.0542 49.38 86.266 49.38Z" fill="#B9D4DB"/>
<path d="M162.752 78.8106H68.5796L65.5089 71.0391H162.752C162.873 71.0391 162.993 71.0629 163.104 71.1091C163.216 71.1553 163.318 71.223 163.403 71.3084C163.489 71.3938 163.557 71.4952 163.603 71.6068C163.649 71.7184 163.673 71.838 163.673 71.9587V77.891C163.673 78.0118 163.649 78.1313 163.603 78.2429C163.557 78.3545 163.489 78.4559 163.403 78.5413C163.318 78.6267 163.216 78.6944 163.104 78.7406C162.993 78.7869 162.873 78.8106 162.752 78.8106Z" fill="#224971"/>
<path d="M149.032 119.643H84.9967C84.6843 119.643 84.3793 119.548 84.1224 119.371C83.8656 119.193 83.6691 118.941 83.5593 118.649L68.5796 78.8105H159.472L150.53 118.447C150.454 118.787 150.264 119.09 149.991 119.308C149.719 119.525 149.381 119.643 149.032 119.643Z" fill="#224971"/>
<path d="M154.867 99.2279C148.316 99.6474 141.765 99.8668 135.215 100.016C131.939 100.109 128.664 100.13 125.388 100.185L115.562 100.241C109.011 100.247 102.46 100.173 95.909 100.019C89.3581 99.8704 82.8071 99.6499 76.2562 99.2279C82.8071 98.8059 89.3581 98.5854 95.909 98.4369C102.46 98.29 109.011 98.216 115.562 98.2148L125.388 98.2708C128.664 98.3258 131.939 98.3465 135.215 98.4399C141.765 98.589 148.316 98.8085 154.867 99.2279Z" fill="#F5F7FA"/>
<path d="M142.054 78.8105C141.68 82.3739 141.11 85.8929 140.48 89.3985C139.843 92.9024 139.131 96.3896 138.345 99.8602C137.564 103.332 136.71 106.787 135.784 110.226C135.317 111.945 134.834 113.66 134.317 115.367C134.05 116.219 133.796 117.073 133.518 117.923L133.304 118.568C133.22 118.805 133.083 119.02 132.904 119.196C132.736 119.362 132.533 119.489 132.31 119.566C132.086 119.643 131.848 119.67 131.613 119.643C131.826 119.618 132.03 119.548 132.212 119.436C132.394 119.325 132.55 119.176 132.669 118.998C132.781 118.835 132.854 118.649 132.884 118.454L132.969 117.799C133.083 116.913 133.22 116.032 133.344 115.148C133.611 113.385 133.911 111.628 134.227 109.876C134.865 106.372 135.577 102.885 136.365 99.4148C137.149 95.9439 138.003 92.4888 138.928 89.0495C139.865 85.6129 140.86 82.1895 142.054 78.8105Z" fill="#F5F7FA"/>
<path d="M105.46 119.643C105.215 119.67 104.968 119.639 104.738 119.553C104.507 119.468 104.3 119.33 104.132 119.151C103.967 118.962 103.835 118.747 103.74 118.515L103.437 117.887C103.033 117.051 102.652 116.205 102.258 115.364C101.487 113.677 100.747 111.978 100.023 110.272C98.5806 106.86 97.2094 103.421 95.9091 99.9552C94.6048 96.491 93.3696 93.0009 92.2036 89.4849C91.0475 85.9652 89.9496 82.4237 89.0427 78.8105C90.7414 82.1269 92.2491 85.5149 93.6985 88.9247C95.1406 92.3373 96.511 95.7767 97.8097 99.2429C99.1114 102.708 100.346 106.199 101.513 109.714C102.091 111.474 102.654 113.239 103.186 115.017C103.444 115.908 103.714 116.795 103.961 117.691L104.146 118.363C104.188 118.574 104.265 118.776 104.372 118.963C104.49 119.15 104.65 119.309 104.838 119.427C105.026 119.545 105.239 119.619 105.46 119.643Z" fill="#F5F7FA"/>
<path d="M100.897 150.97C104.401 150.97 107.241 148.135 107.241 144.637C107.241 141.139 104.401 138.304 100.897 138.304C97.3935 138.304 94.5532 141.139 94.5532 144.637C94.5532 148.135 97.3935 150.97 100.897 150.97Z" fill="#224971"/>
<path d="M100.897 147.56C102.514 147.56 103.825 146.251 103.825 144.637C103.825 143.023 102.514 141.714 100.897 141.714C99.2801 141.714 97.9692 143.023 97.9692 144.637C97.9692 146.251 99.2801 147.56 100.897 147.56Z" fill="#DBE8EC"/>
<path d="M137.491 150.97C140.995 150.97 143.835 148.135 143.835 144.637C143.835 141.139 140.995 138.304 137.491 138.304C133.987 138.304 131.147 141.139 131.147 144.637C131.147 148.135 133.987 150.97 137.491 150.97Z" fill="#224971"/>
<path d="M137.491 147.56C139.108 147.56 140.419 146.251 140.419 144.637C140.419 143.023 139.108 141.714 137.491 141.714C135.874 141.714 134.563 143.023 134.563 144.637C134.563 146.251 135.874 147.56 137.491 147.56Z" fill="#DBE8EC"/>
<path d="M116.124 78.8105C116.746 82.1883 117.167 85.5781 117.527 88.9715C117.879 92.3654 118.155 95.7638 118.355 99.1667C118.56 102.569 118.691 105.976 118.748 109.388C118.795 112.8 118.78 116.215 118.56 119.643C117.935 116.266 117.514 112.876 117.154 109.483C116.803 106.089 116.527 102.69 116.329 99.2872C116.127 95.8844 115.997 92.4774 115.939 89.066C115.893 85.6539 115.907 82.2382 116.124 78.8105Z" fill="#F5F7FA"/>
<path d="M148.225 135.089H90.8377C90.6323 135.089 90.4317 135.027 90.2625 134.911C90.0932 134.794 89.9632 134.63 89.8897 134.438L56.6533 47.9458H39.0487C38.7794 47.9458 38.5211 47.839 38.3307 47.6489C38.1403 47.4588 38.0333 47.201 38.0333 46.9321C38.0333 46.6633 38.1403 46.4055 38.3307 46.2154C38.5211 46.0253 38.7794 45.9185 39.0487 45.9185H57.3513C57.5567 45.9185 57.7573 45.9807 57.9266 46.0968C58.0958 46.213 58.2258 46.3777 58.2994 46.5692L91.5357 133.062H148.225C148.494 133.062 148.753 133.168 148.943 133.358C149.134 133.549 149.241 133.806 149.241 134.075C149.241 134.344 149.134 134.602 148.943 134.792C148.753 134.982 148.494 135.089 148.225 135.089Z" fill="#224971"/>
<path d="M47.878 44.0098H35.8288C35.4549 44.0098 35.1519 44.3123 35.1519 44.6855V49.5377C35.1519 49.9109 35.4549 50.2134 35.8288 50.2134H47.878C48.2519 50.2134 48.5549 49.9109 48.5549 49.5377V44.6855C48.5549 44.3123 48.2519 44.0098 47.878 44.0098Z" fill="#224971"/>
<path d="M115.306 61.5976C115.811 61.5976 116.22 61.1891 116.22 60.6853C116.22 60.1814 115.811 59.7729 115.306 59.7729C114.801 59.7729 114.392 60.1814 114.392 60.6853C114.392 61.1891 114.801 61.5976 115.306 61.5976Z" fill="#F5F7FA"/>
</svg>
