<svg width="119" height="118" viewBox="0 0 119 118" fill="none" xmlns="http://www.w3.org/2000/svg">
<ellipse cx="59.5" cy="59" rx="59.5" ry="59" fill="#DAE6F2"/>
<circle cx="59" cy="59" r="44" fill="white"/>
<mask id="mask0_293_1590" style="mask-type:alpha" maskUnits="userSpaceOnUse" x="17" y="17" width="87" height="87">
<rect x="17.4146" y="17.4146" width="85.6219" height="85.6219" fill="#D9D9D9"/>
</mask>
<g mask="url(#mask0_293_1590)">
<path d="M53.2763 74.4621L78.2972 49.4411L74.3867 45.5855L53.2763 66.7302L42.6216 56.0755L38.8002 59.9311L53.2763 74.4621ZM58.5036 93.8574C53.6634 93.8574 49.1023 92.9227 44.8202 91.0533C40.5382 89.1839 36.8026 86.6554 33.6136 83.4677C30.4246 80.28 27.8949 76.5422 26.0248 72.2542C24.1546 67.9661 23.2195 63.3962 23.2195 58.5444C23.2195 53.6623 24.1559 49.0734 26.0289 44.7778C27.9018 40.482 30.4406 36.7316 33.6453 33.5263C36.8501 30.3211 40.5857 27.802 44.8521 25.969C49.1187 24.136 53.6656 23.2195 58.493 23.2195C63.3785 23.2195 67.9781 24.1356 72.292 25.9679C76.6059 27.8 80.359 30.3185 83.5512 33.5231C86.7435 36.7277 89.2592 40.4819 91.0985 44.7855C92.9378 49.0892 93.8574 53.6876 93.8574 58.5808C93.8574 63.4374 92.9413 67.9918 91.109 72.244C89.2769 76.4963 86.7588 80.2247 83.555 83.4294C80.3511 86.634 76.5979 89.1732 72.2953 91.0469C67.9927 92.9206 63.3955 93.8574 58.5036 93.8574Z" fill="#224971"/>
</g>
</svg>
