<svg width="12" height="6" viewBox="0 0 12 6" fill="none" xmlns="http://www.w3.org/2000/svg">
<path d="M5.23544 4.69325L5.25628 4.67431L4.08501 3.61L2.52286 2.19051L1.2368 1.0219L0.697919 0.532226C0.689847 0.52489 0.661286 0.504159 0.584565 0.500003C0.582325 0.50003 0.57419 0.500585 0.559239 0.506569C0.543943 0.512692 0.525414 0.523043 0.506014 0.537912C0.505457 0.538985 0.504858 0.540224 0.504246 0.541614C0.502804 0.54489 0.501698 0.548078 0.500922 0.550802C0.501314 0.551908 0.501823 0.553199 0.502477 0.55464C0.504025 0.558057 0.505978 0.561419 0.508121 0.56439C0.51026 0.567352 0.512072 0.569212 0.513057 0.570107L0.176803 0.940152L0.513059 0.570109L0.522746 0.578912L0.522766 0.578889L0.526819 0.582654C0.667949 0.713778 0.808949 0.84095 0.953062 0.970931C1.02664 1.03729 1.10103 1.10439 1.17667 1.17312L2.51964 2.39344L4.08179 3.81294L5.143 4.77724L5.23544 4.69325ZM7.73288 3.77506L6.74343 4.67415C6.74794 4.67835 6.75244 4.68255 6.75694 4.68675L6.7641 4.69325L6.85714 4.77779L8.09939 3.64898L9.66154 2.22949L10.9476 1.06088L11.4846 0.572965C11.4847 0.572808 11.4849 0.572653 11.4851 0.572499C11.4903 0.56761 11.4922 0.564207 11.4937 0.560835C11.4947 0.55856 11.4961 0.554676 11.4974 0.548819C11.4963 0.547186 11.4951 0.545393 11.4936 0.543447C11.4892 0.537509 11.4837 0.530838 11.477 0.523715C11.4727 0.521265 11.4653 0.5176 11.4548 0.51381C11.4436 0.509713 11.4314 0.506411 11.4195 0.50424C11.4075 0.502042 11.3986 0.501523 11.394 0.501523C11.3545 0.501523 11.3142 0.520767 11.3016 0.532226L10.9654 0.16218L11.3016 0.532228L11.2919 0.54103L11.2919 0.541053L11.2878 0.544721C11.1435 0.672962 11.0036 0.80108 10.8605 0.932025C10.7875 0.998894 10.7136 1.0665 10.638 1.13524L9.29503 2.35556L7.73288 3.77506Z" stroke="#506173"/>
</svg>
