<svg width="19" height="19" viewBox="0 0 19 19" fill="none" xmlns="http://www.w3.org/2000/svg">
<path d="M8.08456 13.783L14.8146 7.05299L13.7628 6.01591L8.08456 11.7034L5.2187 8.83748L4.19083 9.87456L8.08456 13.783ZM9.49058 18.9999C8.18868 18.9999 6.96185 18.7485 5.81008 18.2457C4.65831 17.7428 3.65354 17.0627 2.79578 16.2053C1.938 15.3479 1.25759 14.3425 0.754553 13.1892C0.251518 12.0358 0 10.8066 0 9.50156C0 8.18839 0.251886 6.95409 0.755656 5.79866C1.25943 4.64321 1.94231 3.63442 2.80429 2.77229C3.6663 1.91018 4.67109 1.2326 5.81867 0.739559C6.96626 0.24652 8.18928 0 9.48772 0C10.8018 0 12.039 0.246416 13.1993 0.739247C14.3597 1.23206 15.3692 1.90946 16.2278 2.77143C17.0864 3.6334 17.7631 4.64317 18.2578 5.80075C18.7526 6.95834 18.9999 8.19521 18.9999 9.51135C18.9999 10.8177 18.7535 12.0427 18.2607 13.1864C17.7679 14.3302 17.0906 15.333 16.2288 16.195C15.367 17.057 14.3575 17.74 13.2002 18.2439C12.0429 18.7479 10.8064 18.9999 9.49058 18.9999Z" fill="#224971"/>
</svg>
