<svg width="13" height="12" viewBox="0 0 13 12" fill="none" xmlns="http://www.w3.org/2000/svg">
<path d="M6.05155 0.177221C6.1283 -0.0589964 6.46248 -0.058996 6.53923 0.177221L7.84961 4.21015C7.88393 4.31579 7.98238 4.38731 8.09345 4.38731H12.3339C12.5823 4.38731 12.6856 4.70514 12.4846 4.85113L9.05402 7.34361C8.96415 7.4089 8.92655 7.52463 8.96088 7.63027L10.2713 11.6632C10.348 11.8994 10.0776 12.0958 9.8767 11.9498L6.44609 9.45736C6.35623 9.39207 6.23455 9.39207 6.14469 9.45736L2.71407 11.9498C2.51314 12.0958 2.24278 11.8994 2.31953 11.6632L3.6299 7.63027C3.66423 7.52463 3.62663 7.4089 3.53676 7.34361L0.106153 4.85113C-0.0947856 4.70514 0.00848327 4.38731 0.256857 4.38731H4.49733C4.6084 4.38731 4.70684 4.31579 4.74117 4.21015L6.05155 0.177221Z" fill="#F8BD00"/>
</svg>
