<svg width="220" height="173" viewBox="0 0 220 173" fill="none" xmlns="http://www.w3.org/2000/svg">
<path d="M204.032 74.5878V68.4411C204.032 67.269 203.565 66.145 202.735 65.3161C201.905 64.4873 200.779 64.0217 199.605 64.0217H194.133C192.959 64.0217 191.833 63.5561 191.003 62.7273C190.173 61.8985 189.706 60.7744 189.706 59.6023V53.4557C189.706 52.2836 190.173 51.1595 191.003 50.3307C191.833 49.5019 192.959 49.0363 194.133 49.0363H194.627C195.801 49.0363 196.927 48.5706 197.757 47.7418C198.587 46.913 199.053 45.7889 199.053 44.6168V38.4702C199.053 37.2981 198.587 36.174 197.757 35.3452C196.927 34.5164 195.801 34.0508 194.627 34.0508H28.1348C27.5535 34.0508 26.9778 34.1651 26.4407 34.3872C25.9036 34.6093 25.4156 34.9348 25.0046 35.3452C24.5935 35.7556 24.2674 36.2428 24.0449 36.779C23.8225 37.3152 23.7079 37.8898 23.7079 38.4702V44.6168C23.7079 45.7889 24.1744 46.913 25.0046 47.7418C25.8348 48.5706 26.9608 49.0363 28.1348 49.0363C28.7162 49.0363 29.2918 49.1506 29.8289 49.3727C30.366 49.5948 30.854 49.9203 31.2651 50.3307C31.6762 50.7411 32.0023 51.2282 32.2248 51.7644C32.4472 52.3006 32.5617 52.8753 32.5617 53.4557V59.6023C32.5617 60.1827 32.4472 60.7574 32.2248 61.2935C32.0023 61.8297 31.6762 62.3169 31.2651 62.7273C30.854 63.1377 30.366 63.4632 29.8289 63.6853C29.2918 63.9074 28.7162 64.0217 28.1348 64.0217H14.4003C13.8189 64.0217 13.2433 64.136 12.7062 64.3581C12.1691 64.5802 11.6811 64.9058 11.27 65.3161C10.8589 65.7265 10.5328 66.2137 10.3104 66.7499C10.0879 67.2861 9.97339 67.8608 9.97339 68.4411V74.5878C9.97339 75.1681 10.0879 75.7428 10.3104 76.279C10.5328 76.8152 10.8589 77.3024 11.27 77.7128C11.6811 78.1232 12.1691 78.4487 12.7062 78.6708C13.2433 78.8929 13.8189 79.0072 14.4003 79.0072H17.733C18.3143 79.0072 18.89 79.1215 19.4271 79.3436C19.9642 79.5657 20.4522 79.8912 20.8633 80.3016C21.2743 80.712 21.6004 81.1992 21.8229 81.7354C22.0454 82.2716 22.1599 82.8463 22.1599 83.4266V89.5733C22.1599 90.1536 22.0454 90.7283 21.8229 91.2645C21.6004 91.8007 21.2743 92.2879 20.8633 92.6983C20.4522 93.1087 19.9642 93.4342 19.4271 93.6563C18.89 93.8784 18.3143 93.9927 17.733 93.9927H17.7167C16.5426 93.9927 15.4166 94.4583 14.5864 95.2871C13.7562 96.1159 13.2898 97.24 13.2898 98.4121V104.559C13.2898 105.139 13.4043 105.714 13.6268 106.25C13.8493 106.786 14.1754 107.273 14.5864 107.684C14.9975 108.094 15.4855 108.42 16.0226 108.642C16.5597 108.864 17.1354 108.978 17.7167 108.978H18.6886C19.8627 108.978 20.9887 109.444 21.8189 110.273C22.6491 111.101 23.1155 112.225 23.1155 113.398V119.544C23.1155 120.716 22.6491 121.84 21.8189 122.669C20.9887 123.498 19.8627 123.964 18.6886 123.964H18.308C17.7266 123.964 17.151 124.078 16.6139 124.3C16.0768 124.522 15.5888 124.848 15.1777 125.258C14.7666 125.668 14.4405 126.156 14.2181 126.692C13.9956 127.228 13.8811 127.803 13.8811 128.383V134.53C13.8811 135.11 13.9956 135.685 14.2181 136.221C14.4405 136.757 14.7666 137.244 15.1777 137.655C15.5888 138.065 16.0768 138.391 16.6139 138.613C17.151 138.835 17.7266 138.949 18.308 138.949H197.003C198.177 138.949 199.303 138.483 200.133 137.655C200.964 136.826 201.43 135.702 201.43 134.53V128.383C201.43 127.211 200.964 126.087 200.133 125.258C199.303 124.429 198.177 123.964 197.003 123.964H193.165C191.991 123.964 190.865 123.498 190.035 122.669C189.204 121.84 188.738 120.716 188.738 119.544V113.398C188.738 112.225 189.204 111.101 190.035 110.273C190.865 109.444 191.991 108.978 193.165 108.978H205.6C206.774 108.978 207.9 108.513 208.73 107.684C209.56 106.855 210.027 105.731 210.027 104.559V98.4121C210.027 97.8317 209.912 97.2571 209.69 96.7209C209.467 96.1847 209.141 95.6975 208.73 95.2871C208.319 94.8767 207.831 94.5512 207.294 94.3291C206.757 94.107 206.181 93.9927 205.6 93.9927H199.47C198.888 93.9927 198.313 93.8784 197.776 93.6563C197.239 93.4342 196.751 93.1087 196.34 92.6983C195.928 92.2879 195.602 91.8007 195.38 91.2645C195.157 90.7283 195.043 90.1536 195.043 89.5733V83.4266C195.043 82.8463 195.157 82.2716 195.38 81.7354C195.602 81.1992 195.928 80.712 196.34 80.3016C196.751 79.8912 197.239 79.5657 197.776 79.3436C198.313 79.1215 198.888 79.0072 199.47 79.0072H199.605C200.779 79.0072 201.905 78.5416 202.735 77.7128C203.565 76.884 204.032 75.7599 204.032 74.5878Z" fill="#DBE8EC"/>
<path d="M92.7377 130.19H38.2034C37.8752 130.19 37.551 130.118 37.2541 129.978C36.9572 129.838 36.695 129.634 36.4862 129.382C36.2773 129.129 36.1271 128.833 36.0462 128.515C35.9653 128.198 35.9558 127.866 36.0183 127.545L51.054 50.1632C51.1524 49.6568 51.4243 49.2003 51.823 48.872C52.2217 48.5438 52.7224 48.3643 53.2392 48.3643H107.773C108.102 48.3643 108.426 48.4367 108.723 48.5765C109.02 48.7162 109.282 48.9198 109.491 49.1726C109.7 49.4254 109.85 49.7212 109.931 50.0388C110.012 50.3564 110.021 50.6879 109.959 51.0096L94.9229 128.391C94.8244 128.897 94.5526 129.354 94.1539 129.682C93.7552 130.01 93.2545 130.19 92.7377 130.19Z" fill="#224971"/>
<path d="M100.857 50.1929L87.5692 116.019H54.6003L100.857 50.1929Z" fill="#DBE8EC"/>
<path d="M85.9838 89.1992C95.6411 74.2027 98.7172 60.0166 101.099 50.1929H58.0685C54.7169 64.0337 49.0705 77.2176 41.3629 89.1992C34.9388 99.1693 27.1532 108.196 18.2312 116.019H62.8521C71.7741 108.196 79.5597 99.1693 85.9838 89.1992Z" fill="#F5F7FA"/>
<path d="M87.8296 53.202H71.0093C70.5777 53.202 70.2531 52.9387 70.3353 52.6552L72.1259 46.1836C72.1867 46.0602 72.2839 45.9584 72.4044 45.892C72.5249 45.8255 72.663 45.7975 72.7999 45.8117H89.6203C90.0519 45.8117 90.3765 46.0751 90.2943 46.3585L88.5036 52.8301C88.4429 52.9535 88.3457 53.0553 88.2252 53.1217C88.1047 53.1882 87.9666 53.2162 87.8296 53.202Z" fill="#224971"/>
<path d="M61.8176 60.3238L85.285 59.8667" stroke="#224971" stroke-width="3" stroke-miterlimit="10"/>
<path d="M88.199 59.9193L93.5808 59.8145" stroke="#224971" stroke-width="3" stroke-miterlimit="10"/>
<path d="M59.9902 66.0221L83.4576 65.5649" stroke="#224971" stroke-width="3" stroke-miterlimit="10"/>
<path d="M86.3713 65.6175L91.7531 65.5127" stroke="#224971" stroke-width="3" stroke-miterlimit="10"/>
<path d="M57.1069 71.7037L80.5743 71.2466" stroke="#224971" stroke-width="3" stroke-miterlimit="10"/>
<path d="M83.488 71.2992L88.8698 71.1943" stroke="#224971" stroke-width="3" stroke-miterlimit="10"/>
<path d="M54.4409 77.4381L77.9083 76.981" stroke="#224971" stroke-width="3" stroke-miterlimit="10"/>
<path d="M80.8223 77.0335L86.2041 76.9287" stroke="#224971" stroke-width="3" stroke-miterlimit="10"/>
<path d="M51.0869 83.1061L74.5543 82.6489" stroke="#224971" stroke-width="3" stroke-miterlimit="10"/>
<path d="M77.468 82.701L82.8498 82.5962" stroke="#224971" stroke-width="3" stroke-miterlimit="10"/>
<path d="M46.9392 88.8263L70.4066 88.3691" stroke="#224971" stroke-width="3" stroke-miterlimit="10"/>
<path d="M73.3203 88.4212L78.7021 88.3164" stroke="#224971" stroke-width="3" stroke-miterlimit="10"/>
<path d="M42.7913 94.5987L66.2586 94.1416" stroke="#224971" stroke-width="3" stroke-miterlimit="10"/>
<path d="M69.1724 94.1942L74.5542 94.0894" stroke="#224971" stroke-width="3" stroke-miterlimit="10"/>
<path d="M37.7517 100.424L61.2191 99.9668" stroke="#224971" stroke-width="3" stroke-miterlimit="10"/>
<path d="M64.1331 100.019L69.5148 99.9146" stroke="#224971" stroke-width="3" stroke-miterlimit="10"/>
<path d="M33.604 106.301L57.0713 105.844" stroke="#224971" stroke-width="3" stroke-miterlimit="10"/>
<path d="M59.9851 105.897L65.3669 105.792" stroke="#224971" stroke-width="3" stroke-miterlimit="10"/>
<path d="M26.9099 112.232L50.3773 111.774" stroke="#224971" stroke-width="3" stroke-miterlimit="10"/>
<path d="M53.291 111.827L58.6728 111.722" stroke="#224971" stroke-width="3" stroke-miterlimit="10"/>
<path d="M99.252 62.6494H152.559V130.19H100.606C100.247 130.19 99.9024 130.048 99.6485 129.794C99.3946 129.541 99.252 129.197 99.252 128.838V62.6494Z" fill="#DAE6F2"/>
<path d="M152.559 62.6494H180.453V128.838C180.453 129.197 180.31 129.541 180.056 129.794C179.802 130.048 179.458 130.19 179.099 130.19H152.559V62.6494Z" fill="#8797A8"/>
<path d="M143.297 87.1821H133.661C133.287 87.1821 132.984 87.4847 132.984 87.8579V93.2109C132.984 93.5841 133.287 93.8867 133.661 93.8867H143.297C143.67 93.8867 143.973 93.5841 143.973 93.2109V87.8579C143.973 87.4847 143.67 87.1821 143.297 87.1821Z" fill="#8797A8"/>
<path d="M109.572 76.8965H99.9364C99.5626 76.8965 99.2595 77.199 99.2595 77.5723V82.9252C99.2595 83.2985 99.5626 83.601 99.9364 83.601H109.572C109.946 83.601 110.249 83.2985 110.249 82.9252V77.5723C110.249 77.199 109.946 76.8965 109.572 76.8965Z" fill="#8797A8"/>
<path d="M116.204 111.867H106.569C106.195 111.867 105.892 112.169 105.892 112.542V117.895C105.892 118.269 106.195 118.571 106.569 118.571H116.204C116.578 118.571 116.881 118.269 116.881 117.895V112.542C116.881 112.169 116.578 111.867 116.204 111.867Z" fill="#8797A8"/>
<path d="M165.734 114.806H156.098C155.724 114.806 155.421 115.108 155.421 115.481V120.834C155.421 121.208 155.724 121.51 156.098 121.51H165.734C166.107 121.51 166.41 121.208 166.41 120.834V115.481C166.41 115.108 166.107 114.806 165.734 114.806Z" fill="#224971"/>
<path d="M179.776 88.2925H170.14C169.766 88.2925 169.463 88.595 169.463 88.9683V94.3212C169.463 94.6944 169.766 94.997 170.14 94.997H179.776C180.15 94.997 180.453 94.6944 180.453 94.3212V88.9683C180.453 88.595 180.15 88.2925 179.776 88.2925Z" fill="#224971"/>
<path d="M168.631 80.2488H193.39C193.636 80.2488 193.877 80.1776 194.083 80.0438C194.29 79.91 194.453 79.7194 194.552 79.495C194.652 79.2706 194.685 79.0221 194.646 78.7796C194.608 78.5371 194.5 78.3109 194.335 78.1286L180.351 62.6494H152.216L167.685 79.8279C167.804 79.9604 167.95 80.0663 168.113 80.1388C168.276 80.2113 168.452 80.2488 168.631 80.2488Z" fill="#DAE6F2"/>
<path d="M152.559 62.6494H99.252L87.0664 78.1965C86.9194 78.384 86.8282 78.6089 86.8032 78.8456C86.7781 79.0823 86.8202 79.3213 86.9247 79.5352C87.0291 79.7492 87.1917 79.9296 87.3939 80.0557C87.596 80.1819 87.8297 80.2488 88.0681 80.2488H138.145C138.338 80.2488 138.529 80.2049 138.702 80.1205C138.876 80.0361 139.028 79.9133 139.147 79.7615L152.559 62.6494Z" fill="#224971"/>
<path d="M129.828 125.74H106.936C106.632 125.74 106.34 125.861 106.125 126.075C105.91 126.29 105.789 126.581 105.789 126.885V129.119C105.789 129.259 105.816 129.398 105.869 129.528C105.923 129.658 106.001 129.776 106.101 129.876C106.2 129.975 106.318 130.054 106.448 130.108C106.578 130.162 106.717 130.19 106.858 130.19H129.907C130.047 130.19 130.186 130.162 130.316 130.108C130.446 130.054 130.564 129.975 130.663 129.876C130.763 129.776 130.841 129.658 130.895 129.528C130.948 129.398 130.975 129.259 130.975 129.119V126.885C130.975 126.581 130.854 126.29 130.639 126.075C130.424 125.861 130.132 125.74 129.828 125.74Z" fill="#224971"/>
<path d="M129.828 88.29H106.936C106.632 88.2902 106.34 88.4109 106.125 88.6257C105.91 88.8404 105.789 89.1316 105.789 89.4353V91.6691C105.789 91.8095 105.816 91.9487 105.869 92.0785C105.923 92.2084 106.001 92.3265 106.101 92.426C106.2 92.5255 106.318 92.6044 106.448 92.6584C106.578 92.7123 106.717 92.7401 106.858 92.7402H129.907C130.047 92.7401 130.186 92.7123 130.316 92.6584C130.446 92.6044 130.564 92.5255 130.663 92.426C130.763 92.3265 130.841 92.2084 130.895 92.0785C130.948 91.9487 130.975 91.8095 130.975 91.6691V89.4353C130.975 89.1316 130.854 88.8404 130.639 88.6257C130.424 88.4109 130.132 88.2902 129.828 88.29Z" fill="#224971"/>
<path d="M126.249 113.022C124.853 111.823 123.19 110.975 121.399 110.55C121.148 110.494 120.923 110.355 120.76 110.156C120.598 109.956 120.508 109.708 120.504 109.451V109.281C120.508 109.024 120.598 108.776 120.76 108.577C120.923 108.378 121.148 108.239 121.399 108.183C123.189 107.76 124.852 106.915 126.249 105.718C130.594 101.947 130.597 95.8261 126.249 92.0542H110.517C106.168 95.8261 106.168 101.943 110.517 105.714C111.913 106.91 113.575 107.756 115.364 108.183C115.615 108.238 115.84 108.377 116.003 108.577C116.165 108.776 116.255 109.024 116.258 109.281V109.451C116.255 109.708 116.165 109.957 116.003 110.156C115.84 110.356 115.615 110.494 115.364 110.55C113.574 110.972 111.911 111.817 110.517 113.015C106.168 116.789 106.168 122.91 110.513 126.681H126.249C130.597 122.91 130.594 116.793 126.249 113.022Z" fill="#B9D4DB"/>
<path d="M128.877 113.022C127.481 111.823 125.818 110.975 124.026 110.55C123.775 110.494 123.55 110.355 123.388 110.156C123.226 109.956 123.135 109.708 123.132 109.451V109.281C123.136 109.024 123.226 108.776 123.388 108.577C123.55 108.378 123.775 108.239 124.026 108.183C125.817 107.76 127.48 106.915 128.877 105.718C133.221 101.947 133.225 95.8261 128.877 92.0542H113.145C108.796 95.8261 108.796 101.943 113.145 105.714C114.541 106.91 116.202 107.756 117.991 108.183C118.243 108.238 118.468 108.377 118.63 108.577C118.793 108.776 118.883 109.024 118.886 109.281V109.451C118.883 109.708 118.793 109.957 118.63 110.156C118.468 110.356 118.243 110.494 117.991 110.55C116.201 110.972 114.539 111.817 113.145 113.015C108.796 116.789 108.796 122.91 113.141 126.681H128.877C133.225 122.91 133.221 116.793 128.877 113.022Z" fill="#DBE8EC"/>
<path d="M122.206 112.439V109.251C122.21 108.773 122.375 108.311 122.675 107.939C122.974 107.566 123.39 107.305 123.856 107.198C125.528 106.801 127.081 106.012 128.385 104.896C129.305 104.136 130.049 103.186 130.564 102.111C131.08 101.036 131.355 99.8617 131.371 98.67C131.369 98.331 131.345 97.9925 131.299 97.6565C129.574 96.8185 127.07 96.0408 119.45 97.2445C114.401 98.0389 112.106 97.0499 111.075 96.1499C110.793 96.9591 110.649 97.8097 110.647 98.6665C110.664 99.8586 110.94 101.033 111.456 102.108C111.972 103.183 112.716 104.133 113.636 104.893C114.942 106.009 116.494 106.799 118.165 107.198C118.63 107.306 119.045 107.566 119.344 107.938C119.642 108.31 119.807 108.771 119.812 109.247V112.439C119.812 113.995 119.315 115.511 118.394 116.766C117.473 118.022 116.175 118.952 114.689 119.422L110.685 120.687C110.887 122.728 111.844 124.621 113.37 125.996H128.648C130.174 124.621 131.131 122.728 131.333 120.687L127.33 119.422C125.843 118.952 124.545 118.022 123.624 116.767C122.703 115.511 122.206 113.995 122.206 112.439Z" fill="#8797A8"/>
<path d="M132.456 125.74H109.565C109.414 125.74 109.265 125.769 109.126 125.827C108.986 125.884 108.86 125.969 108.753 126.075C108.646 126.182 108.562 126.308 108.504 126.447C108.447 126.586 108.417 126.735 108.418 126.886V129.119C108.417 129.259 108.445 129.398 108.498 129.528C108.552 129.658 108.63 129.776 108.729 129.876C108.829 129.975 108.947 130.054 109.076 130.108C109.206 130.162 109.346 130.19 109.486 130.19H132.535C132.676 130.19 132.815 130.162 132.945 130.108C133.075 130.054 133.193 129.975 133.292 129.876C133.391 129.776 133.47 129.658 133.523 129.528C133.577 129.398 133.604 129.259 133.604 129.119V126.886C133.604 126.735 133.574 126.586 133.517 126.447C133.459 126.308 133.375 126.182 133.268 126.075C133.162 125.969 133.035 125.884 132.896 125.827C132.757 125.769 132.607 125.74 132.456 125.74Z" fill="#224971"/>
<path d="M132.456 88.29H109.565C109.261 88.2902 108.969 88.4109 108.754 88.6257C108.539 88.8404 108.418 89.1316 108.418 89.4353V91.6691C108.417 91.8095 108.445 91.9487 108.498 92.0785C108.552 92.2084 108.63 92.3265 108.729 92.426C108.829 92.5255 108.947 92.6044 109.076 92.6584C109.206 92.7123 109.346 92.7401 109.486 92.7402H132.535C132.676 92.7401 132.815 92.7123 132.945 92.6584C133.075 92.6044 133.193 92.5255 133.292 92.426C133.391 92.3265 133.47 92.2084 133.523 92.0785C133.577 91.9487 133.604 91.8095 133.604 91.6691V89.4353C133.603 89.1316 133.483 88.8404 133.267 88.6257C133.052 88.4109 132.761 88.2902 132.456 88.29Z" fill="#224971"/>
<path d="M113.406 44.4355H123.668" stroke="#B9D4DB" stroke-width="3" stroke-miterlimit="10" stroke-linecap="round"/>
<path d="M113.406 47.3887H123.668" stroke="#B9D4DB" stroke-width="3" stroke-miterlimit="10" stroke-linecap="round"/>
<path d="M113.406 50.3413H123.668" stroke="#B9D4DB" stroke-width="3" stroke-miterlimit="10" stroke-linecap="round"/>
<path d="M190.309 97.4712H200.571" stroke="#B9D4DB" stroke-width="3" stroke-miterlimit="10" stroke-linecap="round"/>
<path d="M190.309 100.424H200.571" stroke="#B9D4DB" stroke-width="3" stroke-miterlimit="10" stroke-linecap="round"/>
<path d="M190.309 103.377H200.571" stroke="#B9D4DB" stroke-width="3" stroke-miterlimit="10" stroke-linecap="round"/>
<path d="M28.4727 77.2959H38.735" stroke="#B9D4DB" stroke-width="3" stroke-miterlimit="10" stroke-linecap="round"/>
<path d="M28.4727 80.249H38.735" stroke="#B9D4DB" stroke-width="3" stroke-miterlimit="10" stroke-linecap="round"/>
<path d="M28.4727 83.2017H38.735" stroke="#B9D4DB" stroke-width="3" stroke-miterlimit="10" stroke-linecap="round"/>
<path d="M30.3462 138.273C33.2286 138.273 35.5653 135.94 35.5653 133.062C35.5653 130.185 33.2286 127.852 30.3462 127.852C27.4638 127.852 25.1272 130.185 25.1272 133.062C25.1272 135.94 27.4638 138.273 30.3462 138.273Z" fill="#B9D4DB"/>
<path d="M19.7295 135.03C21.2309 135.03 22.448 133.815 22.448 132.316C22.448 130.818 21.2309 129.603 19.7295 129.603C18.2281 129.603 17.011 130.818 17.011 132.316C17.011 133.815 18.2281 135.03 19.7295 135.03Z" fill="#B9D4DB"/>
<path d="M19.5127 124.328C20.3787 124.328 21.0808 123.627 21.0808 122.762C21.0808 121.898 20.3787 121.197 19.5127 121.197C18.6466 121.197 17.9446 121.898 17.9446 122.762C17.9446 123.627 18.6466 124.328 19.5127 124.328Z" fill="#B9D4DB"/>
<path d="M28.1532 125.129C30.2293 125.129 31.9123 123.448 31.9123 121.376C31.9123 119.303 30.2293 117.623 28.1532 117.623C26.0771 117.623 24.394 119.303 24.394 121.376C24.394 123.448 26.0771 125.129 28.1532 125.129Z" fill="#B9D4DB"/>
<path d="M38.4124 46.0386C41.2948 46.0386 43.6314 43.7059 43.6314 40.8284C43.6314 37.9509 41.2948 35.6182 38.4124 35.6182C35.53 35.6182 33.1934 37.9509 33.1934 40.8284C33.1934 43.7059 35.53 46.0386 38.4124 46.0386Z" fill="#B9D4DB"/>
<path d="M38.624 32.9195C40.1254 32.9195 41.3425 31.7045 41.3425 30.2056C41.3425 28.7068 40.1254 27.4917 38.624 27.4917C37.1226 27.4917 35.9055 28.7068 35.9055 30.2056C35.9055 31.7045 37.1226 32.9195 38.624 32.9195Z" fill="#B9D4DB"/>
<path d="M56.731 34.1402C58.0305 34.1402 59.0839 33.0885 59.0839 31.7913C59.0839 30.494 58.0305 29.4424 56.731 29.4424C55.4316 29.4424 54.3782 30.494 54.3782 31.7913C54.3782 33.0885 55.4316 34.1402 56.731 34.1402Z" fill="#B9D4DB"/>
<path d="M48.1711 31.0738C49.0372 31.0738 49.7392 30.3729 49.7392 29.5083C49.7392 28.6438 49.0372 27.9429 48.1711 27.9429C47.3051 27.9429 46.603 28.6438 46.603 29.5083C46.603 30.3729 47.3051 31.0738 48.1711 31.0738Z" fill="#B9D4DB"/>
<path d="M49.9933 41.8063C52.0694 41.8063 53.7524 40.1262 53.7524 38.0536C53.7524 35.981 52.0694 34.3008 49.9933 34.3008C47.9171 34.3008 46.2341 35.981 46.2341 38.0536C46.2341 40.1262 47.9171 41.8063 49.9933 41.8063Z" fill="#B9D4DB"/>
<path d="M145.093 59.8135C147.975 59.8135 150.312 57.4808 150.312 54.6033C150.312 51.7258 147.975 49.3931 145.093 49.3931C142.21 49.3931 139.874 51.7258 139.874 54.6033C139.874 57.4808 142.21 59.8135 145.093 59.8135Z" fill="#B9D4DB"/>
<path d="M148.421 45.9664C149.922 45.9664 151.139 44.7514 151.139 43.2525C151.139 41.7536 149.922 40.5386 148.421 40.5386C146.92 40.5386 145.702 41.7536 145.702 43.2525C145.702 44.7514 146.92 45.9664 148.421 45.9664Z" fill="#B9D4DB"/>
<path d="M156.943 51.7584C157.809 51.7584 158.511 51.0575 158.511 50.1929C158.511 49.3283 157.809 48.6274 156.943 48.6274C156.077 48.6274 155.375 49.3283 155.375 50.1929C155.375 51.0575 156.077 51.7584 156.943 51.7584Z" fill="#B9D4DB"/>
<path d="M161.679 60.9602C163.755 60.9602 165.438 59.28 165.438 57.2074C165.438 55.1348 163.755 53.4546 161.679 53.4546C159.603 53.4546 157.92 55.1348 157.92 57.2074C157.92 59.28 159.603 60.9602 161.679 60.9602Z" fill="#B9D4DB"/>
<path d="M188.488 138.69C191.371 138.69 193.707 136.358 193.707 133.48C193.707 130.603 191.371 128.27 188.488 128.27C185.606 128.27 183.269 130.603 183.269 133.48C183.269 136.358 185.606 138.69 188.488 138.69Z" fill="#B9D4DB"/>
<path d="M188.488 125.805C189.354 125.805 190.056 125.104 190.056 124.239C190.056 123.375 189.354 122.674 188.488 122.674C187.622 122.674 186.92 123.375 186.92 124.239C186.92 125.104 187.622 125.805 188.488 125.805Z" fill="#B9D4DB"/>
<path d="M196.811 131.151C198.887 131.151 200.57 129.471 200.57 127.398C200.57 125.326 198.887 123.646 196.811 123.646C194.735 123.646 193.052 125.326 193.052 127.398C193.052 129.471 194.735 131.151 196.811 131.151Z" fill="#B9D4DB"/>
</svg>
