<svg width="17" height="21" viewBox="0 0 17 21" fill="none" xmlns="http://www.w3.org/2000/svg">
<path fill-rule="evenodd" clip-rule="evenodd" d="M0 8.79556C0.0157095 3.9214 3.77679 -0.0164562 8.40061 5.17132e-05C13.0244 0.0166637 16.76 3.98137 16.7444 8.85553V8.95548C16.6874 12.1238 15.0092 15.0523 12.9517 17.3411C11.8558 18.5408 10.6408 19.6123 9.32774 20.5373C9.13449 20.6734 8.95645 20.8394 8.73747 20.9284C8.39618 21.0672 7.99885 21.0042 7.70846 20.7394C5.58387 19.2817 3.71919 17.4412 2.19971 15.3022C0.84542 13.437 0.0765061 11.173 0 8.82555V8.79556Z" fill="#224971"/>
<path d="M8.37213 11.7939C9.85413 11.7939 11.0555 10.5274 11.0555 8.96516C11.0555 7.40292 9.85413 6.13647 8.37213 6.13647C6.89012 6.13647 5.68872 7.40292 5.68872 8.96516C5.68872 10.5274 6.89012 11.7939 8.37213 11.7939Z" fill="white"/>
</svg>
