<svg width="126" height="185" viewBox="0 0 126 185" fill="none" xmlns="http://www.w3.org/2000/svg">
<path d="M1.27972 2.67991C2.47033 20.5963 15.1918 60.1902 56.5527 75.2344C97.9136 90.2787 109.216 154.138 109.696 184.188" stroke="#224971" stroke-width="2.55916"/>
<path d="M21.7522 0.111345C23.3864 9.39085 29.6217 31.3714 41.4892 45.0577C53.3567 58.744 77.4607 65.8366 88.0292 67.6721C105.409 71.3628 136.249 94.6825 120.564 158.435C118.199 165.808 112.796 181.36 110.1 184.589" stroke="#224971" stroke-width="1.27958"/>
<path d="M109.016 183.799C109.92 165.493 105.074 125.863 78.4574 113.796C51.8404 101.729 30.2591 59.5357 22.7956 39.9476C19.5499 30.4611 12.968 9.35667 12.6061 0.831207" stroke="#224971" stroke-width="0.447852"/>
</svg>
