<svg width="220" height="173" viewBox="0 0 220 173" fill="none" xmlns="http://www.w3.org/2000/svg">
<path d="M191.09 76.4218V70.3027C191.09 69.1359 190.625 68.0168 189.799 67.1917C188.972 66.3666 187.851 65.9031 186.683 65.9031H171.127C169.958 65.9031 168.837 65.4396 168.011 64.6145C167.184 63.7894 166.72 62.6703 166.72 61.5035V55.3844C166.72 54.2175 167.184 53.0985 168.011 52.2734C168.837 51.4483 169.958 50.9848 171.127 50.9848H171.618C172.787 50.9848 173.908 50.5212 174.735 49.6961C175.561 48.871 176.025 47.752 176.025 46.5851V40.466C176.025 39.8883 175.911 39.3162 175.69 38.7824C175.468 38.2486 175.144 37.7636 174.735 37.355C174.325 36.9465 173.84 36.6224 173.305 36.4013C172.77 36.1802 172.197 36.0664 171.618 36.0664H58.5995C57.4307 36.0664 56.3098 36.5299 55.4833 37.355C54.6568 38.1801 54.1925 39.2992 54.1925 40.466V46.5851C54.1925 47.752 54.6568 48.871 55.4833 49.6961C56.3098 50.5212 57.4307 50.9848 58.5995 50.9848C59.7684 50.9848 60.8893 51.4483 61.7158 52.2734C62.5423 53.0985 63.0066 54.2175 63.0066 55.3844V61.5035C63.0066 62.6703 62.5423 63.7894 61.7158 64.6145C60.8893 65.4396 59.7684 65.9031 58.5995 65.9031H41.5571C40.3882 65.9031 39.2673 66.3667 38.4408 67.1917C37.6143 68.0168 37.15 69.1359 37.15 70.3027V76.4218C37.15 77.5887 37.6143 78.7078 38.4408 79.5328C39.2673 80.3579 40.3882 80.8215 41.5571 80.8215H48.2443C48.823 80.8215 49.3961 80.9353 49.9308 81.1564C50.4655 81.3775 50.9513 81.7015 51.3605 82.1101C51.7698 82.5186 52.0944 83.0036 52.3159 83.5374C52.5374 84.0712 52.6513 84.6433 52.6513 85.2211V91.3402C52.6513 92.5071 52.187 93.6261 51.3605 94.4512C50.5341 95.2763 49.4131 95.7398 48.2443 95.7398H48.2281C47.0593 95.7398 45.9383 96.2034 45.1119 97.0285C44.2854 97.8536 43.8211 98.9726 43.8211 100.139V106.259C43.8211 107.425 44.2854 108.544 45.1119 109.37C45.9383 110.195 47.0593 110.658 48.2281 110.658H49.1956C49.7744 110.658 50.3474 110.772 50.8821 110.993C51.4168 111.214 51.9027 111.538 52.3119 111.947C52.7211 112.355 53.0457 112.84 53.2672 113.374C53.4887 113.908 53.6027 114.48 53.6027 115.058V121.177C53.6027 122.344 53.1384 123.463 52.3119 124.288C51.4854 125.113 50.3644 125.577 49.1956 125.577H33.3172C32.1484 125.577 31.0274 126.04 30.201 126.865C29.3745 127.69 28.9102 128.809 28.9102 129.976V136.095C28.9102 137.262 29.3745 138.381 30.201 139.206C31.0274 140.031 32.1484 140.495 33.3172 140.495H173.984C175.153 140.495 176.274 140.031 177.101 139.206C177.927 138.381 178.391 137.262 178.391 136.095V129.976C178.391 128.809 177.927 127.69 177.101 126.865C176.274 126.04 175.153 125.577 173.984 125.577H170.163C168.994 125.577 167.873 125.113 167.047 124.288C166.221 123.463 165.756 122.344 165.756 121.177V115.058C165.756 113.891 166.221 112.772 167.047 111.947C167.873 111.122 168.994 110.658 170.163 110.658H179.173C180.342 110.658 181.463 110.195 182.289 109.37C183.116 108.544 183.58 107.425 183.58 106.259V100.139C183.58 98.9726 183.116 97.8536 182.289 97.0285C181.463 96.2034 180.342 95.7399 179.173 95.7399H176.44C175.271 95.7399 174.15 95.2763 173.324 94.4512C172.497 93.6261 172.033 92.5071 172.033 91.3402V85.2211C172.033 84.0542 172.497 82.9352 173.324 82.1101C174.15 81.285 175.271 80.8215 176.44 80.8215H186.683C187.851 80.8215 188.972 80.3579 189.799 79.5328C190.625 78.7077 191.09 77.5887 191.09 76.4218Z" fill="#DBE8EC"/>
<path d="M110 144.901C142.308 144.901 168.5 118.754 168.5 86.5001C168.5 54.2461 142.308 28.0991 110 28.0991C77.6914 28.0991 51.5002 54.2461 51.5002 86.5001C51.5002 118.754 77.6914 144.901 110 144.901Z" fill="#DBE8EC"/>
<path d="M142.839 133.97H63.9127C63.7297 133.97 63.5487 133.933 63.3805 133.861C63.2123 133.79 63.0604 133.685 62.934 133.553C62.8076 133.421 62.7093 133.264 62.6451 133.093C62.5808 132.922 62.552 132.74 62.5602 132.558L65.8227 60.3302C65.8384 59.9827 65.9878 59.6545 66.2397 59.4141C66.4916 59.1737 66.8267 59.0396 67.1752 59.0396H146.102C146.285 59.0396 146.466 59.0766 146.634 59.1483C146.802 59.2201 146.954 59.3252 147.08 59.4572C147.207 59.5892 147.305 59.7454 147.369 59.9164C147.433 60.0874 147.462 60.2696 147.454 60.452L144.192 132.68C144.176 133.027 144.027 133.355 143.775 133.596C143.523 133.836 143.188 133.97 142.839 133.97Z" fill="#224971"/>
<path d="M147.914 60.3302C147.899 59.9827 147.749 59.6545 147.497 59.4141C147.245 59.1737 146.91 59.0396 146.562 59.0396H146.102C146.285 59.0396 146.466 59.0766 146.634 59.1483C146.802 59.2201 146.954 59.3252 147.08 59.4572C147.207 59.5892 147.305 59.7454 147.369 59.9164C147.433 60.0874 147.462 60.2696 147.454 60.452L144.192 132.679C144.176 133.027 144.027 133.355 143.775 133.596C143.523 133.836 143.188 133.97 142.839 133.97H156.594C156.776 133.97 156.958 133.933 157.126 133.861C157.294 133.79 157.446 133.685 157.572 133.553C157.699 133.421 157.797 133.264 157.861 133.093C157.925 132.922 157.954 132.74 157.946 132.558L147.914 60.3302Z" fill="#8797A8"/>
<path d="M138.417 129.591H68.7159C68.5543 129.591 68.3945 129.559 68.2459 129.495C68.0974 129.432 67.9632 129.339 67.8516 129.223C67.74 129.106 67.6532 128.968 67.5964 128.817C67.5397 128.666 67.5142 128.505 67.5215 128.344L70.4027 64.5588C70.4165 64.2518 70.5484 63.962 70.7709 63.7497C70.9934 63.5374 71.2893 63.4189 71.597 63.4189H141.298C141.46 63.4189 141.62 63.4516 141.768 63.515C141.917 63.5784 142.051 63.6712 142.163 63.7878C142.274 63.9043 142.361 64.0423 142.418 64.1933C142.475 64.3443 142.5 64.5052 142.493 64.6663L139.612 128.452C139.598 128.759 139.466 129.048 139.243 129.261C139.021 129.473 138.725 129.591 138.417 129.591Z" fill="#224971"/>
<path d="M79.2981 58.8103C79.2983 58.8904 79.2785 58.9694 79.2405 59.04H78.3402C78.3022 58.9694 78.2824 58.8904 78.2827 58.8103C78.2827 57.1952 77.4128 55.8301 76.3839 55.8301C75.355 55.8301 74.4885 57.1952 74.4885 58.8103C74.4885 58.888 74.4919 58.9623 74.4953 59.04C74.5731 60.5538 75.4058 61.7905 76.3839 61.7905C76.4417 61.791 76.4995 61.7865 76.5565 61.7769C76.6225 61.7674 76.6898 61.7709 76.7544 61.7873C76.8191 61.8037 76.8798 61.8327 76.9332 61.8725C76.9867 61.9124 77.0317 61.9624 77.0658 62.0196C77.0999 62.0768 77.1224 62.1402 77.1319 62.2061C77.1415 62.272 77.1379 62.3391 77.1215 62.4036C77.1051 62.4682 77.0761 62.5288 77.0362 62.5822C76.9962 62.6355 76.9462 62.6805 76.8889 62.7145C76.8315 62.7485 76.7681 62.7709 76.7021 62.7805C76.5968 62.7968 76.4904 62.8047 76.3839 62.8041C74.8371 62.8041 73.5645 61.135 73.4765 59.04C73.4731 58.9623 73.4731 58.888 73.4731 58.8103C73.4731 56.6072 74.7796 54.8164 76.3839 54.8164C77.9916 54.8164 79.2981 56.6072 79.2981 58.8103Z" fill="#DAE6F2"/>
<path d="M89.5331 58.8103C89.5334 58.8904 89.5136 58.9694 89.4756 59.04H88.5753C88.5373 58.9694 88.5175 58.8904 88.5178 58.8103C88.5178 57.1952 87.6479 55.8301 86.619 55.8301C85.5901 55.8301 84.7202 57.1952 84.7202 58.8103C84.7202 58.888 84.7236 58.9623 84.727 59.04C84.8048 60.5538 85.6408 61.7905 86.619 61.7905C86.6768 61.791 86.7346 61.7865 86.7916 61.7769C86.9249 61.7577 87.0604 61.7921 87.1683 61.8725C87.2762 61.953 87.3477 62.073 87.367 62.2061C87.3863 62.3391 87.3518 62.4744 87.2712 62.5822C87.1906 62.6899 87.0704 62.7612 86.9371 62.7805C86.8319 62.7968 86.7255 62.8047 86.619 62.8041C85.0688 62.8041 83.7962 61.135 83.7082 59.04C83.7048 58.9623 83.7048 58.888 83.7048 58.8103C83.7048 56.6072 85.0113 54.8164 86.619 54.8164C88.2233 54.8164 89.5331 56.6072 89.5331 58.8103Z" fill="#DAE6F2"/>
<path d="M99.7649 58.8103C99.7651 58.8904 99.7453 58.9694 99.7073 59.04H98.807C98.769 58.9694 98.7493 58.8904 98.7495 58.8103C98.7495 57.1952 97.8796 55.8301 96.8541 55.8301C95.8252 55.8301 94.9553 57.1952 94.9553 58.8103C94.9553 58.888 94.9587 58.9623 94.9621 59.04C95.0399 60.5538 95.8759 61.7905 96.8541 61.7905C96.9108 61.7909 96.9674 61.7863 97.0233 61.7769C97.1566 61.7572 97.2923 61.7912 97.4005 61.8714C97.5088 61.9515 97.5807 62.0713 97.6004 62.2044C97.6202 62.3375 97.5861 62.4729 97.5058 62.581C97.4255 62.689 97.3056 62.7608 97.1723 62.7805C97.067 62.7965 96.9606 62.8044 96.8541 62.8041C95.3039 62.8041 94.0313 61.135 93.9433 59.04C93.9399 58.9623 93.9399 58.888 93.9399 58.8103C93.9399 56.6072 95.2464 54.8164 96.8541 54.8164C98.4584 54.8164 99.7649 56.6072 99.7649 58.8103Z" fill="#DAE6F2"/>
<path d="M110 58.8103C110 58.8904 109.98 58.9694 109.942 59.04H109.042C109.004 58.9694 108.984 58.8904 108.985 58.8103C108.985 57.1952 108.115 55.8301 107.086 55.8301C106.057 55.8301 105.187 57.1952 105.187 58.8103C105.187 58.888 105.19 58.9623 105.194 59.04C105.272 60.5538 106.108 61.7905 107.086 61.7905C107.144 61.791 107.201 61.7865 107.258 61.7769C107.392 61.7577 107.527 61.7921 107.635 61.8725C107.743 61.953 107.814 62.073 107.834 62.2061C107.853 62.3391 107.819 62.4744 107.738 62.5822C107.657 62.6899 107.537 62.7612 107.404 62.7805C107.299 62.7968 107.192 62.8047 107.086 62.8041C105.539 62.8041 104.263 61.135 104.175 59.04C104.172 58.9623 104.172 58.888 104.172 58.8103C104.172 56.6072 105.481 54.8164 107.086 54.8164C108.693 54.8164 110 56.6072 110 58.8103Z" fill="#DAE6F2"/>
<path d="M120.232 58.8103C120.232 58.8904 120.212 58.9694 120.174 59.04H119.274C119.236 58.9694 119.216 58.8904 119.216 58.8103C119.216 57.1952 118.35 55.8301 117.321 55.8301C116.292 55.8301 115.422 57.1952 115.422 58.8103C115.422 58.888 115.426 58.9623 115.429 59.04C115.51 60.6416 116.451 61.929 117.49 61.7769C117.623 61.7572 117.759 61.7912 117.867 61.8714C117.976 61.9515 118.047 62.0713 118.067 62.2044C118.087 62.3375 118.053 62.4729 117.973 62.581C117.892 62.689 117.772 62.7608 117.639 62.7805C117.534 62.7966 117.427 62.8045 117.321 62.8041C115.771 62.8041 114.498 61.135 114.41 59.04C114.407 58.9623 114.407 58.888 114.407 58.8103C114.407 56.6072 115.713 54.8164 117.321 54.8164C118.925 54.8164 120.232 56.6072 120.232 58.8103Z" fill="#DAE6F2"/>
<path d="M130.467 58.8103C130.467 58.8904 130.447 58.9694 130.409 59.04H129.509C129.471 58.9694 129.451 58.8904 129.451 58.8103C129.451 57.1952 128.582 55.8301 127.553 55.8301C126.524 55.8301 125.657 57.1952 125.657 58.8103C125.657 58.888 125.661 58.9623 125.664 59.04C125.742 60.5538 126.574 61.7905 127.553 61.7905C127.61 61.791 127.668 61.7865 127.725 61.7769C127.859 61.7577 127.994 61.7921 128.102 61.8725C128.21 61.953 128.281 62.073 128.301 62.2061C128.32 62.3391 128.285 62.4744 128.205 62.5822C128.124 62.6899 128.004 62.7612 127.871 62.7805C127.766 62.7968 127.659 62.8047 127.553 62.8041C126.006 62.8041 124.733 61.135 124.645 59.04C124.642 58.9623 124.642 58.888 124.642 58.8103C124.642 56.6072 125.948 54.8164 127.553 54.8164C129.16 54.8164 130.467 56.6072 130.467 58.8103Z" fill="#DAE6F2"/>
<path d="M139.954 58.8103C139.954 58.8904 139.934 58.9694 139.896 59.04H138.996C138.958 58.9694 138.938 58.8904 138.938 58.8103C138.938 57.1952 138.069 55.8301 137.04 55.8301C136.011 55.8301 135.141 57.1952 135.141 58.8103C135.141 58.888 135.144 58.9623 135.148 59.04C135.225 60.5538 136.061 61.7905 137.04 61.7905C137.097 61.791 137.155 61.7865 137.212 61.7769C137.346 61.7577 137.481 61.7921 137.589 61.8725C137.697 61.953 137.768 62.073 137.788 62.2061C137.807 62.3391 137.772 62.4744 137.692 62.5822C137.611 62.6899 137.491 62.7612 137.358 62.7805C137.253 62.7966 137.146 62.8045 137.04 62.8041C135.49 62.8041 134.217 61.135 134.129 59.04C134.125 58.9623 134.125 58.888 134.125 58.8103C134.125 56.6072 135.432 54.8164 137.04 54.8164C138.644 54.8164 139.954 56.6072 139.954 58.8103Z" fill="#DAE6F2"/>
<path d="M149.336 124.469H148.209V124.429C148.581 124.456 148.957 124.469 149.336 124.469Z" fill="#25788E"/>
<path d="M138.666 66.2573L135.985 106.553C135.985 107.672 135.765 108.78 135.336 109.814C134.907 110.848 134.278 111.787 133.485 112.579C132.693 113.37 131.751 113.998 130.716 114.426C129.68 114.854 128.57 115.075 127.449 115.075C125.378 115.075 123.378 114.323 121.821 112.961C120.264 111.598 119.256 109.716 118.986 107.667L118.088 100.868H68.0403L70.7212 66.2573L138.666 66.2573Z" fill="#224971"/>
<path d="M65.8257 115.075C63.755 115.075 61.7548 114.324 60.1978 112.961C58.6409 111.598 57.6332 109.717 57.3624 107.667L56.4644 100.869H118.088L118.986 107.667C119.256 109.717 120.264 111.598 121.821 112.961C123.378 114.324 125.378 115.075 127.449 115.075H65.8257Z" fill="#8797A8"/>
<mask id="mask0_207_10831" style="mask-type:luminance" maskUnits="userSpaceOnUse" x="68" y="66" width="71" height="50">
<path d="M138.666 66.2573L135.985 106.553C135.985 107.672 135.765 108.78 135.336 109.814C134.907 110.848 134.278 111.787 133.485 112.579C132.693 113.37 131.751 113.998 130.716 114.426C129.68 114.854 128.57 115.075 127.449 115.075C125.378 115.075 123.378 114.323 121.821 112.961C120.264 111.598 119.256 109.716 118.986 107.667L118.088 100.868H68.0403L70.7212 66.2573L138.666 66.2573Z" fill="white"/>
</mask>
<g mask="url(#mask0_207_10831)">
<path d="M88.3484 81.4617H76.1579C76.0273 81.4617 75.8981 81.4353 75.7781 81.384C75.6581 81.3328 75.5497 81.2578 75.4594 81.1636C75.3692 81.0694 75.2991 80.9579 75.2532 80.8359C75.2074 80.7138 75.1867 80.5838 75.1926 80.4536L75.6911 69.4182C75.7023 69.1702 75.8089 68.936 75.9887 68.7644C76.1685 68.5928 76.4077 68.4971 76.6564 68.4971H88.8469C88.9774 68.4971 89.1066 68.5235 89.2266 68.5747C89.3467 68.6259 89.4551 68.7009 89.5453 68.7951C89.6355 68.8894 89.7057 69.0008 89.7515 69.1229C89.7974 69.2449 89.818 69.375 89.8121 69.5052L89.3137 80.5405C89.3025 80.7886 89.1959 81.0228 89.0161 81.1943C88.8363 81.3659 88.5971 81.4617 88.3484 81.4617Z" fill="#DBE8EC"/>
<path d="M103.739 81.4617H91.5483C91.4177 81.4617 91.2885 81.4353 91.1685 81.384C91.0484 81.3328 90.94 81.2578 90.8498 81.1636C90.7596 81.0694 90.6895 80.9579 90.6436 80.8359C90.5977 80.7138 90.5771 80.5838 90.583 80.4536L91.0815 69.4182C91.0927 69.1702 91.1993 68.936 91.3791 68.7644C91.5589 68.5928 91.798 68.4971 92.0468 68.4971H104.237C104.368 68.4971 104.497 68.5235 104.617 68.5747C104.737 68.6259 104.845 68.7009 104.936 68.7951C105.026 68.8894 105.096 69.0008 105.142 69.1229C105.188 69.2449 105.208 69.3749 105.203 69.5052L104.704 80.5405C104.693 80.7885 104.586 81.0227 104.406 81.1943C104.227 81.3659 103.987 81.4617 103.739 81.4617Z" fill="#DBE8EC"/>
<path d="M119.129 81.4617H106.939C106.808 81.4617 106.679 81.4353 106.559 81.384C106.439 81.3328 106.33 81.2578 106.24 81.1636C106.15 81.0694 106.08 80.9579 106.034 80.8359C105.988 80.7138 105.968 80.5838 105.973 80.4536L106.472 69.4182C106.483 69.1702 106.59 68.936 106.769 68.7644C106.949 68.5928 107.188 68.4971 107.437 68.4971H119.628C119.758 68.4971 119.887 68.5235 120.007 68.5747C120.127 68.6259 120.236 68.7009 120.326 68.7951C120.416 68.8894 120.486 69.0008 120.532 69.1229C120.578 69.2449 120.599 69.3749 120.593 69.5052L120.094 80.5405C120.083 80.7886 119.977 81.0228 119.797 81.1943C119.617 81.3659 119.378 81.4617 119.129 81.4617Z" fill="#DBE8EC"/>
<path d="M134.519 81.4617H122.329C122.198 81.4617 122.069 81.4353 121.949 81.384C121.829 81.3328 121.721 81.2578 121.63 81.1636C121.54 81.0694 121.47 80.9579 121.424 80.8359C121.378 80.7138 121.358 80.5838 121.364 80.4536L121.862 69.4182C121.873 69.1702 121.98 68.936 122.16 68.7644C122.339 68.5928 122.579 68.4971 122.827 68.4971H135.018C135.148 68.4971 135.277 68.5235 135.398 68.5747C135.518 68.6259 135.626 68.7009 135.716 68.7951C135.806 68.8894 135.877 69.0008 135.922 69.1229C135.968 69.2449 135.989 69.3749 135.983 69.5052L135.485 80.5405C135.473 80.7886 135.367 81.0228 135.187 81.1943C135.007 81.3659 134.768 81.4617 134.519 81.4617Z" fill="#DBE8EC"/>
<path d="M87.6536 95.8152H75.4631C75.3325 95.8152 75.2033 95.7888 75.0833 95.7376C74.9632 95.6863 74.8548 95.6113 74.7646 95.5171C74.6744 95.4229 74.6043 95.3114 74.5584 95.1894C74.5125 95.0674 74.4919 94.9373 74.4978 94.8071L74.9963 83.7718C75.0075 83.5237 75.1141 83.2895 75.2939 83.1179C75.4737 82.9463 75.7128 82.8506 75.9615 82.8506H88.152C88.2826 82.8506 88.4118 82.877 88.5318 82.9282C88.6519 82.9795 88.7603 83.0544 88.8505 83.1487C88.9407 83.2429 89.0109 83.3544 89.0567 83.4764C89.1026 83.5984 89.1232 83.7285 89.1173 83.8587L88.6188 94.894C88.6076 95.1421 88.501 95.3763 88.3212 95.5479C88.1414 95.7194 87.9023 95.8152 87.6536 95.8152Z" fill="#DBE8EC"/>
<path d="M103.044 95.8152H90.8535C90.7229 95.8152 90.5937 95.7888 90.4737 95.7376C90.3536 95.6863 90.2452 95.6113 90.155 95.5171C90.0648 95.4229 89.9946 95.3114 89.9488 95.1894C89.9029 95.0674 89.8823 94.9373 89.8882 94.8071L90.3867 83.7718C90.3979 83.5237 90.5045 83.2895 90.6843 83.1179C90.8641 82.9463 91.1032 82.8506 91.3519 82.8506H103.542C103.673 82.8506 103.802 82.877 103.922 82.9282C104.042 82.9795 104.151 83.0544 104.241 83.1487C104.331 83.2429 104.401 83.3544 104.447 83.4764C104.493 83.5984 104.514 83.7285 104.508 83.8587L104.009 94.894C103.998 95.1421 103.891 95.3763 103.712 95.5479C103.532 95.7194 103.293 95.8152 103.044 95.8152Z" fill="#DBE8EC"/>
<path d="M118.434 95.8152H106.244C106.113 95.8152 105.984 95.7888 105.864 95.7375C105.744 95.6863 105.635 95.6113 105.545 95.5171C105.455 95.4229 105.385 95.3114 105.339 95.1894C105.293 95.0674 105.272 94.9373 105.278 94.8071L105.777 83.7718C105.788 83.5237 105.895 83.2895 106.074 83.1179C106.254 82.9463 106.493 82.8506 106.742 82.8506H118.933C119.063 82.8506 119.192 82.877 119.312 82.9282C119.432 82.9795 119.541 83.0544 119.631 83.1487C119.721 83.2429 119.791 83.3544 119.837 83.4764C119.883 83.5984 119.904 83.7285 119.898 83.8587L119.399 94.894C119.388 95.1421 119.282 95.3763 119.102 95.5479C118.922 95.7194 118.683 95.8152 118.434 95.8152Z" fill="#DBE8EC"/>
<path d="M133.824 95.8152H121.634C121.503 95.8152 121.374 95.7888 121.254 95.7376C121.134 95.6863 121.026 95.6113 120.936 95.5171C120.845 95.4229 120.775 95.3114 120.729 95.1894C120.683 95.0674 120.663 94.9373 120.669 94.8071L121.167 83.7718C121.178 83.5237 121.285 83.2895 121.465 83.1179C121.645 82.9463 121.884 82.8506 122.132 82.8506H134.323C134.453 82.8506 134.583 82.877 134.703 82.9282C134.823 82.9795 134.931 83.0544 135.021 83.1487C135.112 83.2429 135.182 83.3544 135.228 83.4764C135.273 83.5984 135.294 83.7285 135.288 83.8587L134.79 94.894C134.779 95.1421 134.672 95.3763 134.492 95.5479C134.312 95.7194 134.073 95.8152 133.824 95.8152Z" fill="#DBE8EC"/>
<path d="M87.1867 110.169H74.9963C74.8657 110.169 74.7365 110.143 74.6165 110.092C74.4964 110.04 74.388 109.965 74.2978 109.871C74.2076 109.777 74.1375 109.665 74.0916 109.543C74.0457 109.421 74.0251 109.291 74.031 109.161L74.5295 98.1258C74.5407 97.8777 74.6473 97.6435 74.8271 97.4719C75.0069 97.3003 75.246 97.2046 75.4948 97.2046H87.6852C87.8158 97.2046 87.945 97.231 88.065 97.2822C88.1851 97.3335 88.2935 97.4085 88.3837 97.5027C88.4739 97.5969 88.5441 97.7084 88.5899 97.8304C88.6358 97.9524 88.6564 98.0825 88.6505 98.2127L88.152 109.248C88.1408 109.496 88.0342 109.73 87.8544 109.902C87.6746 110.073 87.4355 110.169 87.1867 110.169Z" fill="#DBE8EC"/>
<path d="M102.577 110.169H90.3867C90.2561 110.169 90.1269 110.143 90.0069 110.092C89.8868 110.04 89.7784 109.965 89.6882 109.871C89.598 109.777 89.5278 109.665 89.482 109.543C89.4361 109.421 89.4155 109.291 89.4214 109.161L89.9199 98.1258C89.9311 97.8777 90.0377 97.6435 90.2174 97.4719C90.3972 97.3003 90.6364 97.2046 90.8851 97.2046H103.076C103.206 97.2046 103.335 97.231 103.455 97.2822C103.575 97.3335 103.684 97.4084 103.774 97.5027C103.864 97.5969 103.934 97.7084 103.98 97.8304C104.026 97.9524 104.047 98.0825 104.041 98.2127L103.542 109.248C103.531 109.496 103.425 109.73 103.245 109.902C103.065 110.073 102.826 110.169 102.577 110.169Z" fill="#DBE8EC"/>
<path d="M117.968 110.169H105.777C105.646 110.169 105.517 110.143 105.397 110.092C105.277 110.04 105.169 109.965 105.079 109.871C104.988 109.777 104.918 109.665 104.872 109.543C104.826 109.421 104.806 109.291 104.812 109.161L105.31 98.1258C105.321 97.8777 105.428 97.6435 105.608 97.4719C105.788 97.3003 106.027 97.2046 106.276 97.2046H118.466C118.597 97.2046 118.726 97.231 118.846 97.2822C118.966 97.3335 119.074 97.4085 119.164 97.5027C119.255 97.5969 119.325 97.7084 119.371 97.8304C119.417 97.9524 119.437 98.0825 119.431 98.2127L118.933 109.248C118.922 109.496 118.815 109.73 118.635 109.902C118.455 110.073 118.216 110.169 117.968 110.169Z" fill="#DBE8EC"/>
<path d="M133.358 110.169H121.167C121.037 110.169 120.907 110.143 120.787 110.092C120.667 110.04 120.559 109.965 120.469 109.871C120.379 109.777 120.308 109.665 120.262 109.543C120.217 109.421 120.196 109.291 120.202 109.161L120.7 98.1258C120.712 97.8777 120.818 97.6435 120.998 97.4719C121.178 97.3003 121.417 97.2046 121.666 97.2046H133.856C133.987 97.2046 134.116 97.231 134.236 97.2822C134.356 97.3335 134.464 97.4084 134.555 97.5027C134.645 97.5969 134.715 97.7084 134.761 97.8304C134.807 97.9524 134.827 98.0825 134.821 98.2127L134.323 109.248C134.312 109.496 134.205 109.73 134.025 109.902C133.846 110.073 133.606 110.169 133.358 110.169Z" fill="#DBE8EC"/>
<path d="M86.6299 124.469H74.4394C74.3089 124.469 74.1797 124.443 74.0596 124.391C73.9396 124.34 73.8312 124.265 73.7409 124.171C73.6507 124.077 73.5806 123.965 73.5347 123.843C73.4889 123.721 73.4682 123.591 73.4741 123.461L73.9726 112.426C73.9838 112.177 74.0904 111.943 74.2702 111.772C74.45 111.6 74.6892 111.504 74.9379 111.504H87.1284C87.2589 111.504 87.3881 111.531 87.5082 111.582C87.6282 111.633 87.7366 111.708 87.8268 111.802C87.917 111.897 87.9872 112.008 88.033 112.13C88.0789 112.252 88.0995 112.382 88.0936 112.512L87.5952 123.548C87.584 123.796 87.4774 124.03 87.2976 124.202C87.1178 124.373 86.8786 124.469 86.6299 124.469Z" fill="#DBE8EC"/>
<path d="M102.02 124.469H89.8298C89.6992 124.469 89.57 124.443 89.45 124.391C89.3299 124.34 89.2215 124.265 89.1313 124.171C89.0411 124.077 88.971 123.965 88.9251 123.843C88.8792 123.721 88.8586 123.591 88.8645 123.461L89.363 112.426C89.3742 112.177 89.4808 111.943 89.6606 111.772C89.8404 111.6 90.0795 111.504 90.3283 111.504H102.519C102.649 111.504 102.778 111.531 102.899 111.582C103.019 111.633 103.127 111.708 103.217 111.802C103.307 111.897 103.378 112.008 103.423 112.13C103.469 112.252 103.49 112.382 103.484 112.512L102.986 123.548C102.974 123.796 102.868 124.03 102.688 124.202C102.508 124.373 102.269 124.469 102.02 124.469Z" fill="#DBE8EC"/>
<path d="M117.41 124.469H105.22C105.089 124.469 104.96 124.443 104.84 124.391C104.72 124.34 104.612 124.265 104.521 124.171C104.431 124.077 104.361 123.965 104.315 123.843C104.269 123.721 104.249 123.591 104.255 123.461L104.753 112.426C104.764 112.178 104.871 111.943 105.051 111.772C105.23 111.6 105.47 111.504 105.718 111.504H117.909C118.039 111.504 118.169 111.531 118.289 111.582C118.409 111.633 118.517 111.708 118.607 111.802C118.698 111.897 118.768 112.008 118.814 112.13C118.859 112.252 118.88 112.382 118.874 112.512L118.376 123.548C118.364 123.796 118.258 124.03 118.078 124.202C117.898 124.373 117.659 124.469 117.41 124.469Z" fill="#DBE8EC"/>
<path d="M132.801 124.469H120.61C120.48 124.469 120.351 124.443 120.231 124.391C120.11 124.34 120.002 124.265 119.912 124.171C119.822 124.077 119.751 123.965 119.706 123.843C119.66 123.721 119.639 123.591 119.645 123.461L120.143 112.426C120.155 112.177 120.261 111.943 120.441 111.772C120.621 111.6 120.86 111.504 121.109 111.504H133.299C133.43 111.504 133.559 111.531 133.679 111.582C133.799 111.633 133.908 111.708 133.998 111.802C134.088 111.897 134.158 112.008 134.204 112.13C134.25 112.252 134.27 112.382 134.265 112.512L133.766 123.548C133.755 123.796 133.648 124.03 133.468 124.202C133.289 124.373 133.05 124.469 132.801 124.469Z" fill="#DBE8EC"/>
<path d="M108.716 70.5767L118.015 79.2741" stroke="#DBE8EC" stroke-width="3" stroke-miterlimit="10" stroke-linecap="round"/>
<path d="M118.254 70.8457L108.477 79.0049" stroke="#DBE8EC" stroke-width="3" stroke-miterlimit="10" stroke-linecap="round"/>
<path d="M77.1577 84.9941L86.4572 93.6916" stroke="#DBE8EC" stroke-width="3" stroke-miterlimit="10" stroke-linecap="round"/>
<path d="M86.6959 85.2632L76.9192 93.4224" stroke="#DBE8EC" stroke-width="3" stroke-miterlimit="10" stroke-linecap="round"/>
</g>
<path d="M165.084 131.266H136.523C136.375 131.266 136.231 131.229 136.102 131.157C135.973 131.086 135.865 130.982 135.788 130.857C135.711 130.732 135.666 130.59 135.66 130.443C135.653 130.296 135.684 130.15 135.75 130.018L150.031 92.8829C150.102 92.7397 150.213 92.6192 150.349 92.535C150.486 92.4508 150.643 92.4062 150.803 92.4062C150.964 92.4062 151.121 92.4508 151.257 92.535C151.394 92.6192 151.504 92.7397 151.576 92.8829L165.856 130.018C165.922 130.15 165.953 130.296 165.947 130.443C165.94 130.59 165.896 130.732 165.818 130.857C165.741 130.982 165.633 131.086 165.504 131.157C165.376 131.229 165.231 131.266 165.084 131.266Z" fill="#224971"/>
<path d="M168.823 127.373H132.784C131.338 127.373 130.167 128.542 130.167 129.985V131.427C130.167 132.87 131.338 134.04 132.784 134.04H168.823C170.268 134.04 171.44 132.87 171.44 131.427V129.985C171.44 128.542 170.268 127.373 168.823 127.373Z" fill="#F5F7FA"/>
<path d="M144.872 106.297L140.65 117.276H160.956L156.734 106.297H144.872Z" fill="#F5F7FA"/>
<path d="M132.124 32.0054H143.057" stroke="#224971" stroke-width="3" stroke-miterlimit="10" stroke-linecap="round"/>
<path d="M132.124 35.1514H143.057" stroke="#224971" stroke-width="3" stroke-miterlimit="10" stroke-linecap="round"/>
<path d="M132.124 38.2974H143.057" stroke="#224971" stroke-width="3" stroke-miterlimit="10" stroke-linecap="round"/>
<path d="M42.2212 98.8228H53.1545" stroke="#224971" stroke-width="3" stroke-miterlimit="10" stroke-linecap="round"/>
<path d="M42.2212 101.969H53.1545" stroke="#224971" stroke-width="3" stroke-miterlimit="10" stroke-linecap="round"/>
<path d="M42.2212 105.115H53.1545" stroke="#224971" stroke-width="3" stroke-miterlimit="10" stroke-linecap="round"/>
<path d="M176.103 90.6417C178.684 90.6417 180.776 88.553 180.776 85.9764C180.776 83.3998 178.684 81.311 176.103 81.311C173.522 81.311 171.429 83.3998 171.429 85.9764C171.429 88.553 173.522 90.6417 176.103 90.6417Z" fill="#B9D4DB"/>
<path d="M163.77 91.7625C165.109 91.7625 166.193 90.6794 166.193 89.3434C166.193 88.0074 165.109 86.9243 163.77 86.9243C162.432 86.9243 161.347 88.0074 161.347 89.3434C161.347 90.6794 162.432 91.7625 163.77 91.7625Z" fill="#B9D4DB"/>
<path d="M169.923 78.0166C171.835 78.0166 173.385 76.4694 173.385 74.5608C173.385 72.6522 171.835 71.105 169.923 71.105C168.012 71.105 166.462 72.6522 166.462 74.5608C166.462 76.4694 168.012 78.0166 169.923 78.0166Z" fill="#B9D4DB"/>
<path d="M57.7812 143.799C60.852 143.799 63.3414 141.314 63.3414 138.248C63.3414 135.182 60.852 132.697 57.7812 132.697C54.7104 132.697 52.2209 135.182 52.2209 138.248C52.2209 141.314 54.7104 143.799 57.7812 143.799Z" fill="#B9D4DB"/>
<path d="M46.4531 141.631C48.0527 141.631 49.3494 140.336 49.3494 138.739C49.3494 137.143 48.0527 135.848 46.4531 135.848C44.8536 135.848 43.5569 137.143 43.5569 138.739C43.5569 140.336 44.8536 141.631 46.4531 141.631Z" fill="#B9D4DB"/>
<path d="M45.0674 130.32C45.99 130.32 46.738 129.574 46.738 128.653C46.738 127.732 45.99 126.985 45.0674 126.985C44.1447 126.985 43.3967 127.732 43.3967 128.653C43.3967 129.574 44.1447 130.32 45.0674 130.32Z" fill="#B9D4DB"/>
<path d="M54.0454 130.141C56.2572 130.141 58.0503 128.351 58.0503 126.143C58.0503 123.935 56.2572 122.145 54.0454 122.145C51.8336 122.145 50.0405 123.935 50.0405 126.143C50.0405 128.351 51.8336 130.141 54.0454 130.141Z" fill="#B9D4DB"/>
<path d="M81.8562 50.3607C88.5299 50.3607 93.94 44.9597 93.94 38.2973C93.94 31.6349 88.5299 26.2339 81.8562 26.2339C75.1826 26.2339 69.7725 31.6349 69.7725 38.2973C69.7725 44.9597 75.1826 50.3607 81.8562 50.3607Z" fill="#224971"/>
<path d="M81.8562 30.3901H81.8562C81.5086 30.3901 81.2268 30.6714 81.2268 31.0184V40.9203C81.2268 41.2673 81.5086 41.5486 81.8562 41.5486C82.2038 41.5486 82.4855 41.2673 82.4855 40.9203V31.0184C82.4855 30.6714 82.2038 30.3901 81.8562 30.3901Z" fill="#F5F7FA"/>
<path d="M81.8562 46.2048C83.3748 46.2048 83.3774 43.8486 81.8562 43.8486C80.3376 43.8486 80.3351 46.2048 81.8562 46.2048Z" fill="#F5F7FA"/>
</svg>
