<svg width="24" height="24" viewBox="0 0 24 24" fill="none" xmlns="http://www.w3.org/2000/svg">
<path d="M11.5782 7.46844L12 8.13131L12.4218 7.46844C13.3796 5.9634 15.0701 5 17 5C20.0239 5 22.5 7.47614 22.5 10.5C22.5 11.8496 21.8788 13.2459 20.878 14.6106C19.8811 15.97 18.541 17.2522 17.1834 18.363C15.8282 19.4718 14.4706 20.3977 13.4503 21.0469C12.9407 21.3712 12.5164 21.6258 12.2204 21.7988C12.1366 21.8477 12.0632 21.8901 12.001 21.9257C11.9386 21.8898 11.865 21.847 11.781 21.7975C11.4848 21.6232 11.0605 21.3669 10.5508 21.0406C9.53042 20.3874 8.17254 19.4567 6.81714 18.3447C5.45927 17.2306 4.11886 15.9466 3.12172 14.5892C2.12048 13.2261 1.5 11.8362 1.5 10.5C1.5 7.47614 3.97614 5 7 5C8.92993 5 10.6204 5.9634 11.5782 7.46844Z" stroke="#224971"/>
</svg>
