<svg width="25" height="24" viewBox="0 0 25 24" fill="none" xmlns="http://www.w3.org/2000/svg">
<path fill-rule="evenodd" clip-rule="evenodd" d="M6.5 3C5.70435 3 4.94129 3.31607 4.37868 3.87868C3.81607 4.44129 3.5 5.20435 3.5 6V18C3.5 18.7956 3.81607 19.5587 4.37868 20.1213C4.94129 20.6839 5.70435 21 6.5 21H18.5C19.2956 21 20.0587 20.6839 20.6213 20.1213C21.1839 19.5587 21.5 18.7956 21.5 18V6C21.5 5.20435 21.1839 4.44129 20.6213 3.87868C20.0587 3.31607 19.2956 3 18.5 3H6.5ZM10.5 8C10.5 7.73478 10.6054 7.48043 10.7929 7.29289C10.9804 7.10536 11.2348 7 11.5 7H17.5C17.7652 7 18.0196 7.10536 18.2071 7.29289C18.3946 7.48043 18.5 7.73478 18.5 8C18.5 8.26522 18.3946 8.51957 18.2071 8.70711C18.0196 8.89464 17.7652 9 17.5 9H11.5C11.2348 9 10.9804 8.89464 10.7929 8.70711C10.6054 8.51957 10.5 8.26522 10.5 8ZM10.5 12C10.5 11.7348 10.6054 11.4804 10.7929 11.2929C10.9804 11.1054 11.2348 11 11.5 11H17.5C17.7652 11 18.0196 11.1054 18.2071 11.2929C18.3946 11.4804 18.5 11.7348 18.5 12C18.5 12.2652 18.3946 12.5196 18.2071 12.7071C18.0196 12.8946 17.7652 13 17.5 13H11.5C11.2348 13 10.9804 12.8946 10.7929 12.7071C10.6054 12.5196 10.5 12.2652 10.5 12ZM10.5 16C10.5 15.7348 10.6054 15.4804 10.7929 15.2929C10.9804 15.1054 11.2348 15 11.5 15H17.5C17.7652 15 18.0196 15.1054 18.2071 15.2929C18.3946 15.4804 18.5 15.7348 18.5 16C18.5 16.2652 18.3946 16.5196 18.2071 16.7071C18.0196 16.8946 17.7652 17 17.5 17H11.5C11.2348 17 10.9804 16.8946 10.7929 16.7071C10.6054 16.5196 10.5 16.2652 10.5 16ZM7.5 7C7.23478 7 6.98043 7.10536 6.79289 7.29289C6.60536 7.48043 6.5 7.73478 6.5 8C6.5 8.26522 6.60536 8.51957 6.79289 8.70711C6.98043 8.89464 7.23478 9 7.5 9C7.76522 9 8.02057 8.89464 8.20811 8.70711C8.39564 8.51957 8.501 8.26522 8.501 8C8.501 7.73478 8.39564 7.48043 8.20811 7.29289C8.02057 7.10536 7.76522 7 7.5 7ZM6.5 12C6.5 11.7348 6.60536 11.4804 6.79289 11.2929C6.98043 11.1054 7.23478 11 7.5 11C7.76522 11 8.02057 11.1054 8.20811 11.2929C8.39564 11.4804 8.501 11.7348 8.501 12C8.501 12.2652 8.39564 12.5196 8.20811 12.7071C8.02057 12.8946 7.76622 13 7.501 13C7.23578 13 6.98043 12.8946 6.79289 12.7071C6.60536 12.5196 6.5 12.2652 6.5 12ZM7.5 15C7.23478 15 6.98043 15.1054 6.79289 15.2929C6.60536 15.4804 6.5 15.7348 6.5 16C6.5 16.2652 6.60536 16.5196 6.79289 16.7071C6.98043 16.8946 7.23478 17 7.5 17C7.76522 17 8.02057 16.8946 8.20811 16.7071C8.39564 16.5196 8.501 16.2652 8.501 16C8.501 15.7348 8.39564 15.4804 8.20811 15.2929C8.02057 15.1054 7.76522 15 7.5 15Z" fill="#224971" fill-opacity="0.5"/>
</svg>
